<svg width="22" height="22" viewBox="0 0 22 22" fill="none" xmlns="http://www.w3.org/2000/svg">
<path d="M0.676758 4.96214V17.0164C0.676758 19.3831 2.59537 21.3018 4.96214 21.3018H17.0164C19.3831 21.3018 21.3018 19.3831 21.3018 17.0164V4.96214C21.3018 2.59537 19.3831 0.676758 17.0164 0.676758H4.96214C2.59537 0.676758 0.676758 2.59537 0.676758 4.96214ZM13.174 16.8331C8.08685 18.5883 3.39021 13.8917 5.14542 8.80452C5.73683 7.08997 7.08984 5.73683 8.8044 5.14542C13.8917 3.39021 18.5883 8.08685 16.8331 13.1741C16.2417 14.8887 14.8887 16.2417 13.174 16.8331ZM18.1459 4.75266C18.065 5.17652 17.7143 5.42313 17.3515 5.42313C17.1307 5.42313 16.9056 5.33199 16.7333 5.13422C16.718 5.11672 16.7038 5.09797 16.6912 5.07845C16.5133 4.80654 16.5078 4.48352 16.659 4.22155C16.766 4.03613 16.9387 3.90369 17.1455 3.8483C17.3521 3.79266 17.5681 3.82124 17.7533 3.92837C18.0154 4.07943 18.172 4.36204 18.1541 4.68607C18.1529 4.70823 18.1502 4.73076 18.1459 4.75266Z" fill="white"/>
<path d="M10.9892 5.97876C8.22631 5.97876 5.97876 8.22631 5.97876 10.9892C5.97876 13.7522 8.22631 15.9997 10.9892 15.9997C13.7522 15.9997 15.9997 13.7522 15.9997 10.9892C15.9997 8.22631 13.7522 5.97876 10.9892 5.97876Z" fill="white"/>
</svg>
