<svg width="30" height="16" viewBox="0 0 30 16" fill="none" xmlns="http://www.w3.org/2000/svg">
<path d="M0.937476 1.87495L29.0624 1.87495C29.58 1.87495 29.9999 1.45492 29.9999 0.937476C29.9999 0.419955 29.5799 0 29.0624 0L0.937476 0C0.419955 0 0 0.420033 0 0.937476C0 1.45492 0.420033 1.87495 0.937476 1.87495Z" fill="url(#paint0_linear)"/>
<path opacity="0.6" d="M29.1277 7L13.878 7C13.5847 7 13 7.44805 13 8C13 8.55195 13.5847 9 13.878 9L29.1277 9C29.421 9 30 8.55195 30 8C30 7.44805 29.421 7 29.1277 7Z" fill="url(#paint1_linear)"/>
<path d="M29.0622 14L0.937475 14C0.419954 14 0 14.42 0 14.9375C0 15.455 0.420032 15.8749 0.937475 15.8749L29.0622 15.875C29.5797 15.875 29.9997 15.4549 29.9997 14.9375C29.9998 14.42 29.5797 14 29.0622 14Z" fill="url(#paint2_linear)"/>
<defs>
<linearGradient id="paint0_linear" x1="6.59632" y1="0.0221731" x2="7.24632" y2="4.77759" gradientUnits="userSpaceOnUse">
<stop stop-color="#304587"/>
<stop offset="1" stop-color="#233670"/>
</linearGradient>
<linearGradient id="paint1_linear" x1="16.7379" y1="7.02365" x2="17.9849" y2="11.8701" gradientUnits="userSpaceOnUse">
<stop stop-color="#304587"/>
<stop offset="1" stop-color="#233670"/>
</linearGradient>
<linearGradient id="paint2_linear" x1="6.59626" y1="14.0222" x2="7.24627" y2="18.7776" gradientUnits="userSpaceOnUse">
<stop stop-color="#304587"/>
<stop offset="1" stop-color="#233670"/>
</linearGradient>
</defs>
</svg>
