<svg width="68" height="68" viewBox="0 0 68 68" fill="none" xmlns="http://www.w3.org/2000/svg">
<rect width="68" height="68" rx="34" fill="white"/>
<g clip-path="url(#clip0)">
<path d="M46.892 26.1781L34.1789 20.0408C34.0662 19.9864 33.9349 19.9864 33.8223 20.0408L21.1091 26.1781C20.9674 26.2465 20.8773 26.3901 20.8773 26.5475V41.4525C20.8773 41.6099 20.9674 41.7535 21.1091 41.8219L33.8222 47.9592C33.8786 47.9864 33.9396 48 34.0006 48C34.0615 48 34.1225 47.9864 34.1789 47.9592L46.892 41.8219C47.0337 41.7535 47.1238 41.6099 47.1238 41.4525V26.5475C47.1238 26.39 47.0337 26.2466 46.892 26.1781ZM34.0006 20.8656L45.7702 26.5475L42.3585 28.1946C42.3369 28.1781 42.3141 28.1629 42.289 28.1508L30.5993 22.5076L34.0006 20.8656ZM29.673 22.9714L41.4255 28.645L39.0185 29.807L27.2708 24.1357L29.673 22.9714ZM41.7005 29.4231V33.7186L39.4521 34.804V30.5085L41.7005 29.4231ZM46.3035 41.1952L34.4107 46.9364V32.9423L37.2475 31.5728C37.4515 31.4743 37.537 31.2291 37.4386 31.0251C37.3401 30.8212 37.0949 30.7355 36.8909 30.8341L34.0006 32.2294L32.8633 31.6803C32.6592 31.5817 32.4141 31.6674 32.3156 31.8714C32.2171 32.0754 32.3026 32.3206 32.5066 32.4191L33.5904 32.9423V46.9364L21.6976 41.195V27.2009L30.7539 31.5729C30.8114 31.6007 30.8721 31.6138 30.9319 31.6138C31.0844 31.6138 31.2308 31.5284 31.3015 31.3819C31.4 31.1779 31.3145 30.9327 31.1105 30.8342L22.2309 26.5475L26.3054 24.5805L38.6261 30.5285C38.628 30.531 38.63 30.5332 38.6318 30.5357V35.4575C38.6318 35.5987 38.7044 35.7298 38.824 35.8049C38.8903 35.8466 38.9661 35.8677 39.042 35.8677C39.1029 35.8677 39.1638 35.8542 39.2203 35.8269L42.289 34.3454C42.4308 34.277 42.5208 34.1335 42.5208 33.9761V29.0271L46.3035 27.201V41.1952Z" fill="url(#paint0_linear)"/>
<path d="M25.0814 39.6043L23.2158 38.7037C23.0117 38.6051 22.7666 38.6907 22.6681 38.8947C22.5696 39.0987 22.6551 39.3439 22.8591 39.4424L24.7248 40.343C24.7823 40.3708 24.843 40.3839 24.9028 40.3839C25.0553 40.3839 25.2017 40.2985 25.2724 40.152C25.371 39.948 25.2854 39.7029 25.0814 39.6043Z" fill="url(#paint1_linear)"/>
<path d="M26.7988 38.4866L23.2187 36.7583C23.0146 36.6598 22.7695 36.7453 22.671 36.9494C22.5725 37.1534 22.6581 37.3986 22.8621 37.4971L26.4422 39.2254C26.4997 39.2531 26.5604 39.2663 26.6202 39.2663C26.7727 39.2663 26.9191 39.1809 26.9898 39.0344C27.0883 38.8303 27.0028 38.5851 26.7988 38.4866Z" fill="url(#paint2_linear)"/>
</g>
<path d="M61.0293 45.8227C60.794 45.0826 60.2896 44.4771 59.5836 44.107C58.1715 43.367 56.3896 43.9388 55.6499 45.3518C55.2801 46.0582 55.2129 46.8319 55.4482 47.6057C55.6835 48.3458 56.1879 48.9513 56.8939 49.3213C57.3982 49.5905 57.9698 49.6914 58.5413 49.6577C59.5164 49.5568 60.3905 48.9849 60.8612 48.1103C61.1974 47.3702 61.2647 46.5628 61.0293 45.8227Z" fill="#93C01F"/>
<path d="M53.1639 50.6333H53.1303C52.3906 50.6333 51.651 50.9361 51.113 51.4743C50.5415 52.0126 50.2389 52.7527 50.2389 53.5264C50.2389 54.3001 50.5415 55.0402 51.0794 55.6121C51.7182 56.2513 52.5587 56.554 53.4665 56.4868C54.1389 56.4195 54.7441 56.1167 55.2148 55.6794C55.7864 55.1411 56.089 54.3674 56.089 53.5937C56.089 52.8199 55.7864 52.0798 55.2484 51.508C54.6769 50.9361 53.9372 50.6333 53.1639 50.6333Z" fill="#93C01F"/>
<path d="M44.9243 55.8807C44.1846 56.2508 43.6803 56.8563 43.4113 57.5964C43.176 58.3365 43.2096 59.1438 43.5794 59.8503C43.9156 60.5568 44.5208 61.095 45.2941 61.3305C45.6975 61.465 46.101 61.4987 46.5045 61.465C46.8743 61.4314 47.2105 61.3305 47.5131 61.1623C48.2191 60.8259 48.7571 60.1867 48.9924 59.4466C49.2278 58.7065 49.1605 57.8991 48.8243 57.2263C48.0846 55.7461 46.3363 55.1743 44.9243 55.8807Z" fill="#FFEC00"/>
<path d="M39.7784 58.7069C39.1396 58.2695 38.3999 58.0677 37.6266 58.1686C36.0128 58.4041 34.9369 59.9179 35.1723 61.499C35.4076 63.0465 36.8197 64.123 38.3663 63.9884C38.3999 63.9884 38.4671 63.9884 38.5008 63.9548C39.274 63.8539 39.9801 63.4165 40.4508 62.7774C40.9215 62.1382 41.0896 61.3645 40.9887 60.5907C40.8206 59.8506 40.4172 59.1442 39.7784 58.7069Z" fill="#FFEC00"/>
<path d="M30.166 58.1352C29.3927 58.0006 28.6194 58.2025 27.9806 58.6398C27.3418 59.1108 26.9384 59.7836 26.8039 60.5573C26.6694 61.3311 26.8711 62.1048 27.3082 62.744C27.7789 63.3831 28.4513 63.7868 29.2246 63.9214C29.4936 63.955 29.7289 63.955 29.9979 63.955C30.5358 63.8877 31.0065 63.7195 31.4436 63.4168C32.0824 62.9458 32.4858 62.273 32.6203 61.4993C32.8221 59.9182 31.7462 58.4043 30.166 58.1352Z" fill="#FFEC00"/>
<path d="M24.1812 57.3948C23.9459 56.6547 23.4415 56.0491 22.7355 55.7127C22.0295 55.3427 21.2562 55.2754 20.4829 55.5109C19.7432 55.7464 19.138 56.251 18.7682 56.9574C18.3984 57.6639 18.3311 58.4376 18.5665 59.2114C18.8018 59.9515 19.3061 60.557 20.0122 60.927C20.5165 61.1961 21.0881 61.2971 21.6596 61.2298C21.8614 61.1962 22.0631 61.1625 22.2648 61.0952C23.0045 60.8597 23.6096 60.3215 23.9459 59.6487C24.3829 58.9422 24.4502 58.1685 24.1812 57.3948Z" fill="#FFEC00"/>
<path d="M14.5307 50.3303C13.7575 50.3303 13.0178 50.6331 12.4799 51.1713C11.9083 51.7432 11.6057 52.4833 11.6057 53.257C11.6057 54.0308 11.9083 54.7709 12.4462 55.3091C12.9842 55.881 13.7575 56.1838 14.5644 56.1838C14.6652 56.1838 14.7325 56.1838 14.8333 56.1838C15.5058 56.1165 16.1446 55.8137 16.6153 55.3428C17.7584 54.199 17.7584 52.3488 16.6153 51.205C16.0773 50.6331 15.3377 50.3303 14.5307 50.3303Z" fill="#F29100"/>
<path d="M12.1797 45.0151C11.8099 44.3087 11.2047 43.804 10.465 43.5349C9.72537 43.2994 8.91847 43.3667 8.21242 43.7031C7.50638 44.0395 7.00206 44.6451 6.7331 45.4188C6.49775 46.1589 6.53137 46.9663 6.9012 47.6391C7.23741 48.3455 7.87621 48.8838 8.61588 49.1193C8.98571 49.2538 9.38916 49.2875 9.79261 49.2538C10.1624 49.2202 10.5323 49.1193 10.8349 48.9511C12.3142 48.211 12.8858 46.4617 12.1797 45.0151Z" fill="#F29100"/>
<path d="M7.40371 41.1126C8.9839 40.8435 10.0934 39.3633 9.82443 37.7822C9.72357 36.9748 9.32011 36.302 8.68131 35.8311C8.04251 35.3601 7.26923 35.1919 6.49594 35.2928C5.72266 35.4274 5.01661 35.8311 4.57954 36.4702C4.10884 37.1094 3.94074 37.8831 4.07522 38.6232C4.20971 39.397 4.61316 40.1034 5.25196 40.5744C5.82352 40.9781 6.52956 41.1799 7.23561 41.1126C7.30285 41.1126 7.37009 41.1126 7.40371 41.1126Z" fill="#F29100"/>
<path d="M6.49524 32.5686C6.76421 32.6022 6.99956 32.6359 7.2349 32.6022C7.77284 32.5349 8.24354 32.3667 8.68061 32.0303C9.28579 31.5594 9.72286 30.8866 9.82373 30.1128C10.0927 28.5317 8.9832 27.0179 7.40301 26.7488C5.82282 26.4796 4.30987 27.5898 4.0409 29.1709C3.90642 29.9446 4.10814 30.752 4.57884 31.3912C5.04953 32.064 5.75558 32.4677 6.49524 32.5686Z" fill="#F29100"/>
<path d="M8.27817 24.1583C8.78249 24.3938 9.32042 24.5284 9.89198 24.4611C10.9006 24.3602 11.7748 23.7547 12.2118 22.88L12.2455 22.8464C12.9515 21.3998 12.3799 19.6841 10.9342 18.9441C9.48853 18.204 7.74023 18.7759 7.00057 20.2224C6.63073 20.9288 6.59711 21.7362 6.83246 22.4763C7.06781 23.2164 7.60575 23.8219 8.27817 24.1583Z" fill="#E5332A"/>
<path d="M14.9018 17.5639C15.5742 17.4966 16.213 17.1939 16.6837 16.7229C17.2553 16.151 17.5579 15.4446 17.5579 14.6372C17.5579 13.8634 17.2553 13.1234 16.6837 12.5515C16.1458 12.0132 15.4061 11.7104 14.6328 11.7104C13.8596 11.7104 13.1199 12.0132 12.5483 12.5851C12.0104 13.1234 11.6742 13.8971 11.6742 14.7045C11.6742 15.4782 11.9768 16.2183 12.5483 16.7565C13.1871 17.3284 14.0277 17.6312 14.9018 17.5639Z" fill="#E5332A"/>
<path d="M22.8668 12.2157C23.5729 11.8457 24.0772 11.2401 24.3126 10.5C24.5479 9.75994 24.4807 8.95256 24.1445 8.24611C23.7746 7.5733 23.1694 7.03505 22.4298 6.79957C21.6901 6.56408 20.8832 6.63136 20.1772 6.96777C19.4711 7.33782 18.9332 7.94335 18.6978 8.71708C18.4625 9.45717 18.5297 10.2645 18.8996 10.9374C19.2694 11.6438 19.8746 12.1484 20.6142 12.3839C20.9841 12.5185 21.3875 12.5521 21.791 12.5185C22.1944 12.4848 22.5306 12.3839 22.8668 12.2157Z" fill="#E5332A"/>
<path d="M32.5181 6.49627C32.3836 5.72254 31.9801 5.04973 31.3413 4.57876C30.7025 4.10779 29.9293 3.93959 29.156 4.07415C28.3827 4.20871 27.6766 4.64604 27.2396 5.28521C26.7689 5.92438 26.6008 6.69811 26.7353 7.47185C26.9706 8.98567 28.3827 10.0622 29.9293 9.92761C29.9965 9.92761 30.0637 9.92761 30.0974 9.89397C31.7112 9.5912 32.7871 8.07738 32.5181 6.49627Z" fill="#E5332A"/>
<path d="M41.1919 7.37134C41.4272 5.79023 40.3514 4.27641 38.7376 4.04092C37.9643 3.90636 37.1574 4.1082 36.5522 4.57917C35.9134 5.05014 35.5099 5.72295 35.4091 6.49668C35.1737 8.07779 36.2832 9.59162 37.8634 9.8271C38.0988 9.86074 38.3677 9.86074 38.6031 9.86074C39.9143 9.72618 40.9902 8.71696 41.1919 7.37134Z" fill="#D9D9D9"/>
<path d="M48.9285 10.8363C49.6682 9.38975 49.063 7.64045 47.6173 6.90035L47.5837 6.86671C46.8776 6.53031 46.0707 6.49667 45.3647 6.73215C44.625 6.96764 44.0198 7.50588 43.6836 8.21234C42.9776 9.65888 43.5491 11.4082 44.9948 12.1483C45.4991 12.3838 46.0371 12.5183 46.6086 12.451C47.5836 12.3501 48.4578 11.7446 48.9285 10.8363Z" fill="#D9D9D9"/>
<path d="M53.532 17.4298C54.2044 17.3625 54.8432 17.0597 55.3139 16.5888C56.457 15.445 56.4234 13.5948 55.2803 12.451C54.7087 11.9127 53.9691 11.5763 53.1622 11.61C52.3889 11.61 51.6492 11.9464 51.1113 12.4846C50.0018 13.6284 50.0018 15.4786 51.1449 16.6224C51.8173 17.2279 52.6579 17.5307 53.532 17.4298Z" fill="#D9D9D9"/>
<path d="M55.717 22.7451C56.2885 23.8216 57.398 24.4272 58.6084 24.3262C58.9782 24.2926 59.3481 24.1917 59.6843 24.0235C61.13 23.2834 61.6679 21.5004 60.9282 20.0539C60.5584 19.3474 59.9196 18.8428 59.18 18.6073C58.4403 18.3719 57.6334 18.4391 56.961 18.8092C55.5153 19.5493 54.9773 21.2986 55.717 22.7451Z" fill="#D9D9D9"/>
<path d="M63.8861 29.0027C63.7516 28.229 63.3145 27.5225 62.6757 27.0852C62.0369 26.6478 61.2636 26.446 60.4903 26.6142C59.7171 26.7488 59.0446 27.1861 58.5739 27.8253C58.1369 28.4644 57.9688 29.2382 58.0696 29.9783C58.2041 30.752 58.6076 31.4248 59.2464 31.8958C59.8179 32.2995 60.524 32.5013 61.23 32.434C61.2973 32.434 61.3645 32.434 61.4317 32.4004C62.205 32.2658 62.8774 31.8285 63.3481 31.1893C63.8525 30.5501 64.0206 29.7764 63.8861 29.0027Z" fill="#93C01F"/>
<path d="M63.3822 36.5378C62.9115 35.8986 62.2391 35.495 61.4658 35.394C59.8856 35.1586 58.4063 36.2687 58.171 37.8834C58.0701 38.6572 58.2382 39.4309 58.7089 40.0701C59.1796 40.7092 59.852 41.1129 60.6589 41.2139C60.8943 41.2475 61.1296 41.2475 61.365 41.2139C62.7098 41.0793 63.7857 40.0701 63.9874 38.7245C64.0547 37.9844 63.8529 37.177 63.3822 36.5378Z" fill="#93C01F"/>
<defs>
<linearGradient id="paint0_linear" x1="26.6483" y1="20.3311" x2="52.8428" y2="31.5582" gradientUnits="userSpaceOnUse">
<stop stop-color="#304587"/>
<stop offset="1" stop-color="#233670"/>
</linearGradient>
<linearGradient id="paint1_linear" x1="23.2178" y1="38.6831" x2="25.3205" y2="40.1835" gradientUnits="userSpaceOnUse">
<stop stop-color="#304587"/>
<stop offset="1" stop-color="#233670"/>
</linearGradient>
<linearGradient id="paint2_linear" x1="23.5977" y1="36.7476" x2="26.8005" y2="39.2759" gradientUnits="userSpaceOnUse">
<stop stop-color="#304587"/>
<stop offset="1" stop-color="#233670"/>
</linearGradient>
<clipPath id="clip0">
<rect width="28" height="28" fill="white" transform="translate(20 20)"/>
</clipPath>
</defs>
</svg>
