<svg width="30" height="30" viewBox="0 0 30 30" fill="none" xmlns="http://www.w3.org/2000/svg">
<rect width="30" height="30" rx="15" fill="#93C01F"/>
<path d="M13.906 16.626C13.906 16.002 14.044 15.486 14.32 15.078C14.608 14.67 15.022 14.22 15.562 13.728C15.958 13.368 16.246 13.068 16.426 12.828C16.618 12.576 16.714 12.294 16.714 11.982C16.714 11.538 16.534 11.19 16.174 10.938C15.826 10.674 15.358 10.542 14.77 10.542C14.206 10.542 13.702 10.662 13.258 10.902C12.826 11.13 12.46 11.454 12.16 11.874L9.982 10.596C10.486 9.828 11.164 9.234 12.016 8.814C12.88 8.394 13.9 8.184 15.076 8.184C16.456 8.184 17.56 8.478 18.388 9.066C19.228 9.654 19.648 10.47 19.648 11.514C19.648 12.006 19.564 12.438 19.396 12.81C19.24 13.182 19.042 13.5 18.802 13.764C18.574 14.016 18.274 14.31 17.902 14.646C17.458 15.042 17.134 15.378 16.93 15.654C16.726 15.918 16.624 16.242 16.624 16.626H13.906ZM15.274 21.144C14.782 21.144 14.368 20.988 14.032 20.676C13.708 20.352 13.546 19.962 13.546 19.506C13.546 19.05 13.708 18.672 14.032 18.372C14.356 18.06 14.77 17.904 15.274 17.904C15.778 17.904 16.192 18.06 16.516 18.372C16.84 18.672 17.002 19.05 17.002 19.506C17.002 19.962 16.834 20.352 16.498 20.676C16.174 20.988 15.766 21.144 15.274 21.144Z" fill="white"/>
</svg>
