<svg width="40" height="129" viewBox="0 0 40 129" fill="none" xmlns="http://www.w3.org/2000/svg">
<circle opacity="0.1" cx="20" cy="109" r="20" fill="#233670"/>
<path d="M20 97C15.5887 97 12 100.587 12 104.996V113.004C12 117.413 15.5887 121 20 121C24.4113 121 28 117.413 28 113.004V104.996C28 100.587 24.4112 97 20 97ZM27.1111 113.004C27.1111 116.923 23.9211 120.111 20 120.111C16.0789 120.111 12.8889 116.923 12.8889 113.004V104.996C12.8889 101.077 16.0789 97.8889 20 97.8889C23.9211 97.8889 27.1111 101.077 27.1111 104.996V113.004Z" fill="#233670"/>
<path d="M19.9999 99.6665C19.7545 99.6665 19.5554 99.8653 19.5554 100.111V104.136C19.5554 104.381 19.7545 104.58 19.9999 104.58C20.2454 104.58 20.4444 104.381 20.4444 104.136V100.111C20.4443 99.8653 20.2454 99.6665 19.9999 99.6665Z" fill="#233670"/>
<path d="M24.06 66.12C24.06 66.632 23.988 67.124 23.844 67.596C23.692 68.06 23.504 68.424 23.28 68.688L22.608 68.304C22.816 68.04 22.988 67.708 23.124 67.308C23.252 66.908 23.316 66.492 23.316 66.06C23.316 65.484 23.228 65.06 23.052 64.788C22.868 64.508 22.612 64.368 22.284 64.368C22.052 64.368 21.872 64.444 21.744 64.596C21.608 64.748 21.508 64.94 21.444 65.172C21.372 65.404 21.304 65.712 21.24 66.096C21.144 66.608 21.048 67.02 20.952 67.332C20.848 67.644 20.676 67.912 20.436 68.136C20.196 68.352 19.864 68.46 19.44 68.46C18.912 68.46 18.48 68.24 18.144 67.8C17.808 67.36 17.64 66.748 17.64 65.964C17.64 65.556 17.696 65.148 17.808 64.74C17.912 64.332 18.052 63.996 18.228 63.732L18.912 64.104C18.552 64.624 18.372 65.244 18.372 65.964C18.372 66.508 18.468 66.92 18.66 67.2C18.852 67.472 19.104 67.608 19.416 67.608C19.656 67.608 19.848 67.532 19.992 67.38C20.136 67.22 20.244 67.024 20.316 66.792C20.38 66.56 20.448 66.24 20.52 65.832C20.616 65.328 20.712 64.924 20.808 64.62C20.904 64.316 21.068 64.056 21.3 63.84C21.532 63.624 21.852 63.516 22.26 63.516C22.812 63.516 23.252 63.748 23.58 64.212C23.9 64.668 24.06 65.304 24.06 66.12ZM24.06 59.3249C24.06 59.9489 23.924 60.5089 23.652 61.0049C23.38 61.4929 23 61.8769 22.512 62.1569C22.016 62.4369 21.46 62.5769 20.844 62.5769C20.228 62.5769 19.676 62.4369 19.188 62.1569C18.7 61.8769 18.32 61.4929 18.048 61.0049C17.776 60.5089 17.64 59.9489 17.64 59.3249C17.64 58.7809 17.748 58.2969 17.964 57.8729C18.172 57.4409 18.48 57.1009 18.888 56.8529L19.32 57.4889C19.008 57.6969 18.776 57.9609 18.624 58.2809C18.464 58.6009 18.384 58.9489 18.384 59.3249C18.384 59.7809 18.488 60.1929 18.696 60.5609C18.896 60.9209 19.184 61.2049 19.56 61.4129C19.936 61.6129 20.364 61.7129 20.844 61.7129C21.332 61.7129 21.764 61.6129 22.14 61.4129C22.508 61.2049 22.796 60.9209 23.004 60.5609C23.204 60.1929 23.304 59.7809 23.304 59.3249C23.304 58.9489 23.228 58.6009 23.076 58.2809C22.924 57.9609 22.692 57.6969 22.38 57.4889L22.812 56.8529C23.22 57.1009 23.532 57.4409 23.748 57.8729C23.956 58.3049 24.06 58.7889 24.06 59.3249ZM18.924 54.3632C18.5 54.1632 18.18 53.8672 17.964 53.4752C17.748 53.0752 17.64 52.5832 17.64 51.9992L18.468 51.9992L18.456 52.2032C18.456 52.8672 18.66 53.3872 19.068 53.7632C19.476 54.1392 20.048 54.3272 20.784 54.3272L24 54.3272L24 55.1792L17.688 55.1792L17.688 54.3632L18.924 54.3632ZM24.06 47.9351C24.06 48.5431 23.924 49.0911 23.652 49.5791C23.372 50.0671 22.988 50.4511 22.5 50.7311C22.012 51.0111 21.46 51.1511 20.844 51.1511C20.228 51.1511 19.676 51.0111 19.188 50.7311C18.7 50.4511 18.32 50.0671 18.048 49.5791C17.776 49.0911 17.64 48.5431 17.64 47.9351C17.64 47.3271 17.776 46.7791 18.048 46.2911C18.32 45.8031 18.7 45.4231 19.188 45.1511C19.676 44.8711 20.228 44.7311 20.844 44.7311C21.46 44.7311 22.012 44.8711 22.5 45.1511C22.988 45.4231 23.372 45.8031 23.652 46.2911C23.924 46.7791 24.06 47.3271 24.06 47.9351ZM23.304 47.9351C23.304 47.4871 23.204 47.0871 23.004 46.7351C22.796 46.3751 22.504 46.0951 22.128 45.8951C21.752 45.6951 21.324 45.5951 20.844 45.5951C20.364 45.5951 19.936 45.6951 19.56 45.8951C19.184 46.0951 18.896 46.3751 18.696 46.7351C18.488 47.0871 18.384 47.4871 18.384 47.9351C18.384 48.3831 18.488 48.7871 18.696 49.1471C18.896 49.4991 19.184 49.7791 19.56 49.9871C19.936 50.1871 20.364 50.2871 20.844 50.2871C21.324 50.2871 21.752 50.1871 22.128 49.9871C22.504 49.7791 22.796 49.4991 23.004 49.1471C23.204 48.7871 23.304 48.3831 23.304 47.9351ZM15.096 42.9917L15.096 42.1397L24 42.1397L24 42.9917L15.096 42.9917ZM15.096 39.769L15.096 38.917L24 38.917L24 39.769L15.096 39.769ZM15.096 27.6457L24 27.6457L24 28.4617L22.752 28.4617C23.176 28.7177 23.5 29.0577 23.724 29.4817C23.948 29.8977 24.06 30.3697 24.06 30.8977C24.06 31.4897 23.924 32.0257 23.652 32.5057C23.38 32.9857 23 33.3617 22.512 33.6337C22.024 33.9057 21.468 34.0417 20.844 34.0417C20.22 34.0417 19.664 33.9057 19.176 33.6337C18.688 33.3617 18.312 32.9857 18.048 32.5057C17.776 32.0257 17.64 31.4897 17.64 30.8977C17.64 30.3857 17.748 29.9257 17.964 29.5177C18.172 29.1017 18.48 28.7617 18.888 28.4977L15.096 28.4977L15.096 27.6457ZM23.304 30.8257C23.304 30.3857 23.204 29.9897 23.004 29.6377C22.796 29.2777 22.504 28.9977 22.128 28.7977C21.752 28.5897 21.324 28.4857 20.844 28.4857C20.364 28.4857 19.936 28.5897 19.56 28.7977C19.184 28.9977 18.896 29.2777 18.696 29.6377C18.488 29.9897 18.384 30.3857 18.384 30.8257C18.384 31.2737 18.488 31.6777 18.696 32.0377C18.896 32.3897 19.184 32.6697 19.56 32.8777C19.936 33.0777 20.364 33.1777 20.844 33.1777C21.324 33.1777 21.752 33.0777 22.128 32.8777C22.504 32.6697 22.796 32.3897 23.004 32.0377C23.204 31.6777 23.304 31.2737 23.304 30.8257ZM24.06 22.6929C24.06 23.3009 23.924 23.8489 23.652 24.3369C23.372 24.8249 22.988 25.2089 22.5 25.4889C22.012 25.7689 21.46 25.9089 20.844 25.9089C20.228 25.9089 19.676 25.7689 19.188 25.4889C18.7 25.2089 18.32 24.8249 18.048 24.3369C17.776 23.8489 17.64 23.3009 17.64 22.6929C17.64 22.0849 17.776 21.5369 18.048 21.0489C18.32 20.5609 18.7 20.1809 19.188 19.9089C19.676 19.6289 20.228 19.4889 20.844 19.4889C21.46 19.4889 22.012 19.6289 22.5 19.9089C22.988 20.1809 23.372 20.5609 23.652 21.0489C23.924 21.5369 24.06 22.0849 24.06 22.6929ZM23.304 22.6929C23.304 22.2449 23.204 21.8449 23.004 21.4929C22.796 21.1329 22.504 20.8529 22.128 20.6529C21.752 20.4529 21.324 20.3529 20.844 20.3529C20.364 20.3529 19.936 20.4529 19.56 20.6529C19.184 20.8529 18.896 21.1329 18.696 21.4929C18.488 21.8449 18.384 22.2449 18.384 22.6929C18.384 23.1409 18.488 23.5449 18.696 23.9049C18.896 24.2569 19.184 24.5369 19.56 24.7449C19.936 24.9449 20.364 25.0449 20.844 25.0449C21.324 25.0449 21.752 24.9449 22.128 24.7449C22.504 24.5369 22.796 24.2569 23.004 23.9049C23.204 23.5449 23.304 23.1409 23.304 22.6929ZM17.688 8.66128L24 11.0493L24 11.8533L18.828 13.8453L24 15.8373L24 16.6413L17.688 19.0173L17.688 18.2013L23.052 16.2213L17.688 14.1933L17.688 13.4613L23.052 11.4453L17.688 9.44128L17.688 8.66128ZM17.64 4.16241C17.64 3.37041 17.872 2.74241 18.336 2.27841C18.792 1.80641 19.46 1.57041 20.34 1.57041L24 1.57041L24 2.42241L20.424 2.42241C19.768 2.42241 19.268 2.58641 18.924 2.91441C18.58 3.24241 18.408 3.71041 18.408 4.31841C18.408 4.99841 18.612 5.53841 19.02 5.93841C19.42 6.33041 19.976 6.52641 20.688 6.52641L24 6.52641L24 7.37841L17.688 7.37841L17.688 6.56241L18.852 6.56241C18.468 6.33041 18.172 6.01041 17.964 5.60241C17.748 5.18641 17.64 4.70641 17.64 4.16241Z" fill="#233670"/>
</svg>
