<svg width="490" height="490" viewBox="0 0 490 490" fill="none" xmlns="http://www.w3.org/2000/svg">
<circle cx="235" cy="235" r="235" fill="#FCED4E"/>
<path d="M479.105 423.35C478.242 420.636 476.393 418.416 473.804 417.059C468.627 414.345 462.093 416.442 459.381 421.623C458.025 424.213 457.778 427.05 458.641 429.887C459.504 432.601 461.353 434.821 463.942 436.178C465.791 437.165 467.887 437.535 469.983 437.411C473.558 437.041 476.763 434.944 478.489 431.737C479.722 429.024 479.968 426.063 479.105 423.35Z" fill="#93C01F"/>
<path d="M450.258 440.989H450.135C447.423 440.989 444.711 442.099 442.738 444.073C440.643 446.046 439.533 448.76 439.533 451.597C439.533 454.434 440.643 457.148 442.615 459.245C444.957 461.588 448.039 462.698 451.368 462.452C453.833 462.205 456.052 461.095 457.778 459.491C459.874 457.518 460.983 454.681 460.983 451.844C460.983 449.007 459.874 446.293 457.902 444.196C455.806 442.099 453.094 440.989 450.258 440.989Z" fill="#93C01F"/>
<path d="M420.056 460.232C417.343 461.588 415.494 463.809 414.508 466.522C413.645 469.236 413.768 472.196 415.125 474.787C416.357 477.377 418.576 479.351 421.412 480.214C422.891 480.708 424.37 480.831 425.85 480.708C427.206 480.584 428.438 480.214 429.548 479.597C432.137 478.364 434.109 476.02 434.972 473.307C435.835 470.593 435.588 467.633 434.356 465.166C431.644 459.738 425.233 457.641 420.056 460.232Z" fill="#FFEC00"/>
<path d="M401.193 470.592C398.851 468.989 396.138 468.249 393.303 468.619C387.386 469.482 383.441 475.033 384.304 480.83C385.167 486.504 390.344 490.452 396.015 489.958C396.138 489.958 396.385 489.958 396.508 489.835C399.344 489.465 401.932 487.861 403.658 485.518C405.384 483.174 406.001 480.337 405.631 477.5C405.014 474.786 403.535 472.196 401.193 470.592Z" fill="#FFEC00"/>
<path d="M365.937 468.496C363.101 468.002 360.266 468.743 357.924 470.346C355.581 472.073 354.102 474.54 353.609 477.377C353.116 480.214 353.856 483.051 355.458 485.395C357.184 487.738 359.65 489.219 362.485 489.712C363.471 489.835 364.334 489.835 365.32 489.835C367.293 489.589 369.019 488.972 370.621 487.862C372.964 486.135 374.443 483.668 374.936 480.831C375.676 475.033 371.731 469.483 365.937 468.496Z" fill="#FFEC00"/>
<path d="M343.993 465.782C343.13 463.068 341.281 460.848 338.692 459.614C336.103 458.258 333.268 458.011 330.433 458.874C327.72 459.738 325.501 461.588 324.145 464.178C322.789 466.769 322.543 469.606 323.406 472.443C324.269 475.156 326.118 477.377 328.707 478.733C330.556 479.72 332.652 480.09 334.747 479.844C335.487 479.72 336.227 479.597 336.966 479.35C339.678 478.487 341.897 476.513 343.13 474.046C344.733 471.456 344.979 468.619 343.993 465.782Z" fill="#FFEC00"/>
<path d="M308.612 439.879C305.776 439.879 303.064 440.989 301.092 442.963C298.996 445.06 297.887 447.773 297.887 450.61C297.887 453.447 298.996 456.161 300.969 458.135C302.941 460.232 305.776 461.342 308.735 461.342C309.105 461.342 309.352 461.342 309.721 461.342C312.187 461.095 314.529 459.985 316.255 458.258C320.446 454.064 320.446 447.28 316.255 443.086C314.283 440.989 311.57 439.879 308.612 439.879Z" fill="#F29100"/>
<path d="M299.983 420.389C298.627 417.799 296.408 415.949 293.696 414.962C290.984 414.098 288.025 414.345 285.436 415.579C282.847 416.812 280.998 419.032 280.012 421.869C279.149 424.583 279.272 427.543 280.628 430.01C281.861 432.601 284.203 434.574 286.916 435.438C288.272 435.931 289.751 436.055 291.23 435.931C292.586 435.808 293.942 435.438 295.052 434.821C300.476 432.107 302.572 425.693 299.983 420.389Z" fill="#F29100"/>
<path d="M282.479 406.081C288.273 405.094 292.341 399.667 291.355 393.869C290.985 390.909 289.506 388.442 287.164 386.715C284.821 384.988 281.986 384.371 279.151 384.741C276.315 385.235 273.726 386.715 272.124 389.059C270.398 391.402 269.782 394.239 270.275 396.953C270.768 399.79 272.247 402.38 274.589 404.107C276.685 405.587 279.274 406.328 281.863 406.081C282.109 406.081 282.356 406.081 282.479 406.081Z" fill="#F29100"/>
<path d="M279.149 374.75C280.135 374.874 280.998 374.997 281.861 374.874C283.834 374.627 285.56 374.01 287.162 372.777C289.381 371.05 290.984 368.583 291.354 365.746C292.34 359.948 288.272 354.398 282.478 353.411C276.684 352.424 271.136 356.495 270.15 362.292C269.657 365.129 270.397 368.089 272.122 370.433C273.848 372.9 276.437 374.38 279.149 374.75Z" fill="#F29100"/>
<path d="M285.683 343.913C287.532 344.776 289.505 345.27 291.6 345.023C295.299 344.653 298.504 342.433 300.107 339.226L300.23 339.102C302.819 333.798 300.723 327.507 295.422 324.794C290.121 322.08 283.711 324.177 280.999 329.481C279.642 332.071 279.519 335.032 280.382 337.745C281.245 340.459 283.218 342.679 285.683 343.913Z" fill="#E5332A"/>
<path d="M309.969 319.737C312.435 319.49 314.777 318.38 316.503 316.653C318.599 314.556 319.708 311.966 319.708 309.005C319.708 306.168 318.599 303.455 316.503 301.358C314.531 299.384 311.819 298.274 308.983 298.274C306.148 298.274 303.436 299.384 301.34 301.481C299.368 303.455 298.135 306.292 298.135 309.252C298.135 312.089 299.244 314.803 301.34 316.776C303.682 318.873 306.764 319.983 309.969 319.737Z" fill="#E5332A"/>
<path d="M339.184 300.124C341.773 298.767 343.622 296.547 344.485 293.833C345.348 291.119 345.102 288.159 343.869 285.569C342.513 283.102 340.294 281.128 337.582 280.265C334.87 279.401 331.911 279.648 329.322 280.881C326.733 282.238 324.761 284.458 323.898 287.295C323.035 290.009 323.282 292.97 324.638 295.437C325.994 298.027 328.213 299.877 330.925 300.741C332.281 301.234 333.76 301.357 335.239 301.234C336.719 301.111 337.952 300.741 339.184 300.124Z" fill="#E5332A"/>
<path d="M374.565 279.155C374.072 276.318 372.593 273.851 370.251 272.124C367.908 270.397 365.073 269.78 362.238 270.274C359.402 270.767 356.813 272.371 355.211 274.714C353.485 277.058 352.869 279.895 353.362 282.732C354.225 288.283 359.402 292.23 365.073 291.737C365.32 291.737 365.566 291.737 365.689 291.613C371.607 290.503 375.552 284.952 374.565 279.155Z" fill="#E5332A"/>
<path d="M406.371 282.362C407.234 276.564 403.289 271.013 397.372 270.15C394.536 269.657 391.578 270.397 389.359 272.124C387.016 273.851 385.537 276.318 385.167 279.155C384.304 284.952 388.372 290.503 394.167 291.366C395.029 291.489 396.016 291.489 396.879 291.489C401.686 290.996 405.631 287.296 406.371 282.362Z" fill="#D9D9D9"/>
<path d="M434.725 295.066C437.438 289.762 435.219 283.348 429.918 280.635L429.794 280.511C427.206 279.278 424.247 279.154 421.658 280.018C418.946 280.881 416.727 282.855 415.494 285.445C412.905 290.749 415.001 297.163 420.302 299.877C422.151 300.741 424.124 301.234 426.219 300.987C429.794 300.617 433 298.397 434.725 295.066Z" fill="#D9D9D9"/>
<path d="M451.613 319.243C454.079 318.996 456.421 317.886 458.147 316.159C462.338 311.965 462.215 305.181 458.023 300.987C455.928 299.014 453.216 297.78 450.257 297.903C447.422 297.903 444.709 299.137 442.737 301.111C438.669 305.304 438.669 312.089 442.86 316.283C445.326 318.503 448.408 319.613 451.613 319.243Z" fill="#D9D9D9"/>
<path d="M459.628 338.733C461.724 342.68 465.792 344.9 470.23 344.53C471.586 344.407 472.942 344.037 474.175 343.42C479.475 340.706 481.448 334.169 478.736 328.865C477.38 326.274 475.037 324.424 472.325 323.561C469.613 322.697 466.655 322.944 464.189 324.301C458.888 327.015 456.916 333.429 459.628 338.733Z" fill="#D9D9D9"/>
<path d="M489.584 361.675C489.091 358.838 487.489 356.248 485.146 354.644C482.804 353.041 479.969 352.301 477.133 352.918C474.298 353.411 471.832 355.015 470.106 357.358C468.504 359.702 467.888 362.539 468.257 365.253C468.75 368.09 470.23 370.557 472.572 372.283C474.668 373.764 477.257 374.504 479.845 374.257C480.092 374.257 480.339 374.257 480.585 374.134C483.42 373.64 485.886 372.037 487.612 369.693C489.461 367.349 490.077 364.512 489.584 361.675Z" fill="#93C01F"/>
<path d="M487.735 389.306C486.009 386.962 483.543 385.482 480.708 385.112C474.914 384.248 469.49 388.319 468.627 394.24C468.257 397.077 468.873 399.914 470.599 402.257C472.325 404.601 474.791 406.081 477.749 406.451C478.612 406.575 479.475 406.575 480.338 406.451C485.269 405.958 489.214 402.257 489.954 397.323C490.2 394.61 489.46 391.649 487.735 389.306Z" fill="#93C01F"/>
</svg>
