<svg width="355" height="375" viewBox="0 0 355 375" fill="none" xmlns="http://www.w3.org/2000/svg">
<circle cx="167.5" cy="167.5" r="167.5" fill="#FCED4E"/>
<path d="M360.258 325.989H360.135C357.423 325.989 354.711 327.099 352.738 329.073C350.642 331.046 349.533 333.76 349.533 336.597C349.533 339.434 350.642 342.148 352.615 344.245C354.957 346.588 358.039 347.698 361.368 347.452C363.833 347.205 366.052 346.095 367.778 344.491C369.874 342.518 370.983 339.681 370.983 336.844C370.983 334.007 369.874 331.293 367.901 329.196C365.806 327.099 363.093 325.989 360.258 325.989Z" fill="#93C01F"/>
<path d="M330.055 345.232C327.343 346.589 325.494 348.809 324.508 351.523C323.645 354.236 323.768 357.197 325.124 359.787C326.357 362.377 328.576 364.351 331.411 365.214C332.891 365.708 334.37 365.831 335.849 365.708C337.205 365.584 338.438 365.214 339.548 364.598C342.136 363.364 344.109 361.021 344.972 358.307C345.835 355.593 345.588 352.633 344.355 350.166C341.643 344.738 335.233 342.641 330.055 345.232Z" fill="#FFEC00"/>
<path d="M311.193 355.592C308.85 353.989 306.138 353.249 303.303 353.619C297.386 354.482 293.441 360.033 294.304 365.83C295.167 371.504 300.344 375.452 306.015 374.958C306.138 374.958 306.385 374.958 306.508 374.835C309.343 374.465 311.932 372.861 313.658 370.518C315.384 368.174 316 365.337 315.631 362.5C315.014 359.786 313.535 357.196 311.193 355.592Z" fill="#FFEC00"/>
<path d="M275.937 353.496C273.101 353.003 270.266 353.743 267.924 355.346C265.581 357.073 264.102 359.54 263.609 362.377C263.116 365.214 263.855 368.051 265.458 370.395C267.184 372.739 269.649 374.219 272.485 374.712C273.471 374.836 274.334 374.835 275.32 374.835C277.293 374.589 279.018 373.972 280.621 372.862C282.963 371.135 284.443 368.668 284.936 365.831C285.675 360.034 281.731 354.483 275.937 353.496Z" fill="#FFEC00"/>
<path d="M253.993 350.782C253.13 348.068 251.281 345.848 248.692 344.615C246.103 343.258 243.268 343.011 240.432 343.875C237.72 344.738 235.501 346.588 234.145 349.179C232.789 351.769 232.543 354.606 233.405 357.443C234.268 360.157 236.118 362.377 238.706 363.734C240.556 364.721 242.651 365.091 244.747 364.844C245.487 364.721 246.226 364.597 246.966 364.35C249.678 363.487 251.897 361.513 253.13 359.046C254.732 356.456 254.979 353.619 253.993 350.782Z" fill="#FFEC00"/>
<path d="M218.611 324.879C215.776 324.879 213.064 325.989 211.091 327.963C208.996 330.06 207.886 332.773 207.886 335.61C207.886 338.447 208.996 341.161 210.968 343.135C212.941 345.232 215.776 346.342 218.735 346.342C219.104 346.342 219.351 346.342 219.721 346.342C222.186 346.095 224.529 344.985 226.255 343.258C230.446 339.064 230.446 332.28 226.255 328.086C224.282 325.989 221.57 324.879 218.611 324.879Z" fill="#F29100"/>
<path d="M209.983 305.389C208.627 302.799 206.408 300.949 203.696 299.962C200.984 299.099 198.025 299.345 195.436 300.579C192.848 301.812 190.998 304.033 190.012 306.87C189.149 309.583 189.273 312.544 190.629 315.011C191.861 317.601 194.204 319.575 196.916 320.438C198.272 320.932 199.751 321.055 201.231 320.932C202.587 320.808 203.943 320.438 205.052 319.821C210.476 317.108 212.572 310.694 209.983 305.389Z" fill="#F29100"/>
<path d="M192.479 291.081C198.273 290.094 202.342 284.667 201.355 278.869C200.986 275.909 199.506 273.442 197.164 271.715C194.822 269.988 191.986 269.371 189.151 269.741C186.316 270.235 183.727 271.715 182.124 274.059C180.398 276.402 179.782 279.239 180.275 281.953C180.768 284.79 182.247 287.38 184.59 289.107C186.685 290.587 189.274 291.328 191.863 291.081C192.11 291.081 192.356 291.081 192.479 291.081Z" fill="#F29100"/>
<path d="M189.149 259.75C190.135 259.873 190.998 259.997 191.861 259.873C193.834 259.627 195.56 259.01 197.162 257.776C199.381 256.05 200.984 253.583 201.354 250.746C202.34 244.948 198.272 239.397 192.478 238.411C186.684 237.424 181.136 241.494 180.15 247.292C179.657 250.129 180.397 253.089 182.122 255.433C183.848 257.9 186.437 259.38 189.149 259.75Z" fill="#F29100"/>
<path d="M195.683 228.913C197.532 229.776 199.505 230.27 201.6 230.023C205.299 229.653 208.504 227.433 210.107 224.226L210.23 224.102C212.819 218.798 210.723 212.507 205.422 209.794C200.121 207.08 193.711 209.177 190.999 214.481C189.642 217.071 189.519 220.032 190.382 222.745C191.245 225.459 193.218 227.679 195.683 228.913Z" fill="#E5332A"/>
<path d="M219.97 204.736C222.435 204.49 224.777 203.38 226.503 201.653C228.599 199.556 229.709 196.965 229.709 194.005C229.709 191.168 228.599 188.454 226.503 186.357C224.531 184.384 221.819 183.274 218.983 183.274C216.148 183.274 213.436 184.384 211.34 186.481C209.368 188.454 208.135 191.291 208.135 194.252C208.135 197.089 209.245 199.802 211.34 201.776C213.682 203.873 216.764 204.983 219.97 204.736Z" fill="#E5332A"/>
<path d="M249.185 185.124C251.773 183.767 253.623 181.547 254.485 178.833C255.348 176.119 255.102 173.159 253.869 170.569C252.513 168.102 250.294 166.128 247.582 165.265C244.87 164.401 241.911 164.648 239.322 165.881C236.734 167.238 234.761 169.458 233.898 172.295C233.035 175.009 233.282 177.97 234.638 180.437C235.994 183.027 238.213 184.877 240.925 185.741C242.281 186.234 243.76 186.357 245.24 186.234C246.719 186.111 247.952 185.741 249.185 185.124Z" fill="#E5332A"/>
<path d="M284.566 164.155C284.073 161.318 282.593 158.851 280.251 157.124C277.909 155.397 275.073 154.78 272.238 155.274C269.403 155.767 266.814 157.371 265.211 159.714C263.485 162.058 262.869 164.895 263.362 167.732C264.225 173.283 269.403 177.23 275.073 176.737C275.32 176.737 275.567 176.737 275.69 176.613C281.607 175.503 285.552 169.952 284.566 164.155Z" fill="#E5332A"/>
<path d="M316.371 167.362C317.234 161.564 313.289 156.013 307.372 155.15C304.536 154.657 301.578 155.397 299.359 157.124C297.016 158.851 295.537 161.318 295.167 164.155C294.304 169.952 298.372 175.503 304.167 176.366C305.029 176.489 306.016 176.489 306.879 176.489C311.686 175.996 315.631 172.296 316.371 167.362Z" fill="#D9D9D9"/>
<path d="M344.725 180.066C347.438 174.762 345.219 168.348 339.918 165.635L339.794 165.511C337.206 164.278 334.247 164.154 331.658 165.018C328.946 165.881 326.727 167.855 325.494 170.445C322.905 175.749 325.001 182.163 330.302 184.877C332.151 185.741 334.124 186.234 336.219 185.987C339.794 185.617 343 183.397 344.725 180.066Z" fill="#D9D9D9"/>
<path d="M361.613 204.243C364.079 203.996 366.421 202.886 368.147 201.159C372.339 196.965 372.215 190.181 368.024 185.987C365.928 184.014 363.216 182.78 360.257 182.903C357.422 182.903 354.71 184.137 352.738 186.111C348.669 190.304 348.669 197.089 352.861 201.283C355.326 203.503 358.408 204.613 361.613 204.243Z" fill="#D9D9D9"/>
</svg>
