<svg width="301" height="66" viewBox="0 0 301 66" fill="none" xmlns="http://www.w3.org/2000/svg">
<g clip-path="url(#clip0)">
<path d="M99.0906 24.0102C100.656 25.305 101.438 27.1178 101.438 29.4485C101.438 31.7423 100.656 33.555 99.0906 34.8499C97.5255 36.1447 95.3267 36.8107 92.569 36.8107H86.271V43.9878H84.6686V22.0494H92.569C95.3267 22.0494 97.4882 22.7154 99.0906 24.0102ZM97.9354 33.814C99.1652 32.7781 99.7987 31.3353 99.7987 29.4485C99.7987 27.5618 99.1652 26.082 97.9354 25.0461C96.7056 24.0102 94.9168 23.4923 92.5318 23.4923H86.2338V35.3308H92.5318C94.9168 35.3308 96.7056 34.8129 97.9354 33.814Z" fill="#93C01F"/>
<path d="M128.457 43.9508L123.202 36.6257C122.42 36.7367 121.712 36.7737 121.078 36.7737H114.78V43.9508H113.178V22.0494H121.078C123.836 22.0494 126.035 22.7154 127.6 24.0102C129.165 25.305 129.948 27.1178 129.948 29.4485C129.948 31.1873 129.5 32.6302 128.606 33.814C127.712 34.9979 126.445 35.8118 124.768 36.2927L130.283 43.9508H128.457ZM121.078 35.3678C123.426 35.3678 125.215 34.8499 126.445 33.814C127.674 32.7781 128.308 31.3353 128.308 29.4115C128.308 27.5248 127.674 26.045 126.445 25.0091C125.215 23.9732 123.426 23.4553 121.078 23.4553H114.78V35.3308H121.078V35.3678Z" fill="#93C01F"/>
<path d="M145.637 42.6559C143.885 41.694 142.506 40.3621 141.537 38.6603C140.531 36.9585 140.047 35.0718 140.047 33C140.047 30.9283 140.531 29.0415 141.537 27.3397C142.543 25.6379 143.922 24.3061 145.637 23.3442C147.388 22.3823 149.326 21.9014 151.487 21.9014C153.649 21.9014 155.587 22.3823 157.338 23.3442C159.09 24.3061 160.469 25.6379 161.437 27.3027C162.444 29.0045 162.928 30.8913 162.928 33C162.928 35.1088 162.444 36.9955 161.437 38.6973C160.431 40.3991 159.052 41.694 157.338 42.6559C155.587 43.6177 153.649 44.0987 151.487 44.0987C149.326 44.0987 147.351 43.6177 145.637 42.6559ZM156.481 41.361C157.972 40.5101 159.164 39.3633 160.021 37.9204C160.878 36.4406 161.326 34.8128 161.326 33C161.326 31.1872 160.878 29.5594 160.021 28.0796C159.164 26.5998 157.972 25.4529 156.481 24.639C154.99 23.7881 153.313 23.3812 151.487 23.3812C149.624 23.3812 147.947 23.7881 146.456 24.639C144.966 25.4899 143.773 26.6368 142.916 28.0796C142.059 29.5594 141.612 31.1872 141.612 33C141.612 34.8128 142.059 36.4406 142.916 37.9204C143.773 39.4003 144.966 40.5471 146.456 41.361C147.947 42.2119 149.624 42.6189 151.487 42.6189C153.313 42.6189 154.99 42.2119 156.481 41.361Z" fill="#93C01F"/>
<path d="M190.58 33.0741H192.107V41.2501C191.139 42.175 189.983 42.878 188.604 43.3589C187.226 43.8398 185.772 44.0618 184.244 44.0618C182.046 44.0618 180.108 43.5809 178.356 42.619C176.605 41.6571 175.226 40.3253 174.22 38.6605C173.213 36.9587 172.729 35.0719 172.729 32.9632C172.729 30.8544 173.213 28.9676 174.22 27.2658C175.226 25.5641 176.605 24.2692 178.356 23.3073C180.108 22.3454 182.083 21.8645 184.282 21.8645C185.884 21.8645 187.375 22.1235 188.753 22.6414C190.095 23.1593 191.25 23.8993 192.219 24.8611L191.213 25.934C190.281 25.0091 189.238 24.3432 188.12 23.9362C186.965 23.5293 185.698 23.3443 184.319 23.3443C182.418 23.3443 180.741 23.7513 179.213 24.6022C177.685 25.4531 176.493 26.5999 175.636 28.0428C174.779 29.5226 174.331 31.1504 174.331 32.9632C174.331 34.7389 174.779 36.4037 175.636 37.8466C176.493 39.3264 177.685 40.4732 179.213 41.3241C180.741 42.175 182.418 42.582 184.319 42.582C186.853 42.582 188.94 41.9161 190.58 40.5842V33.0741Z" fill="#93C01F"/>
<path d="M220.765 43.9508L215.511 36.6257C214.728 36.7367 214.02 36.7737 213.386 36.7737H207.088V43.9508H205.486V22.0494H213.386C216.144 22.0494 218.343 22.7154 219.908 24.0102C221.473 25.305 222.256 27.1178 222.256 29.4485C222.256 31.1873 221.809 32.6302 220.914 33.814C220.02 34.9979 218.753 35.8118 217.076 36.2927L222.591 43.9508H220.765ZM213.349 35.3678C215.697 35.3678 217.486 34.8499 218.716 33.814C219.945 32.7781 220.579 31.3353 220.579 29.4115C220.579 27.5248 219.945 26.045 218.716 25.0091C217.486 23.9732 215.697 23.4553 213.349 23.4553H207.051V35.3308H213.349V35.3678Z" fill="#93C01F"/>
<path d="M249.646 42.508V43.9508H234.441V22.0494H249.161V23.4923H236.044V32.1122H247.783V33.5181H236.044V42.508H249.646Z" fill="#93C01F"/>
<path d="M262.988 43.2478C261.535 42.6928 260.38 41.9899 259.56 41.102L260.268 39.9182C261.05 40.7321 262.094 41.398 263.398 41.9159C264.702 42.4339 266.081 42.6928 267.535 42.6928C269.622 42.6928 271.224 42.2859 272.305 41.509C273.385 40.7321 273.907 39.6962 273.907 38.4014C273.907 37.4395 273.609 36.6256 273.05 36.0706C272.491 35.4787 271.783 35.0348 270.926 34.7388C270.069 34.4428 268.951 34.1099 267.535 33.7769C265.932 33.37 264.628 33 263.659 32.6301C262.69 32.2601 261.87 31.6682 261.162 30.8913C260.454 30.1144 260.156 29.0785 260.156 27.7467C260.156 26.6738 260.454 25.7119 261.013 24.824C261.572 23.9361 262.429 23.2332 263.622 22.7153C264.777 22.1973 266.23 21.9384 267.982 21.9384C269.212 21.9384 270.404 22.1233 271.559 22.4563C272.752 22.8262 273.758 23.3072 274.615 23.8991L274.019 25.194C273.125 24.602 272.156 24.1211 271.112 23.8251C270.069 23.5292 268.988 23.3442 267.982 23.3442C265.932 23.3442 264.404 23.7511 263.361 24.565C262.317 25.3789 261.796 26.4148 261.796 27.7097C261.796 28.6715 262.094 29.4854 262.653 30.0404C263.212 30.6323 263.92 31.0763 264.777 31.3722C265.634 31.6682 266.752 32.0011 268.205 32.3711C269.808 32.778 271.112 33.148 272.081 33.518C273.05 33.8879 273.87 34.4798 274.541 35.2197C275.212 35.9967 275.547 36.9955 275.547 38.2904C275.547 39.3632 275.249 40.3251 274.69 41.213C274.094 42.1009 273.236 42.8038 272.044 43.3218C270.851 43.8397 269.361 44.0987 267.646 44.0987C265.969 44.0987 264.442 43.8027 262.988 43.2478Z" fill="#93C01F"/>
<path d="M288.441 43.2478C286.988 42.6928 285.833 41.9899 285.013 41.102L285.721 39.9182C286.503 40.7321 287.547 41.398 288.851 41.9159C290.155 42.4339 291.534 42.6928 292.988 42.6928C295.075 42.6928 296.677 42.2859 297.758 41.509C298.838 40.7321 299.36 39.6962 299.36 38.4014C299.36 37.4395 299.062 36.6256 298.503 36.0706C297.944 35.4787 297.236 35.0348 296.379 34.7388C295.522 34.4428 294.404 34.1099 292.988 33.7769C291.385 33.37 290.081 33 289.112 32.6301C288.143 32.2601 287.323 31.6682 286.615 30.8913C285.944 30.1144 285.609 29.0785 285.609 27.7467C285.609 26.6738 285.907 25.7119 286.466 24.824C287.025 23.9361 287.882 23.2332 289.075 22.7153C290.23 22.1973 291.683 21.9384 293.435 21.9384C294.665 21.9384 295.857 22.1233 297.012 22.4563C298.205 22.8262 299.211 23.3072 300.068 23.8991L299.472 25.194C298.578 24.602 297.609 24.1211 296.565 23.8251C295.522 23.5292 294.441 23.3442 293.435 23.3442C291.385 23.3442 289.857 23.7511 288.814 24.565C287.77 25.3789 287.249 26.4148 287.249 27.7097C287.249 28.6715 287.547 29.4854 288.106 30.0404C288.665 30.6323 289.373 31.0763 290.23 31.3722C291.087 31.6682 292.205 32.0011 293.658 32.3711C295.261 32.778 296.565 33.148 297.534 33.518C298.503 33.8879 299.323 34.4798 299.994 35.2197C300.664 35.9967 301 36.9955 301 38.2904C301 39.3632 300.702 40.3251 300.143 41.213C299.547 42.1009 298.689 42.8038 297.497 43.3218C296.304 43.8397 294.814 44.0987 293.099 44.0987C291.46 44.0987 289.932 43.8027 288.441 43.2478Z" fill="#93C01F"/>
<path d="M63.2034 45.9855C62.9425 45.1716 62.3835 44.5057 61.6009 44.0988C60.0357 43.2849 58.0606 43.9138 57.2408 45.4676C56.8308 46.2445 56.7563 47.0954 57.0172 47.9463C57.278 48.7602 57.837 49.4261 58.6196 49.8331C59.1786 50.129 59.8121 50.24 60.4457 50.203C61.5264 50.092 62.4953 49.4631 63.017 48.5012C63.3897 47.6873 63.4642 46.7994 63.2034 45.9855Z" fill="#93C01F"/>
<path d="M54.483 51.2759H54.4458C53.6259 51.2759 52.806 51.6088 52.2098 52.2008C51.5762 52.7927 51.2408 53.6066 51.2408 54.4575C51.2408 55.3084 51.5762 56.1223 52.1725 56.7512C52.8806 57.4541 53.8122 57.7871 54.8184 57.7131C55.5637 57.6391 56.2345 57.3061 56.7563 56.8252C57.3898 56.2333 57.7252 55.3824 57.7252 54.5315C57.7252 53.6806 57.3898 52.8667 56.7935 52.2378C56.16 51.6088 55.3401 51.2759 54.483 51.2759Z" fill="#93C01F"/>
<path d="M45.3529 57.0473C44.533 57.4543 43.974 58.1202 43.6759 58.9341C43.415 59.748 43.4523 60.6359 43.8622 61.4128C44.2349 62.1897 44.9057 62.7816 45.7628 63.0406C46.21 63.1886 46.6572 63.2256 47.1044 63.1886C47.5143 63.1516 47.887 63.0406 48.2224 62.8556C49.005 62.4857 49.6012 61.7828 49.8621 60.9689C50.123 60.155 50.0484 59.2671 49.6758 58.5272C48.8559 56.8994 46.9181 56.2704 45.3529 57.0473Z" fill="#FFEC00"/>
<path d="M39.6505 60.1547C38.9425 59.6738 38.1226 59.4518 37.2655 59.5628C35.4767 59.8217 34.2842 61.4865 34.545 63.2253C34.8059 64.9271 36.3711 66.111 38.0853 65.963C38.1226 65.963 38.1971 65.963 38.2344 65.926C39.0915 65.815 39.8741 65.3341 40.3958 64.6312C40.9176 63.9282 41.1039 63.0773 40.9921 62.2264C40.8058 61.4125 40.3586 60.6356 39.6505 60.1547Z" fill="#FFEC00"/>
<path d="M28.9927 59.5259C28.1356 59.3779 27.2785 59.5999 26.5704 60.0808C25.8624 60.5988 25.4152 61.3387 25.2661 62.1896C25.1171 63.0405 25.3406 63.8914 25.8251 64.5943C26.3468 65.2972 27.0922 65.7412 27.9493 65.8891C28.2474 65.9261 28.5083 65.9261 28.8064 65.9261C29.4027 65.8521 29.9244 65.6672 30.4089 65.3342C31.1169 64.8163 31.5641 64.0764 31.7132 63.2255C31.9368 61.4867 30.7443 59.8219 28.9927 59.5259Z" fill="#FFEC00"/>
<path d="M22.3595 58.7119C22.0987 57.898 21.5397 57.2321 20.7571 56.8622C19.9745 56.4552 19.1174 56.3812 18.2602 56.6402C17.4404 56.8992 16.7696 57.4541 16.3597 58.231C15.9497 59.0079 15.8752 59.8588 16.1361 60.7097C16.3969 61.5236 16.9559 62.1895 17.7385 62.5965C18.2975 62.8924 18.931 63.0034 19.5646 62.9294C19.7882 62.8924 20.0118 62.8554 20.2354 62.7815C21.0552 62.5225 21.726 61.9306 22.0987 61.1906C22.5831 60.4137 22.6577 59.5628 22.3595 58.7119Z" fill="#FFEC00"/>
<path d="M11.6636 50.9429C10.8064 50.9429 9.98657 51.2758 9.39031 51.8678C8.75678 52.4967 8.42139 53.3106 8.42139 54.1615C8.42139 55.0124 8.75678 55.8263 9.35304 56.4182C9.94931 57.0471 10.8064 57.3801 11.7008 57.3801C11.8126 57.3801 11.8872 57.3801 11.999 57.3801C12.7443 57.3061 13.4523 56.9731 13.9741 56.4552C15.2411 55.1974 15.2411 53.1626 13.9741 51.9048C13.3778 51.2758 12.5579 50.9429 11.6636 50.9429Z" fill="#F29100"/>
<path d="M9.05558 45.0976C8.64565 44.3207 7.97486 43.7658 7.155 43.4698C6.33514 43.2109 5.44075 43.2849 4.65816 43.6548C3.87557 44.0248 3.31657 44.6907 3.01844 45.5416C2.75758 46.3555 2.79484 47.2434 3.20477 47.9833C3.57743 48.7602 4.28549 49.3521 5.10535 49.6111C5.51528 49.7591 5.96248 49.7961 6.40967 49.7591C6.8196 49.7221 7.22953 49.6111 7.56493 49.4261C9.20465 48.6122 9.83817 46.6885 9.05558 45.0976Z" fill="#F29100"/>
<path d="M3.76383 40.8061C5.51535 40.5101 6.74514 38.8823 6.44701 37.1435C6.33521 36.2556 5.88801 35.5157 5.17995 34.9978C4.47189 34.4798 3.61477 34.2949 2.75764 34.4059C1.90052 34.5538 1.11793 34.9978 0.633463 35.7007C0.111735 36.4036 -0.0745966 37.2545 0.0744687 38.0684C0.223534 38.9193 0.67073 39.6962 1.37879 40.2141C2.01232 40.6581 2.79491 40.8801 3.5775 40.8061C3.65203 40.8061 3.72657 40.8061 3.76383 40.8061Z" fill="#F29100"/>
<path d="M2.75735 31.4092C3.05548 31.4462 3.31635 31.4832 3.57721 31.4462C4.17347 31.3722 4.6952 31.1873 5.17966 30.8173C5.85046 30.2994 6.33492 29.5595 6.44672 28.7086C6.74485 26.9698 5.51506 25.305 3.76354 25.009C2.01203 24.713 0.335042 25.9339 0.0369116 27.6727C-0.112154 28.5236 0.111444 29.4115 0.633173 30.1144C1.1549 30.8543 1.93749 31.2982 2.75735 31.4092Z" fill="#F29100"/>
<path d="M4.73259 22.1604C5.29158 22.4193 5.88784 22.5673 6.52137 22.4933C7.63936 22.3823 8.60829 21.7164 9.09275 20.7545L9.13001 20.7175C9.91261 19.1267 9.27908 17.2399 7.67663 16.426C6.07418 15.6121 4.13633 16.2411 3.31647 17.8319C2.90654 18.6088 2.86927 19.4967 3.13013 20.3106C3.391 21.1245 3.98726 21.7904 4.73259 22.1604Z" fill="#E5332A"/>
<path d="M12.0743 14.9093C12.8196 14.8353 13.5277 14.5023 14.0494 13.9844C14.6829 13.3555 15.0183 12.5785 15.0183 11.6907C15.0183 10.8398 14.6829 10.0259 14.0494 9.39693C13.4531 8.80501 12.6333 8.47205 11.7761 8.47205C10.919 8.47205 10.0992 8.80501 9.46563 9.43393C8.86937 10.0259 8.4967 10.8768 8.4967 11.7646C8.4967 12.6155 8.8321 13.4294 9.46563 14.0214C10.1737 14.6503 11.1053 14.9833 12.0743 14.9093Z" fill="#E5332A"/>
<path d="M20.9058 9.02695C21.6884 8.62 22.2474 7.95408 22.5082 7.14018C22.7691 6.32628 22.6945 5.43839 22.3219 4.66148C21.912 3.92157 21.2412 3.32964 20.4213 3.07067C19.6014 2.8117 18.707 2.8857 17.9245 3.25565C17.1419 3.6626 16.5456 4.32852 16.2847 5.17942C16.0239 5.99332 16.0984 6.88121 16.5083 7.62112C16.9183 8.39803 17.5891 8.95296 18.4089 9.21193C18.8188 9.35991 19.266 9.39691 19.7132 9.35991C20.1604 9.32292 20.5331 9.21193 20.9058 9.02695Z" fill="#E5332A"/>
<path d="M31.6013 2.73779C31.4523 1.88689 31.0051 1.14698 30.297 0.62904C29.589 0.111103 28.7318 -0.0738744 27.8747 0.0741076C27.0176 0.22209 26.235 0.703031 25.7505 1.40595C25.2288 2.10886 25.0425 2.95976 25.1915 3.81066C25.4524 5.47545 27.0176 6.65931 28.7318 6.51133C28.8064 6.51133 28.8809 6.51133 28.9182 6.47433C30.7069 6.14137 31.8995 4.47657 31.6013 2.73779Z" fill="#E5332A"/>
<path d="M41.216 3.69963C41.4768 1.96084 40.2843 0.296039 38.4955 0.0370705C37.6384 -0.110912 36.744 0.111062 36.0732 0.628999C35.3652 1.14694 34.918 1.88685 34.8062 2.73774C34.5453 4.47653 35.7751 6.14133 37.5266 6.4003C37.7875 6.4373 38.0856 6.4373 38.3465 6.4373C39.7998 6.28931 40.9924 5.17945 41.216 3.69963Z" fill="#D9D9D9"/>
<path d="M49.7874 7.51014C50.6073 5.91933 49.9365 3.99556 48.334 3.18166L48.2968 3.14466C47.5142 2.77471 46.6198 2.73771 45.8372 2.99668C45.0173 3.25565 44.3465 3.84758 43.9739 4.62449C43.1913 6.21529 43.8248 8.13906 45.4273 8.95296C45.9863 9.21193 46.5825 9.35991 47.2161 9.28592C48.2968 9.17493 49.2657 8.50902 49.7874 7.51014Z" fill="#D9D9D9"/>
<path d="M54.8929 14.7613C55.6382 14.6873 56.3463 14.3543 56.868 13.8364C58.1351 12.5785 58.0978 10.5438 56.8307 9.28595C56.1972 8.69402 55.3774 8.32407 54.483 8.36106C53.6258 8.36106 52.806 8.73102 52.2097 9.32294C50.9799 10.5808 50.9799 12.6155 52.247 13.8734C52.9923 14.5393 53.924 14.8723 54.8929 14.7613Z" fill="#D9D9D9"/>
<path d="M57.3155 20.6065C57.949 21.7904 59.1788 22.4563 60.5204 22.3453C60.9303 22.3083 61.3402 22.1974 61.7129 22.0124C63.3153 21.1985 63.9116 19.2377 63.0917 17.6469C62.6818 16.87 61.9738 16.3151 61.1539 16.0561C60.334 15.7971 59.4396 15.8711 58.6943 16.2781C57.0919 17.092 56.4956 19.0157 57.3155 20.6065Z" fill="#D9D9D9"/>
<path d="M66.3712 27.4877C66.2222 26.6368 65.7377 25.8599 65.0296 25.379C64.3216 24.8981 63.4644 24.6761 62.6073 24.8611C61.7502 25.009 61.0049 25.49 60.4831 26.1929C59.9987 26.8958 59.8123 27.7467 59.9241 28.5606C60.0732 29.4115 60.5204 30.1514 61.2285 30.6694C61.862 31.1133 62.6446 31.3353 63.4272 31.2613C63.5017 31.2613 63.5762 31.2613 63.6508 31.2243C64.5079 31.0763 65.2532 30.5954 65.775 29.8924C66.334 29.1895 66.5203 28.3386 66.3712 27.4877Z" fill="#93C01F"/>
<path d="M65.8119 35.7747C65.2901 35.0717 64.5448 34.6278 63.6877 34.5168C61.9362 34.2578 60.2965 35.4787 60.0356 37.2545C59.9238 38.1054 60.1101 38.9563 60.6319 39.6592C61.1536 40.3621 61.8989 40.806 62.7933 40.917C63.0542 40.954 63.315 40.954 63.5759 40.917C65.0665 40.769 66.2591 39.6592 66.4827 38.1794C66.5572 37.3655 66.3336 36.4776 65.8119 35.7747Z" fill="#93C01F"/>
<path d="M42.5572 35.0348V30.9653C42.5572 30.9653 42.4081 29.5595 40.1349 28.0797C37.8243 26.5628 34.284 24.4911 27.1662 22.3453C27.1662 22.3453 24.0358 21.4944 23.9613 22.1974C23.8867 22.9003 23.8867 26.5628 25.0793 27.3397C25.4519 27.5617 26.9053 28.5236 28.9922 29.2635C32.2717 30.4474 36.93 31.6682 40.0231 33.0371C41.4764 33.629 42.259 33.9989 42.5572 35.0348Z" fill="white"/>
<path d="M23.9246 30.9285V35.035C23.9246 35.035 24.0736 36.4408 26.3469 37.9206C28.6574 39.4374 32.1977 41.5092 39.3155 43.6549C39.3155 43.6549 42.4459 44.5058 42.5204 43.8029C42.595 43.1 42.595 39.4374 41.4025 38.6605C41.0298 38.4386 39.5764 37.4767 37.4895 36.7368C34.2101 35.5529 29.5518 34.3321 26.4587 32.9632C25.0053 32.3343 24.1854 31.9643 23.9246 30.9285Z" fill="white"/>
<path d="M23.9246 35.0348V30.9653C23.9246 30.9653 24.0736 29.5595 26.3469 28.0797C28.6574 26.5628 32.1977 24.4911 39.3155 22.3453C39.3155 22.3453 42.4459 21.4944 42.5204 22.1974C42.595 22.9003 42.595 26.5628 41.4025 27.3397C41.0298 27.5617 39.5764 28.5236 37.4895 29.2635C34.2101 30.4474 29.5518 31.6682 26.4587 33.0371C25.0053 33.629 24.1854 33.9989 23.9246 35.0348Z" fill="#95C11F"/>
<g opacity="0.94">
<g opacity="0.94">
<path opacity="0.94" d="M23.9246 35.0348V30.9653C23.9246 30.9653 24.0736 29.5595 26.3469 28.0797C28.6574 26.5628 32.1977 24.4911 39.3155 22.3453C39.3155 22.3453 42.4459 21.4944 42.5204 22.1974C42.595 22.9003 42.595 26.5628 41.4025 27.3397C41.0298 27.5617 39.5764 28.5236 37.4895 29.2635C34.2101 30.4474 29.5518 31.6682 26.4587 33.0371C25.0053 33.629 24.1854 33.9989 23.9246 35.0348Z" fill="#95C11F"/>
</g>
</g>
<path d="M42.5575 30.9283V35.0348C42.5575 35.0348 42.4085 36.4407 40.1352 37.9205C37.8247 39.4373 34.2844 41.5091 27.1665 43.6548C27.1665 43.6548 24.0362 44.5057 23.9616 43.8028C23.8871 43.0999 23.8871 39.4373 25.0796 38.6604C25.4523 38.4384 26.9057 37.4766 28.9926 36.7366C32.272 35.5528 36.9303 34.3319 40.0234 32.9631C41.4768 32.3342 42.2594 31.9642 42.5575 30.9283Z" fill="#95C11F"/>
<g opacity="0.94">
<g opacity="0.94">
<path opacity="0.94" d="M42.5575 30.9283V35.0348C42.5575 35.0348 42.4085 36.4407 40.1352 37.9205C37.8247 39.4373 34.2844 41.5091 27.1665 43.6548C27.1665 43.6548 24.0362 44.5057 23.9616 43.8028C23.8871 43.0999 23.8871 39.4373 25.0796 38.6604C25.4523 38.4384 26.9057 37.4766 28.9926 36.7366C32.272 35.5528 36.9303 34.3319 40.0234 32.9631C41.4768 32.3342 42.2594 31.9642 42.5575 30.9283Z" fill="#95C11F"/>
</g>
</g>
</g>
<defs>
<clipPath id="clip0">
<rect width="301" height="66" fill="white"/>
</clipPath>
</defs>
</svg>
