<svg width="178" height="39" viewBox="0 0 178 39" fill="none" xmlns="http://www.w3.org/2000/svg">
<path d="M59.2693 14.8238C60.1897 15.5693 60.6499 16.613 60.6499 17.955C60.6499 19.2756 60.1897 20.3193 59.2693 21.0648C58.3489 21.8104 57.056 22.1938 55.4343 22.1938H51.7309V26.3261H50.7886V13.6949H55.4343C57.056 13.6949 58.327 14.0783 59.2693 14.8238ZM58.59 20.4684C59.3131 19.872 59.6857 19.0413 59.6857 17.955C59.6857 16.8687 59.3131 16.0166 58.59 15.4202C57.8668 14.8238 56.8149 14.5256 55.4124 14.5256H51.7089V21.3417H55.4124C56.8149 21.3417 57.8668 21.0435 58.59 20.4684Z" fill="#93C01F"/>
<path d="M76.5379 26.3048L73.448 22.0873C72.9878 22.1512 72.5714 22.1725 72.1989 22.1725H68.4954V26.3048H67.5531V13.6949H72.1989C73.8205 13.6949 75.1134 14.0783 76.0338 14.8238C76.9542 15.5693 77.4144 16.613 77.4144 17.955C77.4144 18.9561 77.1515 19.7868 76.6255 20.4684C76.0996 21.15 75.3545 21.6187 74.3684 21.8956L77.6117 26.3048H76.5379ZM72.1989 21.3631C73.5795 21.3631 74.6313 21.0648 75.3545 20.4684C76.0777 19.872 76.4502 19.0413 76.4502 17.9337C76.4502 16.8474 76.0777 15.9953 75.3545 15.3989C74.6313 14.8025 73.5795 14.5043 72.1989 14.5043H68.4954V21.3418H72.1989V21.3631Z" fill="#93C01F"/>
<path d="M86.6402 25.5592C85.6102 25.0054 84.7994 24.2386 84.2296 23.2587C83.638 22.2789 83.3531 21.1926 83.3531 19.9998C83.3531 18.8069 83.638 17.7206 84.2296 16.7408C84.8213 15.761 85.6321 14.9942 86.6402 14.4403C87.6701 13.8865 88.8097 13.6096 90.0807 13.6096C91.3517 13.6096 92.4912 13.8865 93.5212 14.4403C94.5512 14.9942 95.362 15.761 95.9318 16.7195C96.5234 17.6993 96.8083 18.7856 96.8083 19.9998C96.8083 21.2139 96.5234 22.3002 95.9318 23.28C95.3401 24.2599 94.5293 25.0054 93.5212 25.5592C92.4912 26.113 91.3517 26.3899 90.0807 26.3899C88.8097 26.3899 87.6482 26.113 86.6402 25.5592ZM93.0172 24.8137C93.8937 24.3238 94.595 23.6634 95.099 22.8327C95.603 21.9807 95.866 21.0435 95.866 19.9998C95.866 18.956 95.603 18.0188 95.099 17.1668C94.595 16.3148 93.8937 15.6545 93.0172 15.1859C92.1406 14.696 91.1545 14.4616 90.0807 14.4616C88.985 14.4616 87.9989 14.696 87.1223 15.1859C86.2457 15.6758 85.5445 16.3361 85.0405 17.1668C84.5364 18.0188 84.2735 18.956 84.2735 19.9998C84.2735 21.0435 84.5364 21.9807 85.0405 22.8327C85.5445 23.6847 86.2457 24.3451 87.1223 24.8137C87.9989 25.3036 88.985 25.5379 90.0807 25.5379C91.1545 25.5379 92.1406 25.3036 93.0172 24.8137Z" fill="#93C01F"/>
<path d="M113.068 20.0423H113.967V24.7497C113.397 25.2822 112.718 25.6869 111.907 25.9638C111.096 26.2407 110.242 26.3686 109.343 26.3686C108.05 26.3686 106.911 26.0916 105.881 25.5378C104.851 24.984 104.04 24.2172 103.448 23.2587C102.857 22.2789 102.572 21.1925 102.572 19.9784C102.572 18.7643 102.857 17.678 103.448 16.6981C104.04 15.7183 104.851 14.9728 105.881 14.419C106.911 13.8652 108.072 13.5883 109.365 13.5883C110.307 13.5883 111.184 13.7374 111.995 14.0356C112.784 14.3338 113.463 14.7598 114.033 15.3136L113.441 15.9313C112.893 15.3988 112.28 15.0154 111.622 14.7811C110.943 14.5468 110.198 14.4403 109.387 14.4403C108.269 14.4403 107.283 14.6746 106.385 15.1645C105.486 15.6544 104.785 16.3147 104.281 17.1455C103.777 17.9975 103.514 18.9347 103.514 19.9784C103.514 21.0008 103.777 21.9594 104.281 22.7901C104.785 23.6421 105.486 24.3024 106.385 24.7923C107.283 25.2822 108.269 25.5165 109.387 25.5165C110.877 25.5165 112.104 25.1331 113.068 24.3663V20.0423Z" fill="#93C01F"/>
<path d="M130.819 26.3048L127.729 22.0873C127.269 22.1512 126.852 22.1725 126.48 22.1725H122.776V26.3048H121.834V13.6949H126.48C128.101 13.6949 129.394 14.0783 130.315 14.8238C131.235 15.5693 131.695 16.613 131.695 17.955C131.695 18.9561 131.432 19.7868 130.906 20.4684C130.38 21.15 129.635 21.6187 128.649 21.8956L131.893 26.3048H130.819ZM126.458 21.3631C127.838 21.3631 128.89 21.0648 129.613 20.4684C130.337 19.872 130.709 19.0413 130.709 17.9337C130.709 16.8474 130.337 15.9953 129.613 15.3989C128.89 14.8025 127.838 14.5043 126.458 14.5043H122.754V21.3418H126.458V21.3631Z" fill="#93C01F"/>
<path d="M147.802 25.474V26.3048H138.861V13.6949H147.517V14.5256H139.803V19.4886H146.706V20.298H139.803V25.474H147.802Z" fill="#93C01F"/>
<path d="M155.648 25.9C154.793 25.5805 154.114 25.1758 153.632 24.6646L154.048 23.9829C154.508 24.4516 155.122 24.835 155.889 25.1332C156.656 25.4314 157.467 25.5805 158.321 25.5805C159.548 25.5805 160.491 25.3462 161.126 24.8989C161.762 24.4515 162.068 23.8551 162.068 23.1096C162.068 22.5558 161.893 22.0872 161.564 21.7677C161.236 21.4269 160.819 21.1713 160.315 21.0009C159.811 20.8305 159.154 20.6388 158.321 20.4471C157.379 20.2128 156.612 19.9998 156.042 19.7867C155.472 19.5737 154.99 19.2329 154.574 18.7856C154.157 18.3383 153.982 17.7419 153.982 16.9751C153.982 16.3574 154.157 15.8036 154.486 15.2924C154.815 14.7811 155.319 14.3764 156.02 14.0782C156.7 13.78 157.554 13.6309 158.584 13.6309C159.307 13.6309 160.009 13.7374 160.688 13.9291C161.389 14.1421 161.981 14.419 162.485 14.7598L162.134 15.5054C161.608 15.1646 161.038 14.8876 160.425 14.7172C159.811 14.5468 159.176 14.4403 158.584 14.4403C157.379 14.4403 156.48 14.6746 155.867 15.1433C155.253 15.6119 154.946 16.2083 154.946 16.9538C154.946 17.5076 155.122 17.9762 155.45 18.2957C155.779 18.6365 156.195 18.8921 156.7 19.0625C157.204 19.2329 157.861 19.4246 158.716 19.6376C159.658 19.872 160.425 20.085 160.995 20.298C161.564 20.511 162.047 20.8518 162.441 21.2778C162.835 21.7251 163.033 22.3002 163.033 23.0457C163.033 23.6634 162.857 24.2172 162.529 24.7285C162.178 25.2397 161.674 25.6444 160.973 25.9426C160.272 26.2408 159.395 26.3899 158.387 26.3899C157.401 26.3899 156.502 26.2195 155.648 25.9Z" fill="#93C01F"/>
<path d="M170.615 25.9C169.76 25.5805 169.081 25.1758 168.599 24.6646L169.015 23.9829C169.475 24.4516 170.089 24.835 170.856 25.1332C171.623 25.4314 172.434 25.5805 173.288 25.5805C174.516 25.5805 175.458 25.3462 176.093 24.8989C176.729 24.4515 177.036 23.8551 177.036 23.1096C177.036 22.5558 176.86 22.0872 176.532 21.7677C176.203 21.4269 175.787 21.1713 175.283 21.0009C174.779 20.8305 174.121 20.6388 173.288 20.4471C172.346 20.2128 171.579 19.9998 171.009 19.7867C170.44 19.5737 169.958 19.2329 169.541 18.7856C169.147 18.3383 168.95 17.7419 168.95 16.9751C168.95 16.3574 169.125 15.8036 169.454 15.2924C169.782 14.7811 170.286 14.3764 170.988 14.0782C171.667 13.78 172.521 13.6309 173.551 13.6309C174.275 13.6309 174.976 13.7374 175.655 13.9291C176.356 14.1421 176.948 14.419 177.452 14.7598L177.102 15.5054C176.576 15.1646 176.006 14.8876 175.392 14.7172C174.779 14.5468 174.143 14.4403 173.551 14.4403C172.346 14.4403 171.448 14.6746 170.834 15.1433C170.221 15.6119 169.914 16.2083 169.914 16.9538C169.914 17.5076 170.089 17.9762 170.418 18.2957C170.746 18.6365 171.163 18.8921 171.667 19.0625C172.171 19.2329 172.828 19.4246 173.683 19.6376C174.625 19.872 175.392 20.085 175.962 20.298C176.532 20.511 177.014 20.8518 177.408 21.2778C177.803 21.7251 178 22.3002 178 23.0457C178 23.6634 177.825 24.2172 177.496 24.7285C177.145 25.2397 176.641 25.6444 175.94 25.9426C175.239 26.2408 174.362 26.3899 173.354 26.3899C172.39 26.3899 171.492 26.2195 170.615 25.9Z" fill="#93C01F"/>
<path d="M38.1662 27.4763C38.0128 27.0076 37.6841 26.6242 37.2239 26.3899C36.3035 25.9213 35.142 26.2834 34.6599 27.1781C34.4189 27.6254 34.375 28.1153 34.5284 28.6052C34.6818 29.0738 35.0106 29.4572 35.4708 29.6915C35.7995 29.8619 36.172 29.9258 36.5445 29.9045C37.1801 29.8406 37.7498 29.4785 38.0566 28.9247C38.2758 28.4561 38.3196 27.9449 38.1662 27.4763Z" fill="#93C01F"/>
<path d="M33.0383 30.5222H33.0164C32.5343 30.5222 32.0522 30.7139 31.7016 31.0548C31.329 31.3956 31.1318 31.8642 31.1318 32.3541C31.1318 32.844 31.329 33.3126 31.6796 33.6747C32.096 34.0794 32.6439 34.2711 33.2355 34.2285C33.6738 34.1859 34.0683 33.9942 34.3751 33.7173C34.7476 33.3765 34.9448 32.8866 34.9448 32.3967C34.9448 31.9068 34.7476 31.4382 34.397 31.0761C34.0244 30.7139 33.5423 30.5222 33.0383 30.5222Z" fill="#93C01F"/>
<path d="M27.6694 33.8451C27.1873 34.0794 26.8586 34.4628 26.6833 34.9314C26.5299 35.4001 26.5518 35.9113 26.7929 36.3586C27.012 36.8059 27.4065 37.1467 27.9105 37.2958C28.1735 37.381 28.4364 37.4023 28.6994 37.381C28.9404 37.3597 29.1596 37.2958 29.3568 37.1893C29.817 36.9763 30.1676 36.5716 30.321 36.103C30.4744 35.6344 30.4306 35.1231 30.2115 34.6971C29.7294 33.7599 28.5898 33.3978 27.6694 33.8451Z" fill="#FFEC00"/>
<path d="M24.3161 35.6343C23.8998 35.3574 23.4177 35.2296 22.9136 35.2935C21.8618 35.4426 21.1605 36.4011 21.3139 37.4022C21.4673 38.382 22.3877 39.0636 23.3958 38.9784C23.4177 38.9784 23.4615 38.9784 23.4834 38.9571C23.9874 38.8932 24.4476 38.6163 24.7544 38.2116C25.0612 37.8069 25.1708 37.317 25.1051 36.8271C24.9955 36.3585 24.7325 35.9112 24.3161 35.6343Z" fill="#FFEC00"/>
<path d="M18.049 35.2722C17.545 35.187 17.0409 35.3148 16.6246 35.5917C16.2082 35.89 15.9452 36.316 15.8576 36.8059C15.7699 37.2958 15.9014 37.7857 16.1863 38.1904C16.4931 38.5951 16.9314 38.8507 17.4354 38.9359C17.6107 38.9572 17.7641 38.9572 17.9394 38.9572C18.29 38.9146 18.5968 38.8081 18.8817 38.6164C19.2981 38.3182 19.561 37.8922 19.6487 37.4023C19.7802 36.4012 19.0789 35.4426 18.049 35.2722Z" fill="#FFEC00"/>
<path d="M14.1484 34.8035C13.995 34.3349 13.6663 33.9515 13.2061 33.7385C12.7459 33.5042 12.2419 33.4616 11.7378 33.6107C11.2557 33.7598 10.8613 34.0793 10.6202 34.5266C10.3792 34.9739 10.3353 35.4639 10.4887 35.9538C10.6421 36.4224 10.9709 36.8058 11.431 37.0401C11.7598 37.2105 12.1323 37.2744 12.5048 37.2318C12.6363 37.2105 12.7678 37.1892 12.8993 37.1466C13.3814 36.9975 13.7759 36.6567 13.995 36.2307C14.2799 35.7834 14.3237 35.2935 14.1484 34.8035Z" fill="#FFEC00"/>
<path d="M7.85867 30.3305C7.35465 30.3305 6.87254 30.5222 6.52191 30.863C6.14938 31.2251 5.95215 31.6938 5.95215 32.1837C5.95215 32.6736 6.14938 33.1422 6.5 33.483C6.85063 33.8451 7.35465 34.0368 7.88059 34.0368C7.94633 34.0368 7.99016 34.0368 8.0559 34.0368C8.49418 33.9942 8.91055 33.8025 9.21735 33.5043C9.96243 32.7801 9.96243 31.6086 9.21735 30.8843C8.86672 30.5222 8.38461 30.3305 7.85867 30.3305Z" fill="#F29100"/>
<path d="M6.32516 26.9649C6.0841 26.5176 5.68965 26.1981 5.20754 26.0277C4.72543 25.8786 4.19949 25.9212 3.7393 26.1342C3.2791 26.3472 2.95039 26.7306 2.77508 27.2205C2.62168 27.6891 2.6436 28.2003 2.88465 28.6264C3.10379 29.0737 3.52016 29.4145 4.00227 29.5636C4.24332 29.6488 4.50629 29.6701 4.76926 29.6488C5.01032 29.6275 5.25137 29.5636 5.4486 29.4571C6.41282 28.9885 6.78536 27.8808 6.32516 26.9649Z" fill="#F29100"/>
<path d="M3.21335 24.4941C4.24331 24.3237 4.96647 23.3865 4.79116 22.3854C4.72542 21.8742 4.46245 21.4481 4.04608 21.1499C3.62971 20.8517 3.12569 20.7452 2.62167 20.8091C2.11764 20.8943 1.65745 21.1499 1.37256 21.5546C1.06577 21.9594 0.956196 22.4493 1.04385 22.9179C1.13151 23.4078 1.39448 23.8551 1.81084 24.1533C2.18338 24.4089 2.64358 24.5367 3.10378 24.4941C3.1476 24.4941 3.19143 24.4941 3.21335 24.4941Z" fill="#F29100"/>
<path d="M2.6215 19.0838C2.79682 19.1051 2.95021 19.1264 3.10361 19.1051C3.45424 19.0625 3.76104 18.956 4.04592 18.743C4.44037 18.4448 4.72525 18.0188 4.791 17.5289C4.96631 16.5278 4.24314 15.5692 3.21318 15.3988C2.18322 15.2284 1.19709 15.9314 1.02178 16.9325C0.934119 17.4224 1.0656 17.9336 1.3724 18.3383C1.6792 18.7643 2.13939 19.0199 2.6215 19.0838Z" fill="#F29100"/>
<path d="M3.78301 13.7587C4.11173 13.9078 4.46235 13.993 4.83489 13.9504C5.49231 13.8865 6.06208 13.503 6.34696 12.9492L6.36888 12.9279C6.82907 12.012 6.45653 10.9257 5.51423 10.4571C4.57192 9.98847 3.43239 10.3506 2.95028 11.2665C2.70922 11.7138 2.68731 12.225 2.84071 12.6936C2.99411 13.1622 3.34473 13.5457 3.78301 13.7587Z" fill="#E5332A"/>
<path d="M8.10018 9.58382C8.53846 9.54122 8.95483 9.34952 9.26163 9.05131C9.63417 8.6892 9.83139 8.2419 9.83139 7.73069C9.83139 7.24077 9.63417 6.77216 9.26163 6.41006C8.911 6.06925 8.42889 5.87755 7.92487 5.87755C7.42084 5.87755 6.93873 6.06925 6.5662 6.43136C6.21557 6.77217 5.99643 7.26208 5.99643 7.77329C5.99643 8.2632 6.19366 8.73181 6.5662 9.07261C6.98256 9.43472 7.53041 9.62642 8.10018 9.58382Z" fill="#E5332A"/>
<path d="M13.2935 6.19706C13.7537 5.96276 14.0824 5.57935 14.2358 5.11074C14.3892 4.64213 14.3453 4.13092 14.1262 3.68361C13.8851 3.2576 13.4907 2.91679 13.0086 2.76769C12.5265 2.61859 12.0005 2.66119 11.5403 2.87419C11.0801 3.1085 10.7295 3.49191 10.5761 3.98182C10.4227 4.45043 10.4665 4.96164 10.7076 5.38765C10.9487 5.83496 11.3431 6.15446 11.8252 6.30357C12.0663 6.38877 12.3292 6.41007 12.5922 6.38877C12.8552 6.36747 13.0743 6.30357 13.2935 6.19706Z" fill="#E5332A"/>
<path d="M19.5829 2.57593C19.4952 2.08602 19.2323 1.66001 18.8159 1.36181C18.3995 1.0636 17.8955 0.957098 17.3915 1.0423C16.8874 1.1275 16.4273 1.40441 16.1424 1.80912C15.8356 2.21382 15.726 2.70373 15.8137 3.19365C15.9671 4.15217 16.8874 4.83378 17.8955 4.74858C17.9393 4.74858 17.9831 4.74858 18.0051 4.72728C19.0569 4.53557 19.7582 3.57705 19.5829 2.57593Z" fill="#E5332A"/>
<path d="M25.2367 3.12977C25.3901 2.12865 24.6888 1.17013 23.637 1.02103C23.1329 0.935827 22.607 1.06363 22.2126 1.36184C21.7962 1.66004 21.5332 2.08605 21.4675 2.57596C21.3141 3.57708 22.0372 4.5356 23.0672 4.68471C23.2206 4.70601 23.3959 4.70601 23.5493 4.70601C24.404 4.62081 25.1052 3.98179 25.2367 3.12977Z" fill="#D9D9D9"/>
<path d="M30.277 5.32361C30.7591 4.40769 30.3647 3.30007 29.4224 2.83146L29.4005 2.81016C28.9403 2.59715 28.4143 2.57585 27.9541 2.72496C27.472 2.87406 27.0776 3.21487 26.8584 3.66218C26.3982 4.57809 26.7708 5.68572 27.7131 6.15433C28.0418 6.30343 28.3924 6.38863 28.765 6.34603C29.4005 6.28213 29.9702 5.89872 30.277 5.32361Z" fill="#D9D9D9"/>
<path d="M33.2793 9.49869C33.7176 9.45609 34.1339 9.26438 34.4407 8.96617C35.1858 8.24196 35.1639 7.07044 34.4188 6.34622C34.0463 6.00541 33.5642 5.79241 33.0382 5.81371C32.5342 5.81371 32.0521 6.02671 31.7015 6.36752C30.9783 7.09174 30.9783 8.26326 31.7234 8.98748C32.1617 9.37088 32.7095 9.56259 33.2793 9.49869Z" fill="#D9D9D9"/>
<path d="M34.7039 12.864C35.0764 13.5456 35.7996 13.929 36.5885 13.8651C36.8296 13.8438 37.0706 13.7799 37.2898 13.6734C38.2321 13.2048 38.5827 12.0759 38.1006 11.16C37.8595 10.7127 37.4432 10.3932 36.961 10.2441C36.4789 10.095 35.953 10.1376 35.5147 10.3719C34.5724 10.8405 34.2218 11.9481 34.7039 12.864Z" fill="#D9D9D9"/>
<path d="M40.029 16.826C39.9413 16.3361 39.6565 15.8887 39.2401 15.6118C38.8237 15.3349 38.3197 15.2071 37.8157 15.3136C37.3117 15.3988 36.8734 15.6757 36.5666 16.0804C36.2817 16.4852 36.1721 16.9751 36.2379 17.4437C36.3255 17.9336 36.5885 18.3596 37.0049 18.6578C37.3774 18.9134 37.8376 19.0412 38.2978 18.9986C38.3416 18.9986 38.3854 18.9986 38.4293 18.9773C38.9333 18.8921 39.3716 18.6152 39.6784 18.2105C40.0071 17.8058 40.1167 17.3159 40.029 16.826Z" fill="#93C01F"/>
<path d="M39.7 21.5972C39.3932 21.1925 38.955 20.9369 38.4509 20.873C37.421 20.7239 36.4568 21.4268 36.3034 22.4492C36.2376 22.9391 36.3472 23.429 36.654 23.8337C36.9608 24.2384 37.3991 24.4941 37.925 24.558C38.0784 24.5793 38.2318 24.5793 38.3852 24.558C39.2618 24.4727 39.963 23.8337 40.0945 22.9817C40.1383 22.5131 40.0068 22.0019 39.7 21.5972Z" fill="#93C01F"/>
<path d="M26.0261 21.1711V18.8281C26.0261 18.8281 25.9384 18.0187 24.6017 17.1667C23.243 16.2933 21.1612 15.1005 16.9756 13.8651C16.9756 13.8651 15.1348 13.3752 15.091 13.7799C15.0471 14.1846 15.0471 16.2933 15.7484 16.7407C15.9675 16.8685 16.8222 17.4223 18.0494 17.8483C19.9778 18.5299 22.7171 19.2328 24.5359 20.0209C25.3906 20.3617 25.8508 20.5747 26.0261 21.1711Z" fill="#233670"/>
<path d="M15.0687 18.8068V21.1712C15.0687 21.1712 15.1564 21.9806 16.4931 22.8326C17.8518 23.706 19.9336 24.8988 24.1192 26.1342C24.1192 26.1342 25.96 26.6241 26.0038 26.2194C26.0476 25.8147 26.0476 23.706 25.3464 23.2586C25.1273 23.1308 24.2726 22.577 23.0454 22.151C21.117 21.4694 18.3777 20.7665 16.5589 19.9784C15.7042 19.6163 15.2221 19.4033 15.0687 18.8068Z" fill="#233670"/>
<path d="M15.0687 21.1712V18.8282C15.0687 18.8282 15.1564 18.0188 16.4931 17.1667C17.8518 16.2934 19.9336 15.1006 24.1192 13.8652C24.1192 13.8652 25.96 13.3752 26.0038 13.78C26.0476 14.1847 26.0476 16.2934 25.3464 16.7407C25.1273 16.8685 24.2726 17.4223 23.0454 17.8483C21.117 18.53 18.3777 19.2329 16.5589 20.021C15.7042 20.3618 15.2221 20.5748 15.0687 21.1712Z" fill="#95C11F"/>
<g opacity="0.94">
<g opacity="0.94">
<path opacity="0.94" d="M15.0687 21.1712V18.8282C15.0687 18.8282 15.1564 18.0188 16.4931 17.1667C17.8518 16.2934 19.9336 15.1006 24.1192 13.8652C24.1192 13.8652 25.96 13.3752 26.0038 13.78C26.0476 14.1847 26.0476 16.2934 25.3464 16.7407C25.1273 16.8685 24.2726 17.4223 23.0454 17.8483C21.117 18.53 18.3777 19.2329 16.5589 20.021C15.7042 20.3618 15.2221 20.5748 15.0687 21.1712Z" fill="#95C11F"/>
</g>
</g>
<path d="M26.0256 18.8069V21.1712C26.0256 21.1712 25.9379 21.9806 24.6012 22.8326C23.2425 23.706 21.1607 24.8988 16.9751 26.1342C16.9751 26.1342 15.1343 26.6241 15.0905 26.2194C15.0466 25.8147 15.0466 23.706 15.7479 23.2586C15.967 23.1308 16.8217 22.577 18.0489 22.151C19.9773 21.4694 22.7166 20.7665 24.5354 19.9784C25.3901 19.6163 25.8503 19.4033 26.0256 18.8069Z" fill="#95C11F"/>
<g opacity="0.94">
<g opacity="0.94">
<path opacity="0.94" d="M26.0256 18.8069V21.1712C26.0256 21.1712 25.9379 21.9806 24.6012 22.8326C23.2425 23.706 21.1607 24.8988 16.9751 26.1342C16.9751 26.1342 15.1343 26.6241 15.0905 26.2194C15.0466 25.8147 15.0466 23.706 15.7479 23.2586C15.967 23.1308 16.8217 22.577 18.0489 22.151C19.9773 21.4694 22.7166 20.7665 24.5354 19.9784C25.3901 19.6163 25.8503 19.4033 26.0256 18.8069Z" fill="#95C11F"/>
</g>
</g>
</svg>
