<svg width="300" height="66" viewBox="0 0 300 66" fill="none" xmlns="http://www.w3.org/2000/svg">
<g clip-path="url(#clip0)">
<path d="M98.7609 24.0101C100.321 25.3049 101.101 27.1177 101.101 29.4484C101.101 31.7421 100.321 33.5549 98.7609 34.8498C97.2009 36.1446 95.0095 36.8105 92.2609 36.8105H85.9838V43.9877H84.3867V22.0493H92.2609C95.0095 22.0493 97.1637 22.7152 98.7609 24.0101ZM97.6094 33.8139C98.8352 32.778 99.4666 31.3352 99.4666 29.4484C99.4666 27.5616 98.8352 26.0818 97.6094 25.046C96.3837 24.0101 94.6009 23.4921 92.2238 23.4921H85.9467V35.3307H92.2238C94.6009 35.3307 96.3837 34.8128 97.6094 33.8139Z" fill="#93C01F"/>
<path d="M128.03 43.9507L122.793 36.6256C122.013 36.7365 121.307 36.7735 120.676 36.7735H114.399V43.9507H112.802V22.0493H120.676C123.425 22.0493 125.616 22.7152 127.176 24.0101C128.736 25.3049 129.516 27.1177 129.516 29.4484C129.516 31.1872 129.07 32.63 128.179 33.8139C127.287 34.9978 126.024 35.8117 124.353 36.2926L129.85 43.9507H128.03ZM120.676 35.3677C123.016 35.3677 124.799 34.8498 126.024 33.8139C127.25 32.778 127.882 31.3352 127.882 29.4114C127.882 27.5247 127.25 26.0448 126.024 25.009C124.799 23.9731 123.016 23.4551 120.676 23.4551H114.399V35.3307H120.676V35.3677Z" fill="#93C01F"/>
<path d="M145.152 42.6559C143.407 41.694 142.032 40.3621 141.067 38.6603C140.064 36.9585 139.581 35.0718 139.581 33C139.581 30.9283 140.064 29.0415 141.067 27.3397C142.07 25.6379 143.444 24.3061 145.152 23.3442C146.898 22.3823 148.83 21.9014 150.984 21.9014C153.138 21.9014 155.069 22.3823 156.815 23.3442C158.561 24.3061 159.935 25.6379 160.901 27.3027C161.904 29.0045 162.387 30.8913 162.387 33C162.387 35.1088 161.904 36.9955 160.901 38.6973C159.898 40.3991 158.524 41.694 156.815 42.6559C155.069 43.6177 153.138 44.0987 150.984 44.0987C148.83 44.0987 146.861 43.6177 145.152 42.6559ZM155.961 41.361C157.447 40.5101 158.635 39.3633 159.489 37.9204C160.344 36.4406 160.789 34.8128 160.789 33C160.789 31.1872 160.344 29.5594 159.489 28.0796C158.635 26.5998 157.447 25.4529 155.961 24.639C154.475 23.7881 152.804 23.3812 150.984 23.3812C149.127 23.3812 147.455 23.7881 145.97 24.639C144.484 25.4899 143.295 26.6368 142.441 28.0796C141.587 29.5594 141.141 31.1872 141.141 33C141.141 34.8128 141.587 36.4406 142.441 37.9204C143.295 39.4003 144.484 40.5471 145.97 41.361C147.455 42.2119 149.127 42.6189 150.984 42.6189C152.804 42.6189 154.475 42.2119 155.961 41.361Z" fill="#93C01F"/>
<path d="M189.946 33.0739H191.468V41.2499C190.503 42.1748 189.351 42.8777 187.977 43.3586C186.603 43.8396 185.154 44.0616 183.631 44.0616C181.44 44.0616 179.508 43.5806 177.763 42.6187C176.017 41.6569 174.643 40.325 173.64 38.6602C172.637 36.9584 172.154 35.0717 172.154 32.9629C172.154 30.8542 172.637 28.9674 173.64 27.2656C174.643 25.5638 176.017 24.269 177.763 23.3071C179.508 22.3452 181.477 21.8643 183.668 21.8643C185.266 21.8643 186.751 22.1232 188.126 22.6412C189.463 23.1591 190.614 23.899 191.58 24.8609L190.577 25.9338C189.648 25.0089 188.608 24.343 187.494 23.936C186.343 23.5291 185.08 23.3441 183.706 23.3441C181.811 23.3441 180.14 23.751 178.617 24.6019C177.094 25.4528 175.906 26.5997 175.051 28.0425C174.197 29.5223 173.751 31.1501 173.751 32.9629C173.751 34.7387 174.197 36.4035 175.051 37.8463C175.906 39.3261 177.094 40.473 178.617 41.3239C180.14 42.1748 181.811 42.5817 183.706 42.5817C186.231 42.5817 188.311 41.9158 189.946 40.584V33.0739Z" fill="#93C01F"/>
<path d="M220.031 43.9507L214.794 36.6256C214.014 36.7365 213.308 36.7735 212.677 36.7735H206.4V43.9507H204.803V22.0493H212.677C215.426 22.0493 217.617 22.7152 219.177 24.0101C220.737 25.3049 221.517 27.1177 221.517 29.4484C221.517 31.1872 221.071 32.63 220.18 33.8139C219.288 34.9978 218.025 35.8117 216.354 36.2926L221.851 43.9507H220.031ZM212.64 35.3677C214.98 35.3677 216.763 34.8498 217.988 33.8139C219.214 32.778 219.845 31.3352 219.845 29.4114C219.845 27.5247 219.214 26.0448 217.988 25.009C216.763 23.9731 214.98 23.4551 212.64 23.4551H206.363V35.3307H212.64V35.3677Z" fill="#93C01F"/>
<path d="M248.816 42.5078V43.9507H233.662V22.0493H248.333V23.4921H235.259V32.1121H246.959V33.5179H235.259V42.5078H248.816Z" fill="#93C01F"/>
<path d="M262.114 43.2477C260.666 42.6927 259.514 41.9898 258.697 41.1019L259.403 39.9181C260.183 40.732 261.223 41.3979 262.523 41.9158C263.823 42.4338 265.197 42.6927 266.646 42.6927C268.726 42.6927 270.323 42.2858 271.4 41.5089C272.477 40.732 272.997 39.6961 272.997 38.4012C272.997 37.4394 272.7 36.6255 272.143 36.0705C271.586 35.4786 270.88 35.0346 270.026 34.7387C269.171 34.4427 268.057 34.1098 266.646 33.7768C265.049 33.3699 263.749 32.9999 262.783 32.6299C261.817 32.26 261 31.6681 260.294 30.8912C259.589 30.1142 259.292 29.0784 259.292 27.7465C259.292 26.6737 259.589 25.7118 260.146 24.8239C260.703 23.936 261.557 23.2331 262.746 22.7151C263.897 22.1972 265.346 21.9382 267.091 21.9382C268.317 21.9382 269.506 22.1232 270.657 22.4562C271.846 22.8261 272.849 23.3071 273.703 23.899L273.109 25.1938C272.217 24.6019 271.251 24.121 270.211 23.825C269.171 23.529 268.094 23.3441 267.091 23.3441C265.049 23.3441 263.526 23.751 262.486 24.5649C261.446 25.3788 260.926 26.4147 260.926 27.7095C260.926 28.6714 261.223 29.4853 261.78 30.0403C262.337 30.6322 263.043 31.0761 263.897 31.3721C264.751 31.6681 265.866 32.001 267.314 32.371C268.911 32.7779 270.211 33.1479 271.177 33.5178C272.143 33.8878 272.96 34.4797 273.629 35.2196C274.297 35.9965 274.631 36.9954 274.631 38.2903C274.631 39.3631 274.334 40.325 273.777 41.2129C273.183 42.1008 272.329 42.8037 271.14 43.3216C269.951 43.8396 268.466 44.0986 266.757 44.0986C265.086 44.0986 263.563 43.8026 262.114 43.2477Z" fill="#93C01F"/>
<path d="M287.483 43.2477C286.034 42.6927 284.883 41.9898 284.065 41.1019L284.771 39.9181C285.551 40.732 286.591 41.3979 287.891 41.9158C289.191 42.4338 290.565 42.6927 292.014 42.6927C294.094 42.6927 295.691 42.2858 296.768 41.5089C297.845 40.732 298.365 39.6961 298.365 38.4012C298.365 37.4394 298.068 36.6255 297.511 36.0705C296.954 35.4786 296.248 35.0346 295.394 34.7387C294.54 34.4427 293.425 34.1098 292.014 33.7768C290.417 33.3699 289.117 32.9999 288.151 32.6299C287.185 32.26 286.368 31.6681 285.663 30.8912C284.994 30.1142 284.66 29.0784 284.66 27.7465C284.66 26.6737 284.957 25.7118 285.514 24.8239C286.071 23.936 286.925 23.2331 288.114 22.7151C289.265 22.1972 290.714 21.9382 292.46 21.9382C293.685 21.9382 294.874 22.1232 296.025 22.4562C297.214 22.8261 298.217 23.3071 299.071 23.899L298.477 25.1938C297.585 24.6019 296.62 24.121 295.58 23.825C294.54 23.529 293.462 23.3441 292.46 23.3441C290.417 23.3441 288.894 23.751 287.854 24.5649C286.814 25.3788 286.294 26.4147 286.294 27.7095C286.294 28.6714 286.591 29.4853 287.148 30.0403C287.705 30.6322 288.411 31.0761 289.265 31.3721C290.12 31.6681 291.234 32.001 292.682 32.371C294.28 32.7779 295.58 33.1479 296.545 33.5178C297.511 33.8878 298.328 34.4797 298.997 35.2196C299.665 35.9965 300 36.9954 300 38.2903C300 39.3631 299.702 40.325 299.145 41.2129C298.551 42.1008 297.697 42.8037 296.508 43.3216C295.32 43.8396 293.834 44.0986 292.125 44.0986C290.491 44.0986 288.968 43.8026 287.483 43.2477Z" fill="#93C01F"/>
<path d="M62.9931 45.9854C62.7331 45.1715 62.176 44.5056 61.396 44.0986C59.836 43.2847 57.8674 43.9137 57.0503 45.4675C56.6417 46.2444 56.5674 47.0953 56.8274 47.9462C57.0874 48.7601 57.6446 49.426 58.4246 49.833C58.9817 50.1289 59.6131 50.2399 60.2446 50.2029C61.3217 50.0919 62.2874 49.463 62.8074 48.5011C63.1788 47.6872 63.2531 46.7993 62.9931 45.9854Z" fill="#93C01F"/>
<path d="M54.3017 51.2759H54.2646C53.4474 51.2759 52.6303 51.6088 52.036 52.2008C51.4046 52.7927 51.0703 53.6066 51.0703 54.4575C51.0703 55.3084 51.4046 56.1223 51.9989 56.7512C52.7046 57.4541 53.6331 57.7871 54.636 57.7131C55.3788 57.6391 56.0474 57.3061 56.5674 56.8252C57.1988 56.2333 57.5331 55.3824 57.5331 54.5315C57.5331 53.6806 57.1988 52.8667 56.6045 52.2378C55.9731 51.6088 55.156 51.2759 54.3017 51.2759Z" fill="#93C01F"/>
<path d="M45.2015 57.0472C44.3844 57.4542 43.8272 58.1201 43.5301 58.934C43.2701 59.7479 43.3072 60.6358 43.7158 61.4127C44.0872 62.1896 44.7558 62.7815 45.6101 63.0405C46.0558 63.1885 46.5015 63.2255 46.9472 63.1885C47.3558 63.1515 47.7272 63.0405 48.0615 62.8555C48.8415 62.4856 49.4357 61.7826 49.6957 60.9687C49.9557 60.1548 49.8815 59.2669 49.51 58.527C48.6929 56.8992 46.7615 56.2703 45.2015 57.0472Z" fill="#FFEC00"/>
<path d="M39.5187 60.1547C38.813 59.6738 37.9958 59.4518 37.1416 59.5628C35.3587 59.8217 34.1702 61.4865 34.4302 63.2253C34.6902 64.9271 36.2502 66.111 37.9587 65.963C37.9958 65.963 38.0701 65.963 38.1073 65.926C38.9616 65.815 39.7415 65.3341 40.2615 64.6312C40.7815 63.9282 40.9672 63.0773 40.8558 62.2264C40.6701 61.4125 40.2244 60.6356 39.5187 60.1547Z" fill="#FFEC00"/>
<path d="M28.8965 59.5258C28.0422 59.3778 27.1879 59.5998 26.4822 60.0807C25.7765 60.5987 25.3308 61.3386 25.1822 62.1895C25.0337 63.0404 25.2565 63.8913 25.7394 64.5942C26.2594 65.2971 27.0022 65.741 27.8565 65.889C28.1536 65.926 28.4136 65.926 28.7108 65.926C29.305 65.852 29.825 65.667 30.3079 65.3341C31.0136 64.8162 31.4593 64.0762 31.6079 63.2253C31.8307 61.4866 30.6422 59.8218 28.8965 59.5258Z" fill="#FFEC00"/>
<path d="M22.2851 58.7118C22.0251 57.8979 21.468 57.232 20.688 56.862C19.908 56.4551 19.0537 56.3811 18.1995 56.6401C17.3823 56.899 16.7138 57.454 16.3052 58.2309C15.8966 59.0078 15.8223 59.8587 16.0823 60.7096C16.3423 61.5235 16.8995 62.1894 17.6795 62.5964C18.2366 62.8923 18.868 63.0033 19.4994 62.9293C19.7223 62.8923 19.9451 62.8553 20.168 62.7813C20.9851 62.5224 21.6537 61.9304 22.0251 61.1905C22.508 60.4136 22.5823 59.5627 22.2851 58.7118Z" fill="#FFEC00"/>
<path d="M11.624 50.9429C10.7697 50.9429 9.95256 51.2758 9.35828 51.8678C8.72686 52.4967 8.39258 53.3106 8.39258 54.1615C8.39258 55.0124 8.72686 55.8263 9.32114 56.4182C9.91542 57.0471 10.7697 57.3801 11.6611 57.3801C11.7725 57.3801 11.8468 57.3801 11.9583 57.3801C12.7011 57.3061 13.4068 56.9731 13.9268 56.4552C15.1897 55.1974 15.1897 53.1626 13.9268 51.9048C13.3325 51.2758 12.5154 50.9429 11.624 50.9429Z" fill="#F29100"/>
<path d="M9.02472 45.0975C8.61615 44.3206 7.94759 43.7657 7.13045 43.4697C6.31332 43.2108 5.4219 43.2847 4.64191 43.6547C3.86191 44.0247 3.30478 44.6906 3.00764 45.5415C2.74764 46.3554 2.78478 47.2433 3.19335 47.9832C3.56477 48.7601 4.27048 49.352 5.08762 49.611C5.49618 49.759 5.94189 49.796 6.3876 49.759C6.79617 49.722 7.20474 49.611 7.53902 49.426C9.17329 48.6121 9.80471 46.6883 9.02472 45.0975Z" fill="#F29100"/>
<path d="M3.75105 40.806C5.49674 40.51 6.72245 38.8822 6.4253 37.1434C6.31388 36.2555 5.86817 35.5156 5.16246 34.9977C4.45675 34.4797 3.60248 34.2947 2.7482 34.4057C1.89392 34.5537 1.11393 34.9977 0.631075 35.7006C0.11108 36.4035 -0.0746326 37.2544 0.0739374 38.0683C0.222507 38.9192 0.668217 39.6961 1.37393 40.214C2.00535 40.658 2.78534 40.8799 3.56533 40.806C3.63962 40.806 3.7139 40.806 3.75105 40.806Z" fill="#F29100"/>
<path d="M2.7478 31.4091C3.04494 31.4461 3.30494 31.4831 3.56493 31.4461C4.15921 31.3721 4.67921 31.1871 5.16206 30.8172C5.83063 30.2992 6.31348 29.5593 6.42491 28.7084C6.72205 26.9696 5.49634 25.3049 3.75065 25.0089C2.00495 24.7129 0.333535 25.9338 0.0363948 27.6726C-0.112175 28.5235 0.11068 29.4114 0.630675 30.1143C1.15067 30.8542 1.93066 31.2981 2.7478 31.4091Z" fill="#F29100"/>
<path d="M4.71609 22.1604C5.27323 22.4193 5.86751 22.5673 6.49893 22.4933C7.61321 22.3823 8.57892 21.7164 9.06177 20.7545L9.09891 20.7175C9.8789 19.1267 9.24748 17.2399 7.65035 16.426C6.05322 15.6121 4.12181 16.2411 3.30468 17.8319C2.89611 18.6088 2.85897 19.4967 3.11897 20.3106C3.37896 21.1245 3.97324 21.7904 4.71609 22.1604Z" fill="#E5332A"/>
<path d="M12.0335 14.9091C12.7763 14.8352 13.482 14.5022 14.002 13.9843C14.6334 13.3553 14.9677 12.5784 14.9677 11.6905C14.9677 10.8396 14.6334 10.0257 14.002 9.39681C13.4077 8.80488 12.5906 8.47192 11.7363 8.47192C10.882 8.47192 10.0649 8.80488 9.43348 9.43381C8.8392 10.0257 8.46777 10.8766 8.46777 11.7645C8.46777 12.6154 8.80206 13.4293 9.43348 14.0213C10.1392 14.6502 11.0677 14.9831 12.0335 14.9091Z" fill="#E5332A"/>
<path d="M20.8364 9.02683C21.6164 8.61988 22.1736 7.95396 22.4336 7.14006C22.6936 6.32616 22.6193 5.43826 22.2479 4.66136C21.8393 3.92145 21.1707 3.32952 20.3536 3.07055C19.5364 2.81158 18.645 2.88557 17.865 3.25553C17.085 3.66248 16.4908 4.3284 16.2308 5.1793C15.9708 5.9932 16.0451 6.88109 16.4536 7.621C16.8622 8.39791 17.5308 8.95284 18.3479 9.21181C18.7565 9.35979 19.2022 9.39678 19.6479 9.35979C20.0936 9.32279 20.465 9.21181 20.8364 9.02683Z" fill="#E5332A"/>
<path d="M31.4956 2.73766C31.3471 1.88677 30.9014 1.14686 30.1957 0.628918C29.49 0.110981 28.6357 -0.0739965 27.7814 0.0739856C26.9271 0.221968 26.1471 0.702909 25.6643 1.40582C25.1443 2.10874 24.9586 2.95964 25.1071 3.81053C25.3671 5.47533 26.9271 6.65919 28.6357 6.51121C28.71 6.51121 28.7842 6.51121 28.8214 6.47421C30.6042 6.14125 31.7928 4.47645 31.4956 2.73766Z" fill="#E5332A"/>
<path d="M41.0786 3.69951C41.3386 1.96072 40.15 0.295917 38.3672 0.0369484C37.5129 -0.111034 36.6215 0.110939 35.9529 0.628877C35.2472 1.14681 34.8015 1.88672 34.6901 2.73762C34.4301 4.47641 35.6558 6.14121 37.4015 6.40018C37.6615 6.43717 37.9586 6.43717 38.2186 6.43717C39.6672 6.28919 40.8557 5.17933 41.0786 3.69951Z" fill="#D9D9D9"/>
<path d="M49.6218 7.51001C50.4389 5.91921 49.7703 3.99544 48.1732 3.18154L48.136 3.14454C47.3561 2.77459 46.4646 2.73759 45.6846 2.99656C44.8675 3.25553 44.1989 3.84746 43.8275 4.62436C43.0475 6.21517 43.6789 8.13894 45.2761 8.95284C45.8332 9.21181 46.4275 9.35979 47.0589 9.2858C48.136 9.17481 49.1018 8.50889 49.6218 7.51001Z" fill="#D9D9D9"/>
<path d="M54.71 14.7612C55.4529 14.6872 56.1586 14.3542 56.6786 13.8363C57.9414 12.5784 57.9043 10.5437 56.6414 9.28583C56.01 8.6939 55.1929 8.32394 54.3015 8.36094C53.4472 8.36094 52.6301 8.73089 52.0358 9.32282C50.8101 10.5807 50.8101 12.6154 52.0729 13.8733C52.8158 14.5392 53.7443 14.8721 54.71 14.7612Z" fill="#D9D9D9"/>
<path d="M57.1252 20.6065C57.7566 21.7904 58.9823 22.4563 60.3194 22.3453C60.728 22.3083 61.1365 22.1974 61.508 22.0124C63.1051 21.1985 63.6994 19.2377 62.8822 17.6469C62.4737 16.87 61.768 16.3151 60.9508 16.0561C60.1337 15.7971 59.2423 15.8711 58.4994 16.2781C56.9023 17.092 56.308 19.0157 57.1252 20.6065Z" fill="#D9D9D9"/>
<path d="M66.1504 27.4877C66.0018 26.6368 65.5189 25.8599 64.8132 25.379C64.1075 24.8981 63.2532 24.6761 62.399 24.8611C61.5447 25.009 60.8018 25.49 60.2818 26.1929C59.799 26.8958 59.6133 27.7467 59.7247 28.5606C59.8733 29.4115 60.319 30.1514 61.0247 30.6694C61.6561 31.1133 62.4361 31.3353 63.2161 31.2613C63.2904 31.2613 63.3647 31.2613 63.439 31.2243C64.2932 31.0763 65.0361 30.5954 65.5561 29.8924C66.1132 29.1895 66.2989 28.3386 66.1504 27.4877Z" fill="#93C01F"/>
<path d="M65.5929 35.7747C65.0729 35.0717 64.33 34.6278 63.4757 34.5168C61.73 34.2578 60.0958 35.4787 59.8358 37.2545C59.7244 38.1054 59.9101 38.9563 60.4301 39.6592C60.9501 40.3621 61.6929 40.806 62.5843 40.917C62.8443 40.954 63.1043 40.954 63.3643 40.917C64.85 40.769 66.0386 39.6592 66.2614 38.1794C66.3357 37.3655 66.1129 36.4776 65.5929 35.7747Z" fill="#93C01F"/>
<path d="M42.4153 35.0346V30.9651C42.4153 30.9651 42.2668 29.5592 40.0011 28.0794C37.6982 26.5626 34.1697 24.4908 27.0755 22.3451C27.0755 22.3451 23.9555 21.4942 23.8812 22.1971C23.8069 22.9 23.8069 26.5626 24.9955 27.3395C25.3669 27.5615 26.8155 28.5234 28.8955 29.2633C32.164 30.4471 36.8068 31.668 39.8897 33.0368C41.3382 33.6287 42.1182 33.9987 42.4153 35.0346Z" fill="#233670"/>
<path d="M23.8447 30.9282V35.0347C23.8447 35.0347 23.9933 36.4406 26.259 37.9204C28.5618 39.4372 32.0904 41.5089 39.1846 43.6547C39.1846 43.6547 42.3045 44.5056 42.3788 43.8027C42.4531 43.0998 42.4531 39.4372 41.2646 38.6603C40.8931 38.4383 39.4446 37.4764 37.3646 36.7365C34.0961 35.5527 29.4532 34.3318 26.3704 32.963C24.9219 32.3341 24.1047 31.9641 23.8447 30.9282Z" fill="#233670"/>
<path d="M23.8447 35.0348V30.9653C23.8447 30.9653 23.9933 29.5595 26.259 28.0797C28.5618 26.5628 32.0904 24.4911 39.1846 22.3453C39.1846 22.3453 42.3045 21.4944 42.3788 22.1974C42.4531 22.9003 42.4531 26.5628 41.2646 27.3397C40.8931 27.5617 39.4446 28.5236 37.3646 29.2635C34.0961 30.4474 29.4532 31.6682 26.3704 33.0371C24.9219 33.629 24.1047 33.9989 23.8447 35.0348Z" fill="#95C11F"/>
<g opacity="0.94">
<g opacity="0.94">
<path opacity="0.94" d="M23.8447 35.0348V30.9653C23.8447 30.9653 23.9933 29.5595 26.259 28.0797C28.5618 26.5628 32.0904 24.4911 39.1846 22.3453C39.1846 22.3453 42.3045 21.4944 42.3788 22.1974C42.4531 22.9003 42.4531 26.5628 41.2646 27.3397C40.8931 27.5617 39.4446 28.5236 37.3646 29.2635C34.0961 30.4474 29.4532 31.6682 26.3704 33.0371C24.9219 33.629 24.1047 33.9989 23.8447 35.0348Z" fill="#95C11F"/>
</g>
</g>
<path d="M42.4153 30.9285V35.035C42.4153 35.035 42.2668 36.4408 40.0011 37.9206C37.6982 39.4374 34.1697 41.5092 27.0755 43.6549C27.0755 43.6549 23.9555 44.5058 23.8812 43.8029C23.8069 43.1 23.8069 39.4374 24.9955 38.6605C25.3669 38.4386 26.8155 37.4767 28.8955 36.7368C32.164 35.5529 36.8068 34.3321 39.8897 32.9632C41.3382 32.3343 42.1182 31.9643 42.4153 30.9285Z" fill="#95C11F"/>
<g opacity="0.94">
<g opacity="0.94">
<path opacity="0.94" d="M42.4153 30.9285V35.035C42.4153 35.035 42.2668 36.4408 40.0011 37.9206C37.6982 39.4374 34.1697 41.5092 27.0755 43.6549C27.0755 43.6549 23.9555 44.5058 23.8812 43.8029C23.8069 43.1 23.8069 39.4374 24.9955 38.6605C25.3669 38.4386 26.8155 37.4767 28.8955 36.7368C32.164 35.5529 36.8068 34.3321 39.8897 32.9632C41.3382 32.3343 42.1182 31.9643 42.4153 30.9285Z" fill="#95C11F"/>
</g>
</g>
</g>
<defs>
<clipPath id="clip0">
<rect width="300" height="66" fill="white"/>
</clipPath>
</defs>
</svg>
