<svg width="276" height="140" viewBox="0 0 276 140" fill="none" xmlns="http://www.w3.org/2000/svg">
<path d="M18.2585 114.285C20.24 115.944 21.2308 118.266 21.2308 121.251C21.2308 124.189 20.24 126.511 18.2585 128.169C16.2769 129.828 13.4933 130.681 10.002 130.681H2.02872V139.873H0V111.774H10.002C13.4933 111.774 16.2297 112.627 18.2585 114.285ZM16.7959 126.842C18.3528 125.516 19.1549 123.668 19.1549 121.251C19.1549 118.834 18.3528 116.939 16.7959 115.612C15.239 114.285 12.9744 113.622 9.95487 113.622H1.98154V128.785H9.95487C12.9744 128.785 15.239 128.122 16.7959 126.842Z" fill="#93C01F"/>
<path d="M55.7392 139.873L49.0255 130.475C48.0256 130.618 47.1209 130.665 46.3115 130.665H38.2646V139.873H36.2172V111.774H46.3115C49.835 111.774 52.6443 112.628 54.6441 114.29C56.6439 115.951 57.6438 118.277 57.6438 121.267C57.6438 123.498 57.0725 125.349 55.9297 126.868C54.7869 128.387 53.168 129.431 51.0254 130.048L58.0724 139.873H55.7392ZM46.3115 128.861C49.3112 128.861 51.5967 128.197 53.168 126.868C54.7393 125.539 55.5488 123.688 55.5488 121.22C55.5488 118.799 54.7393 116.9 53.168 115.571C51.5967 114.242 49.3112 113.578 46.3115 113.578H38.2646V128.814H46.3115V128.861Z" fill="#93C01F"/>
<path d="M77.7309 138.006C75.4844 136.761 73.7158 135.038 72.473 132.836C71.1825 130.634 70.5611 128.192 70.5611 125.511C70.5611 122.83 71.1825 120.389 72.473 118.187C73.7636 115.984 75.5322 114.261 77.7309 113.016C79.9774 111.772 82.463 111.149 85.2353 111.149C88.0076 111.149 90.4932 111.772 92.7397 113.016C94.9862 114.261 96.7548 115.984 97.9976 118.139C99.2881 120.341 99.9095 122.782 99.9095 125.511C99.9095 128.24 99.2881 130.681 97.9976 132.884C96.707 135.086 94.9384 136.761 92.7397 138.006C90.4932 139.251 88.0076 139.873 85.2353 139.873C82.463 139.873 79.9296 139.251 77.7309 138.006ZM91.6403 136.331C93.5523 135.229 95.0818 133.745 96.1812 131.878C97.2806 129.963 97.8542 127.857 97.8542 125.511C97.8542 123.165 97.2806 121.059 96.1812 119.144C95.0818 117.229 93.5523 115.745 91.6403 114.692C89.7284 113.591 87.5774 113.064 85.2353 113.064C82.8454 113.064 80.6944 113.591 78.7825 114.692C76.8705 115.793 75.341 117.277 74.2416 119.144C73.1422 121.059 72.5686 123.165 72.5686 125.511C72.5686 127.857 73.1422 129.963 74.2416 131.878C75.341 133.793 76.8705 135.277 78.7825 136.331C80.6944 137.432 82.8454 137.958 85.2353 137.958C87.5774 137.958 89.7284 137.432 91.6403 136.331Z" fill="#93C01F"/>
<path d="M134.702 125.655H136.611V136.235C135.401 137.432 133.957 138.341 132.234 138.964C130.512 139.586 128.696 139.873 126.786 139.873C124.039 139.873 121.618 139.251 119.429 138.006C117.241 136.761 115.518 135.038 114.261 132.884C113.004 130.681 112.398 128.24 112.398 125.511C112.398 122.782 113.004 120.341 114.261 118.139C115.518 115.936 117.241 114.261 119.429 113.016C121.618 111.772 124.086 111.149 126.833 111.149C128.835 111.149 130.698 111.484 132.421 112.155C134.097 112.825 135.54 113.782 136.751 115.027L135.494 116.415C134.33 115.218 133.026 114.357 131.629 113.83C130.186 113.303 128.602 113.064 126.88 113.064C124.505 113.064 122.409 113.591 120.5 114.692C118.591 115.793 117.101 117.277 116.03 119.144C114.959 121.059 114.4 123.165 114.4 125.511C114.4 127.809 114.959 129.963 116.03 131.83C117.101 133.745 118.591 135.229 120.5 136.331C122.409 137.432 124.505 137.958 126.88 137.958C130.046 137.958 132.654 137.097 134.702 135.373V125.655Z" fill="#93C01F"/>
<path d="M173.757 139.873L167.044 130.475C166.044 130.618 165.139 130.665 164.33 130.665H156.283V139.873H154.235V111.774H164.33C167.853 111.774 170.662 112.628 172.662 114.29C174.662 115.951 175.662 118.277 175.662 121.267C175.662 123.498 175.091 125.349 173.948 126.868C172.805 128.387 171.186 129.431 169.043 130.048L176.09 139.873H173.757ZM164.282 128.861C167.282 128.861 169.567 128.197 171.139 126.868C172.71 125.539 173.519 123.688 173.519 121.22C173.519 118.799 172.71 116.9 171.139 115.571C169.567 114.242 167.282 113.578 164.282 113.578H156.235V128.814H164.282V128.861Z" fill="#93C01F"/>
<path d="M210.434 138.022V139.873H191.077V111.774H209.818V113.625H193.117V124.685H208.062V126.488H193.117V138.022H210.434Z" fill="#93C01F"/>
<path d="M227.342 138.77C225.469 138.051 223.98 137.14 222.923 135.989L223.836 134.454C224.844 135.509 226.189 136.373 227.871 137.044C229.552 137.715 231.329 138.051 233.202 138.051C235.892 138.051 237.958 137.523 239.351 136.516C240.743 135.509 241.416 134.167 241.416 132.488C241.416 131.242 241.032 130.187 240.311 129.467C239.591 128.7 238.678 128.125 237.573 127.741C236.469 127.357 235.028 126.926 233.202 126.494C231.137 125.967 229.456 125.487 228.207 125.008C226.958 124.528 225.901 123.761 224.989 122.754C224.076 121.747 223.692 120.404 223.692 118.678C223.692 117.287 224.076 116.04 224.796 114.89C225.517 113.739 226.622 112.828 228.159 112.156C229.648 111.485 231.521 111.149 233.779 111.149C235.364 111.149 236.901 111.389 238.39 111.821C239.927 112.3 241.224 112.923 242.329 113.691L241.56 115.369C240.407 114.602 239.158 113.978 237.813 113.595C236.469 113.211 235.076 112.971 233.779 112.971C231.137 112.971 229.167 113.499 227.823 114.554C226.478 115.609 225.805 116.952 225.805 118.63C225.805 119.877 226.189 120.932 226.91 121.651C227.63 122.418 228.543 122.994 229.648 123.377C230.753 123.761 232.194 124.192 234.067 124.672C236.132 125.199 237.813 125.679 239.062 126.159C240.311 126.638 241.368 127.405 242.233 128.364C243.097 129.371 243.529 130.666 243.529 132.344C243.529 133.735 243.145 134.982 242.425 136.133C241.656 137.284 240.551 138.195 239.014 138.866C237.477 139.537 235.556 139.873 233.346 139.873C231.185 139.873 229.215 139.49 227.342 138.77Z" fill="#93C01F"/>
<path d="M260.303 138.77C258.487 138.051 257.043 137.14 256.018 135.989L256.903 134.454C257.881 135.509 259.185 136.373 260.816 137.044C262.446 137.715 264.169 138.051 265.986 138.051C268.594 138.051 270.597 137.523 271.948 136.516C273.298 135.509 273.951 134.167 273.951 132.488C273.951 131.242 273.578 130.187 272.879 129.467C272.181 128.7 271.296 128.125 270.224 127.741C269.153 127.357 267.756 126.926 265.986 126.494C263.983 125.967 262.353 125.487 261.142 125.008C259.931 124.528 258.906 123.761 258.021 122.754C257.183 121.747 256.763 120.404 256.763 118.678C256.763 117.287 257.136 116.04 257.835 114.89C258.533 113.739 259.605 112.828 261.095 112.156C262.539 111.485 264.356 111.149 266.545 111.149C268.082 111.149 269.572 111.389 271.016 111.821C272.507 112.3 273.764 112.923 274.836 113.691L274.09 115.369C272.972 114.602 271.761 113.978 270.457 113.595C269.153 113.211 267.802 112.971 266.545 112.971C263.983 112.971 262.073 113.499 260.769 114.554C259.465 115.609 258.813 116.952 258.813 118.63C258.813 119.877 259.185 120.932 259.884 121.651C260.583 122.418 261.468 122.994 262.539 123.377C263.61 123.761 265.008 124.192 266.824 124.672C268.827 125.199 270.457 125.679 271.668 126.159C272.879 126.638 273.904 127.405 274.742 128.364C275.581 129.371 276 130.666 276 132.344C276 133.735 275.627 134.982 274.929 136.133C274.183 137.284 273.112 138.195 271.622 138.866C270.131 139.537 268.268 139.873 266.125 139.873C264.076 139.873 262.166 139.49 260.303 138.77Z" fill="#93C01F"/>
<path d="M177.131 61.1048C176.78 60.0048 176.028 59.1047 174.974 58.5547C172.866 57.4547 170.207 58.3047 169.103 60.4048C168.551 61.4548 168.451 62.6049 168.802 63.7549C169.153 64.855 169.906 65.755 170.96 66.305C171.712 66.7051 172.565 66.8551 173.418 66.8051C174.873 66.6551 176.178 65.805 176.881 64.505C177.382 63.4049 177.483 62.2049 177.131 61.1048Z" fill="#93C01F"/>
<path d="M165.787 68.6877H165.741C164.714 68.6877 163.688 69.107 162.942 69.8522C162.148 70.5975 161.729 71.6223 161.729 72.6936C161.729 73.765 162.148 74.7897 162.895 75.5816C163.781 76.4666 164.948 76.8858 166.207 76.7927C167.14 76.6995 167.98 76.2803 168.633 75.6747C169.426 74.9295 169.846 73.8581 169.846 72.7868C169.846 71.7154 169.426 70.6907 168.68 69.8988C167.887 69.107 166.86 68.6877 165.787 68.6877Z" fill="#93C01F"/>
<path d="M153.589 76.003C152.487 76.5515 151.736 77.4491 151.335 78.5462C150.985 79.6432 151.035 80.84 151.586 81.8872C152.087 82.9344 152.988 83.7322 154.14 84.0813C154.74 84.2807 155.341 84.3306 155.942 84.2807C156.493 84.2309 156.994 84.0813 157.444 83.8319C158.496 83.3333 159.297 82.3858 159.648 81.2888C159.998 80.1917 159.898 78.995 159.397 77.9976C158.296 75.8035 155.692 74.9558 153.589 76.003Z" fill="#FFEC00"/>
<path d="M146.149 80.1445C145.198 79.4918 144.098 79.1905 142.948 79.3411C140.547 79.6926 138.947 81.9522 139.297 84.3123C139.647 86.6221 141.747 88.229 144.048 88.0281C144.098 88.0281 144.198 88.0281 144.248 87.9779C145.398 87.8273 146.449 87.1745 147.149 86.2204C147.849 85.2664 148.099 84.1114 147.949 82.9565C147.699 81.8518 147.099 80.7973 146.149 80.1445Z" fill="#FFEC00"/>
<path d="M132.443 79.3645C131.294 79.1637 130.144 79.4648 129.195 80.1171C128.245 80.8196 127.646 81.8231 127.446 82.9772C127.246 84.1313 127.546 85.2853 128.195 86.2387C128.895 87.1921 129.894 87.7942 131.044 87.9949C131.443 88.0451 131.793 88.0451 132.193 88.0451C132.993 87.9447 133.692 87.6938 134.342 87.2422C135.291 86.5398 135.891 85.5362 136.091 84.3821C136.39 82.0238 134.791 79.7659 132.443 79.3645Z" fill="#FFEC00"/>
<path d="M123.419 77.939C123.096 76.838 122.404 75.9372 121.434 75.4367C120.464 74.8863 119.403 74.7862 118.341 75.1365C117.325 75.4868 116.494 76.2375 115.986 77.2884C115.478 78.3394 115.386 79.4904 115.709 80.6415C116.032 81.7425 116.725 82.6433 117.694 83.1938C118.387 83.5941 119.172 83.7443 119.957 83.6442C120.234 83.5941 120.511 83.5441 120.788 83.444C121.803 83.0937 122.634 82.293 123.096 81.292C123.696 80.2411 123.789 79.0901 123.419 77.939Z" fill="#FFEC00"/>
<path d="M109.577 68.0632C108.507 68.0632 107.483 68.4831 106.739 69.2296C105.948 70.0227 105.529 71.049 105.529 72.1221C105.529 73.1951 105.948 74.2214 106.692 74.9679C107.437 75.761 108.507 76.1809 109.623 76.1809C109.763 76.1809 109.856 76.1809 109.995 76.1809C110.926 76.0876 111.81 75.6677 112.461 75.0146C114.042 73.4283 114.042 70.8624 112.461 69.2762C111.717 68.4831 110.693 68.0632 109.577 68.0632Z" fill="#F29100"/>
<path d="M106.332 59.8599C105.784 58.8078 104.887 58.0564 103.79 57.6556C102.694 57.3049 101.497 57.4051 100.451 57.9061C99.4038 58.4071 98.6562 59.3088 98.2574 60.461C97.9085 61.5631 97.9584 62.7654 98.5067 63.7674C99.0051 64.8194 99.9521 65.621 101.049 65.9716C101.597 66.172 102.195 66.2221 102.793 66.172C103.341 66.1219 103.89 65.9716 104.338 65.7211C106.531 64.619 107.379 62.014 106.332 59.8599Z" fill="#F29100"/>
<path d="M99.3442 54.3066C101.712 53.9051 103.374 51.6972 102.971 49.3388C102.82 48.1345 102.216 47.1309 101.259 46.4284C100.301 45.7259 99.1427 45.475 97.984 45.6255C96.8253 45.8262 95.7674 46.4284 95.1124 47.3818C94.4072 48.3352 94.1553 49.4893 94.3568 50.5933C94.5583 51.7474 95.1628 52.8012 96.12 53.5037C96.9764 54.1058 98.0344 54.4069 99.0923 54.3066C99.1931 54.3066 99.2938 54.3066 99.3442 54.3066Z" fill="#F29100"/>
<path d="M98.0095 42.3912C98.4105 42.4409 98.7614 42.4907 99.1122 42.4409C99.9142 42.3414 100.616 42.0925 101.268 41.5947C102.17 40.8977 102.821 39.9021 102.972 38.7572C103.373 36.4175 101.719 34.1773 99.3629 33.7791C97.0071 33.3808 94.7516 35.0236 94.3506 37.3633C94.1501 38.5083 94.4508 39.703 95.1525 40.6488C95.8543 41.6445 96.9068 42.2418 98.0095 42.3912Z" fill="#F29100"/>
<path d="M100.869 29.5293C101.567 29.8556 102.311 30.0421 103.103 29.9489C104.499 29.809 105.709 28.9699 106.314 27.7579L106.361 27.7113C107.338 25.7068 106.547 23.3293 104.545 22.3038C102.544 21.2782 100.124 22.0707 99.0999 24.0752C98.588 25.0541 98.5414 26.1729 98.8672 27.1985C99.193 28.2241 99.9377 29.0632 100.869 29.5293Z" fill="#E5332A"/>
<path d="M110.325 19.968C111.324 19.8677 112.273 19.4162 112.973 18.714C113.822 17.8612 114.272 16.8078 114.272 15.6039C114.272 14.4502 113.822 13.3466 112.973 12.4938C112.173 11.6912 111.074 11.2397 109.925 11.2397C108.776 11.2397 107.677 11.6912 106.828 12.544C106.029 13.3466 105.529 14.5003 105.529 15.7042C105.529 16.858 105.979 17.9615 106.828 18.7641C107.777 19.6169 109.026 20.0684 110.325 19.968Z" fill="#E5332A"/>
<path d="M121.91 12.0533C122.958 11.5416 123.706 10.7043 124.056 9.68087C124.405 8.65747 124.305 7.54104 123.806 6.56415C123.257 5.63379 122.359 4.8895 121.262 4.56387C120.164 4.23824 118.967 4.33128 117.919 4.79646C116.872 5.30816 116.073 6.14549 115.724 7.21541C115.375 8.23881 115.475 9.35525 116.023 10.2856C116.572 11.2625 117.47 11.9603 118.568 12.2859C119.117 12.472 119.715 12.5185 120.314 12.472C120.913 12.4254 121.412 12.2859 121.91 12.0533Z" fill="#E5332A"/>
<path d="M136.065 3.64936C135.865 2.50479 135.264 1.50951 134.313 0.812812C133.361 0.116116 132.209 -0.132704 131.057 0.066352C129.905 0.265408 128.854 0.91234 128.203 1.85786C127.501 2.80337 127.251 3.94795 127.451 5.09252C127.802 7.3319 129.905 8.92435 132.209 8.72529C132.309 8.72529 132.409 8.72529 132.46 8.67553C134.863 8.22765 136.466 5.98827 136.065 3.64936Z" fill="#E5332A"/>
<path d="M147.946 5.0288C148.273 2.67037 146.779 0.412299 144.538 0.0610433C143.465 -0.139674 142.344 0.161402 141.504 0.863914C140.617 1.56643 140.057 2.57001 139.917 3.72414C139.59 6.08257 141.131 8.34065 143.325 8.6919C143.651 8.74208 144.025 8.74208 144.352 8.74208C146.172 8.54136 147.666 7.03598 147.946 5.0288Z" fill="#D9D9D9"/>
<path d="M159.417 10.0655C160.441 7.9178 159.603 5.32057 157.602 4.22174L157.555 4.17179C156.577 3.67232 155.46 3.62238 154.483 3.97201C153.459 4.32163 152.621 5.12078 152.155 6.16966C151.178 8.31737 151.969 10.9146 153.971 12.0134C154.669 12.3631 155.414 12.5628 156.205 12.4629C157.555 12.3131 158.765 11.4141 159.417 10.0655Z" fill="#D9D9D9"/>
<path d="M166.22 19.9532C167.15 19.8525 168.033 19.3994 168.684 18.6945C170.264 16.9827 170.218 14.2137 168.637 12.5019C167.847 11.6963 166.824 11.1929 165.709 11.2432C164.64 11.2432 163.617 11.7467 162.873 12.5522C161.339 14.264 161.339 17.0331 162.92 18.7449C163.849 19.6511 165.012 20.1042 166.22 19.9532Z" fill="#D9D9D9"/>
<path d="M169.09 27.6007C169.94 29.2047 171.592 30.1069 173.394 29.9566C173.944 29.9064 174.495 29.7561 174.995 29.5054C177.147 28.4027 177.948 25.7461 176.847 23.5907C176.296 22.5381 175.346 21.7863 174.245 21.4354C173.143 21.0845 171.942 21.1848 170.941 21.7361C168.789 22.8389 167.989 25.4453 169.09 27.6007Z" fill="#D9D9D9"/>
<path d="M181.644 36.7269C181.445 35.5788 180.796 34.5306 179.848 33.8816C178.899 33.2327 177.752 32.9332 176.604 33.1828C175.456 33.3825 174.458 34.0314 173.759 34.9798C173.11 35.9282 172.861 37.0763 173.01 38.1745C173.21 39.3225 173.809 40.3209 174.757 41.0197C175.606 41.6187 176.654 41.9182 177.702 41.8184C177.802 41.8184 177.901 41.8184 178.001 41.7685C179.149 41.5688 180.147 40.9199 180.846 39.9715C181.594 39.023 181.844 37.875 181.644 36.7269Z" fill="#93C01F"/>
<path d="M180.788 47.3319C180.086 46.381 179.082 45.7805 177.928 45.6303C175.57 45.28 173.362 46.9315 173.01 49.3336C172.86 50.4847 173.111 51.6357 173.813 52.5865C174.516 53.5374 175.519 54.1379 176.724 54.288C177.075 54.3381 177.426 54.3381 177.778 54.288C179.785 54.0879 181.391 52.5865 181.692 50.5848C181.792 49.4838 181.491 48.2827 180.788 47.3319Z" fill="#93C01F"/>
<path d="M150.17 46.7597V41.3295C150.17 41.3295 149.974 39.4537 146.99 37.4791C143.957 35.4551 139.31 32.6906 129.966 29.8274C129.966 29.8274 125.857 28.692 125.759 29.63C125.662 30.5679 125.662 35.4551 127.227 36.4917C127.716 36.7879 129.624 38.0714 132.363 39.0587C136.668 40.6384 142.783 42.2675 146.843 44.094C148.751 44.8839 149.779 45.3775 150.17 46.7597Z" fill="#202E5A"/>
<path d="M125.708 41.2812V46.7608C125.708 46.7608 125.904 48.6367 128.888 50.6113C131.921 52.6353 136.568 55.3997 145.912 58.2629C145.912 58.2629 150.021 59.3983 150.119 58.4604C150.217 57.5224 150.217 52.6353 148.651 51.5986C148.162 51.3024 146.254 50.0189 143.515 49.0316C139.21 47.4519 133.095 45.8229 129.035 43.9963C127.127 43.1571 126.051 42.6635 125.708 41.2812Z" fill="#202E5A"/>
<path d="M125.708 46.7597V41.3296C125.708 41.3296 125.904 39.4537 128.888 37.4791C131.921 35.4551 136.568 32.6906 145.912 29.8274C145.912 29.8274 150.021 28.692 150.119 29.63C150.217 30.5679 150.217 35.4551 148.651 36.4918C148.162 36.7879 146.254 38.0714 143.515 39.0587C139.21 40.6384 133.095 42.2675 129.035 44.094C127.127 44.8839 126.051 45.3775 125.708 46.7597Z" fill="#95C11F"/>
<g opacity="0.94">
<g opacity="0.94">
<path opacity="0.94" d="M125.708 46.7597V41.3296C125.708 41.3296 125.904 39.4537 128.888 37.4791C131.921 35.4551 136.568 32.6906 145.912 29.8274C145.912 29.8274 150.021 28.692 150.119 29.63C150.217 30.5679 150.217 35.4551 148.651 36.4918C148.162 36.7879 146.254 38.0714 143.515 39.0587C139.21 40.6384 133.095 42.2675 129.035 44.094C127.127 44.8839 126.051 45.3775 125.708 46.7597Z" fill="#95C11F"/>
</g>
</g>
<path d="M150.168 41.2812V46.7608C150.168 46.7608 149.972 48.6367 146.988 50.6113C143.955 52.6353 139.308 55.3997 129.964 58.2629C129.964 58.2629 125.855 59.3983 125.757 58.4604C125.659 57.5224 125.659 52.6353 127.225 51.5986C127.714 51.3024 129.622 50.0189 132.361 49.0316C136.666 47.4519 142.781 45.8229 146.841 43.9963C148.749 43.1571 149.776 42.6635 150.168 41.2812Z" fill="#95C11F"/>
<g opacity="0.94">
<g opacity="0.94">
<path opacity="0.94" d="M150.168 41.2812V46.7608C150.168 46.7608 149.972 48.6367 146.988 50.6113C143.955 52.6353 139.308 55.3997 129.964 58.2629C129.964 58.2629 125.855 59.3983 125.757 58.4604C125.659 57.5224 125.659 52.6353 127.225 51.5986C127.714 51.3024 129.622 50.0189 132.361 49.0316C136.666 47.4519 142.781 45.8229 146.841 43.9963C148.749 43.1571 149.776 42.6635 150.168 41.2812Z" fill="#95C11F"/>
</g>
</g>
</svg>
