<svg width="120" height="120" viewBox="0 0 120 120" fill="none" xmlns="http://www.w3.org/2000/svg">
<path d="M114.058 83.6455C113.587 82.1653 112.578 80.9542 111.166 80.2141C108.342 78.7339 104.778 79.8777 103.299 82.7035C102.559 84.1164 102.425 85.6639 102.895 87.2114C103.366 88.6916 104.375 89.9026 105.787 90.6427C106.795 91.181 107.939 91.3828 109.082 91.3156C111.032 91.1137 112.78 89.9699 113.721 88.2206C114.394 86.7404 114.528 85.1257 114.058 83.6455Z" fill="#93C01F"/>
<path d="M98.3227 93.2668H98.2555C96.7762 93.2668 95.2968 93.8724 94.221 94.9489C93.0778 96.0254 92.4727 97.5056 92.4727 99.053C92.4727 100.601 93.0778 102.081 94.1537 103.224C95.4313 104.503 97.1124 105.108 98.9279 104.974C100.273 104.839 101.483 104.234 102.425 103.359C103.568 102.283 104.173 100.735 104.173 99.1876C104.173 97.6401 103.568 96.1599 102.492 95.0162C101.349 93.8724 99.8693 93.2668 98.3227 93.2668Z" fill="#93C01F"/>
<path d="M81.8484 103.763C80.3691 104.503 79.3605 105.714 78.8225 107.194C78.3518 108.674 78.4191 110.289 79.1587 111.702C79.8311 113.115 81.0415 114.192 82.5881 114.662C83.395 114.932 84.2019 114.999 85.0088 114.932C85.7485 114.864 86.4209 114.662 87.026 114.326C88.4381 113.653 89.514 112.375 89.9847 110.895C90.4554 109.415 90.3209 107.8 89.6485 106.454C88.1692 103.494 84.6726 102.35 81.8484 103.763Z" fill="#FFEC00"/>
<path d="M71.5595 109.414C70.2819 108.54 68.8026 108.136 67.256 108.338C64.0284 108.809 61.8767 111.836 62.3474 114.999C62.8181 118.094 65.6422 120.247 68.7354 119.977C68.8026 119.977 68.9371 119.977 69.0043 119.91C70.5509 119.708 71.963 118.834 72.9044 117.555C73.8458 116.277 74.182 114.729 73.9803 113.182C73.644 111.702 72.8371 110.289 71.5595 109.414Z" fill="#FFEC00"/>
<path d="M52.3289 108.271C50.7824 108.002 49.2358 108.405 47.9582 109.28C46.6806 110.222 45.8737 111.567 45.6047 113.115C45.3358 114.662 45.7392 116.21 46.6134 117.488C47.5547 118.767 48.8996 119.574 50.4462 119.843C50.9841 119.91 51.4548 119.91 51.9927 119.91C53.0686 119.776 54.01 119.439 54.8841 118.834C56.1617 117.892 56.9687 116.546 57.2376 114.999C57.6411 111.837 55.4893 108.809 52.3289 108.271Z" fill="#FFEC00"/>
<path d="M40.3599 106.79C39.8892 105.31 38.8805 104.099 37.4684 103.426C36.0564 102.686 34.5098 102.552 32.9632 103.023C31.4839 103.494 30.2735 104.503 29.5339 105.916C28.7942 107.329 28.6597 108.876 29.1304 110.423C29.6011 111.904 30.6097 113.115 32.0218 113.855C33.0305 114.393 34.1736 114.595 35.3167 114.46C35.7201 114.393 36.1236 114.326 36.5271 114.191C38.0064 113.72 39.2167 112.644 39.8892 111.298C40.7633 109.885 40.8978 108.338 40.3599 106.79Z" fill="#FFEC00"/>
<path d="M21.0609 92.6614C19.5143 92.6614 18.035 93.2669 16.9591 94.3434C15.816 95.4872 15.2108 96.9674 15.2108 98.5149C15.2108 100.062 15.816 101.543 16.8919 102.619C17.9677 103.763 19.5143 104.368 21.1281 104.368C21.3299 104.368 21.4643 104.368 21.6661 104.368C23.0109 104.234 24.2885 103.628 25.2299 102.686C27.5161 100.399 27.5161 96.6983 25.2299 94.4107C24.154 93.2669 22.6747 92.6614 21.0609 92.6614Z" fill="#F29100"/>
<path d="M16.3545 82.0307C15.6149 80.6178 14.4045 79.6086 12.9252 79.0703C11.4459 78.5994 9.83205 78.7339 8.41997 79.4067C7.00788 80.0796 5.99925 81.2906 5.46131 82.8381C4.99061 84.3183 5.05785 85.933 5.79752 87.2787C6.46994 88.6916 7.74754 89.7681 9.22687 90.2391C9.96654 90.5082 10.7734 90.5755 11.5804 90.5082C12.32 90.4409 13.0597 90.2391 13.6649 89.9027C16.6235 88.4225 17.7666 84.9238 16.3545 82.0307Z" fill="#F29100"/>
<path d="M6.80706 74.2261C9.96745 73.6878 12.1864 70.7274 11.6485 67.5652C11.4468 65.9504 10.6399 64.6048 9.36227 63.6629C8.08467 62.7209 6.53809 62.3845 4.99152 62.5864C3.44495 62.8555 2.03286 63.6629 1.15871 64.9412C0.217323 66.2196 -0.118888 67.767 0.150081 69.2472C0.41905 70.7947 1.22596 72.2076 2.50356 73.1496C3.64668 73.9569 5.05877 74.3606 6.47085 74.2261C6.60534 74.2261 6.73982 74.2261 6.80706 74.2261Z" fill="#F29100"/>
<path d="M4.99048 57.1365C5.52842 57.2038 5.99912 57.2711 6.46981 57.2038C7.54569 57.0692 8.48708 56.7328 9.36123 56.06C10.5716 55.1181 11.4457 53.7724 11.6475 52.225C12.1854 49.0627 9.96641 46.0351 6.80602 45.4968C3.64564 44.9586 0.619738 47.1788 0.0818002 50.3411C-0.187169 51.8885 0.216285 53.5033 1.15768 54.7816C2.09907 56.1273 3.51115 56.9347 4.99048 57.1365Z" fill="#F29100"/>
<path d="M8.55439 40.3163C9.56302 40.7872 10.6389 41.0564 11.782 40.9218C13.7993 40.7199 15.5476 39.5089 16.4217 37.7596L16.489 37.6923C17.9011 34.7992 16.7579 31.3678 13.8665 29.8876C10.9751 28.4074 7.47851 29.5512 5.99918 32.4443C5.25951 33.8572 5.19227 35.472 5.66297 36.9522C6.13366 38.4324 7.20954 39.6434 8.55439 40.3163Z" fill="#E5332A"/>
<path d="M21.8017 27.1291C23.1465 26.9945 24.4241 26.389 25.3655 25.4471C26.5086 24.3033 27.1138 22.8904 27.1138 21.2756C27.1138 19.7281 26.5086 18.2479 25.3655 17.1042C24.2897 16.0277 22.8103 15.4221 21.2638 15.4221C19.7172 15.4221 18.2379 16.0277 17.0947 17.1714C16.0189 18.2479 15.3464 19.7954 15.3464 21.4102C15.3464 22.9576 15.9516 24.4378 17.0947 25.5143C18.3723 26.6581 20.0534 27.2637 21.8017 27.1291Z" fill="#E5332A"/>
<path d="M37.737 16.4312C39.1491 15.6911 40.1577 14.48 40.6284 12.9999C41.0991 11.5197 40.9646 9.90491 40.2922 8.492C39.5525 7.14637 38.3422 6.06986 36.8629 5.59889C35.3835 5.12792 33.7697 5.26248 32.3576 5.9353C30.9455 6.6754 29.8697 7.88646 29.399 9.43394C28.9283 10.9141 29.0628 12.5289 29.8024 13.8745C30.5421 15.2874 31.7524 16.2966 33.2318 16.7676C33.9714 17.0367 34.7783 17.104 35.5852 17.0367C36.3922 16.9695 37.0646 16.7676 37.737 16.4312Z" fill="#E5332A"/>
<path d="M57.0359 4.99355C56.767 3.44607 55.9601 2.10044 54.6825 1.1585C53.4049 0.21656 51.8583 -0.119847 50.3117 0.149279C48.7651 0.418405 47.3531 1.29306 46.4789 2.57141C45.5375 3.84976 45.2013 5.39723 45.4703 6.94471C45.941 9.97238 48.7651 12.1254 51.8583 11.8563C51.9928 11.8563 52.1272 11.8563 52.1945 11.789C55.4221 11.1834 57.5739 8.15578 57.0359 4.99355Z" fill="#E5332A"/>
<path d="M74.3844 6.74272C74.8551 3.58049 72.7034 0.552818 69.4757 0.0818479C67.9292 -0.187278 66.3153 0.216411 65.105 1.15835C63.8274 2.10029 63.0205 3.44592 62.8187 4.9934C62.348 8.15563 64.567 11.1833 67.7274 11.6543C68.1981 11.7215 68.7361 11.7215 69.2068 11.7215C71.8292 11.4524 73.981 9.43398 74.3844 6.74272Z" fill="#D9D9D9"/>
<path d="M89.8504 13.6726C91.3297 10.7795 90.1194 7.2809 87.228 5.80071L87.1607 5.73343C85.7486 5.06061 84.1348 4.99333 82.7227 5.4643C81.2434 5.93527 80.033 7.01178 79.3606 8.42469C77.9485 11.3178 79.0916 14.8164 81.9831 16.2966C82.9917 16.7676 84.0676 17.0367 85.2107 16.9022C87.1607 16.7003 88.909 15.4892 89.8504 13.6726Z" fill="#D9D9D9"/>
<path d="M99.0621 26.8599C100.407 26.7253 101.685 26.1198 102.626 25.1779C104.912 22.8903 104.845 19.1898 102.559 16.9022C101.416 15.8257 99.9362 15.1529 98.3224 15.2202C96.7758 15.2202 95.2965 15.893 94.2206 16.9695C92.0016 19.2571 92.0016 22.9576 94.2879 25.2451C95.6327 26.4562 97.3138 27.0617 99.0621 26.8599Z" fill="#D9D9D9"/>
<path d="M103.434 37.4905C104.577 39.6436 106.796 40.8546 109.216 40.6528C109.956 40.5855 110.696 40.3837 111.368 40.0472C114.26 38.5671 115.335 35.0011 113.856 32.108C113.116 30.6951 111.839 29.6859 110.36 29.2149C108.88 28.7439 107.266 28.8785 105.922 29.6186C103.03 31.0988 101.954 34.5974 103.434 37.4905Z" fill="#D9D9D9"/>
<path d="M119.773 50.0049C119.504 48.4574 118.63 47.0445 117.353 46.1699C116.075 45.2952 114.528 44.8915 112.982 45.2279C111.435 45.497 110.091 46.3717 109.149 47.6501C108.275 48.9284 107.939 50.4759 108.14 51.9561C108.409 53.5035 109.216 54.8492 110.494 55.7911C111.637 56.5985 113.049 57.0022 114.461 56.8676C114.596 56.8676 114.73 56.8676 114.865 56.8003C116.411 56.5312 117.756 55.6565 118.698 54.3782C119.706 53.0999 120.042 51.5524 119.773 50.0049Z" fill="#93C01F"/>
<path d="M118.764 65.0759C117.823 63.7975 116.478 62.9902 114.932 62.7883C111.771 62.3174 108.813 64.5376 108.342 67.7672C108.14 69.3146 108.476 70.8621 109.418 72.1404C110.359 73.4188 111.704 74.2262 113.318 74.428C113.789 74.4953 114.259 74.4953 114.73 74.428C117.42 74.1589 119.571 72.1404 119.975 69.4492C120.109 67.969 119.706 66.3542 118.764 65.0759Z" fill="#93C01F"/>
<path d="M76.8037 63.7298V56.3288C76.8037 56.3288 76.5347 53.7721 72.433 51.0809C68.2639 48.3223 61.8759 44.5545 49.0327 40.6522C49.0327 40.6522 43.3843 39.1047 43.2498 40.3831C43.1153 41.6614 43.1153 48.3223 45.2671 49.7352C45.9395 50.1389 48.562 51.8882 52.3275 53.2339C58.2449 55.3869 66.6501 57.6072 72.2312 60.0966C74.8537 61.1731 76.2658 61.8459 76.8037 63.7298Z" fill="#233670"/>
<path d="M43.1837 56.2617V63.73C43.1837 63.73 43.4527 66.2867 47.5545 68.9779C51.7235 71.7365 58.1115 75.5042 70.9548 79.4066C70.9548 79.4066 76.6031 80.954 76.7376 79.6757C76.8721 78.3973 76.8721 71.7365 74.7203 70.3236C74.0479 69.9199 71.4255 68.1705 67.6599 66.8249C61.7426 64.6719 53.3373 62.4516 47.7562 59.9622C45.1337 58.8184 43.6544 58.1456 43.1837 56.2617Z" fill="#233670"/>
<path d="M43.1837 63.7303V56.3293C43.1837 56.3293 43.4527 53.7726 47.5545 51.0813C51.7235 48.3228 58.1115 44.555 70.9548 40.6527C70.9548 40.6527 76.6031 39.1052 76.7376 40.3836C76.8721 41.6619 76.8721 48.3228 74.7203 49.7357C74.0479 50.1394 71.4255 51.8887 67.6599 53.2344C61.7426 55.3874 53.3373 57.6077 47.7562 60.0971C45.1337 61.1736 43.6544 61.8464 43.1837 63.7303Z" fill="#95C11F"/>
<g opacity="0.94">
<g opacity="0.94">
<path opacity="0.94" d="M43.1837 63.7303V56.3293C43.1837 56.3293 43.4527 53.7726 47.5545 51.0813C51.7235 48.3228 58.1115 44.555 70.9548 40.6527C70.9548 40.6527 76.6031 39.1052 76.7376 40.3836C76.8721 41.6619 76.8721 48.3228 74.7203 49.7357C74.0479 50.1394 71.4255 51.8887 67.6599 53.2344C61.7426 55.3874 53.3373 57.6077 47.7562 60.0971C45.1337 61.1736 43.6544 61.8464 43.1837 63.7303Z" fill="#95C11F"/>
</g>
</g>
<path d="M76.8047 56.2625V63.7307C76.8047 63.7307 76.5357 66.2874 72.4339 68.9787C68.2649 71.7372 61.8769 75.505 49.0336 79.4073C49.0336 79.4073 43.3853 80.9548 43.2508 79.6764C43.1163 78.3981 43.1163 71.7372 45.2681 70.3243C45.9405 69.9206 48.5629 68.1713 52.3285 66.8257C58.2458 64.6726 66.6511 62.4524 72.2322 59.9629C74.8547 58.8191 76.2667 58.1463 76.8047 56.2625Z" fill="#95C11F"/>
<g opacity="0.94">
<g opacity="0.94">
<path opacity="0.94" d="M76.8047 56.2625V63.7307C76.8047 63.7307 76.5357 66.2874 72.4339 68.9787C68.2649 71.7372 61.8769 75.505 49.0336 79.4073C49.0336 79.4073 43.3853 80.9548 43.2508 79.6764C43.1163 78.3981 43.1163 71.7372 45.2681 70.3243C45.9405 69.9206 48.5629 68.1713 52.3285 66.8257C58.2458 64.6726 66.6511 62.4524 72.2322 59.9629C74.8547 58.8191 76.2667 58.1463 76.8047 56.2625Z" fill="#95C11F"/>
</g>
</g>
</svg>
