<svg width="60" height="60" viewBox="0 0 60 60" fill="none" xmlns="http://www.w3.org/2000/svg">
<path d="M60 30C60 13.4314 46.5686 0 30 0C13.4314 0 0 13.4314 0 30C0 44.9736 10.9705 57.385 25.3125 59.6356V38.6719H17.6953V30H25.3125V23.3906C25.3125 15.8719 29.7914 11.7188 36.6439 11.7188C39.9252 11.7188 43.3594 12.3047 43.3594 12.3047V19.6875H39.5766C35.85 19.6875 34.6875 22.0002 34.6875 24.375V30H43.0078L41.6777 38.6719H34.6875V59.6356C49.0295 57.385 60 44.9736 60 30Z" fill="url(#paint0_linear)"/>
<defs>
<linearGradient id="paint0_linear" x1="13.1927" y1="0.705248" x2="71.6934" y2="27.6175" gradientUnits="userSpaceOnUse">
<stop stop-color="#304587"/>
<stop offset="1" stop-color="#233670"/>
</linearGradient>
</defs>
</svg>
