<svg width="24" height="24" viewBox="0 0 24 24" fill="none" xmlns="http://www.w3.org/2000/svg">
<path d="M12 0C5.37266 0 0 5.37266 0 12C0 18.6273 5.37266 24 12 24C18.6273 24 24 18.6273 24 12C23.9926 5.37578 18.6242 0.0074219 12 0ZM12 23.2C5.81445 23.2 0.8 18.1855 0.8 12C0.8 5.81445 5.81445 0.8 12 0.8C18.1855 0.8 23.2 5.81445 23.2 12C23.193 18.1826 18.1826 23.193 12 23.2Z" fill="#233670"/>
<path d="M17.6 7.20001H6.4C6.1791 7.20001 6 7.37911 6 7.60001V16.4C6 16.6209 6.1791 16.8 6.4 16.8H17.6C17.8209 16.8 18 16.6209 18 16.4V7.60001C18 7.37911 17.8209 7.20001 17.6 7.20001ZM16.5199 8.00001L12 11.8733L7.48008 8.00001H16.5199ZM6.8 16V8.46954L11.7396 12.7035C11.8893 12.8317 12.11 12.8317 12.2596 12.7035L17.2 8.46954V16H6.8Z" fill="#233670"/>
</svg>
