<svg width="24" height="25" viewBox="0 0 24 25" fill="none" xmlns="http://www.w3.org/2000/svg">
<path d="M20.2909 3.50044C15.5828 -1.16681 8.11859 -1.16681 3.41046 3.50044C-1.25097 8.45415 -1.11728 16.3484 3.70907 21.1329C8.4172 25.8001 15.8814 25.8001 20.5895 21.1329C25.251 16.1792 25.1173 8.28488 20.2909 3.50044ZM20.0185 20.5468L20.0145 20.5426C15.5842 25.0857 8.40453 25.0824 3.97825 20.5351C-0.448027 15.9879 -0.444752 8.61884 3.98556 4.07576C8.41587 -0.467329 15.5955 -0.463968 20.0218 4.08321C22.1479 6.26739 23.3413 9.22913 23.3394 12.3167C23.3395 15.4035 22.145 18.364 20.0185 20.5468Z" fill="#233670"/>
<path d="M18.8245 15.8657L16.5486 13.5379C16.032 13.0065 15.1935 13.0055 14.6758 13.5356C14.675 13.5364 14.6743 13.5371 14.6735 13.5379L13.3695 14.8763C13.2709 14.9779 13.1154 14.9919 13.001 14.9096C12.2873 14.3977 11.6192 13.8217 11.0045 13.1888C10.454 12.625 9.94755 12.0177 9.48987 11.3723C9.40691 11.2563 9.41896 11.0956 9.5182 10.994L10.8546 9.62235C11.3706 9.09174 11.3706 8.23258 10.8546 7.70197L8.57867 5.36595C8.05421 4.85132 7.2281 4.85132 6.70364 5.36595L5.9828 6.10582C4.89416 7.21063 4.50552 8.85111 4.97844 10.3456C5.33134 11.439 5.83018 12.4769 6.46066 13.4298C7.02826 14.3034 7.67943 15.1166 8.40454 15.8573C9.19287 16.6723 10.0661 17.3957 11.0085 18.0146C12.0445 18.7085 13.1821 19.2277 14.3779 19.5526C14.6853 19.6304 15.0009 19.6694 15.3174 19.6689C16.4029 19.6621 17.4413 19.2137 18.2049 18.4219L18.8246 17.786C19.3405 17.2554 19.3405 16.3963 18.8245 15.8657ZM18.251 17.2191C18.2505 17.2196 18.25 17.2202 18.2494 17.2207L18.2534 17.2083L17.6338 17.8442C16.8377 18.6717 15.6783 19.0121 14.5762 18.7421C13.466 18.437 12.4105 17.9515 11.4498 17.3039C10.5573 16.7184 9.73024 16.034 8.98353 15.263C8.29648 14.5629 7.67924 13.7943 7.14088 12.9685C6.55201 12.0799 6.08593 11.1119 5.75586 10.0921C5.37747 8.89398 5.69103 7.57932 6.56582 6.6961L7.28667 5.95623C7.48708 5.7496 7.81274 5.74887 8.01401 5.95457C8.01453 5.95511 8.0151 5.95564 8.01562 5.95623L10.2916 8.29225C10.4929 8.49796 10.4936 8.83221 10.2932 9.03879C10.2927 9.03933 10.2921 9.03986 10.2916 9.04045L8.95515 10.4121C8.57169 10.8014 8.52347 11.4201 8.84178 11.867C9.32514 12.5479 9.86004 13.1886 10.4414 13.7832C11.0897 14.4514 11.7944 15.0593 12.5473 15.5997C12.9824 15.9112 13.5722 15.8586 13.9485 15.475L15.2404 14.1282C15.4408 13.9216 15.7664 13.9209 15.9677 14.1266C15.9682 14.1271 15.9688 14.1277 15.9693 14.1282L18.2494 16.4726C18.4507 16.6782 18.4514 17.0125 18.251 17.2191Z" fill="#233670"/>
</svg>
