<svg width="570" height="625" viewBox="0 0 570 625" fill="none" xmlns="http://www.w3.org/2000/svg">
<path d="M10 109C10 97.9543 18.9543 89 30 89H490C501.046 89 510 97.9543 510 109V545C510 556.046 501.046 565 490 565H30C18.9543 565 10 556.046 10 545V109Z" fill="url(#paint0_linear_185_2982)"/>
<path d="M559.105 558.35C558.242 555.636 556.393 553.416 553.804 552.059C548.627 549.345 542.093 551.442 539.381 556.623C538.025 559.213 537.778 562.05 538.641 564.887C539.504 567.601 541.353 569.821 543.942 571.178C545.791 572.165 547.887 572.535 549.983 572.412C553.558 572.042 556.763 569.945 558.489 566.738C559.722 564.024 559.968 561.064 559.105 558.35Z" fill="#93C01F"/>
<path d="M530.258 575.989H530.135C527.423 575.989 524.711 577.099 522.738 579.073C520.643 581.046 519.533 583.76 519.533 586.597C519.533 589.434 520.643 592.148 522.615 594.245C524.957 596.588 528.039 597.698 531.368 597.452C533.833 597.205 536.052 596.095 537.778 594.491C539.874 592.518 540.983 589.681 540.983 586.844C540.983 584.007 539.874 581.293 537.902 579.196C535.806 577.099 533.094 575.989 530.258 575.989Z" fill="#93C01F"/>
<path d="M500.056 595.232C497.343 596.588 495.494 598.809 494.508 601.522C493.645 604.236 493.768 607.196 495.125 609.787C496.357 612.377 498.576 614.351 501.412 615.214C502.891 615.708 504.37 615.831 505.85 615.708C507.206 615.584 508.438 615.214 509.548 614.597C512.137 613.364 514.109 611.02 514.972 608.307C515.835 605.593 515.588 602.633 514.356 600.166C511.644 594.738 505.233 592.641 500.056 595.232Z" fill="#FFEC00"/>
<path d="M481.192 605.592C478.85 603.989 476.138 603.249 473.303 603.619C467.385 604.482 463.44 610.033 464.303 615.83C465.166 621.504 470.344 625.452 476.015 624.958C476.138 624.958 476.385 624.958 476.508 624.835C479.343 624.465 481.932 622.861 483.658 620.518C485.384 618.174 486 615.337 485.63 612.5C485.014 609.786 483.535 607.196 481.192 605.592Z" fill="#FFEC00"/>
<path d="M445.937 603.496C443.101 603.003 440.266 603.743 437.924 605.346C435.581 607.073 434.102 609.54 433.609 612.377C433.116 615.214 433.856 618.051 435.458 620.395C437.184 622.739 439.65 624.219 442.485 624.712C443.471 624.836 444.334 624.835 445.32 624.835C447.293 624.589 449.019 623.972 450.621 622.862C452.964 621.135 454.443 618.668 454.936 615.831C455.676 610.034 451.731 604.483 445.937 603.496Z" fill="#FFEC00"/>
<path d="M423.993 600.782C423.13 598.068 421.281 595.848 418.692 594.615C416.103 593.258 413.268 593.011 410.433 593.875C407.72 594.738 405.501 596.588 404.145 599.179C402.789 601.769 402.543 604.606 403.406 607.443C404.269 610.157 406.118 612.377 408.707 613.734C410.556 614.721 412.652 615.091 414.747 614.844C415.487 614.721 416.227 614.597 416.966 614.35C419.678 613.487 421.897 611.513 423.13 609.046C424.733 606.456 424.979 603.619 423.993 600.782Z" fill="#FFEC00"/>
<path d="M388.611 574.879C385.776 574.879 383.064 575.989 381.091 577.963C378.996 580.06 377.886 582.773 377.886 585.61C377.886 588.447 378.996 591.161 380.968 593.135C382.941 595.232 385.776 596.342 388.735 596.342C389.104 596.342 389.351 596.342 389.721 596.342C392.186 596.095 394.529 594.985 396.255 593.258C400.446 589.064 400.446 582.28 396.255 578.086C394.282 575.989 391.57 574.879 388.611 574.879Z" fill="#F29100"/>
<path d="M379.983 555.389C378.627 552.799 376.408 550.949 373.696 549.962C370.984 549.099 368.026 549.345 365.437 550.579C362.848 551.812 360.999 554.033 360.013 556.87C359.15 559.583 359.273 562.544 360.629 565.011C361.862 567.601 364.204 569.575 366.916 570.438C368.272 570.932 369.751 571.055 371.231 570.932C372.587 570.808 373.943 570.438 375.052 569.821C380.477 567.108 382.572 560.694 379.983 555.389Z" fill="#F29100"/>
<path d="M362.479 541.081C368.273 540.094 372.341 534.667 371.355 528.869C370.985 525.909 369.506 523.442 367.164 521.715C364.821 519.988 361.986 519.371 359.151 519.741C356.315 520.235 353.726 521.715 352.124 524.059C350.398 526.402 349.782 529.239 350.275 531.953C350.768 534.79 352.247 537.38 354.589 539.107C356.685 540.587 359.274 541.328 361.863 541.081C362.109 541.081 362.356 541.081 362.479 541.081Z" fill="#F29100"/>
<path d="M359.149 509.75C360.135 509.874 360.998 509.997 361.861 509.874C363.834 509.627 365.56 509.01 367.162 507.777C369.381 506.05 370.984 503.583 371.354 500.746C372.34 494.948 368.272 489.398 362.478 488.411C356.684 487.424 351.136 491.495 350.15 497.292C349.657 500.129 350.397 503.089 352.122 505.433C353.848 507.9 356.437 509.38 359.149 509.75Z" fill="#F29100"/>
<path d="M365.683 478.913C367.532 479.776 369.505 480.27 371.6 480.023C375.299 479.653 378.504 477.433 380.107 474.226L380.23 474.102C382.819 468.798 380.723 462.507 375.422 459.794C370.121 457.08 363.711 459.177 360.999 464.481C359.642 467.071 359.519 470.032 360.382 472.745C361.245 475.459 363.218 477.679 365.683 478.913Z" fill="#E5332A"/>
<path d="M389.97 454.737C392.435 454.49 394.778 453.38 396.504 451.653C398.599 449.556 399.709 446.966 399.709 444.005C399.709 441.168 398.599 438.455 396.504 436.358C394.531 434.384 391.819 433.274 388.984 433.274C386.148 433.274 383.436 434.384 381.34 436.481C379.368 438.455 378.135 441.292 378.135 444.252C378.135 447.089 379.245 449.803 381.34 451.776C383.683 453.873 386.765 454.983 389.97 454.737Z" fill="#E5332A"/>
<path d="M419.185 435.124C421.774 433.767 423.623 431.547 424.486 428.833C425.349 426.119 425.102 423.159 423.869 420.569C422.513 418.102 420.294 416.128 417.582 415.265C414.87 414.401 411.911 414.648 409.323 415.881C406.734 417.238 404.761 419.458 403.898 422.295C403.035 425.009 403.282 427.97 404.638 430.437C405.994 433.027 408.213 434.877 410.925 435.741C412.281 436.234 413.761 436.357 415.24 436.234C416.719 436.111 417.952 435.741 419.185 435.124Z" fill="#E5332A"/>
<path d="M454.566 414.155C454.073 411.318 452.593 408.851 450.251 407.124C447.909 405.397 445.073 404.78 442.238 405.274C439.403 405.767 436.814 407.371 435.211 409.714C433.485 412.058 432.869 414.895 433.362 417.732C434.225 423.283 439.403 427.23 445.073 426.737C445.32 426.737 445.567 426.737 445.69 426.613C451.607 425.503 455.552 419.952 454.566 414.155Z" fill="#E5332A"/>
<path d="M486.371 417.362C487.234 411.564 483.289 406.013 477.372 405.15C474.536 404.657 471.578 405.397 469.359 407.124C467.016 408.851 465.537 411.318 465.167 414.155C464.304 419.952 468.372 425.503 474.167 426.366C475.029 426.489 476.016 426.489 476.879 426.489C481.686 425.996 485.631 422.296 486.371 417.362Z" fill="#D9D9D9"/>
<path d="M514.725 430.066C517.438 424.762 515.219 418.348 509.918 415.635L509.794 415.511C507.206 414.278 504.247 414.154 501.658 415.018C498.946 415.881 496.727 417.855 495.494 420.445C492.905 425.749 495.001 432.163 500.302 434.877C502.151 435.741 504.124 436.234 506.219 435.987C509.794 435.617 513 433.397 514.725 430.066Z" fill="#D9D9D9"/>
<path d="M531.613 454.243C534.079 453.996 536.421 452.886 538.147 451.159C542.339 446.965 542.215 440.181 538.024 435.987C535.928 434.014 533.216 432.78 530.257 432.903C527.422 432.903 524.71 434.137 522.738 436.111C518.669 440.304 518.669 447.089 522.861 451.283C525.326 453.503 528.408 454.613 531.613 454.243Z" fill="#D9D9D9"/>
<path d="M539.628 473.733C541.724 477.68 545.792 479.9 550.23 479.53C551.586 479.407 552.942 479.037 554.175 478.42C559.475 475.706 561.448 469.169 558.736 463.865C557.38 461.274 555.037 459.424 552.325 458.561C549.613 457.697 546.655 457.944 544.189 459.301C538.888 462.015 536.916 468.429 539.628 473.733Z" fill="#D9D9D9"/>
<path d="M569.584 496.675C569.091 493.838 567.489 491.248 565.146 489.644C562.804 488.041 559.969 487.301 557.133 487.918C554.298 488.411 551.832 490.015 550.106 492.358C548.504 494.702 547.888 497.539 548.257 500.253C548.75 503.09 550.23 505.557 552.572 507.283C554.668 508.764 557.257 509.504 559.845 509.257C560.092 509.257 560.339 509.257 560.585 509.134C563.42 508.64 565.886 507.037 567.612 504.693C569.461 502.349 570.077 499.512 569.584 496.675Z" fill="#93C01F"/>
<path d="M567.735 524.306C566.009 521.962 563.543 520.482 560.708 520.112C554.914 519.248 549.49 523.319 548.627 529.24C548.257 532.077 548.873 534.914 550.599 537.257C552.325 539.601 554.791 541.081 557.749 541.451C558.612 541.575 559.475 541.575 560.338 541.451C565.269 540.958 569.214 537.257 569.954 532.323C570.2 529.61 569.46 526.649 567.735 524.306Z" fill="#93C01F"/>
<g filter="url(#filter0_d_185_2982)">
<rect x="182" y="20" width="298" height="420" rx="8" fill="white"/>
</g>
<g filter="url(#filter1_d_185_2982)">
<rect x="40" y="20" width="298" height="420" rx="8" fill="white"/>
</g>
<defs>
<filter id="filter0_d_185_2982" x="142" y="0" width="378" height="500" filterUnits="userSpaceOnUse" color-interpolation-filters="sRGB">
<feFlood flood-opacity="0" result="BackgroundImageFix"/>
<feColorMatrix in="SourceAlpha" type="matrix" values="0 0 0 0 0 0 0 0 0 0 0 0 0 0 0 0 0 0 127 0" result="hardAlpha"/>
<feOffset dy="20"/>
<feGaussianBlur stdDeviation="20"/>
<feColorMatrix type="matrix" values="0 0 0 0 0 0 0 0 0 0 0 0 0 0 0 0 0 0 0.1 0"/>
<feBlend mode="normal" in2="BackgroundImageFix" result="effect1_dropShadow_185_2982"/>
<feBlend mode="normal" in="SourceGraphic" in2="effect1_dropShadow_185_2982" result="shape"/>
</filter>
<filter id="filter1_d_185_2982" x="0" y="0" width="378" height="500" filterUnits="userSpaceOnUse" color-interpolation-filters="sRGB">
<feFlood flood-opacity="0" result="BackgroundImageFix"/>
<feColorMatrix in="SourceAlpha" type="matrix" values="0 0 0 0 0 0 0 0 0 0 0 0 0 0 0 0 0 0 127 0" result="hardAlpha"/>
<feOffset dy="20"/>
<feGaussianBlur stdDeviation="20"/>
<feColorMatrix type="matrix" values="0 0 0 0 0 0 0 0 0 0 0 0 0 0 0 0 0 0 0.1 0"/>
<feBlend mode="normal" in2="BackgroundImageFix" result="effect1_dropShadow_185_2982"/>
<feBlend mode="normal" in="SourceGraphic" in2="effect1_dropShadow_185_2982" result="shape"/>
</filter>
<linearGradient id="paint0_linear_185_2982" x1="182.863" y1="-21.2746" x2="391.895" y2="613.677" gradientUnits="userSpaceOnUse">
<stop stop-color="#A2D126"/>
<stop offset="1" stop-color="#81B01B"/>
</linearGradient>
</defs>
</svg>
