<svg width="490" height="490" viewBox="0 0 490 490" fill="none" xmlns="http://www.w3.org/2000/svg">
<circle cx="255" cy="235" r="235" fill="#FCED4E"/>
<path d="M209.105 423.35C208.242 420.636 206.393 418.416 203.804 417.059C198.627 414.345 192.093 416.442 189.381 421.623C188.025 424.213 187.778 427.05 188.641 429.887C189.504 432.601 191.353 434.821 193.942 436.178C195.791 437.165 197.887 437.535 199.983 437.412C203.558 437.041 206.763 434.945 208.489 431.737C209.722 429.024 209.968 426.063 209.105 423.35Z" fill="#93C01F"/>
<path d="M180.258 440.989H180.135C177.423 440.989 174.711 442.099 172.738 444.073C170.642 446.046 169.533 448.76 169.533 451.597C169.533 454.434 170.642 457.148 172.615 459.245C174.957 461.588 178.039 462.698 181.368 462.452C183.833 462.205 186.052 461.095 187.778 459.491C189.874 457.518 190.983 454.681 190.983 451.844C190.983 449.007 189.874 446.293 187.901 444.196C185.806 442.099 183.093 440.989 180.258 440.989Z" fill="#93C01F"/>
<path d="M150.055 460.232C147.343 461.589 145.494 463.809 144.508 466.523C143.645 469.236 143.768 472.197 145.124 474.787C146.357 477.377 148.576 479.351 151.411 480.214C152.891 480.708 154.37 480.831 155.849 480.708C157.205 480.584 158.438 480.214 159.548 479.598C162.136 478.364 164.109 476.02 164.972 473.307C165.835 470.593 165.588 467.633 164.355 465.166C161.643 459.738 155.233 457.641 150.055 460.232Z" fill="#FFEC00"/>
<path d="M131.193 470.592C128.85 468.989 126.138 468.249 123.303 468.619C117.386 469.482 113.441 475.033 114.304 480.83C115.167 486.504 120.344 490.452 126.015 489.958C126.138 489.958 126.385 489.958 126.508 489.835C129.343 489.465 131.932 487.861 133.658 485.518C135.384 483.174 136 480.337 135.631 477.5C135.014 474.786 133.535 472.196 131.193 470.592Z" fill="#FFEC00"/>
<path d="M95.9365 468.496C93.1011 468.003 90.2658 468.743 87.9235 470.346C85.5812 472.073 84.1019 474.54 83.6088 477.377C83.1157 480.214 83.8554 483.051 85.458 485.395C87.1838 487.738 89.6494 489.219 92.4848 489.712C93.471 489.835 94.3339 489.835 95.3201 489.835C97.2926 489.589 99.0184 488.972 100.621 487.862C102.963 486.135 104.443 483.668 104.936 480.831C105.675 475.033 101.731 469.483 95.9365 468.496Z" fill="#FFEC00"/>
<path d="M73.9928 465.782C73.1298 463.068 71.2807 460.848 68.6919 459.614C66.103 458.258 63.2677 458.011 60.4323 458.874C57.7202 459.738 55.5012 461.588 54.1451 464.178C52.7891 466.769 52.5425 469.606 53.4055 472.443C54.2684 475.156 56.1176 477.377 58.7064 478.734C60.5556 479.72 62.6513 480.09 64.747 479.844C65.4867 479.72 66.2263 479.597 66.966 479.35C69.6781 478.487 71.8971 476.513 73.1298 474.046C74.7324 471.456 74.979 468.619 73.9928 465.782Z" fill="#FFEC00"/>
<path d="M38.6114 439.879C35.776 439.879 33.0639 440.989 31.0914 442.963C28.9957 445.06 27.8862 447.773 27.8862 450.61C27.8862 453.447 28.9957 456.161 30.9682 458.135C32.9406 460.232 35.776 461.342 38.7346 461.342C39.1045 461.342 39.351 461.342 39.7209 461.342C42.1864 461.095 44.5287 459.985 46.2545 458.258C50.446 454.064 50.446 447.28 46.2545 443.086C44.2821 440.989 41.57 439.879 38.6114 439.879Z" fill="#F29100"/>
<path d="M29.9834 420.389C28.6274 417.799 26.4084 415.949 23.6963 414.962C20.9842 414.099 18.0255 414.345 15.4367 415.579C12.8479 416.812 10.9987 419.033 10.0125 421.87C9.14958 424.583 9.27286 427.544 10.6289 430.011C11.8617 432.601 14.2039 434.575 16.916 435.438C18.2721 435.931 19.7514 436.055 21.2307 435.931C22.5868 435.808 23.9428 435.438 25.0523 434.821C30.4765 432.108 32.5723 425.693 29.9834 420.389Z" fill="#F29100"/>
<path d="M12.4794 406.081C18.2734 405.094 22.3416 399.667 21.3554 393.869C20.9855 390.909 19.5062 388.442 17.164 386.715C14.8217 384.988 11.9863 384.372 9.15093 384.742C6.31555 385.235 3.72673 386.715 2.12412 389.059C0.398243 391.402 -0.218144 394.239 0.274965 396.953C0.768075 399.79 2.2474 402.381 4.58967 404.107C6.68538 405.588 9.27421 406.328 11.863 406.081C12.1096 406.081 12.3561 406.081 12.4794 406.081Z" fill="#F29100"/>
<path d="M9.14921 374.75C10.1354 374.873 10.9984 374.997 11.8613 374.873C13.8337 374.627 15.5596 374.01 17.1622 372.777C19.3812 371.05 20.9838 368.583 21.3537 365.746C22.3399 359.948 18.2717 354.398 12.4777 353.411C6.68366 352.424 1.13619 356.494 0.149967 362.292C-0.343142 365.129 0.396521 368.089 2.1224 370.433C3.84829 372.9 6.43711 374.38 9.14921 374.75Z" fill="#F29100"/>
<path d="M15.6831 343.913C17.5322 344.777 19.5047 345.27 21.6004 345.023C25.2987 344.653 28.5039 342.433 30.1065 339.226L30.2298 339.102C32.8186 333.798 30.7229 327.508 25.422 324.794C20.1211 322.08 13.7106 324.177 10.9985 329.481C9.64248 332.072 9.51921 335.032 10.3821 337.746C11.2451 340.459 13.2175 342.68 15.6831 343.913Z" fill="#E5332A"/>
<path d="M39.9699 319.737C42.4354 319.49 44.7777 318.38 46.5036 316.653C48.5993 314.556 49.7088 311.966 49.7088 309.005C49.7088 306.168 48.5993 303.454 46.5036 301.358C44.5311 299.384 41.819 298.274 38.9837 298.274C36.1483 298.274 33.4362 299.384 31.3405 301.481C29.368 303.454 28.1353 306.292 28.1353 309.252C28.1353 312.089 29.2447 314.803 31.3405 316.776C33.6827 318.873 36.7647 319.983 39.9699 319.737Z" fill="#E5332A"/>
<path d="M69.1845 300.124C71.7734 298.767 73.6225 296.547 74.4855 293.833C75.3484 291.119 75.1019 288.159 73.8691 285.569C72.513 283.102 70.294 281.128 67.5819 280.265C64.8698 279.401 61.9112 279.648 59.3224 280.881C56.7335 282.238 54.7611 284.458 53.8982 287.295C53.0352 290.009 53.2818 292.97 54.6378 295.437C55.9939 298.027 58.2129 299.877 60.925 300.741C62.281 301.234 63.7603 301.357 65.2397 301.234C66.719 301.111 67.9518 300.741 69.1845 300.124Z" fill="#E5332A"/>
<path d="M104.566 279.155C104.073 276.318 102.593 273.851 100.251 272.124C97.9088 270.397 95.0735 269.78 92.2381 270.274C89.4027 270.767 86.8139 272.371 85.2113 274.714C83.4854 277.058 82.869 279.895 83.3621 282.732C84.2251 288.283 89.4027 292.23 95.0735 291.736C95.32 291.736 95.5666 291.736 95.6898 291.613C101.607 290.503 105.552 284.952 104.566 279.155Z" fill="#E5332A"/>
<path d="M136.371 282.362C137.234 276.564 133.289 271.013 127.372 270.15C124.536 269.657 121.578 270.397 119.359 272.124C117.016 273.851 115.537 276.318 115.167 279.155C114.304 284.952 118.372 290.503 124.167 291.366C125.029 291.489 126.016 291.489 126.879 291.489C131.686 290.996 135.631 287.296 136.371 282.362Z" fill="#D9D9D9"/>
<path d="M164.725 295.066C167.438 289.762 165.219 283.348 159.918 280.635L159.794 280.511C157.206 279.278 154.247 279.154 151.658 280.018C148.946 280.881 146.727 282.855 145.494 285.445C142.905 290.749 145.001 297.163 150.302 299.877C152.151 300.741 154.124 301.234 156.219 300.987C159.794 300.617 163 298.397 164.725 295.066Z" fill="#D9D9D9"/>
<path d="M181.613 319.243C184.079 318.996 186.421 317.886 188.147 316.159C192.339 311.965 192.215 305.181 188.024 300.987C185.928 299.014 183.216 297.78 180.257 297.904C177.422 297.904 174.71 299.137 172.738 301.111C168.669 305.305 168.669 312.089 172.861 316.283C175.326 318.503 178.408 319.613 181.613 319.243Z" fill="#D9D9D9"/>
<path d="M189.628 338.733C191.724 342.68 195.792 344.9 200.23 344.53C201.586 344.407 202.942 344.037 204.175 343.42C209.475 340.706 211.448 334.169 208.736 328.865C207.38 326.274 205.037 324.424 202.325 323.561C199.613 322.697 196.655 322.944 194.189 324.301C188.888 327.014 186.916 333.429 189.628 338.733Z" fill="#D9D9D9"/>
<path d="M219.584 361.676C219.091 358.838 217.489 356.248 215.146 354.645C212.804 353.041 209.969 352.301 207.133 352.918C204.298 353.411 201.832 355.015 200.106 357.358C198.504 359.702 197.888 362.539 198.257 365.253C198.75 368.09 200.23 370.557 202.572 372.284C204.668 373.764 207.257 374.504 209.845 374.257C210.092 374.257 210.339 374.257 210.585 374.134C213.42 373.64 215.886 372.037 217.612 369.693C219.461 367.35 220.077 364.513 219.584 361.676Z" fill="#93C01F"/>
<path d="M217.735 389.306C216.009 386.962 213.543 385.482 210.708 385.112C204.914 384.248 199.49 388.319 198.627 394.24C198.257 397.077 198.873 399.914 200.599 402.257C202.325 404.601 204.791 406.081 207.749 406.451C208.612 406.575 209.475 406.575 210.338 406.451C215.269 405.958 219.214 402.257 219.954 397.323C220.2 394.61 219.46 391.649 217.735 389.306Z" fill="#93C01F"/>
</svg>
