<svg width="355" height="420" viewBox="0 0 355 420" fill="none" xmlns="http://www.w3.org/2000/svg">
<path d="M315 -8.74228e-07C326.046 -3.91405e-07 335 8.95431 335 20L335 340C335 351.046 326.046 360 315 360L20 360C8.95432 360 1.51729e-05 351.046 1.56557e-05 340L2.96433e-05 20C3.01262e-05 8.9543 8.95434 -1.42519e-05 20 -1.37691e-05L315 -8.74228e-07Z" fill="url(#paint0_linear_33_1105)"/>
<path d="M351.192 400.592C348.85 398.989 346.138 398.249 343.303 398.619C337.385 399.482 333.441 405.033 334.303 410.83C335.166 416.504 340.344 420.452 346.015 419.958C346.138 419.958 346.385 419.958 346.508 419.835C349.343 419.465 351.932 417.861 353.658 415.518C355.384 413.174 356 410.337 355.63 407.5C355.014 404.786 353.535 402.196 351.192 400.592Z" fill="#FFEC00"/>
<path d="M315.937 398.496C313.101 398.003 310.266 398.743 307.924 400.346C305.581 402.073 304.102 404.54 303.609 407.377C303.116 410.214 303.855 413.051 305.458 415.395C307.184 417.739 309.649 419.219 312.485 419.712C313.471 419.836 314.334 419.835 315.32 419.835C317.293 419.589 319.018 418.972 320.621 417.862C322.963 416.135 324.443 413.668 324.936 410.831C325.675 405.034 321.731 399.483 315.937 398.496Z" fill="#FFEC00"/>
<path d="M293.993 395.782C293.13 393.068 291.281 390.848 288.692 389.615C286.103 388.258 283.268 388.011 280.432 388.875C277.72 389.738 275.501 391.588 274.145 394.179C272.789 396.769 272.543 399.606 273.405 402.443C274.268 405.157 276.118 407.377 278.706 408.734C280.556 409.721 282.651 410.091 284.747 409.844C285.487 409.721 286.226 409.597 286.966 409.35C289.678 408.487 291.897 406.513 293.13 404.046C294.732 401.456 294.979 398.619 293.993 395.782Z" fill="#FFEC00"/>
<path d="M258.611 369.879C255.776 369.879 253.064 370.989 251.091 372.963C248.996 375.06 247.886 377.773 247.886 380.61C247.886 383.447 248.996 386.161 250.968 388.135C252.941 390.232 255.776 391.342 258.735 391.342C259.104 391.342 259.351 391.342 259.721 391.342C262.186 391.095 264.529 389.985 266.255 388.258C270.446 384.064 270.446 377.28 266.255 373.086C264.282 370.989 261.57 369.879 258.611 369.879Z" fill="#F29100"/>
<path d="M249.983 350.389C248.627 347.799 246.408 345.949 243.696 344.962C240.984 344.099 238.025 344.345 235.437 345.579C232.848 346.812 230.999 349.033 230.012 351.87C229.149 354.583 229.273 357.544 230.629 360.011C231.862 362.601 234.204 364.575 236.916 365.438C238.272 365.932 239.751 366.055 241.231 365.932C242.587 365.808 243.943 365.438 245.052 364.821C250.476 362.108 252.572 355.694 249.983 350.389Z" fill="#F29100"/>
<path d="M232.479 336.081C238.273 335.094 242.342 329.667 241.355 323.869C240.986 320.909 239.506 318.442 237.164 316.715C234.822 314.988 231.986 314.371 229.151 314.741C226.316 315.235 223.727 316.715 222.124 319.059C220.398 321.402 219.782 324.239 220.275 326.953C220.768 329.79 222.247 332.38 224.59 334.107C226.685 335.587 229.274 336.328 231.863 336.081C232.11 336.081 232.356 336.081 232.479 336.081Z" fill="#F29100"/>
<path d="M229.149 304.75C230.135 304.874 230.998 304.997 231.861 304.874C233.834 304.627 235.56 304.01 237.162 302.777C239.381 301.05 240.984 298.583 241.354 295.746C242.34 289.948 238.272 284.398 232.478 283.411C226.684 282.424 221.136 286.495 220.15 292.292C219.657 295.129 220.397 298.089 222.122 300.433C223.848 302.9 226.437 304.38 229.149 304.75Z" fill="#F29100"/>
<path d="M235.683 273.913C237.532 274.776 239.505 275.27 241.6 275.023C245.299 274.653 248.504 272.433 250.107 269.226L250.23 269.102C252.819 263.798 250.723 257.507 245.422 254.794C240.121 252.08 233.711 254.177 230.999 259.481C229.642 262.071 229.519 265.032 230.382 267.745C231.245 270.459 233.218 272.679 235.683 273.913Z" fill="#E5332A"/>
<path d="M259.97 249.737C262.435 249.49 264.778 248.38 266.503 246.653C268.599 244.556 269.709 241.966 269.709 239.005C269.709 236.168 268.599 233.455 266.503 231.358C264.531 229.384 261.819 228.274 258.984 228.274C256.148 228.274 253.436 229.384 251.34 231.481C249.368 233.455 248.135 236.292 248.135 239.252C248.135 242.089 249.245 244.803 251.34 246.776C253.683 248.873 256.765 249.983 259.97 249.737Z" fill="#E5332A"/>
<path d="M289.185 230.124C291.773 228.767 293.623 226.547 294.486 223.833C295.349 221.119 295.102 218.159 293.869 215.569C292.513 213.102 290.294 211.128 287.582 210.265C284.87 209.401 281.911 209.648 279.322 210.881C276.734 212.238 274.761 214.458 273.898 217.295C273.035 220.009 273.282 222.97 274.638 225.437C275.994 228.027 278.213 229.877 280.925 230.741C282.281 231.234 283.76 231.357 285.24 231.234C286.719 231.111 287.952 230.741 289.185 230.124Z" fill="#E5332A"/>
<path d="M324.566 209.155C324.073 206.318 322.593 203.851 320.251 202.124C317.909 200.397 315.073 199.78 312.238 200.274C309.403 200.767 306.814 202.371 305.211 204.714C303.485 207.058 302.869 209.895 303.362 212.732C304.225 218.283 309.403 222.23 315.073 221.737C315.32 221.737 315.567 221.737 315.69 221.613C321.607 220.503 325.552 214.952 324.566 209.155Z" fill="#E5332A"/>
<path d="M356.371 212.362C357.234 206.564 353.289 201.013 347.372 200.15C344.536 199.657 341.578 200.397 339.359 202.124C337.016 203.851 335.537 206.318 335.167 209.155C334.304 214.952 338.372 220.503 344.167 221.366C345.029 221.489 346.016 221.489 346.879 221.489C351.686 220.996 355.631 217.296 356.371 212.362Z" fill="#D9D9D9"/>
<defs>
<linearGradient id="paint0_linear_33_1105" x1="412.609" y1="124.462" x2="-36.2125" y2="268.889" gradientUnits="userSpaceOnUse">
<stop stop-color="#A2D126"/>
<stop offset="1" stop-color="#81B01B"/>
</linearGradient>
</defs>
</svg>
