<svg width="375" height="446" viewBox="0 0 375 446" fill="none" xmlns="http://www.w3.org/2000/svg">
<path d="M335 26C346.046 26 355 34.9543 355 46L355 366C355 377.046 346.046 386 335 386L40 386C28.9543 386 20 377.046 20 366L20 46C20 34.9543 28.9543 26 40 26L335 26Z" fill="url(#paint0_linear_33_1105)"/>
<path d="M371.192 426.592C368.85 424.989 366.138 424.249 363.303 424.619C357.385 425.482 353.441 431.033 354.303 436.83C355.166 442.504 360.344 446.452 366.015 445.958C366.138 445.958 366.385 445.958 366.508 445.835C369.343 445.465 371.932 443.861 373.658 441.518C375.384 439.174 376 436.337 375.63 433.5C375.014 430.786 373.535 428.196 371.192 426.592Z" fill="#FFEC00"/>
<path d="M335.937 424.496C333.101 424.003 330.266 424.743 327.924 426.346C325.581 428.073 324.102 430.54 323.609 433.377C323.116 436.214 323.855 439.051 325.458 441.395C327.184 443.739 329.649 445.219 332.485 445.712C333.471 445.836 334.334 445.835 335.32 445.835C337.293 445.589 339.018 444.972 340.621 443.862C342.963 442.135 344.443 439.668 344.936 436.831C345.675 431.034 341.731 425.483 335.937 424.496Z" fill="#FFEC00"/>
<path d="M313.993 421.782C313.13 419.068 311.281 416.848 308.692 415.615C306.103 414.258 303.268 414.011 300.432 414.875C297.72 415.738 295.501 417.588 294.145 420.179C292.789 422.769 292.543 425.606 293.405 428.443C294.268 431.157 296.118 433.377 298.706 434.734C300.556 435.721 302.651 436.091 304.747 435.844C305.487 435.721 306.226 435.597 306.966 435.35C309.678 434.487 311.897 432.513 313.13 430.046C314.732 427.456 314.979 424.619 313.993 421.782Z" fill="#FFEC00"/>
<path d="M278.611 395.879C275.776 395.879 273.064 396.989 271.091 398.963C268.996 401.06 267.886 403.773 267.886 406.61C267.886 409.447 268.996 412.161 270.968 414.135C272.941 416.232 275.776 417.342 278.735 417.342C279.104 417.342 279.351 417.342 279.721 417.342C282.186 417.095 284.529 415.985 286.255 414.258C290.446 410.064 290.446 403.28 286.255 399.086C284.282 396.989 281.57 395.879 278.611 395.879Z" fill="#F29100"/>
<path d="M269.983 376.389C268.627 373.799 266.408 371.949 263.696 370.962C260.984 370.099 258.025 370.345 255.437 371.579C252.848 372.812 250.999 375.033 250.012 377.87C249.149 380.583 249.273 383.544 250.629 386.011C251.862 388.601 254.204 390.575 256.916 391.438C258.272 391.932 259.751 392.055 261.231 391.932C262.587 391.808 263.943 391.438 265.052 390.821C270.476 388.108 272.572 381.694 269.983 376.389Z" fill="#F29100"/>
<path d="M252.479 362.081C258.273 361.094 262.342 355.667 261.355 349.869C260.986 346.909 259.506 344.442 257.164 342.715C254.822 340.988 251.986 340.371 249.151 340.741C246.316 341.235 243.727 342.715 242.124 345.059C240.398 347.402 239.782 350.239 240.275 352.953C240.768 355.79 242.247 358.38 244.59 360.107C246.685 361.587 249.274 362.328 251.863 362.081C252.11 362.081 252.356 362.081 252.479 362.081Z" fill="#F29100"/>
<path d="M249.149 330.75C250.135 330.874 250.998 330.997 251.861 330.874C253.834 330.627 255.56 330.01 257.162 328.777C259.381 327.05 260.984 324.583 261.354 321.746C262.34 315.948 258.272 310.398 252.478 309.411C246.684 308.424 241.136 312.495 240.15 318.292C239.657 321.129 240.397 324.089 242.122 326.433C243.848 328.9 246.437 330.38 249.149 330.75Z" fill="#F29100"/>
<path d="M255.683 299.913C257.532 300.776 259.505 301.27 261.6 301.023C265.299 300.653 268.504 298.433 270.107 295.226L270.23 295.102C272.819 289.798 270.723 283.507 265.422 280.794C260.121 278.08 253.711 280.177 250.999 285.481C249.642 288.071 249.519 291.032 250.382 293.745C251.245 296.459 253.218 298.679 255.683 299.913Z" fill="#E5332A"/>
<path d="M279.97 275.737C282.435 275.49 284.778 274.38 286.503 272.653C288.599 270.556 289.709 267.966 289.709 265.005C289.709 262.168 288.599 259.455 286.503 257.358C284.531 255.384 281.819 254.274 278.984 254.274C276.148 254.274 273.436 255.384 271.34 257.481C269.368 259.455 268.135 262.292 268.135 265.252C268.135 268.089 269.245 270.803 271.34 272.776C273.683 274.873 276.765 275.983 279.97 275.737Z" fill="#E5332A"/>
<path d="M309.185 256.124C311.773 254.767 313.623 252.547 314.486 249.833C315.349 247.119 315.102 244.159 313.869 241.569C312.513 239.102 310.294 237.128 307.582 236.265C304.87 235.401 301.911 235.648 299.322 236.881C296.734 238.238 294.761 240.458 293.898 243.295C293.035 246.009 293.282 248.97 294.638 251.437C295.994 254.027 298.213 255.877 300.925 256.741C302.281 257.234 303.76 257.357 305.24 257.234C306.719 257.111 307.952 256.741 309.185 256.124Z" fill="#E5332A"/>
<path d="M344.566 235.155C344.073 232.318 342.593 229.851 340.251 228.124C337.909 226.397 335.073 225.78 332.238 226.274C329.403 226.767 326.814 228.371 325.211 230.714C323.485 233.058 322.869 235.895 323.362 238.732C324.225 244.283 329.403 248.23 335.073 247.737C335.32 247.737 335.567 247.737 335.69 247.613C341.607 246.503 345.552 240.952 344.566 235.155Z" fill="#E5332A"/>
<path d="M376.371 238.362C377.234 232.564 373.289 227.013 367.372 226.15C364.536 225.657 361.578 226.397 359.359 228.124C357.016 229.851 355.537 232.318 355.167 235.155C354.304 240.952 358.372 246.503 364.167 247.366C365.029 247.489 366.016 247.489 366.879 247.489C371.686 246.996 375.631 243.296 376.371 238.362Z" fill="#D9D9D9"/>
<g filter="url(#filter0_d_33_1105)">
<rect x="138" y="20" width="197" height="274" rx="8" fill="white"/>
</g>
<g filter="url(#filter1_d_33_1105)">
<rect x="40" y="20" width="197" height="274" rx="8" fill="white"/>
</g>
<defs>
<filter id="filter0_d_33_1105" x="98" y="0" width="277" height="354" filterUnits="userSpaceOnUse" color-interpolation-filters="sRGB">
<feFlood flood-opacity="0" result="BackgroundImageFix"/>
<feColorMatrix in="SourceAlpha" type="matrix" values="0 0 0 0 0 0 0 0 0 0 0 0 0 0 0 0 0 0 127 0" result="hardAlpha"/>
<feOffset dy="20"/>
<feGaussianBlur stdDeviation="20"/>
<feColorMatrix type="matrix" values="0 0 0 0 0 0 0 0 0 0 0 0 0 0 0 0 0 0 0.1 0"/>
<feBlend mode="normal" in2="BackgroundImageFix" result="effect1_dropShadow_33_1105"/>
<feBlend mode="normal" in="SourceGraphic" in2="effect1_dropShadow_33_1105" result="shape"/>
</filter>
<filter id="filter1_d_33_1105" x="0" y="0" width="277" height="354" filterUnits="userSpaceOnUse" color-interpolation-filters="sRGB">
<feFlood flood-opacity="0" result="BackgroundImageFix"/>
<feColorMatrix in="SourceAlpha" type="matrix" values="0 0 0 0 0 0 0 0 0 0 0 0 0 0 0 0 0 0 127 0" result="hardAlpha"/>
<feOffset dy="20"/>
<feGaussianBlur stdDeviation="20"/>
<feColorMatrix type="matrix" values="0 0 0 0 0 0 0 0 0 0 0 0 0 0 0 0 0 0 0.1 0"/>
<feBlend mode="normal" in2="BackgroundImageFix" result="effect1_dropShadow_33_1105"/>
<feBlend mode="normal" in="SourceGraphic" in2="effect1_dropShadow_33_1105" result="shape"/>
</filter>
<linearGradient id="paint0_linear_33_1105" x1="432.609" y1="150.462" x2="-16.2125" y2="294.889" gradientUnits="userSpaceOnUse">
<stop stop-color="#A2D126"/>
<stop offset="1" stop-color="#81B01B"/>
</linearGradient>
</defs>
</svg>
