<svg width="355" height="375" viewBox="0 0 355 375" fill="none" xmlns="http://www.w3.org/2000/svg">
<circle cx="187.5" cy="167.5" r="167.5" fill="#FCED4E"/>
<path d="M124.105 308.35C123.242 305.636 121.393 303.416 118.804 302.059C113.627 299.345 107.093 301.442 104.381 306.623C103.025 309.213 102.778 312.05 103.641 314.887C104.504 317.601 106.353 319.821 108.942 321.178C110.791 322.165 112.887 322.535 114.983 322.411C118.558 322.041 121.763 319.944 123.489 316.737C124.722 314.024 124.968 311.063 124.105 308.35Z" fill="#93C01F"/>
<path d="M95.2581 325.989H95.1348C92.4227 325.989 89.7106 327.099 87.7382 329.073C85.6425 331.046 84.533 333.76 84.533 336.597C84.533 339.434 85.6425 342.148 87.6149 344.245C89.9572 346.588 93.0391 347.698 96.3676 347.452C98.8331 347.205 101.052 346.095 102.778 344.491C104.874 342.518 105.983 339.681 105.983 336.844C105.983 334.007 104.874 331.293 102.901 329.196C100.806 327.099 98.0935 325.989 95.2581 325.989Z" fill="#93C01F"/>
<path d="M65.0553 345.232C62.3433 346.588 60.4941 348.809 59.5079 351.522C58.6449 354.236 58.7682 357.196 60.1243 359.787C61.357 362.377 63.576 364.351 66.4114 365.214C67.8907 365.708 69.37 365.831 70.8494 365.708C72.2054 365.584 73.4382 365.214 74.5477 364.597C77.1365 363.364 79.1089 361.02 79.9719 358.307C80.8348 355.593 80.5883 352.633 79.3555 350.166C76.6434 344.738 70.233 342.641 65.0553 345.232Z" fill="#FFEC00"/>
<path d="M46.1924 355.592C43.8502 353.989 41.1381 353.249 38.3027 353.619C32.3854 354.482 28.4405 360.033 29.3035 365.83C30.1664 371.504 35.3441 375.452 41.0148 374.958C41.1381 374.958 41.3846 374.958 41.5079 374.835C44.3433 374.465 46.9321 372.861 48.658 370.518C50.3839 368.174 51.0003 365.337 50.6304 362.5C50.014 359.786 48.5347 357.196 46.1924 355.592Z" fill="#FFEC00"/>
<path d="M10.9365 353.496C8.10114 353.002 5.26577 353.743 2.9235 355.346C0.581233 357.073 -0.898094 359.54 -1.3912 362.377C-1.88431 365.214 -1.14465 368.051 0.457955 370.395C2.18384 372.738 4.64938 374.219 7.48476 374.712C8.47097 374.835 9.33392 374.835 10.3201 374.835C12.2926 374.589 14.0184 373.972 15.6211 372.862C17.9633 371.135 19.4426 368.668 19.9358 365.831C20.6754 360.033 16.7306 354.483 10.9365 353.496Z" fill="#FFEC00"/>
<path d="M19.5658 164.155C19.0727 161.318 17.5934 158.851 15.2511 157.124C12.9088 155.397 10.0735 154.78 7.23809 155.274C4.40271 155.767 1.81388 157.371 0.211281 159.714C-1.5146 162.058 -2.13099 164.895 -1.63788 167.732C-0.774936 173.283 4.40271 177.23 10.0735 176.737C10.32 176.737 10.5666 176.737 10.6898 176.613C16.6071 175.503 20.552 169.952 19.5658 164.155Z" fill="#E5332A"/>
<path d="M51.371 167.362C52.2339 161.564 48.289 156.013 42.3717 155.15C39.5363 154.657 36.5777 155.397 34.3587 157.124C32.0164 158.851 30.5371 161.318 30.1673 164.155C29.3043 169.952 33.3725 175.503 39.1665 176.366C40.0294 176.489 41.0157 176.489 41.8786 176.489C46.6864 175.996 50.6313 172.296 51.371 167.362Z" fill="#D9D9D9"/>
<path d="M79.7254 180.066C82.4375 174.762 80.2185 168.348 74.9176 165.635L74.7943 165.511C72.2055 164.278 69.2468 164.154 66.658 165.018C63.9459 165.881 61.7269 167.855 60.4941 170.445C57.9053 175.749 60.001 182.163 65.302 184.877C67.1511 185.741 69.1236 186.234 71.2193 185.987C74.7943 185.617 77.9996 183.397 79.7254 180.066Z" fill="#D9D9D9"/>
<path d="M96.6135 204.243C99.079 203.996 101.421 202.886 103.147 201.159C107.339 196.965 107.215 190.181 103.024 185.987C100.928 184.014 98.2161 182.78 95.2574 182.903C92.4221 182.903 89.71 184.137 87.7375 186.111C83.6694 190.304 83.6694 197.089 87.8608 201.283C90.3263 203.503 93.4083 204.613 96.6135 204.243Z" fill="#D9D9D9"/>
<path d="M104.628 223.733C106.724 227.68 110.792 229.9 115.23 229.53C116.586 229.407 117.942 229.037 119.175 228.42C124.475 225.706 126.448 219.169 123.736 213.865C122.38 211.274 120.037 209.424 117.325 208.561C114.613 207.697 111.655 207.944 109.189 209.301C103.888 212.015 101.916 218.429 104.628 223.733Z" fill="#D9D9D9"/>
<path d="M134.584 246.675C134.091 243.838 132.488 241.248 130.146 239.644C127.804 238.041 124.969 237.301 122.133 237.918C119.298 238.411 116.832 240.015 115.106 242.358C113.504 244.702 112.887 247.539 113.257 250.253C113.75 253.09 115.23 255.557 117.572 257.283C119.668 258.764 122.256 259.504 124.845 259.257C125.092 259.257 125.338 259.257 125.585 259.134C128.42 258.64 130.886 257.037 132.612 254.693C134.461 252.349 135.077 249.512 134.584 246.675Z" fill="#93C01F"/>
<path d="M132.735 274.306C131.009 271.962 128.543 270.482 125.708 270.112C119.914 269.248 114.49 273.319 113.627 279.24C113.257 282.077 113.873 284.914 115.599 287.257C117.325 289.601 119.791 291.081 122.749 291.451C123.612 291.575 124.475 291.575 125.338 291.451C130.269 290.958 134.214 287.257 134.954 282.323C135.2 279.61 134.46 276.649 132.735 274.306Z" fill="#93C01F"/>
</svg>
