<svg width="68" height="68" viewBox="0 0 68 68" fill="none" xmlns="http://www.w3.org/2000/svg">
<rect width="68" height="68" rx="34" fill="white"/>
<path d="M61.0294 45.8227C60.7941 45.0826 60.2898 44.4771 59.5837 44.107C58.1716 43.367 56.3897 43.9388 55.65 45.3518C55.2802 46.0582 55.213 46.8319 55.4483 47.6057C55.6837 48.3458 56.188 48.9513 56.894 49.3213C57.3983 49.5905 57.9699 49.6914 58.5415 49.6577C59.5165 49.5568 60.3906 48.9849 60.8613 48.1103C61.1975 47.3702 61.2648 46.5628 61.0294 45.8227Z" fill="#93C01F"/>
<path d="M53.1638 50.6333H53.1302C52.3905 50.6333 51.6509 50.9361 51.1129 51.4743C50.5414 52.0126 50.2388 52.7527 50.2388 53.5264C50.2388 54.3001 50.5414 55.0402 51.0793 55.6121C51.7181 56.2513 52.5586 56.554 53.4664 56.4868C54.1388 56.4195 54.744 56.1167 55.2147 55.6794C55.7863 55.1411 56.0888 54.3674 56.0888 53.5937C56.0888 52.8199 55.7862 52.0798 55.2483 51.508C54.6768 50.9361 53.9371 50.6333 53.1638 50.6333Z" fill="#93C01F"/>
<path d="M44.9241 55.8807C44.1845 56.2508 43.6802 56.8563 43.4112 57.5964C43.1758 58.3365 43.2095 59.1438 43.5793 59.8503C43.9155 60.5568 44.5207 61.095 45.294 61.3305C45.6974 61.465 46.1009 61.4987 46.5043 61.465C46.8742 61.4314 47.2104 61.3305 47.513 61.1623C48.219 60.8259 48.7569 60.1867 48.9923 59.4466C49.2276 58.7065 49.1604 57.8991 48.8242 57.2263C48.0845 55.7461 46.3362 55.1743 44.9241 55.8807Z" fill="#FFEC00"/>
<path d="M39.7785 58.7069C39.1397 58.2695 38.4 58.0677 37.6267 58.1686C36.0129 58.4041 34.9371 59.9179 35.1724 61.499C35.4077 63.0465 36.8198 64.123 38.3664 63.9884C38.4 63.9884 38.4673 63.9884 38.5009 63.9548C39.2742 63.8539 39.9802 63.4165 40.4509 62.7774C40.9216 62.1382 41.0897 61.3645 40.9888 60.5907C40.8207 59.8506 40.4173 59.1442 39.7785 58.7069Z" fill="#FFEC00"/>
<path d="M30.166 58.1352C29.3927 58.0006 28.6194 58.2025 27.9806 58.6398C27.3418 59.1108 26.9384 59.7836 26.8039 60.5573C26.6694 61.3311 26.8711 62.1048 27.3082 62.744C27.7789 63.3831 28.4513 63.7868 29.2246 63.9214C29.4936 63.955 29.7289 63.955 29.9979 63.955C30.5358 63.8877 31.0065 63.7195 31.4436 63.4168C32.0824 62.9458 32.4858 62.273 32.6203 61.4993C32.8221 59.9182 31.7462 58.4043 30.166 58.1352Z" fill="#FFEC00"/>
<path d="M24.1812 57.3948C23.9459 56.6547 23.4415 56.0491 22.7355 55.7127C22.0295 55.3427 21.2562 55.2754 20.4829 55.5109C19.7432 55.7464 19.138 56.251 18.7682 56.9574C18.3984 57.6639 18.3311 58.4376 18.5665 59.2114C18.8018 59.9515 19.3061 60.557 20.0122 60.927C20.5165 61.1961 21.0881 61.2971 21.6596 61.2298C21.8614 61.1962 22.0631 61.1625 22.2648 61.0952C23.0045 60.8597 23.6096 60.3215 23.9459 59.6487C24.3829 58.9422 24.4502 58.1685 24.1812 57.3948Z" fill="#FFEC00"/>
<path d="M14.5307 50.3303C13.7575 50.3303 13.0178 50.6331 12.4799 51.1713C11.9083 51.7432 11.6057 52.4833 11.6057 53.257C11.6057 54.0308 11.9083 54.7709 12.4462 55.3091C12.9842 55.881 13.7575 56.1838 14.5644 56.1838C14.6652 56.1838 14.7325 56.1838 14.8333 56.1838C15.5058 56.1165 16.1446 55.8137 16.6153 55.3428C17.7584 54.199 17.7584 52.3488 16.6153 51.205C16.0773 50.6331 15.3377 50.3303 14.5307 50.3303Z" fill="#F29100"/>
<path d="M12.1798 45.0151C11.81 44.3087 11.2048 43.804 10.4652 43.5349C9.72549 43.2994 8.91859 43.3667 8.21254 43.7031C7.5065 44.0395 7.00219 44.6451 6.73322 45.4188C6.49787 46.1589 6.53149 46.9663 6.90132 47.6391C7.23753 48.3455 7.87633 48.8838 8.616 49.1193C8.98583 49.2538 9.38928 49.2875 9.79274 49.2538C10.1626 49.2202 10.5324 49.1193 10.835 48.9511C12.3143 48.211 12.8859 46.4617 12.1798 45.0151Z" fill="#F29100"/>
<path d="M7.40359 41.1126C8.98378 40.8435 10.0933 39.3633 9.82431 37.7822C9.72344 36.9748 9.31999 36.302 8.68119 35.8311C8.04239 35.3601 7.26911 35.1919 6.49582 35.2928C5.72254 35.4274 5.01649 35.8311 4.57942 36.4702C4.10872 37.1094 3.94062 37.8831 4.0751 38.6232C4.20959 39.397 4.61304 40.1034 5.25184 40.5744C5.8234 40.9781 6.52944 41.1799 7.23548 41.1126C7.30273 41.1126 7.36997 41.1126 7.40359 41.1126Z" fill="#F29100"/>
<path d="M6.49524 32.5686C6.76421 32.6022 6.99956 32.6359 7.2349 32.6022C7.77284 32.5349 8.24354 32.3667 8.68061 32.0303C9.28579 31.5594 9.72286 30.8866 9.82373 30.1128C10.0927 28.5317 8.9832 27.0179 7.40301 26.7488C5.82282 26.4796 4.30987 27.5898 4.0409 29.1709C3.90642 29.9446 4.10814 30.752 4.57884 31.3912C5.04953 32.064 5.75558 32.4677 6.49524 32.5686Z" fill="#F29100"/>
<path d="M8.27829 24.1583C8.78261 24.3938 9.32054 24.5284 9.8921 24.4611C10.9007 24.3602 11.7749 23.7547 12.212 22.88L12.2456 22.8464C12.9516 21.3998 12.3801 19.6841 10.9344 18.9441C9.48865 18.204 7.74035 18.7759 7.00069 20.2224C6.63086 20.9288 6.59723 21.7362 6.83258 22.4763C7.06793 23.2164 7.60587 23.8219 8.27829 24.1583Z" fill="#E5332A"/>
<path d="M14.9019 17.5639C15.5744 17.4966 16.2132 17.1939 16.6839 16.7229C17.2554 16.151 17.558 15.4446 17.558 14.6372C17.558 13.8634 17.2554 13.1234 16.6839 12.5515C16.1459 12.0132 15.4063 11.7104 14.633 11.7104C13.8597 11.7104 13.12 12.0132 12.5485 12.5851C12.0105 13.1234 11.6743 13.8971 11.6743 14.7045C11.6743 15.4782 11.9769 16.2183 12.5485 16.7565C13.1873 17.3284 14.0278 17.6312 14.9019 17.5639Z" fill="#E5332A"/>
<path d="M22.8668 12.2157C23.5729 11.8457 24.0772 11.2401 24.3126 10.5C24.5479 9.75994 24.4807 8.95256 24.1445 8.24611C23.7746 7.5733 23.1694 7.03505 22.4298 6.79957C21.6901 6.56408 20.8832 6.63136 20.1772 6.96777C19.4711 7.33782 18.9332 7.94335 18.6978 8.71708C18.4625 9.45717 18.5297 10.2645 18.8996 10.9374C19.2694 11.6438 19.8746 12.1484 20.6142 12.3839C20.9841 12.5185 21.3875 12.5521 21.791 12.5185C22.1944 12.4848 22.5306 12.3839 22.8668 12.2157Z" fill="#E5332A"/>
<path d="M32.5181 6.49627C32.3836 5.72254 31.9801 5.04973 31.3413 4.57876C30.7025 4.10779 29.9293 3.93959 29.156 4.07415C28.3827 4.20871 27.6766 4.64604 27.2396 5.28521C26.7689 5.92438 26.6008 6.69811 26.7353 7.47185C26.9706 8.98567 28.3827 10.0622 29.9293 9.92761C29.9965 9.92761 30.0637 9.92761 30.0974 9.89397C31.7112 9.5912 32.7871 8.07738 32.5181 6.49627Z" fill="#E5332A"/>
<path d="M41.1918 7.37134C41.4271 5.79023 40.3512 4.27641 38.7374 4.04092C37.9641 3.90636 37.1572 4.1082 36.5521 4.57917C35.9133 5.05014 35.5098 5.72295 35.4089 6.49668C35.1736 8.07779 36.2831 9.59162 37.8633 9.8271C38.0986 9.86074 38.3676 9.86074 38.6029 9.86074C39.9142 9.72618 40.99 8.71696 41.1918 7.37134Z" fill="#D9D9D9"/>
<path d="M48.9285 10.8363C49.6682 9.38975 49.063 7.64045 47.6173 6.90035L47.5837 6.86671C46.8776 6.53031 46.0707 6.49667 45.3647 6.73215C44.625 6.96764 44.0198 7.50588 43.6836 8.21234C42.9776 9.65888 43.5491 11.4082 44.9948 12.1483C45.4991 12.3838 46.0371 12.5183 46.6086 12.451C47.5836 12.3501 48.4578 11.7446 48.9285 10.8363Z" fill="#D9D9D9"/>
<path d="M53.5321 17.4298C54.2045 17.3625 54.8433 17.0597 55.314 16.5888C56.4572 15.445 56.4235 13.5948 55.2804 12.451C54.7089 11.9127 53.9692 11.5763 53.1623 11.61C52.389 11.61 51.6494 11.9464 51.1114 12.4846C50.0019 13.6284 50.0019 15.4786 51.145 16.6224C51.8175 17.2279 52.658 17.5307 53.5321 17.4298Z" fill="#D9D9D9"/>
<path d="M55.717 22.7451C56.2885 23.8216 57.398 24.4272 58.6084 24.3262C58.9782 24.2926 59.3481 24.1917 59.6843 24.0235C61.13 23.2834 61.6679 21.5004 60.9282 20.0539C60.5584 19.3474 59.9196 18.8428 59.18 18.6073C58.4403 18.3719 57.6334 18.4391 56.961 18.8092C55.5153 19.5493 54.9773 21.2986 55.717 22.7451Z" fill="#D9D9D9"/>
<path d="M63.8861 29.0027C63.7516 28.229 63.3145 27.5225 62.6757 27.0852C62.0369 26.6478 61.2636 26.446 60.4903 26.6142C59.7171 26.7488 59.0446 27.1861 58.5739 27.8253C58.1369 28.4644 57.9688 29.2382 58.0696 29.9783C58.2041 30.752 58.6076 31.4248 59.2464 31.8958C59.8179 32.2995 60.524 32.5013 61.23 32.434C61.2973 32.434 61.3645 32.434 61.4317 32.4004C62.205 32.2658 62.8774 31.8285 63.3481 31.1893C63.8525 30.5501 64.0206 29.7764 63.8861 29.0027Z" fill="#93C01F"/>
<path d="M63.3822 36.5378C62.9115 35.8986 62.2391 35.495 61.4658 35.394C59.8856 35.1586 58.4063 36.2687 58.171 37.8834C58.0701 38.6572 58.2382 39.4309 58.7089 40.0701C59.1796 40.7092 59.852 41.1129 60.6589 41.2139C60.8943 41.2475 61.1296 41.2475 61.365 41.2139C62.7098 41.0793 63.7857 40.0701 63.9874 38.7245C64.0547 37.9844 63.8529 37.177 63.3822 36.5378Z" fill="#93C01F"/>
<g clip-path="url(#clip0)">
<path d="M46.8919 26.1781L34.1788 20.0407C34.0661 19.9864 33.9348 19.9864 33.8222 20.0407L21.109 26.1781C20.9673 26.2465 20.8772 26.3901 20.8772 26.5475V41.4525C20.8772 41.6099 20.9673 41.7534 21.109 41.8218L33.8221 47.9592C33.8784 47.9864 33.9395 48 34.0004 48C34.0614 48 34.1224 47.9864 34.1788 47.9592L46.8919 41.8218C47.0336 41.7534 47.1237 41.6099 47.1237 41.4525V26.5475C47.1237 26.39 47.0336 26.2466 46.8919 26.1781ZM34.0004 20.8656L45.7701 26.5475L42.3583 28.1945C42.3367 28.1781 42.3139 28.1629 42.2889 28.1508L30.5992 22.5076L34.0004 20.8656ZM29.6729 22.9713L41.4254 28.6449L39.0184 29.807L27.2707 24.1357L29.6729 22.9713ZM41.7004 29.423V33.7185L39.452 34.804V30.5085L41.7004 29.423ZM46.3034 41.1951L34.4106 46.9363V32.9422L37.2474 31.5727C37.4514 31.4743 37.5369 31.2291 37.4384 31.0251C37.3399 30.8211 37.0948 30.7355 36.8907 30.834L34.0004 32.2294L32.8632 31.6803C32.6591 31.5817 32.414 31.6674 32.3155 31.8713C32.217 32.0753 32.3025 32.3205 32.5065 32.419L33.5903 32.9422V46.9363L21.6975 41.195V27.2009L30.7538 31.5729C30.8112 31.6007 30.872 31.6138 30.9318 31.6138C31.0842 31.6138 31.2307 31.5284 31.3014 31.3819C31.3999 31.1779 31.3144 30.9327 31.1104 30.8342L22.2308 26.5475L26.3053 24.5805L38.626 30.5284C38.6278 30.531 38.6299 30.5332 38.6317 30.5357V35.4575C38.6317 35.5986 38.7043 35.7298 38.8238 35.8049C38.8902 35.8466 38.966 35.8676 39.0419 35.8676C39.1027 35.8676 39.1637 35.8541 39.2202 35.8268L42.2889 34.3454C42.4306 34.277 42.5207 34.1335 42.5207 33.976V29.0271L46.3034 27.201V41.1951Z" fill="#93C01F"/>
<path d="M25.0814 39.6043L23.2158 38.7037C23.0117 38.6051 22.7666 38.6907 22.6681 38.8947C22.5696 39.0987 22.6551 39.3439 22.8591 39.4424L24.7248 40.3431C24.7823 40.3708 24.843 40.384 24.9028 40.384C25.0553 40.384 25.2017 40.2985 25.2724 40.152C25.371 39.948 25.2854 39.7029 25.0814 39.6043Z" fill="#93C01F"/>
<path d="M26.7988 38.4866L23.2187 36.7583C23.0146 36.6598 22.7695 36.7453 22.671 36.9494C22.5725 37.1534 22.6581 37.3986 22.8621 37.4971L26.4422 39.2254C26.4997 39.2531 26.5604 39.2663 26.6202 39.2663C26.7727 39.2663 26.9191 39.1809 26.9898 39.0344C27.0883 38.8303 27.0028 38.5851 26.7988 38.4866Z" fill="#93C01F"/>
</g>
<defs>
<clipPath id="clip0">
<rect width="28" height="28" fill="white" transform="translate(20 20)"/>
</clipPath>
</defs>
</svg>
