<svg width="68" height="68" viewBox="0 0 68 68" fill="none" xmlns="http://www.w3.org/2000/svg">
<rect width="68" height="68" rx="34" fill="white"/>
<path d="M61.0294 45.8227C60.7941 45.0826 60.2898 44.4771 59.5837 44.107C58.1716 43.367 56.3897 43.9388 55.65 45.3518C55.2802 46.0582 55.213 46.8319 55.4483 47.6057C55.6837 48.3458 56.188 48.9513 56.894 49.3213C57.3983 49.5905 57.9699 49.6914 58.5415 49.6577C59.5165 49.5568 60.3906 48.9849 60.8613 48.1103C61.1975 47.3702 61.2648 46.5628 61.0294 45.8227Z" fill="#93C01F"/>
<path d="M53.1638 50.6333H53.1302C52.3905 50.6333 51.6509 50.9361 51.1129 51.4743C50.5414 52.0126 50.2388 52.7527 50.2388 53.5264C50.2388 54.3001 50.5414 55.0402 51.0793 55.6121C51.7181 56.2513 52.5586 56.554 53.4664 56.4868C54.1388 56.4195 54.744 56.1167 55.2147 55.6794C55.7863 55.1411 56.0888 54.3674 56.0888 53.5937C56.0888 52.8199 55.7862 52.0798 55.2483 51.508C54.6768 50.9361 53.9371 50.6333 53.1638 50.6333Z" fill="#93C01F"/>
<path d="M44.9241 55.8807C44.1845 56.2508 43.6802 56.8563 43.4112 57.5964C43.1758 58.3365 43.2095 59.1438 43.5793 59.8503C43.9155 60.5568 44.5207 61.095 45.294 61.3305C45.6974 61.465 46.1009 61.4987 46.5043 61.465C46.8742 61.4314 47.2104 61.3305 47.513 61.1623C48.219 60.8259 48.7569 60.1867 48.9923 59.4466C49.2276 58.7065 49.1604 57.8991 48.8242 57.2263C48.0845 55.7461 46.3362 55.1743 44.9241 55.8807Z" fill="#FFEC00"/>
<path d="M39.7785 58.7069C39.1397 58.2695 38.4 58.0677 37.6267 58.1686C36.0129 58.4041 34.9371 59.9179 35.1724 61.499C35.4077 63.0465 36.8198 64.123 38.3664 63.9884C38.4 63.9884 38.4673 63.9884 38.5009 63.9548C39.2742 63.8539 39.9802 63.4165 40.4509 62.7774C40.9216 62.1382 41.0897 61.3645 40.9888 60.5907C40.8207 59.8506 40.4173 59.1442 39.7785 58.7069Z" fill="#FFEC00"/>
<path d="M30.166 58.1352C29.3927 58.0006 28.6194 58.2025 27.9806 58.6398C27.3418 59.1108 26.9384 59.7836 26.8039 60.5573C26.6694 61.3311 26.8711 62.1048 27.3082 62.744C27.7789 63.3831 28.4513 63.7868 29.2246 63.9214C29.4936 63.955 29.7289 63.955 29.9979 63.955C30.5358 63.8877 31.0065 63.7195 31.4436 63.4168C32.0824 62.9458 32.4858 62.273 32.6203 61.4993C32.8221 59.9182 31.7462 58.4043 30.166 58.1352Z" fill="#FFEC00"/>
<path d="M24.1812 57.3948C23.9459 56.6547 23.4415 56.0491 22.7355 55.7127C22.0295 55.3427 21.2562 55.2754 20.4829 55.5109C19.7432 55.7464 19.138 56.251 18.7682 56.9574C18.3984 57.6639 18.3311 58.4376 18.5665 59.2114C18.8018 59.9515 19.3061 60.557 20.0122 60.927C20.5165 61.1961 21.0881 61.2971 21.6596 61.2298C21.8614 61.1962 22.0631 61.1625 22.2648 61.0952C23.0045 60.8597 23.6096 60.3215 23.9459 59.6487C24.3829 58.9422 24.4502 58.1685 24.1812 57.3948Z" fill="#FFEC00"/>
<path d="M14.5307 50.3303C13.7575 50.3303 13.0178 50.6331 12.4799 51.1713C11.9083 51.7432 11.6057 52.4833 11.6057 53.257C11.6057 54.0308 11.9083 54.7709 12.4462 55.3091C12.9842 55.881 13.7575 56.1838 14.5644 56.1838C14.6652 56.1838 14.7325 56.1838 14.8333 56.1838C15.5058 56.1165 16.1446 55.8137 16.6153 55.3428C17.7584 54.199 17.7584 52.3488 16.6153 51.205C16.0773 50.6331 15.3377 50.3303 14.5307 50.3303Z" fill="#F29100"/>
<path d="M12.1798 45.0151C11.81 44.3087 11.2048 43.804 10.4652 43.5349C9.72549 43.2994 8.91859 43.3667 8.21254 43.7031C7.5065 44.0395 7.00219 44.6451 6.73322 45.4188C6.49787 46.1589 6.53149 46.9663 6.90132 47.6391C7.23753 48.3455 7.87633 48.8838 8.616 49.1193C8.98583 49.2538 9.38928 49.2875 9.79274 49.2538C10.1626 49.2202 10.5324 49.1193 10.835 48.9511C12.3143 48.211 12.8859 46.4617 12.1798 45.0151Z" fill="#F29100"/>
<path d="M7.40359 41.1126C8.98378 40.8435 10.0933 39.3633 9.82431 37.7822C9.72344 36.9748 9.31999 36.302 8.68119 35.8311C8.04239 35.3601 7.26911 35.1919 6.49582 35.2928C5.72254 35.4274 5.01649 35.8311 4.57942 36.4702C4.10872 37.1094 3.94062 37.8831 4.0751 38.6232C4.20959 39.397 4.61304 40.1034 5.25184 40.5744C5.8234 40.9781 6.52944 41.1799 7.23548 41.1126C7.30273 41.1126 7.36997 41.1126 7.40359 41.1126Z" fill="#F29100"/>
<path d="M6.49524 32.5686C6.76421 32.6022 6.99956 32.6359 7.2349 32.6022C7.77284 32.5349 8.24354 32.3667 8.68061 32.0303C9.28579 31.5594 9.72286 30.8866 9.82373 30.1128C10.0927 28.5317 8.9832 27.0179 7.40301 26.7488C5.82282 26.4796 4.30987 27.5898 4.0409 29.1709C3.90642 29.9446 4.10814 30.752 4.57884 31.3912C5.04953 32.064 5.75558 32.4677 6.49524 32.5686Z" fill="#F29100"/>
<path d="M8.27829 24.1583C8.78261 24.3938 9.32054 24.5284 9.8921 24.4611C10.9007 24.3602 11.7749 23.7547 12.212 22.88L12.2456 22.8464C12.9516 21.3998 12.3801 19.6841 10.9344 18.9441C9.48865 18.204 7.74035 18.7759 7.00069 20.2224C6.63086 20.9288 6.59723 21.7362 6.83258 22.4763C7.06793 23.2164 7.60587 23.8219 8.27829 24.1583Z" fill="#E5332A"/>
<path d="M14.9019 17.5639C15.5744 17.4966 16.2132 17.1939 16.6839 16.7229C17.2554 16.151 17.558 15.4446 17.558 14.6372C17.558 13.8634 17.2554 13.1234 16.6839 12.5515C16.1459 12.0132 15.4063 11.7104 14.633 11.7104C13.8597 11.7104 13.12 12.0132 12.5485 12.5851C12.0105 13.1234 11.6743 13.8971 11.6743 14.7045C11.6743 15.4782 11.9769 16.2183 12.5485 16.7565C13.1873 17.3284 14.0278 17.6312 14.9019 17.5639Z" fill="#E5332A"/>
<path d="M22.8668 12.2157C23.5729 11.8457 24.0772 11.2401 24.3126 10.5C24.5479 9.75994 24.4807 8.95256 24.1445 8.24611C23.7746 7.5733 23.1694 7.03505 22.4298 6.79957C21.6901 6.56408 20.8832 6.63136 20.1772 6.96777C19.4711 7.33782 18.9332 7.94335 18.6978 8.71708C18.4625 9.45717 18.5297 10.2645 18.8996 10.9374C19.2694 11.6438 19.8746 12.1484 20.6142 12.3839C20.9841 12.5185 21.3875 12.5521 21.791 12.5185C22.1944 12.4848 22.5306 12.3839 22.8668 12.2157Z" fill="#E5332A"/>
<path d="M32.5181 6.49627C32.3836 5.72254 31.9801 5.04973 31.3413 4.57876C30.7025 4.10779 29.9293 3.93959 29.156 4.07415C28.3827 4.20871 27.6766 4.64604 27.2396 5.28521C26.7689 5.92438 26.6008 6.69811 26.7353 7.47185C26.9706 8.98567 28.3827 10.0622 29.9293 9.92761C29.9965 9.92761 30.0637 9.92761 30.0974 9.89397C31.7112 9.5912 32.7871 8.07738 32.5181 6.49627Z" fill="#E5332A"/>
<path d="M41.1918 7.37134C41.4271 5.79023 40.3512 4.27641 38.7374 4.04092C37.9641 3.90636 37.1572 4.1082 36.5521 4.57917C35.9133 5.05014 35.5098 5.72295 35.4089 6.49668C35.1736 8.07779 36.2831 9.59162 37.8633 9.8271C38.0986 9.86074 38.3676 9.86074 38.6029 9.86074C39.9142 9.72618 40.99 8.71696 41.1918 7.37134Z" fill="#D9D9D9"/>
<path d="M48.9285 10.8363C49.6682 9.38975 49.063 7.64045 47.6173 6.90035L47.5837 6.86671C46.8776 6.53031 46.0707 6.49667 45.3647 6.73215C44.625 6.96764 44.0198 7.50588 43.6836 8.21234C42.9776 9.65888 43.5491 11.4082 44.9948 12.1483C45.4991 12.3838 46.0371 12.5183 46.6086 12.451C47.5836 12.3501 48.4578 11.7446 48.9285 10.8363Z" fill="#D9D9D9"/>
<path d="M53.5321 17.4298C54.2045 17.3625 54.8433 17.0597 55.314 16.5888C56.4572 15.445 56.4235 13.5948 55.2804 12.451C54.7089 11.9127 53.9692 11.5763 53.1623 11.61C52.389 11.61 51.6494 11.9464 51.1114 12.4846C50.0019 13.6284 50.0019 15.4786 51.145 16.6224C51.8175 17.2279 52.658 17.5307 53.5321 17.4298Z" fill="#D9D9D9"/>
<path d="M55.717 22.7451C56.2885 23.8216 57.398 24.4272 58.6084 24.3262C58.9782 24.2926 59.3481 24.1917 59.6843 24.0235C61.13 23.2834 61.6679 21.5004 60.9282 20.0539C60.5584 19.3474 59.9196 18.8428 59.18 18.6073C58.4403 18.3719 57.6334 18.4391 56.961 18.8092C55.5153 19.5493 54.9773 21.2986 55.717 22.7451Z" fill="#D9D9D9"/>
<path d="M63.8861 29.0027C63.7516 28.229 63.3145 27.5225 62.6757 27.0852C62.0369 26.6478 61.2636 26.446 60.4903 26.6142C59.7171 26.7488 59.0446 27.1861 58.5739 27.8253C58.1369 28.4644 57.9688 29.2382 58.0696 29.9783C58.2041 30.752 58.6076 31.4248 59.2464 31.8958C59.8179 32.2995 60.524 32.5013 61.23 32.434C61.2973 32.434 61.3645 32.434 61.4317 32.4004C62.205 32.2658 62.8774 31.8285 63.3481 31.1893C63.8525 30.5501 64.0206 29.7764 63.8861 29.0027Z" fill="#93C01F"/>
<path d="M63.3822 36.5378C62.9115 35.8986 62.2391 35.495 61.4658 35.394C59.8856 35.1586 58.4063 36.2687 58.171 37.8834C58.0701 38.6572 58.2382 39.4309 58.7089 40.0701C59.1796 40.7092 59.852 41.1129 60.6589 41.2139C60.8943 41.2475 61.1296 41.2475 61.365 41.2139C62.7098 41.0793 63.7857 40.0701 63.9874 38.7245C64.0547 37.9844 63.8529 37.177 63.3822 36.5378Z" fill="#93C01F"/>
<path d="M45.8013 20H22.1998C20.9974 20 20.019 20.9783 20.019 22.1808V45.8192C20.019 47.0217 20.9973 48 22.1998 48H38.1529C38.3794 48 38.563 47.8164 38.563 47.5899C38.563 47.3633 38.3794 47.1798 38.1529 47.1798H22.1998C21.4496 47.1798 20.8393 46.5694 20.8393 45.8192V22.1808C20.8393 21.4306 21.4497 20.8202 22.1998 20.8202H27.3566V28.5535C27.3566 29.4907 28.1191 30.2531 29.0562 30.2531H29.903C30.1295 30.2531 30.3131 30.0696 30.3131 29.843C30.3131 29.6165 30.1295 29.4329 29.903 29.4329H29.0562C28.5714 29.4329 28.1769 29.0384 28.1769 28.5535V20.8202H39.8243V28.5535C39.8243 29.0384 39.4299 29.4329 38.9449 29.4329H31.8152C31.5888 29.4329 31.4051 29.6165 31.4051 29.843C31.4051 30.0696 31.5888 30.2531 31.8152 30.2531H38.945C39.8821 30.2531 40.6446 29.4907 40.6446 28.5535V20.8202H45.8014C46.5516 20.8202 47.162 21.4306 47.162 22.1808V45.8192C47.162 46.5694 46.5516 47.1798 45.8014 47.1798H40.0651C39.8386 47.1798 39.655 47.3633 39.655 47.5899C39.655 47.8164 39.8386 48 40.0651 48H45.8013C47.0038 48 47.9821 47.0217 47.9821 45.8192V22.1808C47.9821 20.9783 47.0038 20 45.8013 20V20Z" fill="#93C01F"/>
<path d="M38.9343 27.1275V23.1256C38.9343 22.6446 38.5429 22.2531 38.0618 22.2531H29.9365C29.4554 22.2531 29.064 22.6446 29.064 23.1256V27.1275C29.064 27.6086 29.4554 27.9999 29.9365 27.9999H38.0619C38.5429 27.9999 38.9343 27.6086 38.9343 27.1275ZM29.8842 27.1275V23.1256C29.8842 23.0968 29.9076 23.0734 29.9365 23.0734H38.0619C38.0907 23.0734 38.1141 23.0968 38.1141 23.1256V27.1275C38.1141 27.1563 38.0907 27.1797 38.0619 27.1797H29.9365C29.9076 27.1797 29.8842 27.1563 29.8842 27.1275Z" fill="#93C01F"/>
<path d="M32.0174 25.3266H31.9866C31.9896 24.8044 31.9912 24.2457 31.9847 24.1681C31.9703 23.9942 31.8657 23.8524 31.7184 23.8068C31.5723 23.7617 31.4168 23.8181 31.3026 23.9582C31.1787 24.1102 30.6068 25.1414 30.4344 25.4539C30.3924 25.5301 30.3937 25.6229 30.438 25.6978C30.4822 25.7728 30.5628 25.8188 30.6499 25.8188H31.4911C31.4901 25.9585 31.489 26.0924 31.488 26.2133C31.4868 26.3492 31.596 26.4604 31.7319 26.4615H31.7341C31.869 26.4615 31.9789 26.3528 31.9801 26.2176C31.9808 26.143 31.982 25.9983 31.9833 25.8188H32.0173C32.1532 25.8188 32.2634 25.7086 32.2634 25.5727C32.2634 25.4369 32.1533 25.3266 32.0174 25.3266ZM31.4944 25.3266H31.0681C31.2266 25.043 31.3813 24.7709 31.4973 24.5725C31.4971 24.7777 31.496 25.0471 31.4944 25.3266Z" fill="#93C01F"/>
<path d="M34.0856 24.9174C34.1734 24.7998 34.226 24.6545 34.226 24.4968C34.226 24.108 33.9097 23.7916 33.5208 23.7916C33.132 23.7916 32.8157 24.108 32.8157 24.4968C32.8157 24.6545 32.8683 24.7997 32.9561 24.9174C32.7661 25.0781 32.645 25.3179 32.645 25.5857C32.645 26.0686 33.0379 26.4615 33.5208 26.4615C34.0038 26.4615 34.3967 26.0686 34.3967 25.5857C34.3967 25.3179 34.2756 25.0781 34.0856 24.9174ZM33.5209 24.2838C33.6384 24.2838 33.7339 24.3793 33.7339 24.4969C33.7339 24.6144 33.6384 24.7099 33.5209 24.7099C33.4034 24.7099 33.3079 24.6143 33.3079 24.4969C33.3079 24.3794 33.4034 24.2838 33.5209 24.2838ZM33.5209 25.9694C33.3093 25.9694 33.1372 25.7973 33.1372 25.5857C33.1372 25.374 33.3093 25.202 33.5209 25.202C33.7325 25.202 33.9046 25.374 33.9046 25.5857C33.9046 25.7973 33.7325 25.9694 33.5209 25.9694Z" fill="#93C01F"/>
<path d="M35.4825 25.6759L35.8796 25.3109C35.9463 25.2496 35.9507 25.1457 35.8894 25.0791C35.8281 25.0124 35.7243 25.008 35.6576 25.0693L35.374 25.3299V25.177C35.374 25.0863 35.3005 25.0129 35.2099 25.0129C35.1193 25.0129 35.0459 25.0863 35.0459 25.177V26.2154C35.0459 26.306 35.1193 26.3795 35.2099 26.3795C35.3005 26.3795 35.374 26.306 35.374 26.2154V26.0271L35.6915 26.3335C35.7234 26.3643 35.7644 26.3795 35.8054 26.3795C35.8484 26.3795 35.8913 26.3627 35.9235 26.3294C35.9864 26.2642 35.9846 26.1603 35.9194 26.0974L35.4825 25.6759Z" fill="#93C01F"/>
<path d="M37.349 25.5322H37.0384C36.9478 25.5322 36.8744 25.6056 36.8744 25.6962C36.8744 25.7868 36.9478 25.8603 37.0384 25.8603H37.1594C37.1224 25.9676 37.0424 26.0514 36.9008 26.0514C36.705 26.0514 36.5457 25.892 36.5457 25.6962C36.5457 25.5004 36.705 25.341 36.9008 25.341C36.972 25.341 37.0406 25.362 37.0993 25.4016C37.1744 25.4523 37.2764 25.4325 37.3271 25.3574C37.3778 25.2823 37.358 25.1804 37.2829 25.1297C37.1697 25.0533 37.0376 25.0129 36.9008 25.0129C36.524 25.0129 36.2175 25.3194 36.2175 25.6962C36.2175 26.0729 36.524 26.3794 36.9008 26.3794C37.2612 26.3794 37.513 26.0985 37.513 25.6962C37.5131 25.6056 37.4396 25.5322 37.349 25.5322Z" fill="#93C01F"/>
<path d="M34.3086 31.4677C34.4294 31.4677 34.5273 31.3698 34.5273 31.249C34.5273 31.1282 34.4294 31.0303 34.3086 31.0303H33.8103C33.6895 31.0303 33.5916 31.1282 33.5916 31.249V32.4316C33.5916 32.5524 33.6895 32.6504 33.8103 32.6504H34.3086C34.4294 32.6504 34.5273 32.5524 34.5273 32.4316C34.5273 32.3109 34.4294 32.2129 34.3086 32.2129H34.029V32.0591H34.2718C34.3926 32.0591 34.4906 31.9612 34.4906 31.8404C34.4906 31.7196 34.3926 31.6217 34.2718 31.6217H34.029V31.4678H34.3086V31.4677Z" fill="#93C01F"/>
<path d="M32.5816 32.213C32.4344 32.213 32.3502 32.1325 32.3278 32.1079C32.2467 32.0183 32.1084 32.0115 32.0189 32.0927C31.9294 32.1738 31.9226 32.3121 32.0037 32.4016C32.1469 32.5597 32.3576 32.6504 32.5816 32.6504C32.8669 32.6504 33.1069 32.4658 33.1524 32.2115C33.1854 32.0262 33.1028 31.7652 32.761 31.6391C32.6283 31.5902 32.5039 31.5373 32.4523 31.5148C32.4514 31.5126 32.451 31.5096 32.4516 31.5053C32.454 31.4886 32.4709 31.4745 32.4978 31.4663C32.6285 31.4268 32.7565 31.5251 32.7624 31.5297C32.8548 31.6059 32.9915 31.5934 33.0688 31.5016C33.1465 31.4091 33.1346 31.2711 33.0421 31.1934C32.929 31.0982 32.6603 30.9605 32.3716 31.0474C32.1806 31.105 32.0453 31.2566 32.0186 31.4431C31.9933 31.6197 32.0699 31.7897 32.2187 31.8867C32.2283 31.893 32.2385 31.8985 32.249 31.9032C32.256 31.9064 32.4224 31.9804 32.6096 32.0495C32.6844 32.0771 32.7253 32.1144 32.7217 32.1345C32.717 32.161 32.6697 32.213 32.5816 32.213Z" fill="#93C01F"/>
<path d="M36.0517 31.2381C36.0517 31.1173 35.9537 31.0194 35.8329 31.0194H35.1738C35.053 31.0194 34.9551 31.1173 34.9551 31.2381C34.9551 31.3589 35.053 31.4569 35.1738 31.4569H35.2833V32.4317C35.2833 32.5525 35.3813 32.6504 35.5021 32.6504C35.6228 32.6504 35.7208 32.5525 35.7208 32.4317V31.4569H35.8329C35.9537 31.4569 36.0517 31.3589 36.0517 31.2381Z" fill="#93C01F"/>
<path d="M37.7536 31.2641C37.6899 31.2641 37.6294 31.2918 37.5879 31.3401L36.9812 32.0442C36.9024 32.1357 36.9127 32.2738 37.0042 32.3527C37.0957 32.4317 37.2338 32.4213 37.3126 32.3298L37.7536 31.818L38.1945 32.3297C38.2377 32.38 38.2988 32.4057 38.3603 32.4057C38.4108 32.4057 38.4616 32.3883 38.5029 32.3527C38.5945 32.2739 38.6047 32.1357 38.5258 32.0442L37.9192 31.3401C37.8777 31.2918 37.8172 31.2641 37.7536 31.2641Z" fill="#93C01F"/>
<path d="M30.6867 31.3401L30.2457 31.8519L29.8048 31.3401C29.726 31.2485 29.5879 31.2383 29.4964 31.3172C29.4048 31.396 29.3946 31.5341 29.4735 31.6256L30.0801 32.3298C30.1216 32.378 30.1821 32.4058 30.2458 32.4058C30.3094 32.4058 30.37 32.378 30.4115 32.3298L31.0181 31.6257C31.0969 31.5341 31.0867 31.396 30.9952 31.3172C30.9036 31.2383 30.7655 31.2486 30.6867 31.3401Z" fill="#93C01F"/>
<path d="M33.9772 45.0219C34.2773 45.0219 34.5206 44.7786 34.5206 44.4786C34.5206 44.1785 34.2773 43.9352 33.9772 43.9352C33.6771 43.9352 33.4338 44.1785 33.4338 44.4786C33.4338 44.7786 33.6771 45.0219 33.9772 45.0219Z" fill="#93C01F"/>
<path d="M33.353 43.0629C33.2075 43.0629 33.0666 42.9853 32.9922 42.8485C32.8841 42.6495 32.9578 42.4005 33.1568 42.2923C33.4118 42.1538 33.7008 42.0805 33.9926 42.0805C34.2675 42.0805 34.5416 42.146 34.7854 42.2698C34.9874 42.3723 35.068 42.6192 34.9654 42.8211C34.8629 43.0231 34.616 43.1037 34.4141 43.0011C34.2829 42.9345 34.1411 42.9007 33.9926 42.9007C33.835 42.9007 33.6855 42.9385 33.5483 43.0131C33.4862 43.0468 33.4191 43.0629 33.353 43.0629Z" fill="#93C01F"/>
<path d="M35.9708 41.7554C35.8985 41.7554 35.8252 41.7363 35.7587 41.696C35.2299 41.3757 34.6215 41.2064 33.9995 41.2064C33.3775 41.2064 32.7692 41.3757 32.2403 41.696C32.0465 41.8132 31.7943 41.7513 31.677 41.5576C31.5597 41.3639 31.6217 41.1117 31.8154 40.9943C32.4726 40.5965 33.2278 40.3862 33.9995 40.3862C34.7714 40.3862 35.5266 40.5966 36.1837 40.9945C36.3774 41.1118 36.4394 41.3639 36.322 41.5577C36.2449 41.685 36.1095 41.7554 35.9708 41.7554Z" fill="#93C01F"/>
</svg>
