<svg width="68" height="68" viewBox="0 0 68 68" fill="none" xmlns="http://www.w3.org/2000/svg">
<rect width="68" height="68" rx="34" fill="white"/>
<path d="M61.0294 45.8227C60.7941 45.0826 60.2898 44.4771 59.5837 44.107C58.1716 43.367 56.3897 43.9388 55.65 45.3518C55.2802 46.0582 55.213 46.8319 55.4483 47.6057C55.6837 48.3458 56.188 48.9513 56.894 49.3213C57.3983 49.5905 57.9699 49.6914 58.5415 49.6577C59.5165 49.5568 60.3906 48.9849 60.8613 48.1103C61.1975 47.3702 61.2648 46.5628 61.0294 45.8227Z" fill="#93C01F"/>
<path d="M53.1638 50.6333H53.1302C52.3905 50.6333 51.6509 50.9361 51.1129 51.4743C50.5414 52.0126 50.2388 52.7527 50.2388 53.5264C50.2388 54.3001 50.5414 55.0402 51.0793 55.6121C51.7181 56.2513 52.5586 56.554 53.4664 56.4868C54.1388 56.4195 54.744 56.1167 55.2147 55.6794C55.7863 55.1411 56.0888 54.3674 56.0888 53.5937C56.0888 52.8199 55.7862 52.0798 55.2483 51.508C54.6768 50.9361 53.9371 50.6333 53.1638 50.6333Z" fill="#93C01F"/>
<path d="M44.9241 55.8807C44.1845 56.2508 43.6802 56.8563 43.4112 57.5964C43.1758 58.3365 43.2095 59.1438 43.5793 59.8503C43.9155 60.5568 44.5207 61.095 45.294 61.3305C45.6974 61.465 46.1009 61.4987 46.5043 61.465C46.8742 61.4314 47.2104 61.3305 47.513 61.1623C48.219 60.8259 48.7569 60.1867 48.9923 59.4466C49.2276 58.7065 49.1604 57.8991 48.8242 57.2263C48.0845 55.7461 46.3362 55.1743 44.9241 55.8807Z" fill="#FFEC00"/>
<path d="M39.7785 58.7069C39.1397 58.2695 38.4 58.0677 37.6267 58.1686C36.0129 58.4041 34.9371 59.9179 35.1724 61.499C35.4077 63.0465 36.8198 64.123 38.3664 63.9884C38.4 63.9884 38.4673 63.9884 38.5009 63.9548C39.2742 63.8539 39.9802 63.4165 40.4509 62.7774C40.9216 62.1382 41.0897 61.3645 40.9888 60.5907C40.8207 59.8506 40.4173 59.1442 39.7785 58.7069Z" fill="#FFEC00"/>
<path d="M30.166 58.1352C29.3927 58.0006 28.6194 58.2025 27.9806 58.6398C27.3418 59.1108 26.9384 59.7836 26.8039 60.5573C26.6694 61.3311 26.8711 62.1048 27.3082 62.744C27.7789 63.3831 28.4513 63.7868 29.2246 63.9214C29.4936 63.955 29.7289 63.955 29.9979 63.955C30.5358 63.8877 31.0065 63.7195 31.4436 63.4168C32.0824 62.9458 32.4858 62.273 32.6203 61.4993C32.8221 59.9182 31.7462 58.4043 30.166 58.1352Z" fill="#FFEC00"/>
<path d="M24.1812 57.3948C23.9459 56.6547 23.4415 56.0491 22.7355 55.7127C22.0295 55.3427 21.2562 55.2754 20.4829 55.5109C19.7432 55.7464 19.138 56.251 18.7682 56.9574C18.3984 57.6639 18.3311 58.4376 18.5665 59.2114C18.8018 59.9515 19.3061 60.557 20.0122 60.927C20.5165 61.1961 21.0881 61.2971 21.6596 61.2298C21.8614 61.1962 22.0631 61.1625 22.2648 61.0952C23.0045 60.8597 23.6096 60.3215 23.9459 59.6487C24.3829 58.9422 24.4502 58.1685 24.1812 57.3948Z" fill="#FFEC00"/>
<path d="M14.5307 50.3303C13.7575 50.3303 13.0178 50.6331 12.4799 51.1713C11.9083 51.7432 11.6057 52.4833 11.6057 53.257C11.6057 54.0308 11.9083 54.7709 12.4462 55.3091C12.9842 55.881 13.7575 56.1838 14.5644 56.1838C14.6652 56.1838 14.7325 56.1838 14.8333 56.1838C15.5058 56.1165 16.1446 55.8137 16.6153 55.3428C17.7584 54.199 17.7584 52.3488 16.6153 51.205C16.0773 50.6331 15.3377 50.3303 14.5307 50.3303Z" fill="#F29100"/>
<path d="M12.1798 45.0151C11.81 44.3087 11.2048 43.804 10.4652 43.5349C9.72549 43.2994 8.91859 43.3667 8.21254 43.7031C7.5065 44.0395 7.00219 44.6451 6.73322 45.4188C6.49787 46.1589 6.53149 46.9663 6.90132 47.6391C7.23753 48.3455 7.87633 48.8838 8.616 49.1193C8.98583 49.2538 9.38928 49.2875 9.79274 49.2538C10.1626 49.2202 10.5324 49.1193 10.835 48.9511C12.3143 48.211 12.8859 46.4617 12.1798 45.0151Z" fill="#F29100"/>
<path d="M7.40359 41.1126C8.98378 40.8435 10.0933 39.3633 9.82431 37.7822C9.72344 36.9748 9.31999 36.302 8.68119 35.8311C8.04239 35.3601 7.26911 35.1919 6.49582 35.2928C5.72254 35.4274 5.01649 35.8311 4.57942 36.4702C4.10872 37.1094 3.94062 37.8831 4.0751 38.6232C4.20959 39.397 4.61304 40.1034 5.25184 40.5744C5.8234 40.9781 6.52944 41.1799 7.23548 41.1126C7.30273 41.1126 7.36997 41.1126 7.40359 41.1126Z" fill="#F29100"/>
<path d="M6.49524 32.5686C6.76421 32.6022 6.99956 32.6359 7.2349 32.6022C7.77284 32.5349 8.24354 32.3667 8.68061 32.0303C9.28579 31.5594 9.72286 30.8866 9.82373 30.1128C10.0927 28.5317 8.9832 27.0179 7.40301 26.7488C5.82282 26.4796 4.30987 27.5898 4.0409 29.1709C3.90642 29.9446 4.10814 30.752 4.57884 31.3912C5.04953 32.064 5.75558 32.4677 6.49524 32.5686Z" fill="#F29100"/>
<path d="M8.27829 24.1583C8.78261 24.3938 9.32054 24.5284 9.8921 24.4611C10.9007 24.3602 11.7749 23.7547 12.212 22.88L12.2456 22.8464C12.9516 21.3998 12.3801 19.6841 10.9344 18.9441C9.48865 18.204 7.74035 18.7759 7.00069 20.2224C6.63086 20.9288 6.59723 21.7362 6.83258 22.4763C7.06793 23.2164 7.60587 23.8219 8.27829 24.1583Z" fill="#E5332A"/>
<path d="M14.9019 17.5639C15.5744 17.4966 16.2132 17.1939 16.6839 16.7229C17.2554 16.151 17.558 15.4446 17.558 14.6372C17.558 13.8634 17.2554 13.1234 16.6839 12.5515C16.1459 12.0132 15.4063 11.7104 14.633 11.7104C13.8597 11.7104 13.12 12.0132 12.5485 12.5851C12.0105 13.1234 11.6743 13.8971 11.6743 14.7045C11.6743 15.4782 11.9769 16.2183 12.5485 16.7565C13.1873 17.3284 14.0278 17.6312 14.9019 17.5639Z" fill="#E5332A"/>
<path d="M22.8668 12.2157C23.5729 11.8457 24.0772 11.2401 24.3126 10.5C24.5479 9.75994 24.4807 8.95256 24.1445 8.24611C23.7746 7.5733 23.1694 7.03505 22.4298 6.79957C21.6901 6.56408 20.8832 6.63136 20.1772 6.96777C19.4711 7.33782 18.9332 7.94335 18.6978 8.71708C18.4625 9.45717 18.5297 10.2645 18.8996 10.9374C19.2694 11.6438 19.8746 12.1484 20.6142 12.3839C20.9841 12.5185 21.3875 12.5521 21.791 12.5185C22.1944 12.4848 22.5306 12.3839 22.8668 12.2157Z" fill="#E5332A"/>
<path d="M32.5181 6.49627C32.3836 5.72254 31.9801 5.04973 31.3413 4.57876C30.7025 4.10779 29.9293 3.93959 29.156 4.07415C28.3827 4.20871 27.6766 4.64604 27.2396 5.28521C26.7689 5.92438 26.6008 6.69811 26.7353 7.47185C26.9706 8.98567 28.3827 10.0622 29.9293 9.92761C29.9965 9.92761 30.0637 9.92761 30.0974 9.89397C31.7112 9.5912 32.7871 8.07738 32.5181 6.49627Z" fill="#E5332A"/>
<path d="M41.1918 7.37134C41.4271 5.79023 40.3512 4.27641 38.7374 4.04092C37.9641 3.90636 37.1572 4.1082 36.5521 4.57917C35.9133 5.05014 35.5098 5.72295 35.4089 6.49668C35.1736 8.07779 36.2831 9.59162 37.8633 9.8271C38.0986 9.86074 38.3676 9.86074 38.6029 9.86074C39.9142 9.72618 40.99 8.71696 41.1918 7.37134Z" fill="#D9D9D9"/>
<path d="M48.9285 10.8363C49.6682 9.38975 49.063 7.64045 47.6173 6.90035L47.5837 6.86671C46.8776 6.53031 46.0707 6.49667 45.3647 6.73215C44.625 6.96764 44.0198 7.50588 43.6836 8.21234C42.9776 9.65888 43.5491 11.4082 44.9948 12.1483C45.4991 12.3838 46.0371 12.5183 46.6086 12.451C47.5836 12.3501 48.4578 11.7446 48.9285 10.8363Z" fill="#D9D9D9"/>
<path d="M53.5321 17.4298C54.2045 17.3625 54.8433 17.0597 55.314 16.5888C56.4572 15.445 56.4235 13.5948 55.2804 12.451C54.7089 11.9127 53.9692 11.5763 53.1623 11.61C52.389 11.61 51.6494 11.9464 51.1114 12.4846C50.0019 13.6284 50.0019 15.4786 51.145 16.6224C51.8175 17.2279 52.658 17.5307 53.5321 17.4298Z" fill="#D9D9D9"/>
<path d="M55.717 22.7451C56.2885 23.8216 57.398 24.4272 58.6084 24.3262C58.9782 24.2926 59.3481 24.1917 59.6843 24.0235C61.13 23.2834 61.6679 21.5004 60.9282 20.0539C60.5584 19.3474 59.9196 18.8428 59.18 18.6073C58.4403 18.3719 57.6334 18.4391 56.961 18.8092C55.5153 19.5493 54.9773 21.2986 55.717 22.7451Z" fill="#D9D9D9"/>
<path d="M63.8861 29.0027C63.7516 28.229 63.3145 27.5225 62.6757 27.0852C62.0369 26.6478 61.2636 26.446 60.4903 26.6142C59.7171 26.7488 59.0446 27.1861 58.5739 27.8253C58.1369 28.4644 57.9688 29.2382 58.0696 29.9783C58.2041 30.752 58.6076 31.4248 59.2464 31.8958C59.8179 32.2995 60.524 32.5013 61.23 32.434C61.2973 32.434 61.3645 32.434 61.4317 32.4004C62.205 32.2658 62.8774 31.8285 63.3481 31.1893C63.8525 30.5501 64.0206 29.7764 63.8861 29.0027Z" fill="#93C01F"/>
<path d="M63.3822 36.5378C62.9115 35.8986 62.2391 35.495 61.4658 35.394C59.8856 35.1586 58.4063 36.2687 58.171 37.8834C58.0701 38.6572 58.2382 39.4309 58.7089 40.0701C59.1796 40.7092 59.852 41.1129 60.6589 41.2139C60.8943 41.2475 61.1296 41.2475 61.365 41.2139C62.7098 41.0793 63.7857 40.0701 63.9874 38.7245C64.0547 37.9844 63.8529 37.177 63.3822 36.5378Z" fill="#93C01F"/>
<path d="M46.4192 23.764L45.2227 22.7104L46.4192 21.6571C46.6053 21.493 46.6689 21.2373 46.5816 21.0053C46.4938 20.7731 46.2769 20.6231 46.0289 20.6231H41.0776V20.4104C41.0776 20.1837 40.8939 20 40.6672 20C40.4405 20 40.2568 20.1837 40.2568 20.4104V25.9449L36.8865 27.775C36.8679 27.6268 36.8235 27.4811 36.7532 27.3439L36.2783 26.4168C35.9523 25.7802 35.1692 25.5279 34.533 25.8537L34.1658 26.0417C33.8573 26.1998 33.629 26.4681 33.5226 26.7979C33.4162 27.1275 33.4446 27.4789 33.6027 27.7872L34.0776 28.7145C34.1885 28.9309 34.3523 29.1022 34.545 29.2223C34.2929 29.5617 34.1733 29.9792 34.0502 30.4128L33.9618 30.726C33.9001 30.9441 34.027 31.171 34.2451 31.2325C34.2822 31.2432 34.3198 31.2481 34.3568 31.2481C34.5358 31.2481 34.7003 31.1302 34.7516 30.9492L34.84 30.6367C35.0199 30.0025 35.1303 29.6628 35.4819 29.4718L36.1123 29.1294L36.1901 29.0896C36.2159 29.0764 36.2401 29.0614 36.2647 29.0467L40.7576 26.6069C40.7292 27.1685 40.4269 27.6992 39.9291 28.0014L37.0074 29.7767C37.004 29.7786 37.0006 29.7805 36.9974 29.7826L36.088 30.3351C35.8944 30.4528 35.8327 30.7053 35.9504 30.899C36.0613 31.0817 36.292 31.1466 36.4802 31.055L35.7902 33.1408L35.2858 33.3476L33.9144 33.9096L34.3096 32.5125C34.3711 32.2944 34.2444 32.0675 34.0263 32.0058C33.808 31.9439 33.5813 32.071 33.5196 32.2891L32.8952 34.4973C32.8871 34.5257 32.8817 34.5569 32.8804 34.5866L32.717 37.5884C32.7121 37.7029 32.7365 37.9193 32.6835 38.031L30.8685 41.8493H29.5496C28.777 41.8493 28.1485 42.4778 28.1485 43.2503V44.4348C27.9716 44.3538 27.7753 44.3085 27.5683 44.3085H24.2189C23.4464 44.3085 22.818 44.9368 22.818 45.7095V47.1792H21.8327C21.6061 47.1792 21.4224 47.3629 21.4224 47.5896C21.4224 47.8162 21.6061 47.9999 21.8327 47.9999H46.0285C46.2551 47.9999 46.4389 47.8162 46.4389 47.5896C46.4389 47.3629 46.2551 47.1792 46.0285 47.1792H44.9612V36.6017C44.9612 35.8292 44.3328 35.2007 43.5603 35.2007H41.0776V28.0416C41.5326 27.4249 41.7011 26.6165 41.4899 25.8483C41.4567 25.7276 41.3702 25.6285 41.2549 25.5796C41.1983 25.5555 41.1376 25.5448 41.0776 25.5471V24.798H46.0287C46.2769 24.798 46.4938 24.648 46.5813 24.416C46.6689 24.184 46.6053 23.9281 46.4192 23.764ZM34.3038 27.05C34.3429 26.9288 34.4266 26.8302 34.5399 26.7723L34.9071 26.5843C34.9763 26.5488 35.0502 26.5319 35.1233 26.5319C35.2963 26.5319 35.4636 26.6266 35.5477 26.7908L36.0228 27.7182C36.1337 27.9348 36.0619 28.1973 35.8647 28.33L35.731 28.4024L35.4488 28.547C35.2153 28.6667 34.9278 28.574 34.8082 28.3403L34.3331 27.4131C34.2752 27.2999 34.2647 27.1709 34.3038 27.05ZM33.4792 41.9756C33.3397 41.9119 33.1881 41.8703 33.0287 41.8555L33.4792 41.2572V41.9756ZM35.4277 38.6689C35.6251 38.4324 35.6795 38.1562 35.7235 37.9336C35.7347 37.8806 35.9372 36.7745 35.9372 36.7745C35.9372 36.7745 36.1288 36.8939 36.1489 36.9025C36.1628 36.9087 36.1726 36.9223 36.1741 36.9384L36.3973 39.2077H35.022L35.4277 38.6689ZM37.8544 36.4039L37.5079 39.2057H37.2219L36.991 36.858C36.9615 36.5572 36.7773 36.2947 36.5075 36.1642L36.0948 35.9025L36.3698 34.3787C36.3698 34.3787 37.528 35.7547 37.5549 35.7897C37.7946 36.1014 37.8766 36.2261 37.8544 36.4039ZM33.4218 38.3899C33.5046 38.1404 33.5431 37.8864 33.5367 37.6281L33.6858 34.8904L35.5838 34.1126L35.2388 36.0236C35.2378 36.0287 35.2367 36.0341 35.2361 36.0392L34.9507 37.6194C34.9135 37.783 34.881 38.0312 34.7789 38.166L32.0059 41.8493H31.7773L33.4218 38.3899ZM23.6387 45.7093C23.6387 45.3895 23.8989 45.1293 24.2189 45.1293H27.5683C27.8883 45.1293 28.1487 45.3895 28.1487 45.7093V47.1792H23.6387V45.7093ZM28.9692 45.7093V43.2503C28.9692 42.9303 29.2296 42.6701 29.5496 42.6701H32.899C33.219 42.6701 33.4792 42.9303 33.4792 43.2503V47.1792H28.9694V45.7093H28.9692ZM44.1405 36.6017V47.1792H39.6307V44.7187C39.6307 44.492 39.447 44.3083 39.2203 44.3083C38.9935 44.3083 38.8098 44.492 38.8098 44.7187V47.1792H34.3V40.6084C34.3 40.2886 34.5602 40.0284 34.8802 40.0284H38.2296C38.5496 40.0284 38.8098 40.2886 38.8098 40.6084V42.6656C38.8098 42.8922 38.9935 43.0759 39.2201 43.0759C39.447 43.0759 39.6305 42.8922 39.6305 42.6656V36.6017C39.6305 36.2817 39.8909 36.0215 40.2109 36.0215H40.6629C40.6642 36.0215 40.6657 36.0217 40.6672 36.0217C40.6685 36.0217 40.67 36.0215 40.6713 36.0215H43.5601C43.8801 36.0215 44.1405 36.2819 44.1405 36.6017ZM40.2109 35.2007C39.4384 35.2007 38.81 35.8292 38.81 36.6017V39.3339C38.663 39.2668 38.5028 39.2243 38.3342 39.2119L38.669 36.5049C38.7348 35.9773 38.4656 35.6276 38.2054 35.2892C38.1779 35.2533 36.5827 33.3593 36.5827 33.3593L37.5613 30.4006L40.2568 28.763V35.2007H40.2109ZM41.0776 23.977V21.4441H45.419L44.484 22.2674C44.3567 22.3795 44.2836 22.541 44.2836 22.7107C44.2836 22.8803 44.3567 23.0418 44.484 23.1539L45.419 23.9772H41.0776V23.977Z" fill="#93C01F"/>
</svg>
