<svg width="1919" height="851" viewBox="0 0 1919 851" fill="none" xmlns="http://www.w3.org/2000/svg">
<rect y="32" width="1919" height="819" fill="url(#paint0_linear)"/>
<rect x="607" width="68" height="68" rx="34" fill="white"/>
<path d="M668.029 45.8227C667.794 45.0826 667.29 44.4771 666.584 44.107C665.172 43.367 663.39 43.9388 662.65 45.3518C662.28 46.0582 662.213 46.8319 662.448 47.6057C662.684 48.3458 663.188 48.9513 663.894 49.3213C664.398 49.5905 664.97 49.6914 665.541 49.6577C666.516 49.5568 667.391 48.9849 667.861 48.1103C668.197 47.3702 668.265 46.5628 668.029 45.8227Z" fill="#93C01F"/>
<path d="M660.164 50.6333H660.13C659.391 50.6333 658.651 50.9361 658.113 51.4743C657.541 52.0126 657.239 52.7527 657.239 53.5264C657.239 54.3001 657.541 55.0402 658.079 55.6121C658.718 56.2513 659.559 56.554 660.467 56.4868C661.139 56.4195 661.744 56.1167 662.215 55.6794C662.786 55.1411 663.089 54.3674 663.089 53.5937C663.089 52.8199 662.786 52.0798 662.248 51.508C661.677 50.9361 660.937 50.6333 660.164 50.6333Z" fill="#93C01F"/>
<path d="M651.924 55.8807C651.185 56.2508 650.68 56.8563 650.411 57.5964C650.176 58.3365 650.21 59.1438 650.579 59.8503C650.916 60.5568 651.521 61.095 652.294 61.3305C652.698 61.465 653.101 61.4987 653.504 61.465C653.874 61.4314 654.21 61.3305 654.513 61.1623C655.219 60.8259 655.757 60.1867 655.992 59.4466C656.228 58.7065 656.161 57.8991 655.824 57.2263C655.085 55.7461 653.336 55.1743 651.924 55.8807Z" fill="#FFEC00"/>
<path d="M646.778 58.7069C646.14 58.2695 645.4 58.0677 644.627 58.1686C643.013 58.4041 641.937 59.9179 642.172 61.499C642.408 63.0465 643.82 64.123 645.366 63.9884C645.4 63.9884 645.467 63.9884 645.501 63.9548C646.274 63.8539 646.98 63.4165 647.451 62.7774C647.921 62.1382 648.09 61.3645 647.989 60.5907C647.821 59.8506 647.417 59.1442 646.778 58.7069Z" fill="#FFEC00"/>
<path d="M637.166 58.1352C636.393 58.0006 635.619 58.2025 634.981 58.6398C634.342 59.1108 633.938 59.7836 633.804 60.5573C633.669 61.3311 633.871 62.1048 634.308 62.744C634.779 63.3831 635.451 63.7868 636.225 63.9214C636.494 63.955 636.729 63.955 636.998 63.955C637.536 63.8877 638.007 63.7195 638.444 63.4168C639.082 62.9458 639.486 62.273 639.62 61.4993C639.822 59.9182 638.746 58.4043 637.166 58.1352Z" fill="#FFEC00"/>
<path d="M631.181 57.3948C630.946 56.6547 630.442 56.0491 629.736 55.7127C629.029 55.3427 628.256 55.2754 627.483 55.5109C626.743 55.7464 626.138 56.251 625.768 56.9574C625.398 57.6639 625.331 58.4376 625.566 59.2114C625.802 59.9515 626.306 60.557 627.012 60.927C627.517 61.1961 628.088 61.2971 628.66 61.2298C628.861 61.1962 629.063 61.1625 629.265 61.0952C630.004 60.8597 630.61 60.3215 630.946 59.6487C631.383 58.9422 631.45 58.1685 631.181 57.3948Z" fill="#FFEC00"/>
<path d="M621.531 50.3303C620.757 50.3303 620.018 50.6331 619.48 51.1713C618.908 51.7432 618.606 52.4833 618.606 53.257C618.606 54.0308 618.908 54.7709 619.446 55.3091C619.984 55.881 620.757 56.1838 621.564 56.1838C621.665 56.1838 621.732 56.1838 621.833 56.1838C622.506 56.1165 623.145 55.8137 623.615 55.3428C624.758 54.199 624.758 52.3488 623.615 51.205C623.077 50.6331 622.338 50.3303 621.531 50.3303Z" fill="#F29100"/>
<path d="M619.18 45.0151C618.81 44.3087 618.205 43.804 617.465 43.5349C616.725 43.2994 615.918 43.3667 615.212 43.7031C614.506 44.0395 614.002 44.6451 613.733 45.4188C613.498 46.1589 613.531 46.9663 613.901 47.6391C614.237 48.3455 614.876 48.8838 615.616 49.1193C615.986 49.2538 616.389 49.2875 616.793 49.2538C617.162 49.2202 617.532 49.1193 617.835 48.9511C619.314 48.211 619.886 46.4617 619.18 45.0151Z" fill="#F29100"/>
<path d="M614.404 41.1126C615.984 40.8435 617.093 39.3633 616.824 37.7822C616.723 36.9748 616.32 36.302 615.681 35.8311C615.042 35.3601 614.269 35.1919 613.496 35.2928C612.723 35.4274 612.016 35.8311 611.579 36.4702C611.109 37.1094 610.941 37.8831 611.075 38.6232C611.21 39.397 611.613 40.1034 612.252 40.5744C612.823 40.9781 613.529 41.1799 614.235 41.1126C614.303 41.1126 614.37 41.1126 614.404 41.1126Z" fill="#F29100"/>
<path d="M613.495 32.5686C613.764 32.6022 614 32.6359 614.235 32.6022C614.773 32.5349 615.244 32.3667 615.681 32.0303C616.286 31.5594 616.723 30.8866 616.824 30.1128C617.093 28.5317 615.983 27.0179 614.403 26.7488C612.823 26.4796 611.31 27.5898 611.041 29.1709C610.906 29.9446 611.108 30.752 611.579 31.3912C612.05 32.064 612.756 32.4677 613.495 32.5686Z" fill="#F29100"/>
<path d="M615.278 24.1583C615.783 24.3938 616.321 24.5284 616.892 24.4611C617.901 24.3602 618.775 23.7547 619.212 22.88L619.246 22.8464C619.952 21.3998 619.38 19.6841 617.934 18.9441C616.489 18.204 614.74 18.7759 614.001 20.2224C613.631 20.9288 613.597 21.7362 613.833 22.4763C614.068 23.2164 614.606 23.8219 615.278 24.1583Z" fill="#E5332A"/>
<path d="M621.902 17.5639C622.574 17.4966 623.213 17.1939 623.684 16.7229C624.255 16.151 624.558 15.4446 624.558 14.6372C624.558 13.8634 624.255 13.1234 623.684 12.5515C623.146 12.0132 622.406 11.7104 621.633 11.7104C620.86 11.7104 620.12 12.0132 619.548 12.5851C619.01 13.1234 618.674 13.8971 618.674 14.7045C618.674 15.4782 618.977 16.2183 619.548 16.7565C620.187 17.3284 621.028 17.6312 621.902 17.5639Z" fill="#E5332A"/>
<path d="M629.867 12.2157C630.573 11.8457 631.077 11.2401 631.313 10.5C631.548 9.75994 631.481 8.95256 631.144 8.24611C630.775 7.5733 630.169 7.03505 629.43 6.79957C628.69 6.56408 627.883 6.63136 627.177 6.96777C626.471 7.33782 625.933 7.94335 625.698 8.71708C625.462 9.45717 625.53 10.2645 625.9 10.9374C626.269 11.6438 626.875 12.1484 627.614 12.3839C627.984 12.5185 628.388 12.5521 628.791 12.5185C629.194 12.4848 629.531 12.3839 629.867 12.2157Z" fill="#E5332A"/>
<path d="M639.518 6.49627C639.384 5.72254 638.98 5.04973 638.341 4.57876C637.703 4.10779 636.929 3.93959 636.156 4.07415C635.383 4.20871 634.677 4.64604 634.24 5.28521C633.769 5.92438 633.601 6.69811 633.735 7.47185C633.971 8.98567 635.383 10.0622 636.929 9.92761C636.997 9.92761 637.064 9.92761 637.097 9.89397C638.711 9.5912 639.787 8.07738 639.518 6.49627Z" fill="#E5332A"/>
<path d="M648.192 7.37134C648.427 5.79023 647.351 4.27641 645.738 4.04092C644.964 3.90636 644.157 4.1082 643.552 4.57917C642.913 5.05014 642.51 5.72295 642.409 6.49668C642.174 8.07779 643.283 9.59162 644.863 9.8271C645.099 9.86074 645.368 9.86074 645.603 9.86074C646.914 9.72618 647.99 8.71696 648.192 7.37134Z" fill="#D9D9D9"/>
<path d="M655.928 10.8363C656.668 9.38975 656.063 7.64045 654.617 6.90035L654.584 6.86671C653.878 6.53031 653.071 6.49667 652.365 6.73215C651.625 6.96764 651.02 7.50588 650.684 8.21234C649.978 9.65888 650.549 11.4082 651.995 12.1483C652.499 12.3838 653.037 12.5183 653.609 12.451C654.584 12.3501 655.458 11.7446 655.928 10.8363Z" fill="#D9D9D9"/>
<path d="M660.532 17.4298C661.205 17.3625 661.843 17.0597 662.314 16.5888C663.457 15.445 663.424 13.5948 662.28 12.451C661.709 11.9127 660.969 11.5763 660.162 11.61C659.389 11.61 658.649 11.9464 658.111 12.4846C657.002 13.6284 657.002 15.4786 658.145 16.6224C658.817 17.2279 659.658 17.5307 660.532 17.4298Z" fill="#D9D9D9"/>
<path d="M662.717 22.7451C663.289 23.8216 664.398 24.4272 665.608 24.3262C665.978 24.2926 666.348 24.1917 666.684 24.0235C668.13 23.2834 668.668 21.5004 667.928 20.0539C667.558 19.3474 666.92 18.8428 666.18 18.6073C665.44 18.3719 664.633 18.4391 663.961 18.8092C662.515 19.5493 661.977 21.2986 662.717 22.7451Z" fill="#D9D9D9"/>
<path d="M670.886 29.0027C670.752 28.229 670.315 27.5225 669.676 27.0852C669.037 26.6478 668.264 26.446 667.49 26.6142C666.717 26.7488 666.045 27.1861 665.574 27.8253C665.137 28.4644 664.969 29.2382 665.07 29.9783C665.204 30.752 665.608 31.4248 666.246 31.8958C666.818 32.2995 667.524 32.5013 668.23 32.434C668.297 32.434 668.364 32.434 668.432 32.4004C669.205 32.2658 669.877 31.8285 670.348 31.1893C670.852 30.5501 671.021 29.7764 670.886 29.0027Z" fill="#93C01F"/>
<path d="M670.382 36.5378C669.912 35.8986 669.239 35.495 668.466 35.394C666.886 35.1586 665.406 36.2687 665.171 37.8834C665.07 38.6572 665.238 39.4309 665.709 40.0701C666.18 40.7092 666.852 41.1129 667.659 41.2139C667.894 41.2475 668.13 41.2475 668.365 41.2139C669.71 41.0793 670.786 40.0701 670.987 38.7245C671.055 37.9844 670.853 37.177 670.382 36.5378Z" fill="#93C01F"/>
<path d="M630 31.818C630 35.0799 633.004 37.7333 636.698 37.7333C637.344 37.7338 637.988 37.6508 638.612 37.4866V47.0667H632.631C632.367 47.0667 632.153 47.2756 632.153 47.5333C632.153 47.791 632.367 48 632.631 48H646.027C646.291 48 646.506 47.791 646.506 47.5333C646.506 47.2756 646.291 47.0667 646.027 47.0667H639.568V42.6445L641.616 41.2623C642.902 41.8276 644.374 41.8324 645.665 41.2757C645.818 41.409 645.986 41.5252 646.165 41.6221C646.6 41.8531 647.087 41.9723 647.582 41.9689C649.159 41.8802 650.575 40.997 651.319 39.6378C651.962 38.6131 652.16 37.3801 651.868 36.2126C651.669 35.4615 651.175 34.8174 650.492 34.42C650.645 32.9896 650.062 31.7204 648.953 31.1239C648.65 30.9619 648.319 30.8548 647.976 30.8085C648.113 30.2466 648.181 29.671 648.18 29.0934C648.18 25.8053 646.006 23.1233 643.33 23.1789C642.512 21.2357 640.879 20 639.09 20C636.452 20 634.306 22.6535 634.306 25.9154C634.306 26.0359 634.31 26.158 634.317 26.2888C631.719 27.1559 630 29.3356 630 31.818ZM639.568 39.7158C639.884 40.1157 640.26 40.4663 640.684 40.756L639.568 41.5091V39.7158ZM649.499 34.6034C649.457 34.8199 649.577 35.0352 649.786 35.1195C649.851 35.1455 649.915 35.1746 649.977 35.2072C650.462 35.4784 650.811 35.9318 650.943 36.4616C651.166 37.3872 651.002 38.3611 650.488 39.1684C649.566 40.719 647.833 41.455 646.625 40.8018C646.432 40.6967 646.26 40.5593 646.116 40.3957C646.025 40.2934 645.893 40.2346 645.754 40.2346C645.67 40.2344 645.588 40.2556 645.515 40.2959C644.616 40.776 643.559 40.8881 642.575 40.6076L645.577 38.5803C645.787 38.4313 645.837 38.1458 645.689 37.9373C645.541 37.729 645.25 37.6739 645.033 37.8131L641.532 40.1767C640.64 39.6873 639.978 38.8795 639.683 37.9234C639.454 37.1605 639.553 36.3397 639.956 35.6493C640.795 34.3796 642.389 33.7986 643.876 34.2208C644.099 34.2721 644.328 34.162 644.422 33.9585C644.482 33.8261 644.55 33.6972 644.623 33.5716C645.546 32.0208 647.28 31.2877 648.487 31.9383C649.325 32.3872 649.72 33.4331 649.499 34.6034ZM634.955 27.0709C635.178 27.0093 635.324 26.8004 635.301 26.5753C635.276 26.3561 635.264 26.1359 635.263 25.9154C635.263 23.1682 636.98 20.9333 639.09 20.9333C640.568 20.9333 641.929 22.0679 642.558 23.8238C642.632 24.0298 642.842 24.1583 643.065 24.1332C643.175 24.12 643.285 24.113 643.396 24.1118C645.506 24.1118 647.223 26.3467 647.223 29.0934C647.223 29.6785 647.141 30.261 646.979 30.8243C645.628 31.0931 644.466 31.9276 643.801 33.1063C643.774 33.153 643.748 33.1968 643.724 33.2426C642.191 32.9616 640.619 33.4752 639.568 34.5997V27C639.568 26.7423 639.354 26.5333 639.09 26.5333C638.826 26.5333 638.612 26.7423 638.612 27V32.8734L636.079 30.4034C635.892 30.2266 635.593 30.2291 635.409 30.4091C635.224 30.5891 635.222 30.8801 635.403 31.0633L638.612 34.1932V36.5092C637.993 36.7013 637.347 36.7993 636.698 36.8C633.532 36.8 630.957 34.5651 630.957 31.818C630.957 29.64 632.563 27.7321 634.955 27.0709Z" fill="#233670"/>
<defs>
<linearGradient id="paint0_linear" x1="663.449" y1="-157.737" x2="838.35" y2="1027.34" gradientUnits="userSpaceOnUse">
<stop stop-color="#A2D126"/>
<stop offset="1" stop-color="#81B01B"/>
</linearGradient>
</defs>
</svg>
