<svg width="68" height="68" viewBox="0 0 68 68" fill="none" xmlns="http://www.w3.org/2000/svg">
<rect width="68" height="68" rx="34" fill="white"/>
<path d="M61.0293 45.8227C60.794 45.0826 60.2896 44.4771 59.5836 44.107C58.1715 43.367 56.3896 43.9388 55.6499 45.3518C55.2801 46.0582 55.2129 46.8319 55.4482 47.6057C55.6835 48.3458 56.1879 48.9513 56.8939 49.3213C57.3982 49.5905 57.9698 49.6914 58.5413 49.6577C59.5164 49.5568 60.3905 48.9849 60.8612 48.1103C61.1974 47.3702 61.2647 46.5628 61.0293 45.8227Z" fill="#93C01F"/>
<path d="M53.1639 50.6333H53.1303C52.3906 50.6333 51.651 50.9361 51.113 51.4743C50.5415 52.0126 50.2389 52.7527 50.2389 53.5264C50.2389 54.3001 50.5415 55.0402 51.0794 55.6121C51.7182 56.2513 52.5587 56.554 53.4665 56.4868C54.1389 56.4195 54.7441 56.1167 55.2148 55.6794C55.7864 55.1411 56.089 54.3674 56.089 53.5937C56.089 52.8199 55.7864 52.0798 55.2484 51.508C54.6769 50.9361 53.9372 50.6333 53.1639 50.6333Z" fill="#93C01F"/>
<path d="M44.9243 55.8807C44.1846 56.2508 43.6803 56.8563 43.4113 57.5964C43.176 58.3365 43.2096 59.1438 43.5794 59.8503C43.9156 60.5568 44.5208 61.095 45.2941 61.3305C45.6975 61.465 46.101 61.4987 46.5045 61.465C46.8743 61.4314 47.2105 61.3305 47.5131 61.1623C48.2191 60.8259 48.7571 60.1867 48.9924 59.4466C49.2278 58.7065 49.1605 57.8991 48.8243 57.2263C48.0846 55.7461 46.3363 55.1743 44.9243 55.8807Z" fill="#FFEC00"/>
<path d="M39.7784 58.7069C39.1396 58.2695 38.3999 58.0677 37.6266 58.1686C36.0128 58.4041 34.9369 59.9179 35.1723 61.499C35.4076 63.0465 36.8197 64.123 38.3663 63.9884C38.3999 63.9884 38.4671 63.9884 38.5008 63.9548C39.274 63.8539 39.9801 63.4165 40.4508 62.7774C40.9215 62.1382 41.0896 61.3645 40.9887 60.5907C40.8206 59.8506 40.4172 59.1442 39.7784 58.7069Z" fill="#FFEC00"/>
<path d="M30.166 58.1352C29.3927 58.0006 28.6194 58.2025 27.9806 58.6398C27.3418 59.1108 26.9384 59.7836 26.8039 60.5573C26.6694 61.3311 26.8711 62.1048 27.3082 62.744C27.7789 63.3831 28.4513 63.7868 29.2246 63.9214C29.4936 63.955 29.7289 63.955 29.9979 63.955C30.5358 63.8877 31.0065 63.7195 31.4436 63.4168C32.0824 62.9458 32.4858 62.273 32.6203 61.4993C32.8221 59.9182 31.7462 58.4043 30.166 58.1352Z" fill="#FFEC00"/>
<path d="M24.1812 57.3948C23.9459 56.6547 23.4415 56.0491 22.7355 55.7127C22.0295 55.3427 21.2562 55.2754 20.4829 55.5109C19.7432 55.7464 19.138 56.251 18.7682 56.9574C18.3984 57.6639 18.3311 58.4376 18.5665 59.2114C18.8018 59.9515 19.3061 60.557 20.0122 60.927C20.5165 61.1961 21.0881 61.2971 21.6596 61.2298C21.8614 61.1962 22.0631 61.1625 22.2648 61.0952C23.0045 60.8597 23.6096 60.3215 23.9459 59.6487C24.3829 58.9422 24.4502 58.1685 24.1812 57.3948Z" fill="#FFEC00"/>
<path d="M14.5307 50.3303C13.7575 50.3303 13.0178 50.6331 12.4799 51.1713C11.9083 51.7432 11.6057 52.4833 11.6057 53.257C11.6057 54.0308 11.9083 54.7709 12.4462 55.3091C12.9842 55.881 13.7575 56.1838 14.5644 56.1838C14.6652 56.1838 14.7325 56.1838 14.8333 56.1838C15.5058 56.1165 16.1446 55.8137 16.6153 55.3428C17.7584 54.199 17.7584 52.3488 16.6153 51.205C16.0773 50.6331 15.3377 50.3303 14.5307 50.3303Z" fill="#F29100"/>
<path d="M12.1797 45.0151C11.8099 44.3087 11.2047 43.804 10.465 43.5349C9.72537 43.2994 8.91847 43.3667 8.21242 43.7031C7.50638 44.0395 7.00206 44.6451 6.7331 45.4188C6.49775 46.1589 6.53137 46.9663 6.9012 47.6391C7.23741 48.3455 7.87621 48.8838 8.61588 49.1193C8.98571 49.2538 9.38916 49.2875 9.79261 49.2538C10.1624 49.2202 10.5323 49.1193 10.8349 48.9511C12.3142 48.211 12.8858 46.4617 12.1797 45.0151Z" fill="#F29100"/>
<path d="M7.40359 41.1126C8.98378 40.8435 10.0933 39.3633 9.82431 37.7822C9.72344 36.9748 9.31999 36.302 8.68119 35.8311C8.04239 35.3601 7.26911 35.1919 6.49582 35.2928C5.72254 35.4274 5.01649 35.8311 4.57942 36.4702C4.10872 37.1094 3.94062 37.8831 4.0751 38.6232C4.20959 39.397 4.61304 40.1034 5.25184 40.5744C5.8234 40.9781 6.52944 41.1799 7.23548 41.1126C7.30273 41.1126 7.36997 41.1126 7.40359 41.1126Z" fill="#F29100"/>
<path d="M6.49524 32.5686C6.76421 32.6022 6.99956 32.6359 7.2349 32.6022C7.77284 32.5349 8.24354 32.3667 8.68061 32.0303C9.28579 31.5594 9.72286 30.8866 9.82373 30.1128C10.0927 28.5317 8.9832 27.0179 7.40301 26.7488C5.82282 26.4796 4.30987 27.5898 4.0409 29.1709C3.90642 29.9446 4.10814 30.752 4.57884 31.3912C5.04953 32.064 5.75558 32.4677 6.49524 32.5686Z" fill="#F29100"/>
<path d="M8.27829 24.1583C8.78261 24.3938 9.32054 24.5284 9.8921 24.4611C10.9007 24.3602 11.7749 23.7547 12.212 22.88L12.2456 22.8464C12.9516 21.3998 12.3801 19.6841 10.9344 18.9441C9.48865 18.204 7.74035 18.7759 7.00069 20.2224C6.63086 20.9288 6.59723 21.7362 6.83258 22.4763C7.06793 23.2164 7.60587 23.8219 8.27829 24.1583Z" fill="#E5332A"/>
<path d="M14.9018 17.5639C15.5742 17.4966 16.213 17.1939 16.6837 16.7229C17.2553 16.151 17.5579 15.4446 17.5579 14.6372C17.5579 13.8634 17.2553 13.1234 16.6837 12.5515C16.1458 12.0132 15.4061 11.7104 14.6328 11.7104C13.8596 11.7104 13.1199 12.0132 12.5483 12.5851C12.0104 13.1234 11.6742 13.8971 11.6742 14.7045C11.6742 15.4782 11.9768 16.2183 12.5483 16.7565C13.1871 17.3284 14.0277 17.6312 14.9018 17.5639Z" fill="#E5332A"/>
<path d="M22.8668 12.2157C23.5729 11.8457 24.0772 11.2401 24.3126 10.5C24.5479 9.75994 24.4807 8.95256 24.1445 8.24611C23.7746 7.5733 23.1694 7.03505 22.4298 6.79957C21.6901 6.56408 20.8832 6.63136 20.1772 6.96777C19.4711 7.33782 18.9332 7.94335 18.6978 8.71708C18.4625 9.45717 18.5297 10.2645 18.8996 10.9374C19.2694 11.6438 19.8746 12.1484 20.6142 12.3839C20.9841 12.5185 21.3875 12.5521 21.791 12.5185C22.1944 12.4848 22.5306 12.3839 22.8668 12.2157Z" fill="#E5332A"/>
<path d="M32.5181 6.49627C32.3836 5.72254 31.9801 5.04973 31.3413 4.57876C30.7025 4.10779 29.9293 3.93959 29.156 4.07415C28.3827 4.20871 27.6766 4.64604 27.2396 5.28521C26.7689 5.92438 26.6008 6.69811 26.7353 7.47185C26.9706 8.98567 28.3827 10.0622 29.9293 9.92761C29.9965 9.92761 30.0637 9.92761 30.0974 9.89397C31.7112 9.5912 32.7871 8.07738 32.5181 6.49627Z" fill="#E5332A"/>
<path d="M41.1919 7.37134C41.4272 5.79023 40.3514 4.27641 38.7376 4.04092C37.9643 3.90636 37.1574 4.1082 36.5522 4.57917C35.9134 5.05014 35.5099 5.72295 35.4091 6.49668C35.1737 8.07779 36.2832 9.59162 37.8634 9.8271C38.0988 9.86074 38.3677 9.86074 38.6031 9.86074C39.9143 9.72618 40.9902 8.71696 41.1919 7.37134Z" fill="#D9D9D9"/>
<path d="M48.9285 10.8363C49.6682 9.38975 49.063 7.64045 47.6173 6.90035L47.5837 6.86671C46.8776 6.53031 46.0707 6.49667 45.3647 6.73215C44.625 6.96764 44.0198 7.50588 43.6836 8.21234C42.9776 9.65888 43.5491 11.4082 44.9948 12.1483C45.4991 12.3838 46.0371 12.5183 46.6086 12.451C47.5836 12.3501 48.4578 11.7446 48.9285 10.8363Z" fill="#D9D9D9"/>
<path d="M53.5321 17.4298C54.2045 17.3625 54.8433 17.0597 55.314 16.5888C56.4572 15.445 56.4235 13.5948 55.2804 12.451C54.7089 11.9127 53.9692 11.5763 53.1623 11.61C52.389 11.61 51.6494 11.9464 51.1114 12.4846C50.0019 13.6284 50.0019 15.4786 51.145 16.6224C51.8175 17.2279 52.658 17.5307 53.5321 17.4298Z" fill="#D9D9D9"/>
<path d="M55.717 22.7451C56.2885 23.8216 57.398 24.4272 58.6084 24.3262C58.9782 24.2926 59.3481 24.1917 59.6843 24.0235C61.13 23.2834 61.6679 21.5004 60.9282 20.0539C60.5584 19.3474 59.9196 18.8428 59.18 18.6073C58.4403 18.3719 57.6334 18.4391 56.961 18.8092C55.5153 19.5493 54.9773 21.2986 55.717 22.7451Z" fill="#D9D9D9"/>
<path d="M63.8861 29.0027C63.7516 28.229 63.3145 27.5225 62.6757 27.0852C62.0369 26.6478 61.2636 26.446 60.4903 26.6142C59.7171 26.7488 59.0446 27.1861 58.5739 27.8253C58.1369 28.4644 57.9688 29.2382 58.0696 29.9783C58.2041 30.752 58.6076 31.4248 59.2464 31.8958C59.8179 32.2995 60.524 32.5013 61.23 32.434C61.2973 32.434 61.3645 32.434 61.4317 32.4004C62.205 32.2658 62.8774 31.8285 63.3481 31.1893C63.8525 30.5501 64.0206 29.7764 63.8861 29.0027Z" fill="#93C01F"/>
<path d="M63.3822 36.5378C62.9115 35.8986 62.2391 35.495 61.4658 35.394C59.8856 35.1586 58.4063 36.2687 58.171 37.8834C58.0701 38.6572 58.2382 39.4309 58.7089 40.0701C59.1796 40.7092 59.852 41.1129 60.6589 41.2139C60.8943 41.2475 61.1296 41.2475 61.365 41.2139C62.7098 41.0793 63.7857 40.0701 63.9874 38.7245C64.0547 37.9844 63.8529 37.177 63.3822 36.5378Z" fill="#93C01F"/>
<path d="M27.8283 46.6641C29.4693 47.939 31.4219 48.3052 33.4769 47.7399C33.617 47.704 33.7607 47.6831 33.9051 47.6776H34.0952C34.2398 47.6831 34.3832 47.704 34.5234 47.7399C35.12 47.9085 35.7359 47.996 36.3551 48C37.7318 48 39.0279 47.5509 40.1719 46.662C41.3491 45.7479 42.3327 44.3923 43.0167 42.7402C43.6615 41.1786 43.9958 39.5026 44 37.8088C44 34.6015 42.9905 32.0217 41.1576 30.5432C39.5155 29.2188 37.2598 28.8492 34.6341 29.4737C34.6246 29.4761 34.6152 29.4785 34.6058 29.4813C34.4091 29.5379 34.2056 29.5659 34.0012 29.5647C33.7944 29.5642 33.5885 29.5357 33.389 29.4799C33.3815 29.4777 33.3737 29.4756 33.3662 29.4737C30.7405 28.8492 28.4848 29.219 26.8426 30.5435C25.0097 32.0219 24 34.6023 24 37.8092C24.0042 39.503 24.3387 41.1793 24.9836 42.7412C25.6676 44.3933 26.6512 45.7498 27.8283 46.6641ZM27.5919 31.5045C28.9523 30.4072 30.7989 30.1247 33.0805 30.6656C33.3787 30.748 33.6863 30.7902 33.9953 30.7912C34.3085 30.7935 34.6204 30.7509 34.9221 30.6649C37.2023 30.1252 39.0482 30.4074 40.4081 31.5045C41.9466 32.7456 42.7938 34.9846 42.7938 37.8092C42.7938 40.9642 41.4459 44.131 39.4399 45.6894C38.0855 46.7413 36.5329 47.0345 34.8246 46.5606C34.8149 46.558 34.8053 46.5556 34.7954 46.5535C34.5752 46.5015 34.3507 46.4701 34.1246 46.4598C34.1182 46.4598 34.1116 46.4512 34.1053 46.4512H33.8947C33.8881 46.4512 33.8815 46.4596 33.8752 46.4598C33.6493 46.4687 33.4248 46.4986 33.2044 46.5491C33.1947 46.5513 33.1848 46.5559 33.1752 46.5587C31.4671 47.0323 29.9142 46.7403 28.5601 45.6885C26.5539 44.13 25.2059 40.9635 25.2059 37.8085C25.2059 34.9838 26.0534 32.7456 27.5919 31.5045Z" fill="#233670"/>
<path d="M32.7486 25.8209L33.3257 28.526C33.3959 28.8566 33.716 29.0669 34.041 28.9958L36.7237 28.4122C37.8451 28.1634 38.8249 27.4752 39.4507 26.4966C40.0794 25.5231 40.3017 24.3355 40.0685 23.195C40.0683 23.1929 40.0678 23.1907 40.0673 23.1886L39.4903 20.4834C39.4199 20.1531 39.1 19.943 38.775 20.0137L36.0923 20.5974C34.9709 20.8463 33.9913 21.5345 33.3653 22.5128C32.7366 23.4863 32.5143 24.6742 32.7475 25.8144C32.7477 25.8166 32.7482 25.8187 32.7486 25.8209ZM34.3752 23.1828C34.8282 22.4747 35.5371 21.9762 36.3485 21.7956L38.4393 21.3407L38.888 23.4451C39.0553 24.2679 38.8942 25.1243 38.4408 25.8266C37.9878 26.5347 37.2789 27.0332 36.4672 27.2138L34.3766 27.6685L33.928 25.5643C33.7607 24.7415 33.9216 23.8851 34.3752 23.1828Z" fill="#233670"/>
</svg>
