<svg width="68" height="68" viewBox="0 0 68 68" fill="none" xmlns="http://www.w3.org/2000/svg">
<rect width="68" height="68" rx="34" fill="white"/>
<path d="M61.0293 45.8227C60.794 45.0826 60.2896 44.4771 59.5836 44.107C58.1715 43.367 56.3896 43.9388 55.6499 45.3518C55.2801 46.0582 55.2129 46.8319 55.4482 47.6057C55.6835 48.3458 56.1879 48.9513 56.8939 49.3213C57.3982 49.5905 57.9698 49.6914 58.5413 49.6577C59.5164 49.5568 60.3905 48.9849 60.8612 48.1103C61.1974 47.3702 61.2647 46.5628 61.0293 45.8227Z" fill="#93C01F"/>
<path d="M53.1639 50.6333H53.1303C52.3906 50.6333 51.651 50.9361 51.113 51.4743C50.5415 52.0126 50.2389 52.7527 50.2389 53.5264C50.2389 54.3001 50.5415 55.0402 51.0794 55.6121C51.7182 56.2513 52.5587 56.554 53.4665 56.4868C54.1389 56.4195 54.7441 56.1167 55.2148 55.6794C55.7864 55.1411 56.089 54.3674 56.089 53.5937C56.089 52.8199 55.7864 52.0798 55.2484 51.508C54.6769 50.9361 53.9372 50.6333 53.1639 50.6333Z" fill="#93C01F"/>
<path d="M44.9243 55.8807C44.1846 56.2508 43.6803 56.8563 43.4113 57.5964C43.176 58.3365 43.2096 59.1438 43.5794 59.8503C43.9156 60.5568 44.5208 61.095 45.2941 61.3305C45.6975 61.465 46.101 61.4987 46.5045 61.465C46.8743 61.4314 47.2105 61.3305 47.5131 61.1623C48.2191 60.8259 48.7571 60.1867 48.9924 59.4466C49.2278 58.7065 49.1605 57.8991 48.8243 57.2263C48.0846 55.7461 46.3363 55.1743 44.9243 55.8807Z" fill="#FFEC00"/>
<path d="M39.7784 58.7069C39.1396 58.2695 38.3999 58.0677 37.6266 58.1686C36.0128 58.4041 34.9369 59.9179 35.1723 61.499C35.4076 63.0465 36.8197 64.123 38.3663 63.9884C38.3999 63.9884 38.4671 63.9884 38.5008 63.9548C39.274 63.8539 39.9801 63.4165 40.4508 62.7774C40.9215 62.1382 41.0896 61.3645 40.9887 60.5907C40.8206 59.8506 40.4172 59.1442 39.7784 58.7069Z" fill="#FFEC00"/>
<path d="M30.166 58.1352C29.3927 58.0006 28.6194 58.2025 27.9806 58.6398C27.3418 59.1108 26.9384 59.7836 26.8039 60.5573C26.6694 61.3311 26.8711 62.1048 27.3082 62.744C27.7789 63.3831 28.4513 63.7868 29.2246 63.9214C29.4936 63.955 29.7289 63.955 29.9979 63.955C30.5358 63.8877 31.0065 63.7195 31.4436 63.4168C32.0824 62.9458 32.4858 62.273 32.6203 61.4993C32.8221 59.9182 31.7462 58.4043 30.166 58.1352Z" fill="#FFEC00"/>
<path d="M24.1812 57.3948C23.9459 56.6547 23.4415 56.0491 22.7355 55.7127C22.0295 55.3427 21.2562 55.2754 20.4829 55.5109C19.7432 55.7464 19.138 56.251 18.7682 56.9574C18.3984 57.6639 18.3311 58.4376 18.5665 59.2114C18.8018 59.9515 19.3061 60.557 20.0122 60.927C20.5165 61.1961 21.0881 61.2971 21.6596 61.2298C21.8614 61.1962 22.0631 61.1625 22.2648 61.0952C23.0045 60.8597 23.6096 60.3215 23.9459 59.6487C24.3829 58.9422 24.4502 58.1685 24.1812 57.3948Z" fill="#FFEC00"/>
<path d="M14.5307 50.3303C13.7575 50.3303 13.0178 50.6331 12.4799 51.1713C11.9083 51.7432 11.6057 52.4833 11.6057 53.257C11.6057 54.0308 11.9083 54.7709 12.4462 55.3091C12.9842 55.881 13.7575 56.1838 14.5644 56.1838C14.6652 56.1838 14.7325 56.1838 14.8333 56.1838C15.5058 56.1165 16.1446 55.8137 16.6153 55.3428C17.7584 54.199 17.7584 52.3488 16.6153 51.205C16.0773 50.6331 15.3377 50.3303 14.5307 50.3303Z" fill="#F29100"/>
<path d="M12.1797 45.0151C11.8099 44.3087 11.2047 43.804 10.465 43.5349C9.72537 43.2994 8.91847 43.3667 8.21242 43.7031C7.50638 44.0395 7.00206 44.6451 6.7331 45.4188C6.49775 46.1589 6.53137 46.9663 6.9012 47.6391C7.23741 48.3455 7.87621 48.8838 8.61588 49.1193C8.98571 49.2538 9.38916 49.2875 9.79261 49.2538C10.1624 49.2202 10.5323 49.1193 10.8349 48.9511C12.3142 48.211 12.8858 46.4617 12.1797 45.0151Z" fill="#F29100"/>
<path d="M7.40359 41.1126C8.98378 40.8435 10.0933 39.3633 9.82431 37.7822C9.72344 36.9748 9.31999 36.302 8.68119 35.8311C8.04239 35.3601 7.26911 35.1919 6.49582 35.2928C5.72254 35.4274 5.01649 35.8311 4.57942 36.4702C4.10872 37.1094 3.94062 37.8831 4.0751 38.6232C4.20959 39.397 4.61304 40.1034 5.25184 40.5744C5.8234 40.9781 6.52944 41.1799 7.23548 41.1126C7.30273 41.1126 7.36997 41.1126 7.40359 41.1126Z" fill="#F29100"/>
<path d="M6.49524 32.5686C6.76421 32.6022 6.99956 32.6359 7.2349 32.6022C7.77284 32.5349 8.24354 32.3667 8.68061 32.0303C9.28579 31.5594 9.72286 30.8866 9.82373 30.1128C10.0927 28.5317 8.9832 27.0179 7.40301 26.7488C5.82282 26.4796 4.30987 27.5898 4.0409 29.1709C3.90642 29.9446 4.10814 30.752 4.57884 31.3912C5.04953 32.064 5.75558 32.4677 6.49524 32.5686Z" fill="#F29100"/>
<path d="M8.27829 24.1583C8.78261 24.3938 9.32054 24.5284 9.8921 24.4611C10.9007 24.3602 11.7749 23.7547 12.212 22.88L12.2456 22.8464C12.9516 21.3998 12.3801 19.6841 10.9344 18.9441C9.48865 18.204 7.74035 18.7759 7.00069 20.2224C6.63086 20.9288 6.59723 21.7362 6.83258 22.4763C7.06793 23.2164 7.60587 23.8219 8.27829 24.1583Z" fill="#E5332A"/>
<path d="M14.9018 17.5639C15.5742 17.4966 16.213 17.1939 16.6837 16.7229C17.2553 16.151 17.5579 15.4446 17.5579 14.6372C17.5579 13.8634 17.2553 13.1234 16.6837 12.5515C16.1458 12.0132 15.4061 11.7104 14.6328 11.7104C13.8596 11.7104 13.1199 12.0132 12.5483 12.5851C12.0104 13.1234 11.6742 13.8971 11.6742 14.7045C11.6742 15.4782 11.9768 16.2183 12.5483 16.7565C13.1871 17.3284 14.0277 17.6312 14.9018 17.5639Z" fill="#E5332A"/>
<path d="M22.8668 12.2157C23.5729 11.8457 24.0772 11.2401 24.3126 10.5C24.5479 9.75994 24.4807 8.95256 24.1445 8.24611C23.7746 7.5733 23.1694 7.03505 22.4298 6.79957C21.6901 6.56408 20.8832 6.63136 20.1772 6.96777C19.4711 7.33782 18.9332 7.94335 18.6978 8.71708C18.4625 9.45717 18.5297 10.2645 18.8996 10.9374C19.2694 11.6438 19.8746 12.1484 20.6142 12.3839C20.9841 12.5185 21.3875 12.5521 21.791 12.5185C22.1944 12.4848 22.5306 12.3839 22.8668 12.2157Z" fill="#E5332A"/>
<path d="M32.5181 6.49627C32.3836 5.72254 31.9801 5.04973 31.3413 4.57876C30.7025 4.10779 29.9293 3.93959 29.156 4.07415C28.3827 4.20871 27.6766 4.64604 27.2396 5.28521C26.7689 5.92438 26.6008 6.69811 26.7353 7.47185C26.9706 8.98567 28.3827 10.0622 29.9293 9.92761C29.9965 9.92761 30.0637 9.92761 30.0974 9.89397C31.7112 9.5912 32.7871 8.07738 32.5181 6.49627Z" fill="#E5332A"/>
<path d="M41.1919 7.37134C41.4272 5.79023 40.3514 4.27641 38.7376 4.04092C37.9643 3.90636 37.1574 4.1082 36.5522 4.57917C35.9134 5.05014 35.5099 5.72295 35.4091 6.49668C35.1737 8.07779 36.2832 9.59162 37.8634 9.8271C38.0988 9.86074 38.3677 9.86074 38.6031 9.86074C39.9143 9.72618 40.9902 8.71696 41.1919 7.37134Z" fill="#D9D9D9"/>
<path d="M48.9285 10.8363C49.6682 9.38975 49.063 7.64045 47.6173 6.90035L47.5837 6.86671C46.8776 6.53031 46.0707 6.49667 45.3647 6.73215C44.625 6.96764 44.0198 7.50588 43.6836 8.21234C42.9776 9.65888 43.5491 11.4082 44.9948 12.1483C45.4991 12.3838 46.0371 12.5183 46.6086 12.451C47.5836 12.3501 48.4578 11.7446 48.9285 10.8363Z" fill="#D9D9D9"/>
<path d="M53.5321 17.4298C54.2045 17.3625 54.8433 17.0597 55.314 16.5888C56.4572 15.445 56.4235 13.5948 55.2804 12.451C54.7089 11.9127 53.9692 11.5763 53.1623 11.61C52.389 11.61 51.6494 11.9464 51.1114 12.4846C50.0019 13.6284 50.0019 15.4786 51.145 16.6224C51.8175 17.2279 52.658 17.5307 53.5321 17.4298Z" fill="#D9D9D9"/>
<path d="M55.717 22.7451C56.2885 23.8216 57.398 24.4272 58.6084 24.3262C58.9782 24.2926 59.3481 24.1917 59.6843 24.0235C61.13 23.2834 61.6679 21.5004 60.9282 20.0539C60.5584 19.3474 59.9196 18.8428 59.18 18.6073C58.4403 18.3719 57.6334 18.4391 56.961 18.8092C55.5153 19.5493 54.9773 21.2986 55.717 22.7451Z" fill="#D9D9D9"/>
<path d="M63.8861 29.0027C63.7516 28.229 63.3145 27.5225 62.6757 27.0852C62.0369 26.6478 61.2636 26.446 60.4903 26.6142C59.7171 26.7488 59.0446 27.1861 58.5739 27.8253C58.1369 28.4644 57.9688 29.2382 58.0696 29.9783C58.2041 30.752 58.6076 31.4248 59.2464 31.8958C59.8179 32.2995 60.524 32.5013 61.23 32.434C61.2973 32.434 61.3645 32.434 61.4317 32.4004C62.205 32.2658 62.8774 31.8285 63.3481 31.1893C63.8525 30.5501 64.0206 29.7764 63.8861 29.0027Z" fill="#93C01F"/>
<path d="M63.3822 36.5378C62.9115 35.8986 62.2391 35.495 61.4658 35.394C59.8856 35.1586 58.4063 36.2687 58.171 37.8834C58.0701 38.6572 58.2382 39.4309 58.7089 40.0701C59.1796 40.7092 59.852 41.1129 60.6589 41.2139C60.8943 41.2475 61.1296 41.2475 61.365 41.2139C62.7098 41.0793 63.7857 40.0701 63.9874 38.7245C64.0547 37.9844 63.8529 37.177 63.3822 36.5378Z" fill="#93C01F"/>
<path d="M43.4041 30.4472C44.284 30.4472 44.9999 29.7286 44.9999 28.8451C44.9999 27.9615 44.284 27.2427 43.4041 27.2427H41.059C41.0965 26.4649 40.8267 25.7185 40.3402 25.1487C40.4119 25.1156 40.4829 25.0804 40.5521 25.0402C41.1316 24.7042 41.5462 24.1618 41.7194 23.5128L41.8117 23.167C41.9849 22.518 41.896 21.8399 41.5613 21.258C41.2267 20.6761 40.6865 20.2598 40.0402 20.0859H40.04C38.7061 19.7272 37.3294 20.5249 36.9718 21.8649L36.8795 22.2106C36.7063 22.8596 36.7952 23.5376 37.1299 24.1195C37.1537 24.161 37.1788 24.2013 37.2048 24.2411C36.9803 24.3113 36.762 24.4085 36.5546 24.5335C36.2783 24.6997 36.0357 24.9059 35.8313 25.1428L33.9772 26.3621C33.4341 26.7193 33.2343 27.4095 33.5024 28.0032L34.3708 29.9279L33.8945 31.9796C33.8943 31.9804 33.8945 31.9808 33.8943 31.9817C33.8853 32.021 33.8802 32.0618 33.8802 32.1039V36.9164C33.8802 37.0446 33.9245 37.1623 33.9979 37.2554V39.3536H30.7014C30.6091 39.2814 30.4931 39.238 30.367 39.238H28.9635C28.0057 39.238 27.2264 40.0205 27.2264 40.9823V44.3821C27.2264 44.6839 27.4702 44.929 27.7711 44.929H28.2359C29.5211 44.929 30.5974 44.014 30.8535 42.7989H35.8223C36.9693 42.7989 37.9434 42.0457 38.2817 41.006L38.4004 41.1741V44.4673C38.3059 44.5656 38.2476 44.6991 38.2476 44.8465V46.2558C38.2476 47.2175 39.0269 48 39.9847 48H43.3705C43.6711 48 43.9151 47.7552 43.9151 47.4531V46.9864C43.9151 45.7849 43.1256 44.7653 42.0402 44.4227V39.9861C42.0402 39.4277 41.9528 38.8755 41.78 38.3449L41.1071 36.2781L40.1293 32.0945L40.4563 30.4472H43.4041ZM37.9317 22.4936L38.0238 22.148C38.1932 21.5133 38.7669 21.094 39.392 21.094C39.513 21.094 39.636 21.1096 39.7581 21.1425C40.1236 21.2409 40.4289 21.4761 40.618 21.8051C40.8071 22.1339 40.8574 22.5171 40.7595 22.8839L40.6672 23.2298C40.5693 23.5966 40.3351 23.9033 40.0074 24.093C39.6949 24.2744 39.3335 24.3282 38.9837 24.2475C38.9416 24.234 38.899 24.2216 38.8559 24.2101C38.8501 24.2084 38.8442 24.2073 38.8384 24.2058C38.515 24.0945 38.2457 23.8728 38.0732 23.5726C37.884 23.2439 37.8338 22.8606 37.9317 22.4936ZM38.5297 25.2558C38.5697 25.2686 38.6101 25.2806 38.651 25.2917C38.6597 25.294 38.6686 25.2955 38.6774 25.2979C39.5745 25.5952 40.1236 26.527 39.9366 27.4698L39.8947 27.6842C39.8632 27.8447 39.9049 28.0109 40.0085 28.1371C40.1119 28.2634 40.2661 28.3364 40.4291 28.3364H43.4043C43.6834 28.3364 43.9107 28.5646 43.9107 28.8451C43.9107 29.1253 43.6834 29.3535 43.4043 29.3535H40.0196C40.0125 29.3535 40.0053 29.3535 39.9983 29.3535H39.3654C38.6765 29.3535 38.0608 28.8899 37.8681 28.226C37.7838 27.9361 37.4813 27.769 37.1928 27.8541C36.9039 27.9387 36.7382 28.2422 36.8225 28.5321C37.148 29.6534 38.1838 30.4385 39.3456 30.4472L39.1254 31.557H35.1109L36.2466 26.6672C36.3119 26.3858 36.4368 26.1297 36.611 25.9116C36.6161 25.9056 36.6212 25.8994 36.6261 25.8932C36.7616 25.7279 36.9259 25.5852 37.1146 25.4715C37.5441 25.213 38.0449 25.1374 38.5297 25.2558ZM40.7446 38.6848C40.8816 39.1054 40.951 39.5433 40.951 39.9859V44.2994H39.4896V41C39.4896 40.8868 39.4545 40.7763 39.3894 40.6838L38.4093 39.2947V37.3738L40.2119 37.0482L40.7446 38.6848ZM34.9692 36.3695V32.6508H38.0049L37.4015 36.3695H34.9692ZM39.1405 32.6508L39.9209 35.9895L38.5261 36.2413L39.1084 32.6508H39.1405ZM34.4944 27.5518C34.4495 27.4525 34.4829 27.3369 34.5738 27.2771L35.0607 26.9569L34.7771 28.1784L34.4944 27.5518ZM28.3157 43.8331V40.9823C28.3157 40.6234 28.6063 40.3316 28.9635 40.3316H29.8223V42.242C29.8223 43.0935 29.1535 43.7912 28.3157 43.8331ZM35.8223 41.7052H30.9116V40.4474H34.5425C34.8433 40.4474 35.0871 40.2025 35.0871 39.9005V37.4633H37.3201V40.2013C37.3201 41.0306 36.6482 41.7052 35.8223 41.7052ZM42.824 46.9063H39.9847C39.6275 46.9063 39.3369 46.6144 39.3369 46.2558V45.3932H41.2392C42.0872 45.3932 42.782 46.065 42.824 46.9063Z" fill="#233670"/>
<path d="M36.2345 46.9062H29.5705C29.2699 46.9062 29.0259 47.1513 29.0259 47.4531C29.0259 47.7552 29.2699 48 29.5705 48H36.2345C36.5351 48 36.7791 47.7552 36.7791 47.4531C36.7791 47.1513 36.5353 46.9062 36.2345 46.9062Z" fill="#233670"/>
<path d="M27.6872 46.9062C27.544 46.9062 27.4034 46.9648 27.3021 47.0665C27.2009 47.1682 27.1426 47.3094 27.1426 47.4531C27.1426 47.5969 27.2009 47.7381 27.3021 47.8398C27.4034 47.9415 27.544 48 27.6872 48C27.8304 48 27.971 47.9415 28.0723 47.8398C28.1735 47.7381 28.2318 47.5969 28.2318 47.4531C28.2318 47.3094 28.1735 47.1682 28.0723 47.0665C27.9708 46.9648 27.8304 46.9062 27.6872 46.9062Z" fill="#233670"/>
<path d="M25.5419 32.6506C25.6851 32.6506 25.8251 32.5921 25.927 32.4904C26.0283 32.3887 26.0866 32.2475 26.0866 32.1038C26.0866 31.96 26.0283 31.8188 25.927 31.7171C25.8257 31.6154 25.6851 31.5569 25.5419 31.5569C25.3988 31.5569 25.2581 31.6154 25.1569 31.7171C25.055 31.8188 24.9973 31.96 24.9973 32.1038C24.9973 32.2475 25.055 32.3887 25.1569 32.4904C25.2581 32.5921 25.3988 32.6506 25.5419 32.6506Z" fill="#233670"/>
<path d="M30.9118 35.1663C30.9118 34.8642 30.6679 34.6194 30.3671 34.6194H23.5446C23.244 34.6194 23 34.8642 23 35.1663C23 35.4683 23.244 35.7131 23.5446 35.7131H30.3671C30.6679 35.7131 30.9118 35.4683 30.9118 35.1663Z" fill="#233670"/>
<path d="M27.72 32.6506H31.3873C31.6879 32.6506 31.932 32.4056 31.932 32.1038C31.932 31.8017 31.6879 31.5569 31.3873 31.5569H27.72C27.4194 31.5569 27.1754 31.8017 27.1754 32.1038C27.1754 32.4056 27.4194 32.6506 27.72 32.6506Z" fill="#233670"/>
</svg>
