<svg width="68" height="68" viewBox="0 0 68 68" fill="none" xmlns="http://www.w3.org/2000/svg">
<rect width="68" height="68" rx="34" fill="white"/>
<path d="M61.0293 45.8227C60.794 45.0826 60.2896 44.4771 59.5836 44.107C58.1715 43.367 56.3896 43.9388 55.6499 45.3518C55.2801 46.0582 55.2129 46.8319 55.4482 47.6057C55.6835 48.3458 56.1879 48.9513 56.8939 49.3213C57.3982 49.5905 57.9698 49.6914 58.5413 49.6577C59.5164 49.5568 60.3905 48.9849 60.8612 48.1103C61.1974 47.3702 61.2647 46.5628 61.0293 45.8227Z" fill="#93C01F"/>
<path d="M53.1639 50.6333H53.1303C52.3906 50.6333 51.651 50.9361 51.113 51.4743C50.5415 52.0126 50.2389 52.7527 50.2389 53.5264C50.2389 54.3001 50.5415 55.0402 51.0794 55.6121C51.7182 56.2513 52.5587 56.554 53.4665 56.4868C54.1389 56.4195 54.7441 56.1167 55.2148 55.6794C55.7864 55.1411 56.089 54.3674 56.089 53.5937C56.089 52.8199 55.7864 52.0798 55.2484 51.508C54.6769 50.9361 53.9372 50.6333 53.1639 50.6333Z" fill="#93C01F"/>
<path d="M44.9243 55.8807C44.1846 56.2508 43.6803 56.8563 43.4113 57.5964C43.176 58.3365 43.2096 59.1438 43.5794 59.8503C43.9156 60.5568 44.5208 61.095 45.2941 61.3305C45.6975 61.465 46.101 61.4987 46.5045 61.465C46.8743 61.4314 47.2105 61.3305 47.5131 61.1623C48.2191 60.8259 48.7571 60.1867 48.9924 59.4466C49.2278 58.7065 49.1605 57.8991 48.8243 57.2263C48.0846 55.7461 46.3363 55.1743 44.9243 55.8807Z" fill="#FFEC00"/>
<path d="M39.7784 58.7069C39.1396 58.2695 38.3999 58.0677 37.6266 58.1686C36.0128 58.4041 34.9369 59.9179 35.1723 61.499C35.4076 63.0465 36.8197 64.123 38.3663 63.9884C38.3999 63.9884 38.4671 63.9884 38.5008 63.9548C39.274 63.8539 39.9801 63.4165 40.4508 62.7774C40.9215 62.1382 41.0896 61.3645 40.9887 60.5907C40.8206 59.8506 40.4172 59.1442 39.7784 58.7069Z" fill="#FFEC00"/>
<path d="M30.166 58.1352C29.3927 58.0006 28.6194 58.2025 27.9806 58.6398C27.3418 59.1108 26.9384 59.7836 26.8039 60.5573C26.6694 61.3311 26.8711 62.1048 27.3082 62.744C27.7789 63.3831 28.4513 63.7868 29.2246 63.9214C29.4936 63.955 29.7289 63.955 29.9979 63.955C30.5358 63.8877 31.0065 63.7195 31.4436 63.4168C32.0824 62.9458 32.4858 62.273 32.6203 61.4993C32.8221 59.9182 31.7462 58.4043 30.166 58.1352Z" fill="#FFEC00"/>
<path d="M24.1812 57.3948C23.9459 56.6547 23.4415 56.0491 22.7355 55.7127C22.0295 55.3427 21.2562 55.2754 20.4829 55.5109C19.7432 55.7464 19.138 56.251 18.7682 56.9574C18.3984 57.6639 18.3311 58.4376 18.5665 59.2114C18.8018 59.9515 19.3061 60.557 20.0122 60.927C20.5165 61.1961 21.0881 61.2971 21.6596 61.2298C21.8614 61.1962 22.0631 61.1625 22.2648 61.0952C23.0045 60.8597 23.6096 60.3215 23.9459 59.6487C24.3829 58.9422 24.4502 58.1685 24.1812 57.3948Z" fill="#FFEC00"/>
<path d="M14.5307 50.3303C13.7575 50.3303 13.0178 50.6331 12.4799 51.1713C11.9083 51.7432 11.6057 52.4833 11.6057 53.257C11.6057 54.0308 11.9083 54.7709 12.4462 55.3091C12.9842 55.881 13.7575 56.1838 14.5644 56.1838C14.6652 56.1838 14.7325 56.1838 14.8333 56.1838C15.5058 56.1165 16.1446 55.8137 16.6153 55.3428C17.7584 54.199 17.7584 52.3488 16.6153 51.205C16.0773 50.6331 15.3377 50.3303 14.5307 50.3303Z" fill="#F29100"/>
<path d="M12.1797 45.0151C11.8099 44.3087 11.2047 43.804 10.465 43.5349C9.72537 43.2994 8.91847 43.3667 8.21242 43.7031C7.50638 44.0395 7.00206 44.6451 6.7331 45.4188C6.49775 46.1589 6.53137 46.9663 6.9012 47.6391C7.23741 48.3455 7.87621 48.8838 8.61588 49.1193C8.98571 49.2538 9.38916 49.2875 9.79261 49.2538C10.1624 49.2202 10.5323 49.1193 10.8349 48.9511C12.3142 48.211 12.8858 46.4617 12.1797 45.0151Z" fill="#F29100"/>
<path d="M7.40359 41.1126C8.98378 40.8435 10.0933 39.3633 9.82431 37.7822C9.72344 36.9748 9.31999 36.302 8.68119 35.8311C8.04239 35.3601 7.26911 35.1919 6.49582 35.2928C5.72254 35.4274 5.01649 35.8311 4.57942 36.4702C4.10872 37.1094 3.94062 37.8831 4.0751 38.6232C4.20959 39.397 4.61304 40.1034 5.25184 40.5744C5.8234 40.9781 6.52944 41.1799 7.23548 41.1126C7.30273 41.1126 7.36997 41.1126 7.40359 41.1126Z" fill="#F29100"/>
<path d="M6.49524 32.5686C6.76421 32.6022 6.99956 32.6359 7.2349 32.6022C7.77284 32.5349 8.24354 32.3667 8.68061 32.0303C9.28579 31.5594 9.72286 30.8866 9.82373 30.1128C10.0927 28.5317 8.9832 27.0179 7.40301 26.7488C5.82282 26.4796 4.30987 27.5898 4.0409 29.1709C3.90642 29.9446 4.10814 30.752 4.57884 31.3912C5.04953 32.064 5.75558 32.4677 6.49524 32.5686Z" fill="#F29100"/>
<path d="M8.27829 24.1583C8.78261 24.3938 9.32054 24.5284 9.8921 24.4611C10.9007 24.3602 11.7749 23.7547 12.212 22.88L12.2456 22.8464C12.9516 21.3998 12.3801 19.6841 10.9344 18.9441C9.48865 18.204 7.74035 18.7759 7.00069 20.2224C6.63086 20.9288 6.59723 21.7362 6.83258 22.4763C7.06793 23.2164 7.60587 23.8219 8.27829 24.1583Z" fill="#E5332A"/>
<path d="M14.9018 17.5639C15.5742 17.4966 16.213 17.1939 16.6837 16.7229C17.2553 16.151 17.5579 15.4446 17.5579 14.6372C17.5579 13.8634 17.2553 13.1234 16.6837 12.5515C16.1458 12.0132 15.4061 11.7104 14.6328 11.7104C13.8596 11.7104 13.1199 12.0132 12.5483 12.5851C12.0104 13.1234 11.6742 13.8971 11.6742 14.7045C11.6742 15.4782 11.9768 16.2183 12.5483 16.7565C13.1871 17.3284 14.0277 17.6312 14.9018 17.5639Z" fill="#E5332A"/>
<path d="M22.8668 12.2157C23.5729 11.8457 24.0772 11.2401 24.3126 10.5C24.5479 9.75994 24.4807 8.95256 24.1445 8.24611C23.7746 7.5733 23.1694 7.03505 22.4298 6.79957C21.6901 6.56408 20.8832 6.63136 20.1772 6.96777C19.4711 7.33782 18.9332 7.94335 18.6978 8.71708C18.4625 9.45717 18.5297 10.2645 18.8996 10.9374C19.2694 11.6438 19.8746 12.1484 20.6142 12.3839C20.9841 12.5185 21.3875 12.5521 21.791 12.5185C22.1944 12.4848 22.5306 12.3839 22.8668 12.2157Z" fill="#E5332A"/>
<path d="M32.5181 6.49627C32.3836 5.72254 31.9801 5.04973 31.3413 4.57876C30.7025 4.10779 29.9293 3.93959 29.156 4.07415C28.3827 4.20871 27.6766 4.64604 27.2396 5.28521C26.7689 5.92438 26.6008 6.69811 26.7353 7.47185C26.9706 8.98567 28.3827 10.0622 29.9293 9.92761C29.9965 9.92761 30.0637 9.92761 30.0974 9.89397C31.7112 9.5912 32.7871 8.07738 32.5181 6.49627Z" fill="#E5332A"/>
<path d="M41.1919 7.37134C41.4272 5.79023 40.3514 4.27641 38.7376 4.04092C37.9643 3.90636 37.1574 4.1082 36.5522 4.57917C35.9134 5.05014 35.5099 5.72295 35.4091 6.49668C35.1737 8.07779 36.2832 9.59162 37.8634 9.8271C38.0988 9.86074 38.3677 9.86074 38.6031 9.86074C39.9143 9.72618 40.9902 8.71696 41.1919 7.37134Z" fill="#D9D9D9"/>
<path d="M48.9285 10.8363C49.6682 9.38975 49.063 7.64045 47.6173 6.90035L47.5837 6.86671C46.8776 6.53031 46.0707 6.49667 45.3647 6.73215C44.625 6.96764 44.0198 7.50588 43.6836 8.21234C42.9776 9.65888 43.5491 11.4082 44.9948 12.1483C45.4991 12.3838 46.0371 12.5183 46.6086 12.451C47.5836 12.3501 48.4578 11.7446 48.9285 10.8363Z" fill="#D9D9D9"/>
<path d="M53.5321 17.4298C54.2045 17.3625 54.8433 17.0597 55.314 16.5888C56.4572 15.445 56.4235 13.5948 55.2804 12.451C54.7089 11.9127 53.9692 11.5763 53.1623 11.61C52.389 11.61 51.6494 11.9464 51.1114 12.4846C50.0019 13.6284 50.0019 15.4786 51.145 16.6224C51.8175 17.2279 52.658 17.5307 53.5321 17.4298Z" fill="#D9D9D9"/>
<path d="M55.717 22.7451C56.2885 23.8216 57.398 24.4272 58.6084 24.3262C58.9782 24.2926 59.3481 24.1917 59.6843 24.0235C61.13 23.2834 61.6679 21.5004 60.9282 20.0539C60.5584 19.3474 59.9196 18.8428 59.18 18.6073C58.4403 18.3719 57.6334 18.4391 56.961 18.8092C55.5153 19.5493 54.9773 21.2986 55.717 22.7451Z" fill="#D9D9D9"/>
<path d="M63.8861 29.0027C63.7516 28.229 63.3145 27.5225 62.6757 27.0852C62.0369 26.6478 61.2636 26.446 60.4903 26.6142C59.7171 26.7488 59.0446 27.1861 58.5739 27.8253C58.1369 28.4644 57.9688 29.2382 58.0696 29.9783C58.2041 30.752 58.6076 31.4248 59.2464 31.8958C59.8179 32.2995 60.524 32.5013 61.23 32.434C61.2973 32.434 61.3645 32.434 61.4317 32.4004C62.205 32.2658 62.8774 31.8285 63.3481 31.1893C63.8525 30.5501 64.0206 29.7764 63.8861 29.0027Z" fill="#93C01F"/>
<path d="M63.3822 36.5378C62.9115 35.8986 62.2391 35.495 61.4658 35.394C59.8856 35.1586 58.4063 36.2687 58.171 37.8834C58.0701 38.6572 58.2382 39.4309 58.7089 40.0701C59.1796 40.7092 59.852 41.1129 60.6589 41.2139C60.8943 41.2475 61.1296 41.2475 61.365 41.2139C62.7098 41.0793 63.7857 40.0701 63.9874 38.7245C64.0547 37.9844 63.8529 37.177 63.3822 36.5378Z" fill="#93C01F"/>
<path d="M23 31.818C23 35.0799 26.0044 37.7333 29.6979 37.7333C30.3443 37.7338 30.9877 37.6508 31.6116 37.4866V47.0667H25.6313C25.3671 47.0667 25.1529 47.2756 25.1529 47.5333C25.1529 47.791 25.3671 48 25.6313 48H39.0272C39.2914 48 39.5056 47.791 39.5056 47.5333C39.5056 47.2756 39.2914 47.0667 39.0272 47.0667H32.5685V42.6445L34.6156 41.2623C35.902 41.8276 37.3742 41.8324 38.6646 41.2757C38.8177 41.409 38.9858 41.5252 39.1655 41.6221C39.5998 41.8531 40.0871 41.9723 40.5816 41.9689C42.1587 41.8802 43.5746 40.997 44.3186 39.6378C44.9624 38.6131 45.1603 37.3801 44.8683 36.2126C44.6695 35.4615 44.1752 34.8174 43.4923 34.42C43.6449 32.9896 43.0618 31.7204 41.9533 31.1239C41.6499 30.9619 41.3189 30.8548 40.9764 30.8085C41.1128 30.2466 41.1813 29.671 41.1801 29.0934C41.1801 25.8053 39.0062 23.1233 36.3302 23.1789C35.5117 21.2357 33.8788 20 32.0901 20C29.4519 20 27.3058 22.6535 27.3058 25.9154C27.3058 26.0359 27.3096 26.158 27.3168 26.2888C24.7189 27.1559 23 29.3356 23 31.818ZM32.5685 39.7158C32.8843 40.1157 33.2604 40.4663 33.6842 40.756L32.5685 41.5091V39.7158ZM42.4986 34.6034C42.4575 34.8199 42.5771 35.0352 42.7857 35.1195C42.8511 35.1455 42.9149 35.1746 42.977 35.2072C43.462 35.4784 43.8114 35.9318 43.9434 36.4616C44.1663 37.3872 44.0021 38.3611 43.4877 39.1684C42.5661 40.719 40.8332 41.455 39.6248 40.8018C39.4318 40.6967 39.2596 40.5593 39.1157 40.3957C39.0249 40.2934 38.8929 40.2346 38.7541 40.2346C38.6702 40.2344 38.5878 40.2556 38.5149 40.2959C37.6162 40.776 36.5587 40.8881 35.5754 40.6076L38.577 38.5803C38.7871 38.4313 38.8368 38.1458 38.6889 37.9373C38.5411 37.729 38.2495 37.6739 38.0325 37.8131L34.5319 40.1767C33.64 39.6873 32.9775 38.8795 32.6834 37.9234C32.4542 37.1605 32.5528 36.3397 32.9565 35.6493C33.7951 34.3796 35.3895 33.7986 36.8762 34.2208C37.099 34.2721 37.328 34.162 37.4221 33.9585C37.4824 33.8261 37.5496 33.6972 37.6235 33.5716C38.5455 32.0208 40.2803 31.2877 41.4868 31.9383C42.325 32.3872 42.7203 33.4331 42.4986 34.6034ZM27.9545 27.0709C28.1779 27.0093 28.3236 26.8004 28.3005 26.5753C28.2764 26.3561 28.2638 26.1359 28.2627 25.9154C28.2627 23.1682 29.9797 20.9333 32.0901 20.9333C33.5678 20.9333 34.9291 22.0679 35.5582 23.8238C35.632 24.0298 35.8425 24.1583 36.0648 24.1332C36.1746 24.12 36.2851 24.113 36.3959 24.1118C38.5063 24.1118 40.2233 26.3467 40.2233 29.0934C40.2235 29.6785 40.1413 30.261 39.9794 30.8243C38.6277 31.0931 37.4655 31.9276 36.8007 33.1063C36.7738 33.153 36.7479 33.1968 36.7236 33.2426C35.1909 32.9616 33.6185 33.4752 32.5685 34.5997V27C32.5685 26.7423 32.3543 26.5333 32.0901 26.5333C31.8258 26.5333 31.6116 26.7423 31.6116 27V32.8734L29.0793 30.4034C28.8915 30.2266 28.5932 30.2291 28.4087 30.4091C28.2241 30.5891 28.2215 30.8801 28.4028 31.0633L31.6116 34.1932V36.5092C30.9928 36.7013 30.3474 36.7993 29.6979 36.8C26.5321 36.8 23.9568 34.5651 23.9568 31.818C23.9568 29.64 25.5634 27.7321 27.9545 27.0709Z" fill="#233670"/>
</svg>
