<svg width="68" height="68" viewBox="0 0 68 68" fill="none" xmlns="http://www.w3.org/2000/svg">
<rect width="68" height="68" rx="34" fill="white"/>
<path d="M61.0293 45.8227C60.794 45.0826 60.2896 44.4771 59.5836 44.107C58.1715 43.367 56.3896 43.9388 55.6499 45.3518C55.2801 46.0582 55.2129 46.8319 55.4482 47.6057C55.6835 48.3458 56.1879 48.9513 56.8939 49.3213C57.3982 49.5905 57.9698 49.6914 58.5413 49.6577C59.5164 49.5568 60.3905 48.9849 60.8612 48.1103C61.1974 47.3702 61.2647 46.5628 61.0293 45.8227Z" fill="#93C01F"/>
<path d="M53.1639 50.6333H53.1303C52.3906 50.6333 51.651 50.9361 51.113 51.4743C50.5415 52.0126 50.2389 52.7527 50.2389 53.5264C50.2389 54.3001 50.5415 55.0402 51.0794 55.6121C51.7182 56.2513 52.5587 56.554 53.4665 56.4868C54.1389 56.4195 54.7441 56.1167 55.2148 55.6794C55.7864 55.1411 56.089 54.3674 56.089 53.5937C56.089 52.8199 55.7864 52.0798 55.2484 51.508C54.6769 50.9361 53.9372 50.6333 53.1639 50.6333Z" fill="#93C01F"/>
<path d="M44.9243 55.8807C44.1846 56.2508 43.6803 56.8563 43.4113 57.5964C43.176 58.3365 43.2096 59.1438 43.5794 59.8503C43.9156 60.5568 44.5208 61.095 45.2941 61.3305C45.6975 61.465 46.101 61.4987 46.5045 61.465C46.8743 61.4314 47.2105 61.3305 47.5131 61.1623C48.2191 60.8259 48.7571 60.1867 48.9924 59.4466C49.2278 58.7065 49.1605 57.8991 48.8243 57.2263C48.0846 55.7461 46.3363 55.1743 44.9243 55.8807Z" fill="#FFEC00"/>
<path d="M39.7784 58.7069C39.1396 58.2695 38.3999 58.0677 37.6266 58.1686C36.0128 58.4041 34.9369 59.9179 35.1723 61.499C35.4076 63.0465 36.8197 64.123 38.3663 63.9884C38.3999 63.9884 38.4671 63.9884 38.5008 63.9548C39.274 63.8539 39.9801 63.4165 40.4508 62.7774C40.9215 62.1382 41.0896 61.3645 40.9887 60.5907C40.8206 59.8506 40.4172 59.1442 39.7784 58.7069Z" fill="#FFEC00"/>
<path d="M30.166 58.1352C29.3927 58.0006 28.6194 58.2025 27.9806 58.6398C27.3418 59.1108 26.9384 59.7836 26.8039 60.5573C26.6694 61.3311 26.8711 62.1048 27.3082 62.744C27.7789 63.3831 28.4513 63.7868 29.2246 63.9214C29.4936 63.955 29.7289 63.955 29.9979 63.955C30.5358 63.8877 31.0065 63.7195 31.4436 63.4168C32.0824 62.9458 32.4858 62.273 32.6203 61.4993C32.8221 59.9182 31.7462 58.4043 30.166 58.1352Z" fill="#FFEC00"/>
<path d="M24.1812 57.3948C23.9459 56.6547 23.4415 56.0491 22.7355 55.7127C22.0295 55.3427 21.2562 55.2754 20.4829 55.5109C19.7432 55.7464 19.138 56.251 18.7682 56.9574C18.3984 57.6639 18.3311 58.4376 18.5665 59.2114C18.8018 59.9515 19.3061 60.557 20.0122 60.927C20.5165 61.1961 21.0881 61.2971 21.6596 61.2298C21.8614 61.1962 22.0631 61.1625 22.2648 61.0952C23.0045 60.8597 23.6096 60.3215 23.9459 59.6487C24.3829 58.9422 24.4502 58.1685 24.1812 57.3948Z" fill="#FFEC00"/>
<path d="M14.5307 50.3303C13.7575 50.3303 13.0178 50.6331 12.4799 51.1713C11.9083 51.7432 11.6057 52.4833 11.6057 53.257C11.6057 54.0308 11.9083 54.7709 12.4462 55.3091C12.9842 55.881 13.7575 56.1838 14.5644 56.1838C14.6652 56.1838 14.7325 56.1838 14.8333 56.1838C15.5058 56.1165 16.1446 55.8137 16.6153 55.3428C17.7584 54.199 17.7584 52.3488 16.6153 51.205C16.0773 50.6331 15.3377 50.3303 14.5307 50.3303Z" fill="#F29100"/>
<path d="M12.1797 45.0151C11.8099 44.3087 11.2047 43.804 10.465 43.5349C9.72537 43.2994 8.91847 43.3667 8.21242 43.7031C7.50638 44.0395 7.00206 44.6451 6.7331 45.4188C6.49775 46.1589 6.53137 46.9663 6.9012 47.6391C7.23741 48.3455 7.87621 48.8838 8.61588 49.1193C8.98571 49.2538 9.38916 49.2875 9.79261 49.2538C10.1624 49.2202 10.5323 49.1193 10.8349 48.9511C12.3142 48.211 12.8858 46.4617 12.1797 45.0151Z" fill="#F29100"/>
<path d="M7.40359 41.1126C8.98378 40.8435 10.0933 39.3633 9.82431 37.7822C9.72344 36.9748 9.31999 36.302 8.68119 35.8311C8.04239 35.3601 7.26911 35.1919 6.49582 35.2928C5.72254 35.4274 5.01649 35.8311 4.57942 36.4702C4.10872 37.1094 3.94062 37.8831 4.0751 38.6232C4.20959 39.397 4.61304 40.1034 5.25184 40.5744C5.8234 40.9781 6.52944 41.1799 7.23548 41.1126C7.30273 41.1126 7.36997 41.1126 7.40359 41.1126Z" fill="#F29100"/>
<path d="M6.49524 32.5686C6.76421 32.6022 6.99956 32.6359 7.2349 32.6022C7.77284 32.5349 8.24354 32.3667 8.68061 32.0303C9.28579 31.5594 9.72286 30.8866 9.82373 30.1128C10.0927 28.5317 8.9832 27.0179 7.40301 26.7488C5.82282 26.4796 4.30987 27.5898 4.0409 29.1709C3.90642 29.9446 4.10814 30.752 4.57884 31.3912C5.04953 32.064 5.75558 32.4677 6.49524 32.5686Z" fill="#F29100"/>
<path d="M8.27829 24.1583C8.78261 24.3938 9.32054 24.5284 9.8921 24.4611C10.9007 24.3602 11.7749 23.7547 12.212 22.88L12.2456 22.8464C12.9516 21.3998 12.3801 19.6841 10.9344 18.9441C9.48865 18.204 7.74035 18.7759 7.00069 20.2224C6.63086 20.9288 6.59723 21.7362 6.83258 22.4763C7.06793 23.2164 7.60587 23.8219 8.27829 24.1583Z" fill="#E5332A"/>
<path d="M14.9018 17.5639C15.5742 17.4966 16.213 17.1939 16.6837 16.7229C17.2553 16.151 17.5579 15.4446 17.5579 14.6372C17.5579 13.8634 17.2553 13.1234 16.6837 12.5515C16.1458 12.0132 15.4061 11.7104 14.6328 11.7104C13.8596 11.7104 13.1199 12.0132 12.5483 12.5851C12.0104 13.1234 11.6742 13.8971 11.6742 14.7045C11.6742 15.4782 11.9768 16.2183 12.5483 16.7565C13.1871 17.3284 14.0277 17.6312 14.9018 17.5639Z" fill="#E5332A"/>
<path d="M22.8668 12.2157C23.5729 11.8457 24.0772 11.2401 24.3126 10.5C24.5479 9.75994 24.4807 8.95256 24.1445 8.24611C23.7746 7.5733 23.1694 7.03505 22.4298 6.79957C21.6901 6.56408 20.8832 6.63136 20.1772 6.96777C19.4711 7.33782 18.9332 7.94335 18.6978 8.71708C18.4625 9.45717 18.5297 10.2645 18.8996 10.9374C19.2694 11.6438 19.8746 12.1484 20.6142 12.3839C20.9841 12.5185 21.3875 12.5521 21.791 12.5185C22.1944 12.4848 22.5306 12.3839 22.8668 12.2157Z" fill="#E5332A"/>
<path d="M32.5181 6.49627C32.3836 5.72254 31.9801 5.04973 31.3413 4.57876C30.7025 4.10779 29.9293 3.93959 29.156 4.07415C28.3827 4.20871 27.6766 4.64604 27.2396 5.28521C26.7689 5.92438 26.6008 6.69811 26.7353 7.47185C26.9706 8.98567 28.3827 10.0622 29.9293 9.92761C29.9965 9.92761 30.0637 9.92761 30.0974 9.89397C31.7112 9.5912 32.7871 8.07738 32.5181 6.49627Z" fill="#E5332A"/>
<path d="M41.1919 7.37134C41.4272 5.79023 40.3514 4.27641 38.7376 4.04092C37.9643 3.90636 37.1574 4.1082 36.5522 4.57917C35.9134 5.05014 35.5099 5.72295 35.4091 6.49668C35.1737 8.07779 36.2832 9.59162 37.8634 9.8271C38.0988 9.86074 38.3677 9.86074 38.6031 9.86074C39.9143 9.72618 40.9902 8.71696 41.1919 7.37134Z" fill="#D9D9D9"/>
<path d="M48.9285 10.8363C49.6682 9.38975 49.063 7.64045 47.6173 6.90035L47.5837 6.86671C46.8776 6.53031 46.0707 6.49667 45.3647 6.73215C44.625 6.96764 44.0198 7.50588 43.6836 8.21234C42.9776 9.65888 43.5491 11.4082 44.9948 12.1483C45.4991 12.3838 46.0371 12.5183 46.6086 12.451C47.5836 12.3501 48.4578 11.7446 48.9285 10.8363Z" fill="#D9D9D9"/>
<path d="M53.5321 17.4298C54.2045 17.3625 54.8433 17.0597 55.314 16.5888C56.4572 15.445 56.4235 13.5948 55.2804 12.451C54.7089 11.9127 53.9692 11.5763 53.1623 11.61C52.389 11.61 51.6494 11.9464 51.1114 12.4846C50.0019 13.6284 50.0019 15.4786 51.145 16.6224C51.8175 17.2279 52.658 17.5307 53.5321 17.4298Z" fill="#D9D9D9"/>
<path d="M55.717 22.7451C56.2885 23.8216 57.398 24.4272 58.6084 24.3262C58.9782 24.2926 59.3481 24.1917 59.6843 24.0235C61.13 23.2834 61.6679 21.5004 60.9282 20.0539C60.5584 19.3474 59.9196 18.8428 59.18 18.6073C58.4403 18.3719 57.6334 18.4391 56.961 18.8092C55.5153 19.5493 54.9773 21.2986 55.717 22.7451Z" fill="#D9D9D9"/>
<path d="M63.8861 29.0027C63.7516 28.229 63.3145 27.5225 62.6757 27.0852C62.0369 26.6478 61.2636 26.446 60.4903 26.6142C59.7171 26.7488 59.0446 27.1861 58.5739 27.8253C58.1369 28.4644 57.9688 29.2382 58.0696 29.9783C58.2041 30.752 58.6076 31.4248 59.2464 31.8958C59.8179 32.2995 60.524 32.5013 61.23 32.434C61.2973 32.434 61.3645 32.434 61.4317 32.4004C62.205 32.2658 62.8774 31.8285 63.3481 31.1893C63.8525 30.5501 64.0206 29.7764 63.8861 29.0027Z" fill="#93C01F"/>
<path d="M63.3822 36.5378C62.9115 35.8986 62.2391 35.495 61.4658 35.394C59.8856 35.1586 58.4063 36.2687 58.171 37.8834C58.0701 38.6572 58.2382 39.4309 58.7089 40.0701C59.1796 40.7092 59.852 41.1129 60.6589 41.2139C60.8943 41.2475 61.1296 41.2475 61.365 41.2139C62.7098 41.0793 63.7857 40.0701 63.9874 38.7245C64.0547 37.9844 63.8529 37.177 63.3822 36.5378Z" fill="#93C01F"/>
<path d="M37.2174 24.5391C36.9174 24.5391 36.674 24.7841 36.674 25.0859C36.674 25.3878 36.9174 25.6328 37.2174 25.6328C37.5174 25.6328 37.7609 25.3878 37.7609 25.0859C37.7609 24.7841 37.5174 24.5391 37.2174 24.5391Z" fill="#233670"/>
<path d="M31.7826 24.5391C31.4826 24.5391 31.2391 24.7841 31.2391 25.0859C31.2391 25.3878 31.4826 25.6328 31.7826 25.6328C32.0826 25.6328 32.3261 25.3878 32.3261 25.0859C32.3261 24.7841 32.0826 24.5391 31.7826 24.5391Z" fill="#233670"/>
<path d="M46.3002 36.3451C46.7666 35.6406 47 34.7616 47 34C47 32.8518 46.4931 31.785 45.6233 31.0616C45.8158 30.5987 45.913 30.1173 45.913 29.625C45.913 28.1017 45.0296 26.6826 43.716 26.02C43.9153 24.3567 42.8383 22.8322 41.2421 22.4433C40.6174 20.9901 39.2269 20 37.7609 20C36.3962 20 35.1722 20.801 34.5 21.9696C33.8277 20.801 32.6037 20 31.2391 20C29.773 20 28.3825 20.9901 27.7579 22.4433C26.1522 22.8347 25.0852 24.3669 25.284 26.02C23.9705 26.6826 23.087 28.1017 23.087 29.625C23.087 30.1173 23.1842 30.5987 23.3767 31.0616C22.5069 31.785 22 32.8518 22 34C22 34.7656 22.2353 35.6435 22.6998 36.3451C22.2459 36.9898 22 37.754 22 38.5391C22 39.5571 22.4102 40.527 23.1358 41.2471C22.7628 43.5162 24.5611 45.8125 26.8913 45.8125C26.9082 45.8125 26.9247 45.8122 26.941 45.8117C27.7135 47.1528 29.1476 48 30.6957 48C32.3091 48 33.7509 47.0255 34.5 45.6214C35.2491 47.0255 36.6909 48 38.3043 48C39.8524 48 41.2865 47.1528 42.059 45.8117C42.0753 45.8122 42.0918 45.8125 42.1087 45.8125C44.1709 45.8125 45.913 43.9843 45.913 41.8203C45.913 41.6361 45.897 41.4466 45.8642 41.2471C46.5898 40.527 47 39.5572 47 38.5391C47 37.754 46.7541 36.9898 46.3002 36.3451ZM33.9565 28.2786C33.6365 28.0919 33.2654 27.9844 32.8696 27.9844C32.5694 27.9844 32.3261 28.2292 32.3261 28.5312C32.3261 28.8333 32.5694 29.0781 32.8696 29.0781C33.4689 29.0781 33.9565 29.5688 33.9565 30.1719V40.5717C33.1592 39.6617 31.9933 39.0859 30.6957 39.0859C30.3955 39.0859 30.1522 39.3308 30.1522 39.6328C30.1522 39.9349 30.3955 40.1797 30.6957 40.1797C32.4937 40.1797 33.9565 41.6517 33.9565 43.4609C33.9565 45.3285 32.4632 46.9062 30.6957 46.9062C29.4374 46.9062 28.2791 46.1575 27.7446 44.9987C27.6461 44.7852 27.4229 44.6593 27.1903 44.6856C27.1518 44.69 27.1136 44.6952 27.0754 44.7004C25.5287 44.9133 23.7868 43.1509 24.2584 41.1793C24.3068 40.9768 24.2367 40.7642 24.0776 40.631C23.448 40.1039 23.087 39.3414 23.087 38.5391C23.087 38.043 23.2264 37.5575 23.4858 37.1318C24.1376 37.6694 24.9484 37.9922 25.8043 37.9922C26.1045 37.9922 26.3478 37.7474 26.3478 37.4453C26.3478 37.1433 26.1045 36.8984 25.8043 36.8984C24.3294 36.8984 23.087 35.5438 23.087 34C23.087 33.0635 23.5614 32.2019 24.3561 31.6954C24.6009 31.5393 24.681 31.2173 24.538 30.9636C24.2964 30.5349 24.1739 30.0845 24.1739 29.625C24.1739 28.149 25.3697 26.7266 26.8913 26.7266C28.3389 26.7266 29.6087 28.081 29.6087 29.625C29.6087 29.927 29.852 30.1719 30.1522 30.1719C30.4523 30.1719 30.6957 29.927 30.6957 29.625C30.6957 27.461 28.9535 25.6328 26.8913 25.6328C26.7093 25.6328 26.5284 25.6476 26.3492 25.6757C26.3489 25.6613 26.3478 25.6473 26.3478 25.6328C26.3478 24.4124 27.3324 23.4453 28.5217 23.4453C29.1023 23.4453 29.6484 23.6729 30.0593 24.086C30.2717 24.2994 30.6158 24.2992 30.8279 24.0856C31.0401 23.8719 31.0399 23.5256 30.8276 23.3122C30.3317 22.8138 29.7046 22.496 29.025 22.3907C29.5043 21.6748 30.3013 21.0938 31.2391 21.0938C32.6867 21.0938 33.9565 22.4481 33.9565 23.9922V28.2786ZM43.1957 37.9922C44.0516 37.9922 44.8624 37.6694 45.5143 37.132C45.7736 37.5576 45.913 38.043 45.913 38.5391C45.913 39.3414 45.552 40.1039 44.9224 40.631C44.7633 40.7642 44.6933 40.9768 44.7417 41.1793C44.7993 41.4201 44.8261 41.6238 44.8261 41.8203C44.8261 43.5178 43.3003 44.8896 41.9246 44.7004C41.8864 44.6952 41.8482 44.69 41.8097 44.6856C41.5767 44.6591 41.3539 44.7852 41.2554 44.9987C40.721 46.1575 39.5626 46.9062 38.3043 46.9062C36.5368 46.9062 35.0435 45.3285 35.0435 43.4609C35.0435 41.6517 36.5063 40.1797 38.3043 40.1797C38.6045 40.1797 38.8478 39.9349 38.8478 39.6328C38.8478 39.3308 38.6045 39.0859 38.3043 39.0859C37.0067 39.0859 35.8408 39.6617 35.0435 40.5717V30.1719C35.0435 29.5688 35.5311 29.0781 36.1304 29.0781C36.4305 29.0781 36.6739 28.8333 36.6739 28.5312C36.6739 28.2292 36.4305 27.9844 36.1304 27.9844C35.7346 27.9844 35.3635 28.0919 35.0435 28.2786V23.9922C35.0435 22.4481 36.3133 21.0938 37.7609 21.0938C38.6987 21.0938 39.4957 21.6748 39.9749 22.3906C39.2954 22.4959 38.6683 22.8138 38.1724 23.3121C37.9601 23.5256 37.9598 23.8718 38.172 24.0855C38.3841 24.2993 38.7283 24.2994 38.9405 24.086C39.3517 23.6729 39.8977 23.4453 40.4783 23.4453C41.6735 23.4453 42.6522 24.418 42.6522 25.6328C42.6522 25.6473 42.6511 25.6613 42.6508 25.6757C42.4716 25.6476 42.2907 25.6328 42.1087 25.6328C40.0465 25.6328 38.3043 27.461 38.3043 29.625C38.3043 29.927 38.5477 30.1719 38.8478 30.1719C39.1479 30.1719 39.3913 29.927 39.3913 29.625C39.3913 28.081 40.6611 26.7266 42.1087 26.7266C43.6295 26.7266 44.8261 28.1483 44.8261 29.625C44.8261 30.0845 44.7036 30.5349 44.462 30.9636C44.3191 31.2173 44.3991 31.5393 44.644 31.6954C45.4386 32.2019 45.913 33.0635 45.913 34C45.913 35.5494 44.6662 36.8984 43.1957 36.8984C42.8955 36.8984 42.6522 37.1433 42.6522 37.4453C42.6522 37.7474 42.8955 37.9922 43.1957 37.9922Z" fill="#233670"/>
<path d="M32.7311 31.706C32.531 31.4809 32.1875 31.4617 31.9637 31.663C30.2209 33.2318 27.4347 31.978 27.4347 29.625C27.4347 29.323 27.1914 29.0781 26.8913 29.0781C26.5911 29.0781 26.3478 29.323 26.3478 29.625C26.3478 31.5235 27.7286 33.1029 29.5326 33.4016C29.3233 34.0648 28.7057 34.5469 27.9782 34.5469C27.6781 34.5469 27.4347 34.7917 27.4347 35.0938C27.4347 35.3958 27.6781 35.6406 27.9782 35.6406C29.302 35.6406 30.407 34.683 30.6468 33.4202C31.4026 33.3207 32.114 32.9953 32.6884 32.4782C32.9121 32.2769 32.9312 31.9311 32.7311 31.706Z" fill="#233670"/>
<path d="M26.8913 41.2734C26.5911 41.2734 26.3478 41.5183 26.3478 41.8203C26.3478 42.1224 26.5911 42.3672 26.8913 42.3672C28.3389 42.3672 29.6086 43.7216 29.6086 45.2656C29.6086 45.5677 29.852 45.8125 30.1521 45.8125C30.4523 45.8125 30.6956 45.5677 30.6956 45.2656C30.6956 43.1016 28.9534 41.2734 26.8913 41.2734Z" fill="#233670"/>
<path d="M31.2393 36.8984C29.3976 36.8984 27.8165 37.9148 26.9838 39.3926C26.8359 39.6554 26.9275 39.9892 27.1886 40.1381C27.4498 40.287 27.7814 40.1948 27.9294 39.932C28.5781 38.7805 29.8088 37.9922 31.2393 37.9922C31.5394 37.9922 31.7828 37.7474 31.7828 37.4453C31.7828 37.1433 31.5394 36.8984 31.2393 36.8984Z" fill="#233670"/>
<path d="M41.0218 34.5469C40.2943 34.5469 39.6767 34.0648 39.4675 33.4016C41.2714 33.1029 42.6522 31.5235 42.6522 29.625C42.6522 29.323 42.4089 29.0781 42.1088 29.0781C41.8087 29.0781 41.5653 29.323 41.5653 29.625C41.5653 31.1327 40.3463 32.3594 38.8479 32.3594C38.1785 32.3594 37.5352 32.1121 37.0363 31.663C36.8127 31.4617 36.469 31.4809 36.2689 31.706C36.0688 31.9311 36.088 32.2769 36.3116 32.4782C36.886 32.9953 37.5975 33.3207 38.3532 33.4202C38.593 34.683 39.6981 35.6406 41.0218 35.6406C41.3219 35.6406 41.5653 35.3958 41.5653 35.0938C41.5653 34.7917 41.3219 34.5469 41.0218 34.5469Z" fill="#233670"/>
<path d="M42.1087 41.2734C40.0465 41.2734 38.3043 43.1016 38.3043 45.2656C38.3043 45.5677 38.5477 45.8125 38.8478 45.8125C39.1479 45.8125 39.3913 45.5677 39.3913 45.2656C39.3913 43.7216 40.6611 42.3672 42.1087 42.3672C42.4088 42.3672 42.6521 42.1224 42.6521 41.8203C42.6521 41.5183 42.4088 41.2734 42.1087 41.2734Z" fill="#233670"/>
<path d="M42.0163 39.3927C41.1858 37.9184 39.6068 36.8984 37.7609 36.8984C37.4608 36.8984 37.2174 37.1433 37.2174 37.4453C37.2174 37.7474 37.4608 37.9922 37.7609 37.9922C39.1903 37.9922 40.422 38.7803 41.0706 39.932C41.2188 40.1951 41.5507 40.2869 41.8114 40.1381C42.0726 39.9892 42.1643 39.6555 42.0163 39.3927Z" fill="#233670"/>
</svg>
