<svg width="68" height="68" viewBox="0 0 68 68" fill="none" xmlns="http://www.w3.org/2000/svg">
<rect width="68" height="68" rx="34" fill="white"/>
<path d="M61.0294 45.8227C60.7941 45.0826 60.2898 44.4771 59.5837 44.107C58.1716 43.367 56.3897 43.9388 55.65 45.3518C55.2802 46.0582 55.213 46.8319 55.4483 47.6057C55.6837 48.3458 56.188 48.9513 56.894 49.3213C57.3983 49.5905 57.9699 49.6914 58.5415 49.6577C59.5165 49.5568 60.3906 48.9849 60.8613 48.1103C61.1975 47.3702 61.2648 46.5628 61.0294 45.8227Z" fill="#93C01F"/>
<path d="M53.1638 50.6333H53.1302C52.3905 50.6333 51.6509 50.9361 51.1129 51.4743C50.5414 52.0126 50.2388 52.7527 50.2388 53.5264C50.2388 54.3001 50.5414 55.0402 51.0793 55.6121C51.7181 56.2513 52.5586 56.554 53.4664 56.4868C54.1388 56.4195 54.744 56.1167 55.2147 55.6794C55.7863 55.1411 56.0888 54.3674 56.0888 53.5937C56.0888 52.8199 55.7862 52.0798 55.2483 51.508C54.6768 50.9361 53.9371 50.6333 53.1638 50.6333Z" fill="#93C01F"/>
<path d="M44.9244 55.8807C44.1847 56.2508 43.6804 56.8563 43.4114 57.5964C43.1761 58.3365 43.2097 59.1438 43.5795 59.8503C43.9158 60.5568 44.5209 61.095 45.2942 61.3305C45.6977 61.465 46.1011 61.4987 46.5046 61.465C46.8744 61.4314 47.2106 61.3305 47.5132 61.1623C48.2192 60.8259 48.7572 60.1867 48.9925 59.4466C49.2279 58.7065 49.1606 57.8991 48.8244 57.2263C48.0848 55.7461 46.3365 55.1743 44.9244 55.8807Z" fill="#FFEC00"/>
<path d="M39.7785 58.7069C39.1397 58.2695 38.4 58.0677 37.6267 58.1686C36.0129 58.4041 34.9371 59.9179 35.1724 61.499C35.4077 63.0465 36.8198 64.123 38.3664 63.9884C38.4 63.9884 38.4673 63.9884 38.5009 63.9548C39.2742 63.8539 39.9802 63.4165 40.4509 62.7774C40.9216 62.1382 41.0897 61.3645 40.9888 60.5907C40.8207 59.8506 40.4173 59.1442 39.7785 58.7069Z" fill="#FFEC00"/>
<path d="M30.166 58.1352C29.3927 58.0006 28.6194 58.2025 27.9806 58.6398C27.3418 59.1108 26.9384 59.7836 26.8039 60.5573C26.6694 61.3311 26.8711 62.1048 27.3082 62.744C27.7789 63.3831 28.4513 63.7868 29.2246 63.9214C29.4936 63.955 29.7289 63.955 29.9979 63.955C30.5358 63.8877 31.0065 63.7195 31.4436 63.4168C32.0824 62.9458 32.4858 62.273 32.6203 61.4993C32.8221 59.9182 31.7462 58.4043 30.166 58.1352Z" fill="#FFEC00"/>
<path d="M24.1812 57.3948C23.9459 56.6547 23.4415 56.0491 22.7355 55.7127C22.0295 55.3427 21.2562 55.2754 20.4829 55.5109C19.7432 55.7464 19.138 56.251 18.7682 56.9574C18.3984 57.6639 18.3311 58.4376 18.5665 59.2114C18.8018 59.9515 19.3061 60.557 20.0122 60.927C20.5165 61.1961 21.0881 61.2971 21.6596 61.2298C21.8614 61.1962 22.0631 61.1625 22.2648 61.0952C23.0045 60.8597 23.6096 60.3215 23.9459 59.6487C24.3829 58.9422 24.4502 58.1685 24.1812 57.3948Z" fill="#FFEC00"/>
<path d="M14.5305 50.3303C13.7572 50.3303 13.0176 50.6331 12.4796 51.1713C11.9081 51.7432 11.6055 52.4833 11.6055 53.257C11.6055 54.0308 11.9081 54.7709 12.446 55.3091C12.9839 55.881 13.7572 56.1838 14.5641 56.1838C14.665 56.1838 14.7322 56.1838 14.8331 56.1838C15.5055 56.1165 16.1443 55.8137 16.615 55.3428C17.7581 54.199 17.7581 52.3488 16.615 51.205C16.0771 50.6331 15.3374 50.3303 14.5305 50.3303Z" fill="#F29100"/>
<path d="M12.1798 45.0151C11.81 44.3087 11.2048 43.804 10.4652 43.5349C9.72549 43.2994 8.91859 43.3667 8.21254 43.7031C7.5065 44.0395 7.00219 44.6451 6.73322 45.4188C6.49787 46.1589 6.53149 46.9663 6.90132 47.6391C7.23753 48.3455 7.87633 48.8838 8.616 49.1193C8.98583 49.2538 9.38928 49.2875 9.79274 49.2538C10.1626 49.2202 10.5324 49.1193 10.835 48.9511C12.3143 48.211 12.8859 46.4617 12.1798 45.0151Z" fill="#F29100"/>
<path d="M7.40359 41.1126C8.98378 40.8435 10.0933 39.3633 9.82431 37.7822C9.72344 36.9748 9.31999 36.302 8.68119 35.8311C8.04239 35.3601 7.26911 35.1919 6.49582 35.2928C5.72254 35.4274 5.01649 35.8311 4.57942 36.4702C4.10872 37.1094 3.94062 37.8831 4.0751 38.6232C4.20959 39.397 4.61304 40.1034 5.25184 40.5744C5.8234 40.9781 6.52944 41.1799 7.23548 41.1126C7.30273 41.1126 7.36997 41.1126 7.40359 41.1126Z" fill="#F29100"/>
<path d="M6.49524 32.5686C6.76421 32.6022 6.99956 32.6359 7.2349 32.6022C7.77284 32.5349 8.24354 32.3667 8.68061 32.0303C9.28579 31.5594 9.72286 30.8866 9.82373 30.1128C10.0927 28.5317 8.9832 27.0179 7.40301 26.7488C5.82282 26.4796 4.30987 27.5898 4.0409 29.1709C3.90642 29.9446 4.10814 30.752 4.57884 31.3912C5.04953 32.064 5.75558 32.4677 6.49524 32.5686Z" fill="#F29100"/>
<path d="M8.27805 24.1583C8.78236 24.3938 9.3203 24.5284 9.89186 24.4611C10.9005 24.3602 11.7746 23.7547 12.2117 22.88L12.2453 22.8464C12.9514 21.3998 12.3798 19.6841 10.9341 18.9441C9.48841 18.204 7.74011 18.7759 7.00044 20.2224C6.63061 20.9288 6.59699 21.7362 6.83234 22.4763C7.06769 23.2164 7.60562 23.8219 8.27805 24.1583Z" fill="#E5332A"/>
<path d="M14.9019 17.5639C15.5744 17.4966 16.2132 17.1939 16.6839 16.7229C17.2554 16.151 17.558 15.4446 17.558 14.6372C17.558 13.8634 17.2554 13.1234 16.6839 12.5515C16.1459 12.0132 15.4063 11.7104 14.633 11.7104C13.8597 11.7104 13.12 12.0132 12.5485 12.5851C12.0105 13.1234 11.6743 13.8971 11.6743 14.7045C11.6743 15.4782 11.9769 16.2183 12.5485 16.7565C13.1873 17.3284 14.0278 17.6312 14.9019 17.5639Z" fill="#E5332A"/>
<path d="M22.8668 12.2157C23.5729 11.8457 24.0772 11.2401 24.3126 10.5C24.5479 9.75994 24.4807 8.95256 24.1445 8.24611C23.7746 7.5733 23.1694 7.03505 22.4298 6.79957C21.6901 6.56408 20.8832 6.63136 20.1772 6.96777C19.4711 7.33782 18.9332 7.94335 18.6978 8.71708C18.4625 9.45717 18.5297 10.2645 18.8996 10.9374C19.2694 11.6438 19.8746 12.1484 20.6142 12.3839C20.9841 12.5185 21.3875 12.5521 21.791 12.5185C22.1944 12.4848 22.5306 12.3839 22.8668 12.2157Z" fill="#E5332A"/>
<path d="M32.5181 6.49627C32.3836 5.72254 31.9801 5.04973 31.3413 4.57876C30.7025 4.10779 29.9293 3.93959 29.156 4.07415C28.3827 4.20871 27.6766 4.64604 27.2396 5.28521C26.7689 5.92438 26.6008 6.69811 26.7353 7.47185C26.9706 8.98567 28.3827 10.0622 29.9293 9.92761C29.9965 9.92761 30.0637 9.92761 30.0974 9.89397C31.7112 9.5912 32.7871 8.07738 32.5181 6.49627Z" fill="#E5332A"/>
<path d="M41.1918 7.37134C41.4271 5.79023 40.3512 4.27641 38.7374 4.04092C37.9641 3.90636 37.1572 4.1082 36.5521 4.57917C35.9133 5.05014 35.5098 5.72295 35.4089 6.49668C35.1736 8.07779 36.2831 9.59162 37.8633 9.8271C38.0986 9.86074 38.3676 9.86074 38.6029 9.86074C39.9142 9.72618 40.99 8.71696 41.1918 7.37134Z" fill="#D9D9D9"/>
<path d="M48.9285 10.8363C49.6682 9.38975 49.063 7.64045 47.6173 6.90035L47.5837 6.86671C46.8776 6.53031 46.0707 6.49667 45.3647 6.73215C44.625 6.96764 44.0198 7.50588 43.6836 8.21234C42.9776 9.65888 43.5491 11.4082 44.9948 12.1483C45.4991 12.3838 46.0371 12.5183 46.6086 12.451C47.5836 12.3501 48.4578 11.7446 48.9285 10.8363Z" fill="#D9D9D9"/>
<path d="M53.5319 17.4298C54.2043 17.3625 54.8431 17.0597 55.3138 16.5888C56.4569 15.445 56.4233 13.5948 55.2802 12.451C54.7086 11.9127 53.969 11.5763 53.162 11.61C52.3888 11.61 51.6491 11.9464 51.1112 12.4846C50.0017 13.6284 50.0017 15.4786 51.1448 16.6224C51.8172 17.2279 52.6577 17.5307 53.5319 17.4298Z" fill="#D9D9D9"/>
<path d="M55.717 22.7451C56.2885 23.8216 57.398 24.4272 58.6084 24.3262C58.9782 24.2926 59.3481 24.1917 59.6843 24.0235C61.13 23.2834 61.6679 21.5004 60.9282 20.0539C60.5584 19.3474 59.9196 18.8428 59.18 18.6073C58.4403 18.3719 57.6334 18.4391 56.961 18.8092C55.5153 19.5493 54.9773 21.2986 55.717 22.7451Z" fill="#D9D9D9"/>
<path d="M63.8863 29.0027C63.7518 28.229 63.3148 27.5225 62.676 27.0852C62.0372 26.6478 61.2639 26.446 60.4906 26.6142C59.7173 26.7488 59.0449 27.1861 58.5742 27.8253C58.1371 28.4644 57.969 29.2382 58.0699 29.9783C58.2044 30.752 58.6078 31.4248 59.2466 31.8958C59.8182 32.2995 60.5242 32.5013 61.2303 32.434C61.2975 32.434 61.3647 32.434 61.432 32.4004C62.2053 32.2658 62.8777 31.8285 63.3484 31.1893C63.8527 30.5501 64.0208 29.7764 63.8863 29.0027Z" fill="#93C01F"/>
<path d="M63.382 36.5378C62.9113 35.8986 62.2389 35.495 61.4656 35.394C59.8854 35.1586 58.4061 36.2687 58.1707 37.8834C58.0699 38.6572 58.238 39.4309 58.7087 40.0701C59.1794 40.7092 59.8518 41.1129 60.6587 41.2139C60.894 41.2475 61.1294 41.2475 61.3647 41.2139C62.7096 41.0793 63.7854 40.0701 63.9872 38.7245C64.0544 37.9844 63.8527 37.177 63.382 36.5378Z" fill="#93C01F"/>
<path d="M32.3665 27C32.2281 27 32.0927 27.0411 31.9776 27.118C31.8625 27.1949 31.7728 27.3042 31.7198 27.4321C31.6668 27.56 31.6529 27.7008 31.68 27.8366C31.707 27.9723 31.7736 28.0971 31.8715 28.195C31.9694 28.2929 32.0942 28.3595 32.2299 28.3865C32.3657 28.4136 32.5065 28.3997 32.6344 28.3467C32.7623 28.2937 32.8716 28.204 32.9485 28.0889C33.0254 27.9738 33.0665 27.8384 33.0665 27.7C33.0663 27.5144 32.9925 27.3365 32.8613 27.2052C32.73 27.074 32.5521 27.0002 32.3665 27Z" fill="#93C01F"/>
<path d="M36.5667 27C36.4283 27 36.2929 27.0411 36.1778 27.118C36.0627 27.1949 35.973 27.3042 35.92 27.4321C35.867 27.56 35.8531 27.7008 35.8801 27.8366C35.9072 27.9723 35.9738 28.0971 36.0717 28.195C36.1696 28.2929 36.2943 28.3595 36.4301 28.3865C36.5659 28.4136 36.7067 28.3997 36.8346 28.3467C36.9625 28.2937 37.0718 28.204 37.1487 28.0889C37.2256 27.9738 37.2667 27.8384 37.2667 27.7C37.2665 27.5144 37.1927 27.3365 37.0615 27.2052C36.9302 27.074 36.7523 27.0002 36.5667 27Z" fill="#93C01F"/>
<path d="M34.4669 29.8C34.3432 29.7999 34.2245 29.7507 34.1371 29.6632C34.0496 29.5757 34.0004 29.4571 34.0002 29.3334H33.0669C33.0669 29.7047 33.2144 30.0608 33.4769 30.3233C33.7395 30.5859 34.0956 30.7334 34.4669 30.7334C34.8382 30.7334 35.1943 30.5859 35.4568 30.3233C35.7194 30.0608 35.8669 29.7047 35.8669 29.3334H34.9336C34.9334 29.4571 34.8842 29.5757 34.7967 29.6632C34.7092 29.7507 34.5906 29.7999 34.4669 29.8Z" fill="#93C01F"/>
<path d="M47.835 36.9108C47.7832 36.867 47.7226 36.835 47.6573 36.817C47.5919 36.799 47.5235 36.7954 47.4566 36.8065L43.2375 37.5097C42.9599 37.5557 42.6942 37.6564 42.4559 37.8059L42.1343 36.9939C42.0074 36.6679 41.8263 36.3656 41.5988 36.0999L41.7205 34.9964C41.7517 34.7152 41.7682 34.4325 41.7698 34.1496C41.769 33.1155 41.5578 32.0924 41.1488 31.1426C40.7476 30.2023 40.5656 29.1829 40.6165 28.1618L40.6959 26.5465C40.7007 26.4447 40.7058 26.3394 40.7058 26.235C40.7033 24.5814 40.0451 22.9963 38.8755 21.8274C37.7058 20.6585 36.1203 20.0013 34.4667 20C33.6216 20.0002 32.7853 20.172 32.0086 20.5052C31.232 20.8383 30.5311 21.3258 29.9485 21.9381C29.366 22.5503 28.9139 23.2745 28.6197 24.0668C28.3256 24.859 28.1954 25.7028 28.2373 26.5469L28.3163 28.1569C28.321 28.2771 28.3253 28.3906 28.3253 28.5029C28.3269 29.4105 28.1429 30.3087 27.7844 31.1425C27.2628 32.3568 27.0658 33.6859 27.2127 34.9994L27.3341 36.0876C27.1929 36.2526 27.0691 36.4317 26.9645 36.6221L26.3275 35.0296C26.2587 34.8574 26.1558 34.701 26.025 34.5696C25.8942 34.4383 25.7382 34.3347 25.5664 34.2652C25.3946 34.1957 25.2104 34.1617 25.0251 34.1652C24.8398 34.1687 24.6571 34.2097 24.488 34.2856C24.3189 34.3616 24.1669 34.4709 24.0411 34.6071C23.9154 34.7433 23.8185 34.9035 23.7563 35.0781C23.6941 35.2527 23.6678 35.4381 23.6791 35.6232C23.6904 35.8082 23.739 35.989 23.8219 36.1548L23.9116 36.3333H22.9943C22.6321 36.3329 22.275 36.2486 21.9508 36.087L21.4858 35.8545C21.3293 35.7762 21.1554 35.7392 20.9805 35.7471C20.8057 35.755 20.6358 35.8074 20.4869 35.8994C20.3381 35.9914 20.2152 36.1199 20.13 36.2728C20.0447 36.4256 20 36.5977 20 36.7727V38.0898C19.9991 38.35 20.0712 38.6052 20.2079 38.8265C20.3447 39.0478 20.5408 39.2264 20.7739 39.342L21.5335 39.7218C21.9873 39.948 22.4873 40.066 22.9943 40.0666H23.2667V41.4486L22.9314 45.8066C22.9099 46.0865 22.9465 46.3678 23.0388 46.6329C23.1312 46.8979 23.2773 47.1411 23.468 47.347C23.6587 47.5529 23.8899 47.7172 24.1472 47.8296C24.4044 47.942 24.682 48 24.9627 48C24.9972 48 25.0316 47.9991 25.0657 47.9973C25.0955 47.9987 25.1252 47.9999 25.1547 47.9999C25.5399 48 25.9157 47.8816 26.2314 47.6609C26.547 47.4403 26.7872 47.1279 26.9193 46.7661L29.0496 42.8053C29.1765 43.3957 29.4328 43.9506 29.8 44.43V48H30.7333V44.2666C30.7333 44.1575 30.6951 44.0518 30.6252 43.9679C30.0865 43.32 29.8268 42.4849 29.9031 41.6457C29.9794 40.8066 30.3854 40.032 31.0321 39.4918L30.4345 38.7748C30.2219 38.9521 30.0276 39.1504 29.8548 39.3666C29.8372 39.3848 29.8211 39.4043 29.8065 39.425L29.8055 39.4244L29.7972 39.4389C29.7951 39.4422 29.7934 39.4458 29.7914 39.4491C29.5305 39.7928 29.3258 40.1756 29.1847 40.5833L27 44.6458V38.9762L27.6631 37.325C27.7742 37.0433 27.9412 36.787 28.1542 36.5718C28.3729 36.3496 28.6334 36.1729 28.9206 36.0519C29.2079 35.9309 29.5163 35.8679 29.828 35.8667H31.3896L34.057 40.7568C34.0971 40.8304 34.1564 40.8918 34.2285 40.9346C34.3005 40.9774 34.3828 41 34.4667 41C34.5505 41 34.6328 40.9774 34.7049 40.9346C34.777 40.8918 34.8362 40.8304 34.8763 40.7568L35.8667 38.9412V45.2C35.8667 45.3079 35.904 45.4124 35.9724 45.4958C36.0408 45.5793 36.136 45.6364 36.2418 45.6576L38.2 46.0492V48H39.1333V46.2359L40.9188 46.5924C40.9305 46.5945 40.9845 46.6 41 46.6H41.8829L41.9725 46.7669C42.1066 47.1287 42.3483 47.4407 42.665 47.6611C42.9816 47.8815 43.3582 47.9998 43.744 48C43.8471 48.0005 43.95 47.992 44.0516 47.9745C44.381 47.9186 44.6897 47.7763 44.9463 47.5623C45.2029 47.3482 45.3982 47.0701 45.5123 46.756L46.7534 46.5492C46.9634 46.5147 47.1551 46.4092 47.2967 46.2503C47.4382 46.0915 47.521 45.8889 47.5312 45.6763L47.6245 45.6576C47.7303 45.6365 47.8256 45.5794 47.8941 45.4959C47.9625 45.4125 48 45.3079 48 45.2V37.2667C47.9999 37.1989 47.9852 37.132 47.9567 37.0706C47.9282 37.0091 47.8866 36.9546 47.835 36.9108ZM32.4 35.7701C32.5982 35.6823 32.7666 35.5388 32.885 35.3572C33.0033 35.1755 33.0664 34.9634 33.0667 34.7467V33.3185C33.978 33.6049 34.9553 33.6049 35.8667 33.3185V34.7467C35.867 34.9634 35.9301 35.1754 36.0484 35.357C36.1667 35.5386 36.3351 35.682 36.5333 35.7699L35.9717 36.8H32.9617L32.4 35.7701ZM34.4667 32.6C33.4769 32.5989 32.5279 32.2052 31.828 31.5053C31.1281 30.8054 30.7344 29.8565 30.7333 28.8667V26.7774C31.5736 26.1703 32.2644 25.3795 32.7531 24.4652C34.3336 25.7304 36.2065 26.5783 38.2 26.9312V28.8667C38.1989 29.8565 37.8052 30.8054 37.1053 31.5053C36.4054 32.2052 35.4565 32.5989 34.4667 32.6ZM40.7734 36.5798L40.782 36.5886C40.9935 36.8014 41.1584 37.0559 41.2662 37.3359L41.4667 37.8421C41.2145 37.6726 40.9289 37.5592 40.6292 37.5096L36.9794 36.9013L37.5437 35.8667H39.1007C39.4132 35.8663 39.7226 35.9293 40.0101 36.0519C40.2976 36.1744 40.5572 36.354 40.7734 36.5798ZM41.0462 39.1333L38.9229 38.7087L36.7995 38.284V37.8174L40.4752 38.4299C40.6719 38.462 40.8572 38.5434 41.014 38.6664C41.1707 38.7894 41.2939 38.95 41.3719 39.1333H41.0462ZM43.3912 38.4302L47.0667 37.8175V38.2842L44.8717 38.7232L42.8205 39.1333H42.4947C42.5728 38.9501 42.6959 38.7896 42.8526 38.6666C43.0093 38.5437 43.1945 38.4624 43.391 38.4302H43.3912ZM21.9508 38.887L21.1913 38.5072C21.1136 38.4687 21.0482 38.4092 21.0027 38.3354C20.9571 38.2616 20.933 38.1765 20.9333 38.0898V36.7727C20.933 36.7568 20.9369 36.741 20.9446 36.727C20.9524 36.713 20.9638 36.7014 20.9776 36.6933C20.991 36.6846 21.0065 36.6796 21.0224 36.6789C21.0384 36.6781 21.0543 36.6817 21.0684 36.6893L21.5335 36.9218C21.9873 37.148 22.4873 37.266 22.9943 37.2667H24.6667C24.7462 37.2666 24.8244 37.2463 24.8939 37.2076C24.9634 37.1688 25.0218 37.113 25.0636 37.0453C25.1055 36.9776 25.1293 36.9004 25.1328 36.8209C25.1364 36.7415 25.1196 36.6624 25.084 36.5913L24.6569 35.7368C24.6273 35.6777 24.6114 35.6128 24.6103 35.5467C24.6092 35.4807 24.623 35.4152 24.6506 35.3552C24.6782 35.2952 24.7189 35.2422 24.7698 35.2C24.8206 35.1579 24.8803 35.1277 24.9444 35.1116C25.0479 35.0861 25.1571 35.0988 25.2519 35.1473C25.3468 35.1958 25.421 35.2769 25.4609 35.3757L26.0667 36.8899V39.1333H22.9943C22.6321 39.1329 22.275 39.0486 21.9508 38.887ZM26.0667 40.0666V41H24.2V40.0666H26.0667ZM23.8621 45.878L24.1655 41.9333H26.0667V45.9627C26.0662 46.2414 25.9605 46.5096 25.7705 46.7136C25.5806 46.9176 25.3206 47.0423 25.0426 47.0626C25.0251 47.0625 25.0076 47.0634 24.9901 47.0652C24.9809 47.0652 24.972 47.0666 24.9627 47.0666C24.8106 47.0667 24.6601 47.0352 24.5207 46.9743C24.3814 46.9135 24.2561 46.8244 24.1527 46.7128C24.0494 46.6012 23.9702 46.4694 23.9202 46.3258C23.8702 46.1821 23.8504 46.0297 23.8621 45.878ZM29.8075 39.4256C29.8168 39.4131 29.8267 39.401 29.8372 39.3895C29.8276 39.4017 29.8183 39.4141 29.8089 39.4263L29.8075 39.4256ZM28.1939 35.3742L28.1404 34.8946C28.0114 33.742 28.1843 32.5757 28.642 31.5101C29.0505 30.5602 29.2604 29.5367 29.2587 28.5027C29.2587 28.3723 29.2538 28.2444 29.2487 28.1157L29.1694 26.5008C29.1343 25.7941 29.2409 25.0875 29.4831 24.4226C29.7252 23.7577 30.0978 23.148 30.5791 22.6293C31.0604 22.1106 31.6407 21.6934 32.2856 21.4024C32.9306 21.1113 33.6273 20.9522 34.3346 20.9344C35.042 20.9167 35.7458 21.0406 36.4046 21.299C37.0633 21.5573 37.6637 21.9448 38.1705 22.4387C38.6772 22.9326 39.08 23.5229 39.3551 24.1748C39.6303 24.8267 39.7723 25.5271 39.7727 26.2347C39.7727 26.3169 39.7684 26.4067 39.7639 26.5011L39.6846 28.1147C39.6267 29.2775 39.834 30.4383 40.2908 31.5092C40.6501 32.343 40.8358 33.2413 40.8367 34.1493C40.8351 34.3988 40.8204 34.648 40.7928 34.896L40.7398 35.3769C40.2421 35.087 39.6766 34.934 39.1007 34.9333H36.9867C36.9374 34.9327 36.8903 34.9128 36.8554 34.8779C36.8205 34.8431 36.8006 34.796 36.8 34.7467V32.9055C37.5089 32.496 38.0977 31.9073 38.5072 31.1984C38.9168 30.4895 39.1327 29.6854 39.1333 28.8667V26.5333C39.1333 26.421 39.0928 26.3124 39.0192 26.2275C38.9456 26.1427 38.8438 26.0872 38.7326 26.0713C36.6826 25.7789 34.7544 24.9217 33.1638 23.5957L32.8988 23.3748C32.8447 23.3298 32.7812 23.2975 32.7129 23.2805C32.6446 23.2635 32.5734 23.2621 32.5045 23.2765C32.4356 23.2909 32.3709 23.3207 32.3151 23.3637C32.2594 23.4067 32.2141 23.4617 32.1826 23.5246L32.0018 23.8863C31.5446 24.7996 30.8574 25.5781 30.0078 26.145C29.9439 26.1876 29.8915 26.2454 29.8552 26.3131C29.819 26.3808 29.8 26.4565 29.8 26.5333V28.8667C29.8006 29.6854 30.0165 30.4895 30.4261 31.1984C30.8356 31.9073 31.4244 32.496 32.1333 32.9055V34.7467C32.1327 34.796 32.1128 34.8431 32.0779 34.8779C32.0431 34.9128 31.996 34.9327 31.9467 34.9333H29.828C29.2541 34.9351 28.6908 35.0871 28.1939 35.3742ZM34.4667 39.5587L33.471 37.7333H35.4624L34.4667 39.5587ZM36.8 39.2359L40.5333 39.9826V45.564L36.8 44.8174V39.2359ZM41.4667 40.0666H42.4V45.6666H41.4667V40.0666ZM43.8915 47.055C43.8427 47.0632 43.7934 47.0671 43.744 47.0666C43.5779 47.0665 43.4146 47.023 43.2704 46.9406C43.1262 46.8581 43.0059 46.7395 42.9215 46.5964C42.9303 46.5954 42.939 46.594 42.9477 46.5924C42.9511 46.5918 42.9546 46.5916 42.958 46.5909H42.9588L42.962 46.5903L43.9213 46.3984C44.0256 46.5853 44.1918 46.73 44.3912 46.8076C44.2523 46.9371 44.0786 47.0231 43.8915 47.055ZM46.6 45.6285L44.7333 45.9396V44.2051C44.7332 44.1718 44.7451 44.1395 44.7666 44.114C44.7882 44.0886 44.8181 44.0716 44.851 44.0662L46.4361 43.802C46.444 43.8007 46.452 43.8 46.46 43.8C46.4972 43.8002 46.5328 43.8152 46.559 43.8416C46.5853 43.868 46.6 43.9037 46.6 43.9409L46.6003 45.6284L46.6 45.6285ZM46.2825 42.8814L44.6975 43.1455C44.4464 43.1867 44.2182 43.316 44.0537 43.5101C43.8893 43.7043 43.7993 43.9507 43.8 44.2051V45.4709L43.3333 45.5643V39.9826L47.0667 39.2359V43.0555C46.8378 42.898 46.5566 42.8355 46.2826 42.8814H46.2825Z" fill="#93C01F"/>
</svg>
