<svg width="68" height="68" viewBox="0 0 68 68" fill="none" xmlns="http://www.w3.org/2000/svg">
<rect width="68" height="68" rx="34" fill="white"/>
<path d="M61.0294 45.8227C60.7941 45.0826 60.2898 44.4771 59.5837 44.107C58.1716 43.367 56.3897 43.9388 55.65 45.3518C55.2802 46.0582 55.213 46.8319 55.4483 47.6057C55.6837 48.3458 56.188 48.9513 56.894 49.3213C57.3983 49.5905 57.9699 49.6914 58.5415 49.6577C59.5165 49.5568 60.3906 48.9849 60.8613 48.1103C61.1975 47.3702 61.2648 46.5628 61.0294 45.8227Z" fill="#93C01F"/>
<path d="M53.1638 50.6333H53.1302C52.3905 50.6333 51.6509 50.9361 51.1129 51.4743C50.5414 52.0126 50.2388 52.7527 50.2388 53.5264C50.2388 54.3001 50.5414 55.0402 51.0793 55.6121C51.7181 56.2513 52.5586 56.554 53.4664 56.4868C54.1388 56.4195 54.744 56.1167 55.2147 55.6794C55.7863 55.1411 56.0888 54.3674 56.0888 53.5937C56.0888 52.8199 55.7862 52.0798 55.2483 51.508C54.6768 50.9361 53.9371 50.6333 53.1638 50.6333Z" fill="#93C01F"/>
<path d="M44.9244 55.8807C44.1847 56.2508 43.6804 56.8563 43.4114 57.5964C43.1761 58.3365 43.2097 59.1438 43.5795 59.8503C43.9158 60.5568 44.5209 61.095 45.2942 61.3305C45.6977 61.465 46.1011 61.4987 46.5046 61.465C46.8744 61.4314 47.2106 61.3305 47.5132 61.1623C48.2192 60.8259 48.7572 60.1867 48.9925 59.4466C49.2279 58.7065 49.1606 57.8991 48.8244 57.2263C48.0848 55.7461 46.3365 55.1743 44.9244 55.8807Z" fill="#FFEC00"/>
<path d="M39.7785 58.7069C39.1397 58.2695 38.4 58.0677 37.6267 58.1686C36.0129 58.4041 34.9371 59.9179 35.1724 61.499C35.4077 63.0465 36.8198 64.123 38.3664 63.9884C38.4 63.9884 38.4673 63.9884 38.5009 63.9548C39.2742 63.8539 39.9802 63.4165 40.4509 62.7774C40.9216 62.1382 41.0897 61.3645 40.9888 60.5907C40.8207 59.8506 40.4173 59.1442 39.7785 58.7069Z" fill="#FFEC00"/>
<path d="M30.166 58.1352C29.3927 58.0006 28.6194 58.2025 27.9806 58.6398C27.3418 59.1108 26.9384 59.7836 26.8039 60.5573C26.6694 61.3311 26.8711 62.1048 27.3082 62.744C27.7789 63.3831 28.4513 63.7868 29.2246 63.9214C29.4936 63.955 29.7289 63.955 29.9979 63.955C30.5358 63.8877 31.0065 63.7195 31.4436 63.4168C32.0824 62.9458 32.4858 62.273 32.6203 61.4993C32.8221 59.9182 31.7462 58.4043 30.166 58.1352Z" fill="#FFEC00"/>
<path d="M24.1812 57.3948C23.9459 56.6547 23.4415 56.0491 22.7355 55.7127C22.0295 55.3427 21.2562 55.2754 20.4829 55.5109C19.7432 55.7464 19.138 56.251 18.7682 56.9574C18.3984 57.6639 18.3311 58.4376 18.5665 59.2114C18.8018 59.9515 19.3061 60.557 20.0122 60.927C20.5165 61.1961 21.0881 61.2971 21.6596 61.2298C21.8614 61.1962 22.0631 61.1625 22.2648 61.0952C23.0045 60.8597 23.6096 60.3215 23.9459 59.6487C24.3829 58.9422 24.4502 58.1685 24.1812 57.3948Z" fill="#FFEC00"/>
<path d="M14.5305 50.3303C13.7572 50.3303 13.0176 50.6331 12.4796 51.1713C11.9081 51.7432 11.6055 52.4833 11.6055 53.257C11.6055 54.0308 11.9081 54.7709 12.446 55.3091C12.9839 55.881 13.7572 56.1838 14.5641 56.1838C14.665 56.1838 14.7322 56.1838 14.8331 56.1838C15.5055 56.1165 16.1443 55.8137 16.615 55.3428C17.7581 54.199 17.7581 52.3488 16.615 51.205C16.0771 50.6331 15.3374 50.3303 14.5305 50.3303Z" fill="#F29100"/>
<path d="M12.1798 45.0151C11.81 44.3087 11.2048 43.804 10.4652 43.5349C9.72549 43.2994 8.91859 43.3667 8.21254 43.7031C7.5065 44.0395 7.00219 44.6451 6.73322 45.4188C6.49787 46.1589 6.53149 46.9663 6.90132 47.6391C7.23753 48.3455 7.87633 48.8838 8.616 49.1193C8.98583 49.2538 9.38928 49.2875 9.79274 49.2538C10.1626 49.2202 10.5324 49.1193 10.835 48.9511C12.3143 48.211 12.8859 46.4617 12.1798 45.0151Z" fill="#F29100"/>
<path d="M7.40359 41.1126C8.98378 40.8435 10.0933 39.3633 9.82431 37.7822C9.72344 36.9748 9.31999 36.302 8.68119 35.8311C8.04239 35.3601 7.26911 35.1919 6.49582 35.2928C5.72254 35.4274 5.01649 35.8311 4.57942 36.4702C4.10872 37.1094 3.94062 37.8831 4.0751 38.6232C4.20959 39.397 4.61304 40.1034 5.25184 40.5744C5.8234 40.9781 6.52944 41.1799 7.23548 41.1126C7.30273 41.1126 7.36997 41.1126 7.40359 41.1126Z" fill="#F29100"/>
<path d="M6.49524 32.5686C6.76421 32.6022 6.99956 32.6359 7.2349 32.6022C7.77284 32.5349 8.24354 32.3667 8.68061 32.0303C9.28579 31.5594 9.72286 30.8866 9.82373 30.1128C10.0927 28.5317 8.9832 27.0179 7.40301 26.7488C5.82282 26.4796 4.30987 27.5898 4.0409 29.1709C3.90642 29.9446 4.10814 30.752 4.57884 31.3912C5.04953 32.064 5.75558 32.4677 6.49524 32.5686Z" fill="#F29100"/>
<path d="M8.27805 24.1583C8.78236 24.3938 9.3203 24.5284 9.89186 24.4611C10.9005 24.3602 11.7746 23.7547 12.2117 22.88L12.2453 22.8464C12.9514 21.3998 12.3798 19.6841 10.9341 18.9441C9.48841 18.204 7.74011 18.7759 7.00044 20.2224C6.63061 20.9288 6.59699 21.7362 6.83234 22.4763C7.06769 23.2164 7.60562 23.8219 8.27805 24.1583Z" fill="#E5332A"/>
<path d="M14.9019 17.5639C15.5744 17.4966 16.2132 17.1939 16.6839 16.7229C17.2554 16.151 17.558 15.4446 17.558 14.6372C17.558 13.8634 17.2554 13.1234 16.6839 12.5515C16.1459 12.0132 15.4063 11.7104 14.633 11.7104C13.8597 11.7104 13.12 12.0132 12.5485 12.5851C12.0105 13.1234 11.6743 13.8971 11.6743 14.7045C11.6743 15.4782 11.9769 16.2183 12.5485 16.7565C13.1873 17.3284 14.0278 17.6312 14.9019 17.5639Z" fill="#E5332A"/>
<path d="M22.8668 12.2157C23.5729 11.8457 24.0772 11.2401 24.3126 10.5C24.5479 9.75994 24.4807 8.95256 24.1445 8.24611C23.7746 7.5733 23.1694 7.03505 22.4298 6.79957C21.6901 6.56408 20.8832 6.63136 20.1772 6.96777C19.4711 7.33782 18.9332 7.94335 18.6978 8.71708C18.4625 9.45717 18.5297 10.2645 18.8996 10.9374C19.2694 11.6438 19.8746 12.1484 20.6142 12.3839C20.9841 12.5185 21.3875 12.5521 21.791 12.5185C22.1944 12.4848 22.5306 12.3839 22.8668 12.2157Z" fill="#E5332A"/>
<path d="M32.5181 6.49627C32.3836 5.72254 31.9801 5.04973 31.3413 4.57876C30.7025 4.10779 29.9293 3.93959 29.156 4.07415C28.3827 4.20871 27.6766 4.64604 27.2396 5.28521C26.7689 5.92438 26.6008 6.69811 26.7353 7.47185C26.9706 8.98567 28.3827 10.0622 29.9293 9.92761C29.9965 9.92761 30.0637 9.92761 30.0974 9.89397C31.7112 9.5912 32.7871 8.07738 32.5181 6.49627Z" fill="#E5332A"/>
<path d="M41.1918 7.37134C41.4271 5.79023 40.3512 4.27641 38.7374 4.04092C37.9641 3.90636 37.1572 4.1082 36.5521 4.57917C35.9133 5.05014 35.5098 5.72295 35.4089 6.49668C35.1736 8.07779 36.2831 9.59162 37.8633 9.8271C38.0986 9.86074 38.3676 9.86074 38.6029 9.86074C39.9142 9.72618 40.99 8.71696 41.1918 7.37134Z" fill="#D9D9D9"/>
<path d="M48.9285 10.8363C49.6682 9.38975 49.063 7.64045 47.6173 6.90035L47.5837 6.86671C46.8776 6.53031 46.0707 6.49667 45.3647 6.73215C44.625 6.96764 44.0198 7.50588 43.6836 8.21234C42.9776 9.65888 43.5491 11.4082 44.9948 12.1483C45.4991 12.3838 46.0371 12.5183 46.6086 12.451C47.5836 12.3501 48.4578 11.7446 48.9285 10.8363Z" fill="#D9D9D9"/>
<path d="M53.5319 17.4298C54.2043 17.3625 54.8431 17.0597 55.3138 16.5888C56.4569 15.445 56.4233 13.5948 55.2802 12.451C54.7086 11.9127 53.969 11.5763 53.162 11.61C52.3888 11.61 51.6491 11.9464 51.1112 12.4846C50.0017 13.6284 50.0017 15.4786 51.1448 16.6224C51.8172 17.2279 52.6577 17.5307 53.5319 17.4298Z" fill="#D9D9D9"/>
<path d="M55.717 22.7451C56.2885 23.8216 57.398 24.4272 58.6084 24.3262C58.9782 24.2926 59.3481 24.1917 59.6843 24.0235C61.13 23.2834 61.6679 21.5004 60.9282 20.0539C60.5584 19.3474 59.9196 18.8428 59.18 18.6073C58.4403 18.3719 57.6334 18.4391 56.961 18.8092C55.5153 19.5493 54.9773 21.2986 55.717 22.7451Z" fill="#D9D9D9"/>
<path d="M63.8863 29.0027C63.7518 28.229 63.3148 27.5225 62.676 27.0852C62.0372 26.6478 61.2639 26.446 60.4906 26.6142C59.7173 26.7488 59.0449 27.1861 58.5742 27.8253C58.1371 28.4644 57.969 29.2382 58.0699 29.9783C58.2044 30.752 58.6078 31.4248 59.2466 31.8958C59.8182 32.2995 60.5242 32.5013 61.2303 32.434C61.2975 32.434 61.3647 32.434 61.432 32.4004C62.2053 32.2658 62.8777 31.8285 63.3484 31.1893C63.8527 30.5501 64.0208 29.7764 63.8863 29.0027Z" fill="#93C01F"/>
<path d="M63.382 36.5378C62.9113 35.8986 62.2389 35.495 61.4656 35.394C59.8854 35.1586 58.4061 36.2687 58.1707 37.8834C58.0699 38.6572 58.238 39.4309 58.7087 40.0701C59.1794 40.7092 59.8518 41.1129 60.6587 41.2139C60.894 41.2475 61.1294 41.2475 61.3647 41.2139C62.7096 41.0793 63.7854 40.0701 63.9872 38.7245C64.0544 37.9844 63.8527 37.177 63.382 36.5378Z" fill="#93C01F"/>
<path d="M21.399 47.9798H39.1195C39.8923 47.9798 40.5186 47.3535 40.5186 46.5809V44.7155C40.5186 44.4581 40.3099 44.2493 40.0523 44.2493C39.7946 44.2493 39.5859 44.4581 39.5859 44.7155V46.5809C39.5859 46.8385 39.3771 47.0473 39.1195 47.0473H21.399C21.1413 47.0473 20.9326 46.8385 20.9326 46.5809V21.399C20.9326 21.1413 21.1413 20.9326 21.399 20.9326C22.1716 20.9326 22.7979 21.5589 22.7979 22.3317V23.7307C22.7979 24.2457 23.2155 24.6633 23.7307 24.6633H39.5859V27.4614C39.5859 27.7188 39.7946 27.9276 40.0523 27.9276C40.3099 27.9276 40.5186 27.7188 40.5186 27.4614V24.6633H42.3838C42.899 24.6633 43.3166 24.2457 43.3166 23.7307V22.3317C43.315 21.0446 42.272 20.0015 40.9848 20H21.399C20.6263 20 20 20.6263 20 21.399V46.5809C20 47.3535 20.6263 47.9798 21.399 47.9798ZM40.9848 20.9326C41.7574 20.9326 42.3838 21.5589 42.3838 22.3317V23.7307H23.7307V22.3317C23.729 21.8254 23.5608 21.3339 23.2522 20.9326H40.9848Z" fill="#93C01F"/>
<path d="M28.394 28.8604C28.6516 28.8604 28.8604 28.6516 28.8604 28.394V27.4614C28.8604 26.6886 28.2338 26.0623 27.4612 26.0623H23.7307C22.9579 26.0623 22.3315 26.6886 22.3315 27.4614V31.1919C22.3315 31.9645 22.9579 32.5909 23.7307 32.5909H26.0622C26.3199 32.5909 26.5286 32.3821 26.5286 32.1247C26.5286 31.8671 26.3199 31.6583 26.0622 31.6583H23.7307C23.4731 31.6583 23.2643 31.4495 23.2643 31.1919V27.4614C23.2643 27.2038 23.4731 26.995 23.7307 26.995H27.4612C27.7188 26.995 27.9276 27.2038 27.9276 27.4614V28.394C27.9276 28.6516 28.1364 28.8604 28.394 28.8604Z" fill="#93C01F"/>
<path d="M22.7979 34.9226H26.0622C26.3199 34.9226 26.5286 34.7138 26.5286 34.4562C26.5286 34.1988 26.3199 33.99 26.0622 33.99H22.7979C22.5403 33.99 22.3315 34.1988 22.3315 34.4562C22.3315 34.7138 22.5403 34.9226 22.7979 34.9226Z" fill="#93C01F"/>
<path d="M22.7979 36.7879H26.0622C26.3199 36.7879 26.5286 36.5791 26.5286 36.3215C26.5286 36.0641 26.3199 35.8553 26.0622 35.8553H22.7979C22.5403 35.8553 22.3315 36.0641 22.3315 36.3215C22.3315 36.5791 22.5403 36.7879 22.7979 36.7879Z" fill="#93C01F"/>
<path d="M22.7979 38.6532H26.0622C26.3199 38.6532 26.5286 38.4445 26.5286 38.1869C26.5286 37.9292 26.3199 37.7205 26.0622 37.7205H22.7979C22.5403 37.7205 22.3315 37.9292 22.3315 38.1869C22.3315 38.4445 22.5403 38.6532 22.7979 38.6532Z" fill="#93C01F"/>
<path d="M22.7979 40.5186H27.4612C27.7188 40.5186 27.9276 40.3098 27.9276 40.0522C27.9276 39.7946 27.7188 39.5858 27.4612 39.5858H22.7979C22.5403 39.5858 22.3315 39.7946 22.3315 40.0522C22.3315 40.3098 22.5403 40.5186 22.7979 40.5186Z" fill="#93C01F"/>
<path d="M27.4614 41.9176C27.4614 42.1752 27.6702 42.384 27.9278 42.384H29.7932C30.0508 42.384 30.2596 42.1752 30.2596 41.9176C30.2596 41.66 30.0508 41.4512 29.7932 41.4512H27.9278C27.6702 41.4512 27.4614 41.66 27.4614 41.9176Z" fill="#93C01F"/>
<path d="M22.7979 42.384H26.0622C26.3199 42.384 26.5286 42.1752 26.5286 41.9176C26.5286 41.66 26.3199 41.4512 26.0622 41.4512H22.7979C22.5403 41.4512 22.3315 41.66 22.3315 41.9176C22.3315 42.1752 22.5403 42.384 22.7979 42.384Z" fill="#93C01F"/>
<path d="M22.7979 44.2493H37.7205C37.9781 44.2493 38.1869 44.0403 38.1869 43.7829C38.1869 43.5253 37.9781 43.3165 37.7205 43.3165H22.7979C22.5403 43.3165 22.3315 43.5253 22.3315 43.7829C22.3315 44.0403 22.5403 44.2493 22.7979 44.2493Z" fill="#93C01F"/>
<path d="M38.7822 30.5959C36.577 28.3928 33.023 28.3325 30.7444 30.4594C28.4656 32.5865 28.2813 36.1362 30.3275 38.4877C30.4073 38.581 30.4974 38.678 30.597 38.7828C32.8608 41.0345 36.5184 41.0345 38.7822 38.7828C41.0347 36.5188 41.0347 32.8601 38.7822 30.5959ZM38.1233 38.1231C36.228 40.0099 33.1653 40.014 31.2648 38.1324C31.1875 38.0503 31.1096 37.9681 31.035 37.88C29.3009 35.8922 29.4722 32.8834 31.4204 31.1048C33.3687 29.3265 36.3806 29.4298 38.2025 31.3373C40.0245 33.2449 39.9893 36.2586 38.1233 38.1231Z" fill="#93C01F"/>
<path d="M42.2907 40.2645L41.0632 39.037C43.0796 36.0865 42.8047 32.1371 40.3987 29.4945C40.3186 29.4049 40.2338 29.3151 40.1489 29.2302C37.1318 26.2198 32.2472 26.2198 29.23 29.2302C28.7445 29.7122 28.3276 30.2589 27.991 30.8549C27.8135 31.1609 27.6577 31.4788 27.5249 31.8065C26.3718 34.6782 27.0435 37.961 29.232 40.1489L29.303 40.222C29.3616 40.2825 29.4195 40.3429 29.4805 40.3965C30.754 41.5543 32.3778 42.2538 34.0941 42.384C34.2918 42.4016 34.4919 42.4105 34.6909 42.4105C34.8901 42.4105 35.0854 42.4016 35.2795 42.3845C36.609 42.2855 37.8899 41.8423 38.9961 41.0984L40.2327 42.4198C40.1836 42.7017 40.265 42.9906 40.4538 43.2057L44.0031 47.2283C44.4209 47.6997 45.014 47.9788 45.6436 48H45.7146C46.6636 47.9987 47.5131 47.4112 47.849 46.5236C48.1848 45.636 47.9369 44.6331 47.2264 44.0039L43.2042 40.4546C42.9542 40.2352 42.6074 40.163 42.2907 40.2645ZM40.7713 41.627L39.7413 40.5265C39.8811 40.4039 40.0211 40.2789 40.1493 40.1489C40.2663 40.0323 40.3792 39.911 40.4912 39.7836L41.5524 40.8451L40.7713 41.627ZM35.2024 41.4512C34.8584 41.4814 34.5125 41.4814 34.1685 41.4512C32.656 41.3382 31.2247 40.7227 30.1023 39.7024C30.0556 39.6614 30.015 39.6176 29.9725 39.5744L29.8885 39.488C27.965 37.5647 27.374 34.6795 28.3864 32.1549C28.5045 31.8658 28.6428 31.5854 28.8001 31.3156C29.0957 30.7919 29.462 30.3117 29.8885 29.888C32.5414 27.242 36.8355 27.242 39.4885 29.888C39.5612 29.9614 39.6339 30.0388 39.7036 30.1157L39.7068 30.1194C41.9155 32.5418 42.0765 36.1968 40.0892 38.8039C39.9034 39.0442 39.7027 39.2727 39.4885 39.488C39.2743 39.7013 39.0471 39.901 38.8077 40.0859C37.7642 40.8818 36.5113 41.3562 35.2024 41.4512ZM47.0645 45.6716C47.0803 46.2397 46.7392 46.7573 46.2107 46.9668C45.6822 47.176 45.0791 47.0325 44.7017 46.6076L41.1529 42.5611L42.5859 41.1515L46.6081 44.7006C46.89 44.9465 47.056 45.2994 47.0654 45.6735L47.0645 45.6716Z" fill="#93C01F"/>
<path d="M34.6492 31.2339C34.5364 31.1827 34.4079 31.1788 34.2922 31.2224C34.1763 31.2663 34.0826 31.3542 34.0318 31.467L31.7 36.5967C31.6267 36.749 31.6414 36.9292 31.7387 37.0674C31.8359 37.2059 32.0004 37.2808 32.1686 37.2632C32.3368 37.2456 32.4822 37.1382 32.5488 36.9828L34.8806 31.8531C34.9322 31.7405 34.937 31.6118 34.8936 31.4955C34.8502 31.3791 34.7621 31.2852 34.6492 31.2339Z" fill="#93C01F"/>
<path d="M32.7996 31.241C32.689 31.1857 32.5607 31.1766 32.4435 31.2158C32.3261 31.2549 32.2291 31.3391 32.1737 31.45L30.7748 34.2479C30.6598 34.4784 30.7533 34.7586 30.9838 34.8736C31.2143 34.9889 31.4944 34.8953 31.6095 34.6648L33.0084 31.8669C33.0638 31.7562 33.0729 31.628 33.0338 31.5106C32.9945 31.3931 32.9103 31.2961 32.7996 31.241Z" fill="#93C01F"/>
</svg>
