<svg width="68" height="68" viewBox="0 0 68 68" fill="none" xmlns="http://www.w3.org/2000/svg">
<rect width="68" height="68" rx="34" fill="white"/>
<path d="M61.0294 45.8227C60.7941 45.0826 60.2898 44.4771 59.5837 44.107C58.1716 43.367 56.3897 43.9388 55.65 45.3518C55.2802 46.0582 55.213 46.8319 55.4483 47.6057C55.6837 48.3458 56.188 48.9513 56.894 49.3213C57.3983 49.5905 57.9699 49.6914 58.5415 49.6577C59.5165 49.5568 60.3906 48.9849 60.8613 48.1103C61.1975 47.3702 61.2648 46.5628 61.0294 45.8227Z" fill="#93C01F"/>
<path d="M53.1638 50.6333H53.1302C52.3905 50.6333 51.6509 50.9361 51.1129 51.4743C50.5414 52.0126 50.2388 52.7527 50.2388 53.5264C50.2388 54.3001 50.5414 55.0402 51.0793 55.6121C51.7181 56.2513 52.5586 56.554 53.4664 56.4868C54.1388 56.4195 54.744 56.1167 55.2147 55.6794C55.7863 55.1411 56.0888 54.3674 56.0888 53.5937C56.0888 52.8199 55.7862 52.0798 55.2483 51.508C54.6768 50.9361 53.9371 50.6333 53.1638 50.6333Z" fill="#93C01F"/>
<path d="M44.9244 55.8807C44.1847 56.2508 43.6804 56.8563 43.4114 57.5964C43.1761 58.3365 43.2097 59.1438 43.5795 59.8503C43.9158 60.5568 44.5209 61.095 45.2942 61.3305C45.6977 61.465 46.1011 61.4987 46.5046 61.465C46.8744 61.4314 47.2106 61.3305 47.5132 61.1623C48.2192 60.8259 48.7572 60.1867 48.9925 59.4466C49.2279 58.7065 49.1606 57.8991 48.8244 57.2263C48.0848 55.7461 46.3365 55.1743 44.9244 55.8807Z" fill="#FFEC00"/>
<path d="M39.7785 58.7069C39.1397 58.2695 38.4 58.0677 37.6267 58.1686C36.0129 58.4041 34.9371 59.9179 35.1724 61.499C35.4077 63.0465 36.8198 64.123 38.3664 63.9884C38.4 63.9884 38.4673 63.9884 38.5009 63.9548C39.2742 63.8539 39.9802 63.4165 40.4509 62.7774C40.9216 62.1382 41.0897 61.3645 40.9888 60.5907C40.8207 59.8506 40.4173 59.1442 39.7785 58.7069Z" fill="#FFEC00"/>
<path d="M30.166 58.1352C29.3927 58.0006 28.6194 58.2025 27.9806 58.6398C27.3418 59.1108 26.9384 59.7836 26.8039 60.5573C26.6694 61.3311 26.8711 62.1048 27.3082 62.744C27.7789 63.3831 28.4513 63.7868 29.2246 63.9214C29.4936 63.955 29.7289 63.955 29.9979 63.955C30.5358 63.8877 31.0065 63.7195 31.4436 63.4168C32.0824 62.9458 32.4858 62.273 32.6203 61.4993C32.8221 59.9182 31.7462 58.4043 30.166 58.1352Z" fill="#FFEC00"/>
<path d="M24.1812 57.3948C23.9459 56.6547 23.4415 56.0491 22.7355 55.7127C22.0295 55.3427 21.2562 55.2754 20.4829 55.5109C19.7432 55.7464 19.138 56.251 18.7682 56.9574C18.3984 57.6639 18.3311 58.4376 18.5665 59.2114C18.8018 59.9515 19.3061 60.557 20.0122 60.927C20.5165 61.1961 21.0881 61.2971 21.6596 61.2298C21.8614 61.1962 22.0631 61.1625 22.2648 61.0952C23.0045 60.8597 23.6096 60.3215 23.9459 59.6487C24.3829 58.9422 24.4502 58.1685 24.1812 57.3948Z" fill="#FFEC00"/>
<path d="M14.5305 50.3303C13.7572 50.3303 13.0176 50.6331 12.4796 51.1713C11.9081 51.7432 11.6055 52.4833 11.6055 53.257C11.6055 54.0308 11.9081 54.7709 12.446 55.3091C12.9839 55.881 13.7572 56.1838 14.5641 56.1838C14.665 56.1838 14.7322 56.1838 14.8331 56.1838C15.5055 56.1165 16.1443 55.8137 16.615 55.3428C17.7581 54.199 17.7581 52.3488 16.615 51.205C16.0771 50.6331 15.3374 50.3303 14.5305 50.3303Z" fill="#F29100"/>
<path d="M12.1798 45.0151C11.81 44.3087 11.2048 43.804 10.4652 43.5349C9.72549 43.2994 8.91859 43.3667 8.21254 43.7031C7.5065 44.0395 7.00219 44.6451 6.73322 45.4188C6.49787 46.1589 6.53149 46.9663 6.90132 47.6391C7.23753 48.3455 7.87633 48.8838 8.616 49.1193C8.98583 49.2538 9.38928 49.2875 9.79274 49.2538C10.1626 49.2202 10.5324 49.1193 10.835 48.9511C12.3143 48.211 12.8859 46.4617 12.1798 45.0151Z" fill="#F29100"/>
<path d="M7.40359 41.1126C8.98378 40.8435 10.0933 39.3633 9.82431 37.7822C9.72344 36.9748 9.31999 36.302 8.68119 35.8311C8.04239 35.3601 7.26911 35.1919 6.49582 35.2928C5.72254 35.4274 5.01649 35.8311 4.57942 36.4702C4.10872 37.1094 3.94062 37.8831 4.0751 38.6232C4.20959 39.397 4.61304 40.1034 5.25184 40.5744C5.8234 40.9781 6.52944 41.1799 7.23548 41.1126C7.30273 41.1126 7.36997 41.1126 7.40359 41.1126Z" fill="#F29100"/>
<path d="M6.49524 32.5686C6.76421 32.6022 6.99956 32.6359 7.2349 32.6022C7.77284 32.5349 8.24354 32.3667 8.68061 32.0303C9.28579 31.5594 9.72286 30.8866 9.82373 30.1128C10.0927 28.5317 8.9832 27.0179 7.40301 26.7488C5.82282 26.4796 4.30987 27.5898 4.0409 29.1709C3.90642 29.9446 4.10814 30.752 4.57884 31.3912C5.04953 32.064 5.75558 32.4677 6.49524 32.5686Z" fill="#F29100"/>
<path d="M8.27805 24.1583C8.78236 24.3938 9.3203 24.5284 9.89186 24.4611C10.9005 24.3602 11.7746 23.7547 12.2117 22.88L12.2453 22.8464C12.9514 21.3998 12.3798 19.6841 10.9341 18.9441C9.48841 18.204 7.74011 18.7759 7.00044 20.2224C6.63061 20.9288 6.59699 21.7362 6.83234 22.4763C7.06769 23.2164 7.60562 23.8219 8.27805 24.1583Z" fill="#E5332A"/>
<path d="M14.9019 17.5639C15.5744 17.4966 16.2132 17.1939 16.6839 16.7229C17.2554 16.151 17.558 15.4446 17.558 14.6372C17.558 13.8634 17.2554 13.1234 16.6839 12.5515C16.1459 12.0132 15.4063 11.7104 14.633 11.7104C13.8597 11.7104 13.12 12.0132 12.5485 12.5851C12.0105 13.1234 11.6743 13.8971 11.6743 14.7045C11.6743 15.4782 11.9769 16.2183 12.5485 16.7565C13.1873 17.3284 14.0278 17.6312 14.9019 17.5639Z" fill="#E5332A"/>
<path d="M22.8668 12.2157C23.5729 11.8457 24.0772 11.2401 24.3126 10.5C24.5479 9.75994 24.4807 8.95256 24.1445 8.24611C23.7746 7.5733 23.1694 7.03505 22.4298 6.79957C21.6901 6.56408 20.8832 6.63136 20.1772 6.96777C19.4711 7.33782 18.9332 7.94335 18.6978 8.71708C18.4625 9.45717 18.5297 10.2645 18.8996 10.9374C19.2694 11.6438 19.8746 12.1484 20.6142 12.3839C20.9841 12.5185 21.3875 12.5521 21.791 12.5185C22.1944 12.4848 22.5306 12.3839 22.8668 12.2157Z" fill="#E5332A"/>
<path d="M32.5181 6.49627C32.3836 5.72254 31.9801 5.04973 31.3413 4.57876C30.7025 4.10779 29.9293 3.93959 29.156 4.07415C28.3827 4.20871 27.6766 4.64604 27.2396 5.28521C26.7689 5.92438 26.6008 6.69811 26.7353 7.47185C26.9706 8.98567 28.3827 10.0622 29.9293 9.92761C29.9965 9.92761 30.0637 9.92761 30.0974 9.89397C31.7112 9.5912 32.7871 8.07738 32.5181 6.49627Z" fill="#E5332A"/>
<path d="M41.1918 7.37134C41.4271 5.79023 40.3512 4.27641 38.7374 4.04092C37.9641 3.90636 37.1572 4.1082 36.5521 4.57917C35.9133 5.05014 35.5098 5.72295 35.4089 6.49668C35.1736 8.07779 36.2831 9.59162 37.8633 9.8271C38.0986 9.86074 38.3676 9.86074 38.6029 9.86074C39.9142 9.72618 40.99 8.71696 41.1918 7.37134Z" fill="#D9D9D9"/>
<path d="M48.9285 10.8363C49.6682 9.38975 49.063 7.64045 47.6173 6.90035L47.5837 6.86671C46.8776 6.53031 46.0707 6.49667 45.3647 6.73215C44.625 6.96764 44.0198 7.50588 43.6836 8.21234C42.9776 9.65888 43.5491 11.4082 44.9948 12.1483C45.4991 12.3838 46.0371 12.5183 46.6086 12.451C47.5836 12.3501 48.4578 11.7446 48.9285 10.8363Z" fill="#D9D9D9"/>
<path d="M53.5319 17.4298C54.2043 17.3625 54.8431 17.0597 55.3138 16.5888C56.4569 15.445 56.4233 13.5948 55.2802 12.451C54.7086 11.9127 53.969 11.5763 53.162 11.61C52.3888 11.61 51.6491 11.9464 51.1112 12.4846C50.0017 13.6284 50.0017 15.4786 51.1448 16.6224C51.8172 17.2279 52.6577 17.5307 53.5319 17.4298Z" fill="#D9D9D9"/>
<path d="M55.717 22.7451C56.2885 23.8216 57.398 24.4272 58.6084 24.3262C58.9782 24.2926 59.3481 24.1917 59.6843 24.0235C61.13 23.2834 61.6679 21.5004 60.9282 20.0539C60.5584 19.3474 59.9196 18.8428 59.18 18.6073C58.4403 18.3719 57.6334 18.4391 56.961 18.8092C55.5153 19.5493 54.9773 21.2986 55.717 22.7451Z" fill="#D9D9D9"/>
<path d="M63.8863 29.0027C63.7518 28.229 63.3148 27.5225 62.676 27.0852C62.0372 26.6478 61.2639 26.446 60.4906 26.6142C59.7173 26.7488 59.0449 27.1861 58.5742 27.8253C58.1371 28.4644 57.969 29.2382 58.0699 29.9783C58.2044 30.752 58.6078 31.4248 59.2466 31.8958C59.8182 32.2995 60.5242 32.5013 61.2303 32.434C61.2975 32.434 61.3647 32.434 61.432 32.4004C62.2053 32.2658 62.8777 31.8285 63.3484 31.1893C63.8527 30.5501 64.0208 29.7764 63.8863 29.0027Z" fill="#93C01F"/>
<path d="M63.382 36.5378C62.9113 35.8986 62.2389 35.495 61.4656 35.394C59.8854 35.1586 58.4061 36.2687 58.1707 37.8834C58.0699 38.6572 58.238 39.4309 58.7087 40.0701C59.1794 40.7092 59.8518 41.1129 60.6587 41.2139C60.894 41.2475 61.1294 41.2475 61.3647 41.2139C62.7096 41.0793 63.7854 40.0701 63.9872 38.7245C64.0544 37.9844 63.8527 37.177 63.382 36.5378Z" fill="#93C01F"/>
<path d="M35.1271 20.589C34.8786 20.2202 34.4571 20 34 20C33.5429 20 33.1214 20.2202 32.8727 20.589C30.2049 24.5455 24 34.2061 24 38.4493C24 43.3398 27.8077 47.4442 32.8573 47.9964C32.8793 47.9987 32.9011 48 32.9227 48C33.209 48 33.456 47.7932 33.4891 47.5134C33.5249 47.2124 33.2997 46.9406 32.9865 46.9062C28.5143 46.4171 25.1418 42.7814 25.1418 38.4493C25.1418 36.7658 26.3605 33.6834 28.6661 29.5355C30.5662 26.1171 32.7177 22.8367 33.831 21.1856C33.8828 21.1087 33.9591 21.0972 34 21.0972C34.0409 21.0972 34.1172 21.1087 34.169 21.1856C35.2823 22.8367 37.4338 26.1171 39.3339 29.5355C41.6395 33.6834 42.8582 36.7658 42.8582 38.4493C42.8582 41.8466 40.8132 44.855 37.6123 46.2244C37.3027 45.7768 36.87 44.9065 37.491 44.1407C38.229 43.2307 38.3713 42.4875 37.8931 42.0453L37.858 42.0107C38.1872 41.5981 38.4311 41.1181 38.5665 40.5911C38.9442 39.1193 38.7025 37.7991 37.8673 36.773C36.4794 35.0681 33.4918 34.201 28.9871 34.1955C28.9869 34.1955 28.9867 34.1955 28.9864 34.1955C28.8328 34.1955 28.6857 34.2549 28.5783 34.3604C28.4707 34.4661 28.412 34.609 28.4155 34.7569C28.4213 34.9878 28.5858 40.4386 31.4977 42.6479C32.3029 43.2589 33.233 43.5656 34.2739 43.5656C34.6647 43.5656 35.0713 43.5222 35.4926 43.4357C36.0493 43.321 36.5592 43.1029 37.001 42.8026C36.9487 42.9457 36.8149 43.1896 36.5904 43.4665C35.4239 44.905 36.3525 46.5796 37.0063 47.2641C37.1657 47.4309 37.4151 47.4862 37.6343 47.404C39.4891 46.7084 41.0726 45.5077 42.214 43.9313C43.3824 42.3176 44 40.4219 44 38.4493C44 34.2061 37.7949 24.5455 35.1271 20.589ZM36.4754 36.9689C37.4872 37.7967 37.8169 38.9244 37.4554 40.3322C37.3749 40.6454 37.2377 40.9408 37.0508 41.2064C36.9912 41.1476 36.9294 41.0887 36.8605 41.0256L36.11 40.2668L36.4754 36.9689ZM35.3999 36.3135L35.0733 39.2613L32.7059 36.9239C32.4861 36.7066 32.1246 36.7021 31.8985 36.9134C31.6726 37.1247 31.6677 37.472 31.8876 37.6891L32.617 38.4092L30.1402 38.3088C29.793 37.1159 29.6505 35.9606 29.5936 35.299C32.0872 35.3492 34.0471 35.6945 35.3999 36.3135ZM35.2536 42.3627C34.0425 42.6118 33.0458 42.4238 32.2066 41.7878C31.4545 41.2177 30.9152 40.3531 30.5286 39.4226L33.7294 39.5525C33.7377 39.5527 33.7459 39.5529 33.7539 39.5529C33.7608 39.5529 33.7677 39.5523 33.7744 39.5518L36.2309 41.9773C35.9392 42.1572 35.6098 42.2894 35.2536 42.3627Z" fill="#93C01F"/>
<path d="M35.4773 46.9496L35.4613 46.9398C35.1968 46.7751 34.8433 46.8477 34.6719 47.1019C34.5005 47.3561 34.5761 47.6958 34.8406 47.8605L34.8564 47.8705C34.9524 47.9301 35.0598 47.9588 35.1663 47.9588C35.3533 47.9588 35.5367 47.8705 35.6458 47.7084C35.8174 47.4542 35.7419 47.1143 35.4773 46.9496Z" fill="#93C01F"/>
<path d="M37.3322 28.2563C37.1715 27.9957 36.8213 27.9094 36.5501 28.0638C36.2789 28.2183 36.1891 28.5548 36.3498 28.8154C37.0548 29.9593 37.8404 31.3111 38.3217 32.6651C38.4026 32.893 38.6245 33.0366 38.8619 33.0366C38.9231 33.0366 38.9853 33.027 39.0464 33.0069C39.3448 32.909 39.504 32.5971 39.4021 32.3105C38.8873 30.8621 38.0669 29.4481 37.3322 28.2563Z" fill="#93C01F"/>
<path d="M39.3919 34.9594L39.4077 34.9692C39.5037 35.0288 39.6113 35.0574 39.7176 35.0574C39.9047 35.0574 40.0879 34.9692 40.1973 34.807C40.3687 34.5528 40.2931 34.2132 40.0286 34.0483L40.0128 34.0384C39.748 33.8739 39.3948 33.9464 39.2231 34.2006C39.0517 34.4548 39.1273 34.7944 39.3919 34.9594Z" fill="#93C01F"/>
</svg>
