<svg width="560" height="536" viewBox="0 0 560 536" fill="none" xmlns="http://www.w3.org/2000/svg">
<path d="M0 20C0 8.9543 8.9543 0 20 0H480C491.046 0 500 8.9543 500 20V456C500 467.046 491.046 476 480 476H20C8.95432 476 0 467.046 0 456V20Z" fill="url(#paint0_linear_185_2982)"/>
<path d="M549.105 469.35C548.242 466.636 546.393 464.416 543.804 463.059C538.627 460.345 532.093 462.442 529.381 467.623C528.025 470.213 527.778 473.05 528.641 475.887C529.504 478.601 531.353 480.821 533.942 482.178C535.791 483.165 537.887 483.535 539.983 483.412C543.558 483.042 546.763 480.945 548.489 477.738C549.722 475.024 549.968 472.064 549.105 469.35Z" fill="#93C01F"/>
<path d="M520.258 486.989H520.135C517.423 486.989 514.711 488.099 512.738 490.073C510.643 492.046 509.533 494.76 509.533 497.597C509.533 500.434 510.643 503.148 512.615 505.245C514.957 507.588 518.039 508.698 521.368 508.452C523.833 508.205 526.052 507.095 527.778 505.491C529.874 503.518 530.983 500.681 530.983 497.844C530.983 495.007 529.874 492.293 527.902 490.196C525.806 488.099 523.094 486.989 520.258 486.989Z" fill="#93C01F"/>
<path d="M490.056 506.232C487.343 507.588 485.494 509.809 484.508 512.522C483.645 515.236 483.768 518.196 485.125 520.787C486.357 523.377 488.576 525.351 491.412 526.214C492.891 526.708 494.37 526.831 495.85 526.708C497.206 526.584 498.438 526.214 499.548 525.597C502.137 524.364 504.109 522.02 504.972 519.307C505.835 516.593 505.588 513.633 504.356 511.166C501.644 505.738 495.233 503.641 490.056 506.232Z" fill="#FFEC00"/>
<path d="M471.192 516.592C468.85 514.989 466.138 514.249 463.303 514.619C457.385 515.482 453.44 521.033 454.303 526.83C455.166 532.504 460.344 536.452 466.015 535.958C466.138 535.958 466.385 535.958 466.508 535.835C469.343 535.465 471.932 533.861 473.658 531.518C475.384 529.174 476 526.337 475.63 523.5C475.014 520.786 473.535 518.196 471.192 516.592Z" fill="#FFEC00"/>
<path d="M435.937 514.496C433.101 514.003 430.266 514.743 427.924 516.346C425.581 518.073 424.102 520.54 423.609 523.377C423.116 526.214 423.856 529.051 425.458 531.395C427.184 533.739 429.65 535.219 432.485 535.712C433.471 535.836 434.334 535.835 435.32 535.835C437.293 535.589 439.019 534.972 440.621 533.862C442.964 532.135 444.443 529.668 444.936 526.831C445.676 521.034 441.731 515.483 435.937 514.496Z" fill="#FFEC00"/>
<path d="M413.993 511.782C413.13 509.068 411.281 506.848 408.692 505.615C406.103 504.258 403.268 504.011 400.433 504.875C397.72 505.738 395.501 507.588 394.145 510.179C392.789 512.769 392.543 515.606 393.406 518.443C394.269 521.157 396.118 523.377 398.707 524.734C400.556 525.721 402.652 526.091 404.747 525.844C405.487 525.721 406.227 525.597 406.966 525.35C409.678 524.487 411.897 522.513 413.13 520.046C414.733 517.456 414.979 514.619 413.993 511.782Z" fill="#FFEC00"/>
<path d="M378.611 485.879C375.776 485.879 373.064 486.989 371.091 488.963C368.996 491.06 367.886 493.773 367.886 496.61C367.886 499.447 368.996 502.161 370.968 504.135C372.941 506.232 375.776 507.342 378.735 507.342C379.104 507.342 379.351 507.342 379.721 507.342C382.186 507.095 384.529 505.985 386.255 504.258C390.446 500.064 390.446 493.28 386.255 489.086C384.282 486.989 381.57 485.879 378.611 485.879Z" fill="#F29100"/>
<path d="M369.983 466.389C368.627 463.799 366.408 461.949 363.696 460.962C360.984 460.099 358.026 460.345 355.437 461.579C352.848 462.812 350.999 465.033 350.013 467.87C349.15 470.583 349.273 473.544 350.629 476.011C351.862 478.601 354.204 480.575 356.916 481.438C358.272 481.932 359.751 482.055 361.231 481.932C362.587 481.808 363.943 481.438 365.052 480.821C370.477 478.108 372.572 471.694 369.983 466.389Z" fill="#F29100"/>
<path d="M352.479 452.081C358.273 451.094 362.341 445.667 361.355 439.869C360.985 436.909 359.506 434.442 357.164 432.715C354.821 430.988 351.986 430.371 349.151 430.741C346.315 431.235 343.726 432.715 342.124 435.059C340.398 437.402 339.782 440.239 340.275 442.953C340.768 445.79 342.247 448.38 344.589 450.107C346.685 451.587 349.274 452.328 351.863 452.081C352.109 452.081 352.356 452.081 352.479 452.081Z" fill="#F29100"/>
<path d="M349.149 420.75C350.135 420.874 350.998 420.997 351.861 420.874C353.834 420.627 355.56 420.01 357.162 418.777C359.381 417.05 360.984 414.583 361.354 411.746C362.34 405.948 358.272 400.398 352.478 399.411C346.684 398.424 341.136 402.495 340.15 408.292C339.657 411.129 340.397 414.089 342.122 416.433C343.848 418.9 346.437 420.38 349.149 420.75Z" fill="#F29100"/>
<path d="M355.683 389.913C357.532 390.776 359.505 391.27 361.6 391.023C365.299 390.653 368.504 388.433 370.107 385.226L370.23 385.102C372.819 379.798 370.723 373.507 365.422 370.794C360.121 368.08 353.711 370.177 350.999 375.481C349.642 378.071 349.519 381.032 350.382 383.745C351.245 386.459 353.218 388.679 355.683 389.913Z" fill="#E5332A"/>
<path d="M379.97 365.737C382.435 365.49 384.778 364.38 386.504 362.653C388.599 360.556 389.709 357.966 389.709 355.005C389.709 352.168 388.599 349.455 386.504 347.358C384.531 345.384 381.819 344.274 378.984 344.274C376.148 344.274 373.436 345.384 371.34 347.481C369.368 349.455 368.135 352.292 368.135 355.252C368.135 358.089 369.245 360.803 371.34 362.776C373.683 364.873 376.765 365.983 379.97 365.737Z" fill="#E5332A"/>
<path d="M409.185 346.124C411.774 344.767 413.623 342.547 414.486 339.833C415.349 337.119 415.102 334.159 413.869 331.569C412.513 329.102 410.294 327.128 407.582 326.265C404.87 325.401 401.911 325.648 399.323 326.881C396.734 328.238 394.761 330.458 393.898 333.295C393.035 336.009 393.282 338.97 394.638 341.437C395.994 344.027 398.213 345.877 400.925 346.741C402.281 347.234 403.761 347.357 405.24 347.234C406.719 347.111 407.952 346.741 409.185 346.124Z" fill="#E5332A"/>
<path d="M444.566 325.155C444.073 322.318 442.593 319.851 440.251 318.124C437.909 316.397 435.073 315.78 432.238 316.274C429.403 316.767 426.814 318.371 425.211 320.714C423.485 323.058 422.869 325.895 423.362 328.732C424.225 334.283 429.403 338.23 435.073 337.737C435.32 337.737 435.567 337.737 435.69 337.613C441.607 336.503 445.552 330.952 444.566 325.155Z" fill="#E5332A"/>
<path d="M476.371 328.362C477.234 322.564 473.289 317.013 467.372 316.15C464.536 315.657 461.578 316.397 459.359 318.124C457.016 319.851 455.537 322.318 455.167 325.155C454.304 330.952 458.372 336.503 464.167 337.366C465.029 337.489 466.016 337.489 466.879 337.489C471.686 336.996 475.631 333.296 476.371 328.362Z" fill="#D9D9D9"/>
<path d="M504.725 341.066C507.438 335.762 505.219 329.348 499.918 326.635L499.794 326.511C497.206 325.278 494.247 325.154 491.658 326.018C488.946 326.881 486.727 328.855 485.494 331.445C482.905 336.749 485.001 343.163 490.302 345.877C492.151 346.741 494.124 347.234 496.219 346.987C499.794 346.617 503 344.397 504.725 341.066Z" fill="#D9D9D9"/>
<path d="M521.613 365.243C524.079 364.996 526.421 363.886 528.147 362.159C532.339 357.965 532.215 351.181 528.024 346.987C525.928 345.014 523.216 343.78 520.257 343.903C517.422 343.903 514.71 345.137 512.738 347.111C508.669 351.304 508.669 358.089 512.861 362.283C515.326 364.503 518.408 365.613 521.613 365.243Z" fill="#D9D9D9"/>
<path d="M529.628 384.733C531.724 388.68 535.792 390.9 540.23 390.53C541.586 390.407 542.942 390.037 544.175 389.42C549.475 386.706 551.448 380.169 548.736 374.865C547.38 372.274 545.037 370.424 542.325 369.561C539.613 368.697 536.655 368.944 534.189 370.301C528.888 373.015 526.916 379.429 529.628 384.733Z" fill="#D9D9D9"/>
<path d="M559.584 407.675C559.091 404.838 557.489 402.248 555.146 400.644C552.804 399.041 549.969 398.301 547.133 398.918C544.298 399.411 541.832 401.015 540.106 403.358C538.504 405.702 537.888 408.539 538.257 411.253C538.75 414.09 540.23 416.557 542.572 418.283C544.668 419.764 547.257 420.504 549.845 420.257C550.092 420.257 550.339 420.257 550.585 420.134C553.42 419.64 555.886 418.037 557.612 415.693C559.461 413.349 560.077 410.512 559.584 407.675Z" fill="#93C01F"/>
<path d="M557.735 435.306C556.009 432.962 553.543 431.482 550.708 431.112C544.914 430.248 539.49 434.319 538.627 440.24C538.257 443.077 538.873 445.914 540.599 448.257C542.325 450.601 544.791 452.081 547.749 452.451C548.612 452.575 549.475 452.575 550.338 452.451C555.269 451.958 559.214 448.257 559.954 443.323C560.2 440.61 559.46 437.649 557.735 435.306Z" fill="#93C01F"/>
<defs>
<linearGradient id="paint0_linear_185_2982" x1="172.863" y1="-110.275" x2="381.895" y2="524.677" gradientUnits="userSpaceOnUse">
<stop stop-color="#A2D126"/>
<stop offset="1" stop-color="#81B01B"/>
</linearGradient>
</defs>
</svg>
