<svg width="355" height="420" viewBox="0 0 355 420" fill="none" xmlns="http://www.w3.org/2000/svg">
<path d="M335 -8.74228e-07C346.046 -3.91405e-07 355 8.95431 355 20L355 340C355 351.046 346.046 360 335 360L40 360C28.9543 360 20 351.046 20 340L20 20C20 8.9543 28.9543 -1.42519e-05 40 -1.37691e-05L335 -8.74228e-07Z" fill="url(#paint0_linear_33_1105)"/>
<path d="M124.105 353.35C123.242 350.636 121.393 348.416 118.804 347.059C113.627 344.345 107.093 346.442 104.381 351.623C103.025 354.213 102.778 357.05 103.641 359.887C104.504 362.601 106.353 364.821 108.942 366.178C110.791 367.165 112.887 367.535 114.983 367.412C118.558 367.042 121.763 364.945 123.489 361.738C124.722 359.024 124.968 356.064 124.105 353.35Z" fill="#93C01F"/>
<path d="M95.2581 370.989H95.1348C92.4227 370.989 89.7106 372.099 87.7382 374.073C85.6425 376.046 84.533 378.76 84.533 381.597C84.533 384.434 85.6425 387.148 87.6149 389.245C89.9572 391.588 93.0391 392.698 96.3676 392.452C98.8331 392.205 101.052 391.095 102.778 389.491C104.874 387.518 105.983 384.681 105.983 381.844C105.983 379.007 104.874 376.293 102.901 374.196C100.806 372.099 98.0935 370.989 95.2581 370.989Z" fill="#93C01F"/>
<path d="M65.0553 390.232C62.3433 391.589 60.4941 393.809 59.5079 396.523C58.6449 399.236 58.7682 402.197 60.1243 404.787C61.357 407.377 63.576 409.351 66.4114 410.214C67.8907 410.708 69.37 410.831 70.8494 410.708C72.2054 410.584 73.4382 410.214 74.5477 409.598C77.1365 408.364 79.1089 406.021 79.9719 403.307C80.8348 400.593 80.5883 397.633 79.3555 395.166C76.6434 389.738 70.233 387.641 65.0553 390.232Z" fill="#FFEC00"/>
<path d="M46.1926 400.592C43.8503 398.989 41.1382 398.249 38.3028 398.619C32.3855 399.482 28.4407 405.033 29.3036 410.83C30.1665 416.504 35.3442 420.452 41.0149 419.958C41.1382 419.958 41.3848 419.958 41.508 419.835C44.3434 419.465 46.9322 417.861 48.6581 415.518C50.384 413.174 51.0004 410.337 50.6305 407.5C50.0142 404.786 48.5348 402.196 46.1926 400.592Z" fill="#FFEC00"/>
<path d="M10.9365 398.496C8.10114 398.003 5.26577 398.743 2.9235 400.346C0.581233 402.073 -0.898094 404.54 -1.3912 407.377C-1.88431 410.214 -1.14465 413.051 0.457955 415.395C2.18384 417.739 4.64938 419.219 7.48476 419.712C8.47097 419.836 9.33392 419.835 10.3201 419.835C12.2926 419.589 14.0184 418.972 15.6211 417.862C17.9633 416.135 19.4426 413.668 19.9358 410.831C20.6754 405.034 16.7306 399.483 10.9365 398.496Z" fill="#FFEC00"/>
<path d="M19.5658 209.155C19.0727 206.318 17.5934 203.851 15.2511 202.124C12.9088 200.397 10.0735 199.78 7.23809 200.274C4.40271 200.767 1.81388 202.371 0.211281 204.714C-1.5146 207.058 -2.13099 209.895 -1.63788 212.732C-0.774936 218.283 4.40271 222.23 10.0735 221.737C10.32 221.737 10.5666 221.737 10.6898 221.613C16.6071 220.503 20.552 214.952 19.5658 209.155Z" fill="#E5332A"/>
<path d="M51.371 212.362C52.2339 206.564 48.289 201.013 42.3717 200.15C39.5363 199.657 36.5777 200.397 34.3587 202.124C32.0164 203.851 30.5371 206.318 30.1673 209.155C29.3043 214.952 33.3725 220.503 39.1665 221.366C40.0294 221.489 41.0157 221.489 41.8786 221.489C46.6864 220.996 50.6313 217.296 51.371 212.362Z" fill="#D9D9D9"/>
<path d="M79.7254 225.066C82.4375 219.762 80.2185 213.348 74.9176 210.635L74.7943 210.511C72.2055 209.278 69.2468 209.154 66.658 210.018C63.9459 210.881 61.7269 212.855 60.4941 215.445C57.9053 220.749 60.001 227.163 65.302 229.877C67.1511 230.741 69.1236 231.234 71.2193 230.987C74.7943 230.617 77.9996 228.397 79.7254 225.066Z" fill="#D9D9D9"/>
<path d="M96.6135 249.243C99.079 248.996 101.421 247.886 103.147 246.159C107.339 241.965 107.215 235.181 103.024 230.987C100.928 229.014 98.2161 227.78 95.2574 227.903C92.4221 227.903 89.71 229.137 87.7375 231.111C83.6694 235.304 83.6694 242.089 87.8608 246.283C90.3263 248.503 93.4083 249.613 96.6135 249.243Z" fill="#D9D9D9"/>
<path d="M104.628 268.733C106.724 272.68 110.792 274.9 115.23 274.53C116.586 274.407 117.942 274.037 119.175 273.42C124.475 270.706 126.448 264.169 123.736 258.865C122.38 256.274 120.037 254.424 117.325 253.561C114.613 252.697 111.655 252.944 109.189 254.301C103.888 257.015 101.916 263.429 104.628 268.733Z" fill="#D9D9D9"/>
<path d="M134.584 291.675C134.091 288.838 132.488 286.248 130.146 284.644C127.804 283.041 124.968 282.301 122.133 282.918C119.298 283.411 116.832 285.015 115.106 287.358C113.504 289.702 112.887 292.539 113.257 295.253C113.75 298.09 115.23 300.557 117.572 302.283C119.668 303.764 122.256 304.504 124.845 304.257C125.092 304.257 125.338 304.257 125.585 304.134C128.42 303.64 130.886 302.037 132.612 299.693C134.461 297.349 135.077 294.512 134.584 291.675Z" fill="#93C01F"/>
<path d="M132.735 319.306C131.009 316.962 128.543 315.482 125.708 315.112C119.914 314.248 114.49 318.319 113.627 324.24C113.257 327.077 113.873 329.914 115.599 332.257C117.325 334.601 119.791 336.081 122.749 336.451C123.612 336.575 124.475 336.575 125.338 336.451C130.269 335.958 134.214 332.257 134.954 327.323C135.2 324.61 134.46 321.649 132.735 319.306Z" fill="#93C01F"/>
<defs>
<linearGradient id="paint0_linear_33_1105" x1="432.609" y1="124.462" x2="-16.2125" y2="268.889" gradientUnits="userSpaceOnUse">
<stop stop-color="#A2D126"/>
<stop offset="1" stop-color="#81B01B"/>
</linearGradient>
</defs>
</svg>
